G04 (created by PCBNEW (22-Jun-2014 BZR 4027)-stable) date Sat 02 Sep 2017 11:43:59 PM CDT*
%MOIN*%
G04 Gerber Fmt 3.4, Leading zero omitted, Abs format*
%FSLAX34Y34*%
G01*
G70*
G90*
G04 APERTURE LIST*
%ADD10C,0.00393701*%
%ADD11C,0.006*%
%ADD12C,0.008*%
%ADD13C,0.005*%
%ADD14C,0.012*%
%ADD15C,0.0001*%
G04 APERTURE END LIST*
G54D10*
G54D11*
X60428Y-32121D02*
X60428Y-31921D01*
X60428Y-31821D02*
X60442Y-31835D01*
X60428Y-31850D01*
X60414Y-31835D01*
X60428Y-31821D01*
X60428Y-31850D01*
X60285Y-31921D02*
X60285Y-32121D01*
X60285Y-31950D02*
X60271Y-31935D01*
X60242Y-31921D01*
X60200Y-31921D01*
X60171Y-31935D01*
X60157Y-31964D01*
X60157Y-32121D01*
X60028Y-32107D02*
X60000Y-32121D01*
X59942Y-32121D01*
X59914Y-32107D01*
X59900Y-32078D01*
X59900Y-32064D01*
X59914Y-32035D01*
X59942Y-32021D01*
X59985Y-32021D01*
X60014Y-32007D01*
X60028Y-31978D01*
X60028Y-31964D01*
X60014Y-31935D01*
X59985Y-31921D01*
X59942Y-31921D01*
X59914Y-31935D01*
X59657Y-32107D02*
X59685Y-32121D01*
X59742Y-32121D01*
X59771Y-32107D01*
X59785Y-32078D01*
X59785Y-31964D01*
X59771Y-31935D01*
X59742Y-31921D01*
X59685Y-31921D01*
X59657Y-31935D01*
X59642Y-31964D01*
X59642Y-31992D01*
X59785Y-32021D01*
X59514Y-32121D02*
X59514Y-31921D01*
X59514Y-31978D02*
X59500Y-31950D01*
X59485Y-31935D01*
X59457Y-31921D01*
X59428Y-31921D01*
X59371Y-31921D02*
X59257Y-31921D01*
X59328Y-31821D02*
X59328Y-32078D01*
X59314Y-32107D01*
X59285Y-32121D01*
X59257Y-32121D01*
X58928Y-32121D02*
X58928Y-31821D01*
X58928Y-31935D02*
X58900Y-31921D01*
X58842Y-31921D01*
X58814Y-31935D01*
X58800Y-31950D01*
X58785Y-31978D01*
X58785Y-32064D01*
X58800Y-32092D01*
X58814Y-32107D01*
X58842Y-32121D01*
X58900Y-32121D01*
X58928Y-32107D01*
X58685Y-31921D02*
X58614Y-32121D01*
X58542Y-31921D02*
X58614Y-32121D01*
X58642Y-32192D01*
X58657Y-32207D01*
X58685Y-32221D01*
X58200Y-31921D02*
X58200Y-32221D01*
X58200Y-31935D02*
X58171Y-31921D01*
X58114Y-31921D01*
X58085Y-31935D01*
X58071Y-31950D01*
X58057Y-31978D01*
X58057Y-32064D01*
X58071Y-32092D01*
X58085Y-32107D01*
X58114Y-32121D01*
X58171Y-32121D01*
X58200Y-32107D01*
X57800Y-31921D02*
X57800Y-32121D01*
X57928Y-31921D02*
X57928Y-32078D01*
X57914Y-32107D01*
X57885Y-32121D01*
X57842Y-32121D01*
X57814Y-32107D01*
X57800Y-32092D01*
X57671Y-32107D02*
X57642Y-32121D01*
X57585Y-32121D01*
X57557Y-32107D01*
X57542Y-32078D01*
X57542Y-32064D01*
X57557Y-32035D01*
X57585Y-32021D01*
X57628Y-32021D01*
X57657Y-32007D01*
X57671Y-31978D01*
X57671Y-31964D01*
X57657Y-31935D01*
X57628Y-31921D01*
X57585Y-31921D01*
X57557Y-31935D01*
X57414Y-32121D02*
X57414Y-31821D01*
X57285Y-32121D02*
X57285Y-31964D01*
X57300Y-31935D01*
X57328Y-31921D01*
X57371Y-31921D01*
X57400Y-31935D01*
X57414Y-31950D01*
X57142Y-32121D02*
X57142Y-31921D01*
X57142Y-31821D02*
X57157Y-31835D01*
X57142Y-31850D01*
X57128Y-31835D01*
X57142Y-31821D01*
X57142Y-31850D01*
X57000Y-31921D02*
X57000Y-32121D01*
X57000Y-31950D02*
X56985Y-31935D01*
X56957Y-31921D01*
X56914Y-31921D01*
X56885Y-31935D01*
X56871Y-31964D01*
X56871Y-32121D01*
X56600Y-31921D02*
X56600Y-32164D01*
X56614Y-32192D01*
X56628Y-32207D01*
X56657Y-32221D01*
X56700Y-32221D01*
X56728Y-32207D01*
X56600Y-32107D02*
X56628Y-32121D01*
X56685Y-32121D01*
X56714Y-32107D01*
X56728Y-32092D01*
X56742Y-32064D01*
X56742Y-31978D01*
X56728Y-31950D01*
X56714Y-31935D01*
X56685Y-31921D01*
X56628Y-31921D01*
X56600Y-31935D01*
X56271Y-31921D02*
X56157Y-31921D01*
X56228Y-31821D02*
X56228Y-32078D01*
X56214Y-32107D01*
X56185Y-32121D01*
X56157Y-32121D01*
X56057Y-32121D02*
X56057Y-31821D01*
X55928Y-32121D02*
X55928Y-31964D01*
X55942Y-31935D01*
X55971Y-31921D01*
X56014Y-31921D01*
X56042Y-31935D01*
X56057Y-31950D01*
X55671Y-32107D02*
X55700Y-32121D01*
X55757Y-32121D01*
X55785Y-32107D01*
X55800Y-32078D01*
X55800Y-31964D01*
X55785Y-31935D01*
X55757Y-31921D01*
X55700Y-31921D01*
X55671Y-31935D01*
X55657Y-31964D01*
X55657Y-31992D01*
X55800Y-32021D01*
X55171Y-32107D02*
X55200Y-32121D01*
X55257Y-32121D01*
X55285Y-32107D01*
X55300Y-32092D01*
X55314Y-32064D01*
X55314Y-31978D01*
X55300Y-31950D01*
X55285Y-31935D01*
X55257Y-31921D01*
X55200Y-31921D01*
X55171Y-31935D01*
X55000Y-32121D02*
X55028Y-32107D01*
X55042Y-32092D01*
X55057Y-32064D01*
X55057Y-31978D01*
X55042Y-31950D01*
X55028Y-31935D01*
X55000Y-31921D01*
X54957Y-31921D01*
X54928Y-31935D01*
X54914Y-31950D01*
X54900Y-31978D01*
X54900Y-32064D01*
X54914Y-32092D01*
X54928Y-32107D01*
X54957Y-32121D01*
X55000Y-32121D01*
X54771Y-31921D02*
X54771Y-32121D01*
X54771Y-31950D02*
X54757Y-31935D01*
X54728Y-31921D01*
X54685Y-31921D01*
X54657Y-31935D01*
X54642Y-31964D01*
X54642Y-32121D01*
X54500Y-31921D02*
X54500Y-32121D01*
X54500Y-31950D02*
X54485Y-31935D01*
X54457Y-31921D01*
X54414Y-31921D01*
X54385Y-31935D01*
X54371Y-31964D01*
X54371Y-32121D01*
X54114Y-32107D02*
X54142Y-32121D01*
X54200Y-32121D01*
X54228Y-32107D01*
X54242Y-32078D01*
X54242Y-31964D01*
X54228Y-31935D01*
X54200Y-31921D01*
X54142Y-31921D01*
X54114Y-31935D01*
X54100Y-31964D01*
X54100Y-31992D01*
X54242Y-32021D01*
X53842Y-32107D02*
X53871Y-32121D01*
X53928Y-32121D01*
X53957Y-32107D01*
X53971Y-32092D01*
X53985Y-32064D01*
X53985Y-31978D01*
X53971Y-31950D01*
X53957Y-31935D01*
X53928Y-31921D01*
X53871Y-31921D01*
X53842Y-31935D01*
X53757Y-31921D02*
X53642Y-31921D01*
X53714Y-31821D02*
X53714Y-32078D01*
X53700Y-32107D01*
X53671Y-32121D01*
X53642Y-32121D01*
X53499Y-32121D02*
X53528Y-32107D01*
X53542Y-32092D01*
X53557Y-32064D01*
X53557Y-31978D01*
X53542Y-31950D01*
X53528Y-31935D01*
X53499Y-31921D01*
X53457Y-31921D01*
X53428Y-31935D01*
X53414Y-31950D01*
X53399Y-31978D01*
X53399Y-32064D01*
X53414Y-32092D01*
X53428Y-32107D01*
X53457Y-32121D01*
X53499Y-32121D01*
X53271Y-32121D02*
X53271Y-31921D01*
X53271Y-31978D02*
X53257Y-31950D01*
X53242Y-31935D01*
X53214Y-31921D01*
X53185Y-31921D01*
X53071Y-32107D02*
X53071Y-32121D01*
X53085Y-32150D01*
X53099Y-32164D01*
X52714Y-31921D02*
X52714Y-32121D01*
X52714Y-31950D02*
X52700Y-31935D01*
X52671Y-31921D01*
X52628Y-31921D01*
X52600Y-31935D01*
X52585Y-31964D01*
X52585Y-32121D01*
X52399Y-32121D02*
X52428Y-32107D01*
X52442Y-32092D01*
X52457Y-32064D01*
X52457Y-31978D01*
X52442Y-31950D01*
X52428Y-31935D01*
X52399Y-31921D01*
X52357Y-31921D01*
X52328Y-31935D01*
X52314Y-31950D01*
X52299Y-31978D01*
X52299Y-32064D01*
X52314Y-32092D01*
X52328Y-32107D01*
X52357Y-32121D01*
X52399Y-32121D01*
X52214Y-31921D02*
X52099Y-31921D01*
X52171Y-31821D02*
X52171Y-32078D01*
X52157Y-32107D01*
X52128Y-32121D01*
X52099Y-32121D01*
X51814Y-31921D02*
X51699Y-31921D01*
X51771Y-31821D02*
X51771Y-32078D01*
X51757Y-32107D01*
X51728Y-32121D01*
X51699Y-32121D01*
X51599Y-32121D02*
X51599Y-31821D01*
X51471Y-32121D02*
X51471Y-31964D01*
X51485Y-31935D01*
X51514Y-31921D01*
X51557Y-31921D01*
X51585Y-31935D01*
X51599Y-31950D01*
X51214Y-32107D02*
X51242Y-32121D01*
X51299Y-32121D01*
X51328Y-32107D01*
X51342Y-32078D01*
X51342Y-31964D01*
X51328Y-31935D01*
X51299Y-31921D01*
X51242Y-31921D01*
X51214Y-31935D01*
X51199Y-31964D01*
X51199Y-31992D01*
X51342Y-32021D01*
X50842Y-32121D02*
X50842Y-31821D01*
X50842Y-31935D02*
X50814Y-31921D01*
X50757Y-31921D01*
X50728Y-31935D01*
X50714Y-31950D01*
X50699Y-31978D01*
X50699Y-32064D01*
X50714Y-32092D01*
X50728Y-32107D01*
X50757Y-32121D01*
X50814Y-32121D01*
X50842Y-32107D01*
X50528Y-32121D02*
X50557Y-32107D01*
X50571Y-32092D01*
X50585Y-32064D01*
X50585Y-31978D01*
X50571Y-31950D01*
X50557Y-31935D01*
X50528Y-31921D01*
X50485Y-31921D01*
X50457Y-31935D01*
X50442Y-31950D01*
X50428Y-31978D01*
X50428Y-32064D01*
X50442Y-32092D01*
X50457Y-32107D01*
X50485Y-32121D01*
X50528Y-32121D01*
X50171Y-32121D02*
X50171Y-31964D01*
X50185Y-31935D01*
X50214Y-31921D01*
X50271Y-31921D01*
X50299Y-31935D01*
X50171Y-32107D02*
X50199Y-32121D01*
X50271Y-32121D01*
X50299Y-32107D01*
X50314Y-32078D01*
X50314Y-32050D01*
X50299Y-32021D01*
X50271Y-32007D01*
X50199Y-32007D01*
X50171Y-31992D01*
X50028Y-32121D02*
X50028Y-31921D01*
X50028Y-31978D02*
X50014Y-31950D01*
X49999Y-31935D01*
X49971Y-31921D01*
X49942Y-31921D01*
X49714Y-32121D02*
X49714Y-31821D01*
X49714Y-32107D02*
X49742Y-32121D01*
X49799Y-32121D01*
X49828Y-32107D01*
X49842Y-32092D01*
X49857Y-32064D01*
X49857Y-31978D01*
X49842Y-31950D01*
X49828Y-31935D01*
X49799Y-31921D01*
X49742Y-31921D01*
X49714Y-31935D01*
X49571Y-32092D02*
X49557Y-32107D01*
X49571Y-32121D01*
X49585Y-32107D01*
X49571Y-32092D01*
X49571Y-32121D01*
X49571Y-32007D02*
X49585Y-31835D01*
X49571Y-31821D01*
X49557Y-31835D01*
X49571Y-32007D01*
X49571Y-31821D01*
G54D12*
X60285Y-33145D02*
X60285Y-33469D01*
X60304Y-33507D01*
X60323Y-33526D01*
X60361Y-33545D01*
X60419Y-33545D01*
X60457Y-33526D01*
X60285Y-33392D02*
X60323Y-33411D01*
X60399Y-33411D01*
X60438Y-33392D01*
X60457Y-33373D01*
X60476Y-33335D01*
X60476Y-33221D01*
X60457Y-33183D01*
X60438Y-33164D01*
X60399Y-33145D01*
X60323Y-33145D01*
X60285Y-33164D01*
X60095Y-33411D02*
X60095Y-33145D01*
X60095Y-33011D02*
X60114Y-33030D01*
X60095Y-33050D01*
X60076Y-33030D01*
X60095Y-33011D01*
X60095Y-33050D01*
X59961Y-33145D02*
X59809Y-33145D01*
X59904Y-33011D02*
X59904Y-33354D01*
X59885Y-33392D01*
X59847Y-33411D01*
X59809Y-33411D01*
X59676Y-33411D02*
X59676Y-33011D01*
X59504Y-33411D02*
X59504Y-33202D01*
X59523Y-33164D01*
X59561Y-33145D01*
X59619Y-33145D01*
X59657Y-33164D01*
X59676Y-33183D01*
X59142Y-33145D02*
X59142Y-33411D01*
X59314Y-33145D02*
X59314Y-33354D01*
X59295Y-33392D01*
X59257Y-33411D01*
X59200Y-33411D01*
X59161Y-33392D01*
X59142Y-33373D01*
X58952Y-33411D02*
X58952Y-33011D01*
X58952Y-33164D02*
X58914Y-33145D01*
X58838Y-33145D01*
X58800Y-33164D01*
X58780Y-33183D01*
X58761Y-33221D01*
X58761Y-33335D01*
X58780Y-33373D01*
X58800Y-33392D01*
X58838Y-33411D01*
X58914Y-33411D01*
X58952Y-33392D01*
X58590Y-33373D02*
X58571Y-33392D01*
X58590Y-33411D01*
X58609Y-33392D01*
X58590Y-33373D01*
X58590Y-33411D01*
X58228Y-33392D02*
X58266Y-33411D01*
X58342Y-33411D01*
X58380Y-33392D01*
X58399Y-33373D01*
X58419Y-33335D01*
X58419Y-33221D01*
X58399Y-33183D01*
X58380Y-33164D01*
X58342Y-33145D01*
X58266Y-33145D01*
X58228Y-33164D01*
X57999Y-33411D02*
X58038Y-33392D01*
X58057Y-33373D01*
X58076Y-33335D01*
X58076Y-33221D01*
X58057Y-33183D01*
X58038Y-33164D01*
X57999Y-33145D01*
X57942Y-33145D01*
X57904Y-33164D01*
X57885Y-33183D01*
X57866Y-33221D01*
X57866Y-33335D01*
X57885Y-33373D01*
X57904Y-33392D01*
X57942Y-33411D01*
X57999Y-33411D01*
X57695Y-33411D02*
X57695Y-33145D01*
X57695Y-33183D02*
X57676Y-33164D01*
X57638Y-33145D01*
X57580Y-33145D01*
X57542Y-33164D01*
X57523Y-33202D01*
X57523Y-33411D01*
X57523Y-33202D02*
X57504Y-33164D01*
X57466Y-33145D01*
X57409Y-33145D01*
X57371Y-33164D01*
X57352Y-33202D01*
X57352Y-33411D01*
X56876Y-32992D02*
X57219Y-33507D01*
X56742Y-33145D02*
X56742Y-33545D01*
X56742Y-33164D02*
X56704Y-33145D01*
X56628Y-33145D01*
X56590Y-33164D01*
X56571Y-33183D01*
X56552Y-33221D01*
X56552Y-33335D01*
X56571Y-33373D01*
X56590Y-33392D01*
X56628Y-33411D01*
X56704Y-33411D01*
X56742Y-33392D01*
X56228Y-33392D02*
X56266Y-33411D01*
X56342Y-33411D01*
X56380Y-33392D01*
X56399Y-33354D01*
X56399Y-33202D01*
X56380Y-33164D01*
X56342Y-33145D01*
X56266Y-33145D01*
X56228Y-33164D01*
X56209Y-33202D01*
X56209Y-33240D01*
X56399Y-33278D01*
X56038Y-33145D02*
X56038Y-33545D01*
X56038Y-33164D02*
X55999Y-33145D01*
X55923Y-33145D01*
X55885Y-33164D01*
X55866Y-33183D01*
X55847Y-33221D01*
X55847Y-33335D01*
X55866Y-33373D01*
X55885Y-33392D01*
X55923Y-33411D01*
X55999Y-33411D01*
X56038Y-33392D01*
X55504Y-33411D02*
X55504Y-33202D01*
X55523Y-33164D01*
X55561Y-33145D01*
X55638Y-33145D01*
X55676Y-33164D01*
X55504Y-33392D02*
X55542Y-33411D01*
X55638Y-33411D01*
X55676Y-33392D01*
X55695Y-33354D01*
X55695Y-33316D01*
X55676Y-33278D01*
X55638Y-33259D01*
X55542Y-33259D01*
X55504Y-33240D01*
X55333Y-33392D02*
X55295Y-33411D01*
X55219Y-33411D01*
X55180Y-33392D01*
X55161Y-33354D01*
X55161Y-33335D01*
X55180Y-33297D01*
X55219Y-33278D01*
X55276Y-33278D01*
X55314Y-33259D01*
X55333Y-33221D01*
X55333Y-33202D01*
X55314Y-33164D01*
X55276Y-33145D01*
X55219Y-33145D01*
X55180Y-33164D01*
X54933Y-33411D02*
X54971Y-33392D01*
X54990Y-33354D01*
X54990Y-33011D01*
X54609Y-33411D02*
X54609Y-33202D01*
X54628Y-33164D01*
X54666Y-33145D01*
X54742Y-33145D01*
X54780Y-33164D01*
X54609Y-33392D02*
X54647Y-33411D01*
X54742Y-33411D01*
X54780Y-33392D01*
X54800Y-33354D01*
X54800Y-33316D01*
X54780Y-33278D01*
X54742Y-33259D01*
X54647Y-33259D01*
X54609Y-33240D01*
X54419Y-33411D02*
X54419Y-33011D01*
X54419Y-33164D02*
X54380Y-33145D01*
X54304Y-33145D01*
X54266Y-33164D01*
X54247Y-33183D01*
X54228Y-33221D01*
X54228Y-33335D01*
X54247Y-33373D01*
X54266Y-33392D01*
X54304Y-33411D01*
X54380Y-33411D01*
X54419Y-33392D01*
X54076Y-33392D02*
X54038Y-33411D01*
X53961Y-33411D01*
X53923Y-33392D01*
X53904Y-33354D01*
X53904Y-33335D01*
X53923Y-33297D01*
X53961Y-33278D01*
X54019Y-33278D01*
X54057Y-33259D01*
X54076Y-33221D01*
X54076Y-33202D01*
X54057Y-33164D01*
X54019Y-33145D01*
X53961Y-33145D01*
X53923Y-33164D01*
X53447Y-32992D02*
X53790Y-33507D01*
X53142Y-33411D02*
X53142Y-33202D01*
X53161Y-33164D01*
X53200Y-33145D01*
X53276Y-33145D01*
X53314Y-33164D01*
X53142Y-33392D02*
X53180Y-33411D01*
X53276Y-33411D01*
X53314Y-33392D01*
X53333Y-33354D01*
X53333Y-33316D01*
X53314Y-33278D01*
X53276Y-33259D01*
X53180Y-33259D01*
X53142Y-33240D01*
X53009Y-33145D02*
X52857Y-33145D01*
X52952Y-33011D02*
X52952Y-33354D01*
X52933Y-33392D01*
X52895Y-33411D01*
X52857Y-33411D01*
X52723Y-33411D02*
X52723Y-33145D01*
X52723Y-33183D02*
X52704Y-33164D01*
X52666Y-33145D01*
X52609Y-33145D01*
X52571Y-33164D01*
X52552Y-33202D01*
X52552Y-33411D01*
X52552Y-33202D02*
X52533Y-33164D01*
X52495Y-33145D01*
X52438Y-33145D01*
X52400Y-33164D01*
X52380Y-33202D01*
X52380Y-33411D01*
X52038Y-33392D02*
X52076Y-33411D01*
X52152Y-33411D01*
X52190Y-33392D01*
X52209Y-33354D01*
X52209Y-33202D01*
X52190Y-33164D01*
X52152Y-33145D01*
X52076Y-33145D01*
X52038Y-33164D01*
X52019Y-33202D01*
X52019Y-33240D01*
X52209Y-33278D01*
X51676Y-33145D02*
X51676Y-33469D01*
X51695Y-33507D01*
X51714Y-33526D01*
X51752Y-33545D01*
X51809Y-33545D01*
X51847Y-33526D01*
X51676Y-33392D02*
X51714Y-33411D01*
X51790Y-33411D01*
X51828Y-33392D01*
X51847Y-33373D01*
X51866Y-33335D01*
X51866Y-33221D01*
X51847Y-33183D01*
X51828Y-33164D01*
X51790Y-33145D01*
X51714Y-33145D01*
X51676Y-33164D01*
X51314Y-33411D02*
X51314Y-33202D01*
X51333Y-33164D01*
X51371Y-33145D01*
X51447Y-33145D01*
X51485Y-33164D01*
X51314Y-33392D02*
X51352Y-33411D01*
X51447Y-33411D01*
X51485Y-33392D01*
X51504Y-33354D01*
X51504Y-33316D01*
X51485Y-33278D01*
X51447Y-33259D01*
X51352Y-33259D01*
X51314Y-33240D01*
X51123Y-33259D02*
X50819Y-33259D01*
X50457Y-33145D02*
X50457Y-33469D01*
X50476Y-33507D01*
X50495Y-33526D01*
X50533Y-33545D01*
X50590Y-33545D01*
X50628Y-33526D01*
X50457Y-33392D02*
X50495Y-33411D01*
X50571Y-33411D01*
X50609Y-33392D01*
X50628Y-33373D01*
X50647Y-33335D01*
X50647Y-33221D01*
X50628Y-33183D01*
X50609Y-33164D01*
X50571Y-33145D01*
X50495Y-33145D01*
X50457Y-33164D01*
X50266Y-33145D02*
X50266Y-33545D01*
X50266Y-33164D02*
X50228Y-33145D01*
X50152Y-33145D01*
X50114Y-33164D01*
X50095Y-33183D01*
X50076Y-33221D01*
X50076Y-33335D01*
X50095Y-33373D01*
X50114Y-33392D01*
X50152Y-33411D01*
X50228Y-33411D01*
X50266Y-33392D01*
X49904Y-33411D02*
X49904Y-33145D01*
X49904Y-33011D02*
X49923Y-33030D01*
X49904Y-33050D01*
X49885Y-33030D01*
X49904Y-33011D01*
X49904Y-33050D01*
X49714Y-33411D02*
X49714Y-33011D01*
X49714Y-33164D02*
X49676Y-33145D01*
X49600Y-33145D01*
X49561Y-33164D01*
X49542Y-33183D01*
X49523Y-33221D01*
X49523Y-33335D01*
X49542Y-33373D01*
X49561Y-33392D01*
X49600Y-33411D01*
X49676Y-33411D01*
X49714Y-33392D01*
G54D13*
X64000Y-33696D02*
X64011Y-33684D01*
X64035Y-33648D01*
X64047Y-33625D01*
X64059Y-33589D01*
X64071Y-33529D01*
X64071Y-33482D01*
X64059Y-33422D01*
X64047Y-33386D01*
X64035Y-33363D01*
X64011Y-33327D01*
X64000Y-33315D01*
X63928Y-33434D02*
X63869Y-33601D01*
X63809Y-33434D01*
X63726Y-33375D02*
X63714Y-33363D01*
X63690Y-33351D01*
X63630Y-33351D01*
X63607Y-33363D01*
X63595Y-33375D01*
X63583Y-33398D01*
X63583Y-33422D01*
X63595Y-33458D01*
X63738Y-33601D01*
X63583Y-33601D01*
X63500Y-33696D02*
X63488Y-33684D01*
X63464Y-33648D01*
X63452Y-33625D01*
X63440Y-33589D01*
X63428Y-33529D01*
X63428Y-33482D01*
X63440Y-33422D01*
X63452Y-33386D01*
X63464Y-33363D01*
X63488Y-33327D01*
X63500Y-33315D01*
G54D14*
X66821Y-32321D02*
X66535Y-32321D01*
X66878Y-32492D02*
X66678Y-31892D01*
X66478Y-32492D01*
X66364Y-31892D02*
X66021Y-31892D01*
X66192Y-32492D02*
X66192Y-31892D01*
X65821Y-32492D02*
X65821Y-32092D01*
X65821Y-32150D02*
X65792Y-32121D01*
X65735Y-32092D01*
X65649Y-32092D01*
X65592Y-32121D01*
X65564Y-32178D01*
X65564Y-32492D01*
X65564Y-32178D02*
X65535Y-32121D01*
X65478Y-32092D01*
X65392Y-32092D01*
X65335Y-32121D01*
X65307Y-32178D01*
X65307Y-32492D01*
X64792Y-32464D02*
X64849Y-32492D01*
X64964Y-32492D01*
X65021Y-32464D01*
X65049Y-32407D01*
X65049Y-32178D01*
X65021Y-32121D01*
X64964Y-32092D01*
X64849Y-32092D01*
X64792Y-32121D01*
X64764Y-32178D01*
X64764Y-32235D01*
X65049Y-32292D01*
X64249Y-32092D02*
X64249Y-32578D01*
X64278Y-32635D01*
X64307Y-32664D01*
X64364Y-32692D01*
X64449Y-32692D01*
X64507Y-32664D01*
X64249Y-32464D02*
X64307Y-32492D01*
X64421Y-32492D01*
X64478Y-32464D01*
X64507Y-32435D01*
X64535Y-32378D01*
X64535Y-32207D01*
X64507Y-32150D01*
X64478Y-32121D01*
X64421Y-32092D01*
X64307Y-32092D01*
X64249Y-32121D01*
X63707Y-32492D02*
X63707Y-32178D01*
X63735Y-32121D01*
X63792Y-32092D01*
X63907Y-32092D01*
X63964Y-32121D01*
X63707Y-32464D02*
X63764Y-32492D01*
X63907Y-32492D01*
X63964Y-32464D01*
X63992Y-32407D01*
X63992Y-32350D01*
X63964Y-32292D01*
X63907Y-32264D01*
X63764Y-32264D01*
X63707Y-32235D01*
X65835Y-32881D02*
X65892Y-32852D01*
X65978Y-32852D01*
X66064Y-32881D01*
X66121Y-32938D01*
X66150Y-32995D01*
X66178Y-33110D01*
X66178Y-33195D01*
X66150Y-33310D01*
X66121Y-33367D01*
X66064Y-33424D01*
X65978Y-33452D01*
X65921Y-33452D01*
X65835Y-33424D01*
X65807Y-33395D01*
X65807Y-33195D01*
X65921Y-33195D01*
X65550Y-33452D02*
X65550Y-32852D01*
X65321Y-32852D01*
X65264Y-32881D01*
X65235Y-32910D01*
X65207Y-32967D01*
X65207Y-33052D01*
X65235Y-33110D01*
X65264Y-33138D01*
X65321Y-33167D01*
X65550Y-33167D01*
X64950Y-33452D02*
X64950Y-32852D01*
X64464Y-33138D02*
X64378Y-33167D01*
X64350Y-33195D01*
X64321Y-33252D01*
X64321Y-33338D01*
X64350Y-33395D01*
X64378Y-33424D01*
X64435Y-33452D01*
X64664Y-33452D01*
X64664Y-32852D01*
X64464Y-32852D01*
X64407Y-32881D01*
X64378Y-32910D01*
X64350Y-32967D01*
X64350Y-33024D01*
X64378Y-33081D01*
X64407Y-33110D01*
X64464Y-33138D01*
X64664Y-33138D01*
G54D15*
G36*
X65727Y-35957D02*
X65719Y-35953D01*
X65700Y-35941D01*
X65674Y-35924D01*
X65643Y-35903D01*
X65612Y-35882D01*
X65586Y-35865D01*
X65568Y-35853D01*
X65561Y-35849D01*
X65557Y-35850D01*
X65542Y-35858D01*
X65520Y-35869D01*
X65508Y-35875D01*
X65488Y-35884D01*
X65478Y-35886D01*
X65477Y-35883D01*
X65469Y-35868D01*
X65458Y-35842D01*
X65443Y-35808D01*
X65426Y-35768D01*
X65408Y-35725D01*
X65390Y-35681D01*
X65372Y-35639D01*
X65357Y-35601D01*
X65344Y-35571D01*
X65336Y-35549D01*
X65333Y-35540D01*
X65334Y-35538D01*
X65344Y-35529D01*
X65361Y-35516D01*
X65399Y-35485D01*
X65435Y-35439D01*
X65458Y-35387D01*
X65465Y-35329D01*
X65459Y-35276D01*
X65438Y-35225D01*
X65402Y-35178D01*
X65358Y-35144D01*
X65307Y-35122D01*
X65250Y-35115D01*
X65195Y-35121D01*
X65143Y-35142D01*
X65096Y-35177D01*
X65077Y-35200D01*
X65050Y-35247D01*
X65034Y-35297D01*
X65033Y-35309D01*
X65035Y-35365D01*
X65051Y-35418D01*
X65080Y-35465D01*
X65121Y-35504D01*
X65126Y-35508D01*
X65145Y-35522D01*
X65157Y-35531D01*
X65167Y-35539D01*
X65097Y-35709D01*
X65086Y-35736D01*
X65066Y-35782D01*
X65049Y-35822D01*
X65036Y-35854D01*
X65026Y-35875D01*
X65022Y-35884D01*
X65022Y-35884D01*
X65016Y-35885D01*
X65003Y-35880D01*
X64979Y-35869D01*
X64963Y-35861D01*
X64945Y-35852D01*
X64937Y-35849D01*
X64930Y-35853D01*
X64913Y-35864D01*
X64888Y-35881D01*
X64858Y-35901D01*
X64829Y-35921D01*
X64802Y-35939D01*
X64783Y-35951D01*
X64773Y-35956D01*
X64772Y-35956D01*
X64764Y-35951D01*
X64748Y-35939D01*
X64725Y-35917D01*
X64693Y-35885D01*
X64688Y-35880D01*
X64661Y-35852D01*
X64639Y-35829D01*
X64624Y-35813D01*
X64619Y-35806D01*
X64619Y-35806D01*
X64624Y-35796D01*
X64636Y-35777D01*
X64654Y-35750D01*
X64675Y-35719D01*
X64731Y-35637D01*
X64700Y-35560D01*
X64691Y-35537D01*
X64679Y-35508D01*
X64670Y-35488D01*
X64665Y-35479D01*
X64657Y-35476D01*
X64636Y-35471D01*
X64605Y-35464D01*
X64569Y-35458D01*
X64534Y-35451D01*
X64503Y-35445D01*
X64480Y-35441D01*
X64470Y-35439D01*
X64468Y-35437D01*
X64466Y-35432D01*
X64464Y-35422D01*
X64464Y-35403D01*
X64463Y-35373D01*
X64463Y-35329D01*
X64463Y-35325D01*
X64464Y-35283D01*
X64464Y-35250D01*
X64465Y-35229D01*
X64467Y-35221D01*
X64467Y-35221D01*
X64477Y-35218D01*
X64499Y-35214D01*
X64530Y-35207D01*
X64568Y-35200D01*
X64570Y-35200D01*
X64607Y-35193D01*
X64638Y-35186D01*
X64660Y-35181D01*
X64669Y-35178D01*
X64671Y-35176D01*
X64679Y-35161D01*
X64690Y-35138D01*
X64702Y-35110D01*
X64714Y-35081D01*
X64725Y-35054D01*
X64732Y-35035D01*
X64734Y-35026D01*
X64734Y-35026D01*
X64728Y-35017D01*
X64715Y-34997D01*
X64697Y-34971D01*
X64675Y-34939D01*
X64674Y-34936D01*
X64652Y-34905D01*
X64635Y-34878D01*
X64623Y-34859D01*
X64619Y-34851D01*
X64619Y-34850D01*
X64626Y-34841D01*
X64642Y-34823D01*
X64665Y-34799D01*
X64693Y-34771D01*
X64702Y-34763D01*
X64732Y-34733D01*
X64753Y-34713D01*
X64767Y-34703D01*
X64773Y-34700D01*
X64773Y-34701D01*
X64783Y-34706D01*
X64803Y-34719D01*
X64830Y-34738D01*
X64862Y-34759D01*
X64864Y-34761D01*
X64895Y-34782D01*
X64921Y-34800D01*
X64940Y-34812D01*
X64948Y-34817D01*
X64950Y-34817D01*
X64962Y-34813D01*
X64985Y-34806D01*
X65012Y-34795D01*
X65041Y-34783D01*
X65068Y-34772D01*
X65088Y-34763D01*
X65097Y-34758D01*
X65097Y-34757D01*
X65101Y-34746D01*
X65106Y-34722D01*
X65113Y-34690D01*
X65120Y-34651D01*
X65121Y-34645D01*
X65128Y-34608D01*
X65134Y-34577D01*
X65139Y-34555D01*
X65141Y-34546D01*
X65146Y-34545D01*
X65165Y-34544D01*
X65193Y-34543D01*
X65227Y-34543D01*
X65262Y-34543D01*
X65296Y-34544D01*
X65326Y-34545D01*
X65347Y-34546D01*
X65356Y-34548D01*
X65357Y-34549D01*
X65360Y-34560D01*
X65365Y-34584D01*
X65372Y-34616D01*
X65379Y-34655D01*
X65380Y-34662D01*
X65387Y-34699D01*
X65394Y-34730D01*
X65398Y-34751D01*
X65401Y-34759D01*
X65404Y-34761D01*
X65419Y-34768D01*
X65444Y-34778D01*
X65476Y-34791D01*
X65548Y-34820D01*
X65636Y-34759D01*
X65644Y-34754D01*
X65676Y-34732D01*
X65702Y-34715D01*
X65720Y-34703D01*
X65728Y-34699D01*
X65728Y-34699D01*
X65737Y-34707D01*
X65755Y-34723D01*
X65779Y-34747D01*
X65806Y-34774D01*
X65827Y-34795D01*
X65851Y-34820D01*
X65867Y-34836D01*
X65875Y-34847D01*
X65878Y-34854D01*
X65877Y-34858D01*
X65872Y-34867D01*
X65859Y-34886D01*
X65841Y-34913D01*
X65819Y-34944D01*
X65801Y-34971D01*
X65782Y-35000D01*
X65770Y-35021D01*
X65765Y-35032D01*
X65766Y-35036D01*
X65773Y-35053D01*
X65783Y-35080D01*
X65796Y-35111D01*
X65827Y-35181D01*
X65873Y-35189D01*
X65901Y-35195D01*
X65940Y-35202D01*
X65977Y-35209D01*
X66035Y-35221D01*
X66037Y-35433D01*
X66028Y-35437D01*
X66019Y-35440D01*
X65998Y-35444D01*
X65967Y-35450D01*
X65931Y-35457D01*
X65900Y-35463D01*
X65869Y-35469D01*
X65847Y-35473D01*
X65837Y-35475D01*
X65834Y-35479D01*
X65826Y-35494D01*
X65815Y-35518D01*
X65803Y-35547D01*
X65791Y-35576D01*
X65780Y-35604D01*
X65772Y-35625D01*
X65769Y-35636D01*
X65773Y-35644D01*
X65785Y-35662D01*
X65802Y-35688D01*
X65823Y-35719D01*
X65845Y-35750D01*
X65862Y-35777D01*
X65875Y-35796D01*
X65880Y-35804D01*
X65877Y-35810D01*
X65865Y-35825D01*
X65842Y-35849D01*
X65807Y-35884D01*
X65801Y-35889D01*
X65774Y-35916D01*
X65750Y-35937D01*
X65734Y-35952D01*
X65727Y-35957D01*
X65727Y-35957D01*
G37*
M02*
