G04 (created by PCBNEW (22-Jun-2014 BZR 4027)-stable) date Sat 02 Sep 2017 11:43:59 PM CDT*
%MOIN*%
G04 Gerber Fmt 3.4, Leading zero omitted, Abs format*
%FSLAX34Y34*%
G01*
G70*
G90*
G04 APERTURE LIST*
%ADD10C,0.00393701*%
%ADD11C,0.054*%
%ADD12R,0.059X0.0885*%
%ADD13O,0.059X0.0885*%
%ADD14C,0.059*%
%ADD15C,0.1063*%
%ADD16R,0.069X0.069*%
%ADD17C,0.069*%
%ADD18O,0.059X0.059*%
%ADD19O,0.069X0.069*%
%ADD20R,0.059X0.059*%
%ADD21R,0.059X0.064*%
%ADD22R,0.064X0.059*%
%ADD23C,0.023622*%
%ADD24C,0.03*%
%ADD25C,0.01*%
%ADD26C,0.02*%
G04 APERTURE END LIST*
G54D10*
G54D11*
X58925Y-36095D03*
X59775Y-36095D03*
X57225Y-36095D03*
X58075Y-36095D03*
X58925Y-34405D03*
X58075Y-34405D03*
X57225Y-34405D03*
X59775Y-34405D03*
X56375Y-36095D03*
X55525Y-36095D03*
X54675Y-36095D03*
X53825Y-36095D03*
X56375Y-34405D03*
X55525Y-34405D03*
X54675Y-34405D03*
X53825Y-34405D03*
X60625Y-36095D03*
X61475Y-36095D03*
X62325Y-36095D03*
X63175Y-36095D03*
X60625Y-34405D03*
X61475Y-34405D03*
X62325Y-34405D03*
X63175Y-34405D03*
G54D12*
X49750Y-41602D03*
G54D13*
X50750Y-41602D03*
X51750Y-41602D03*
X52750Y-41602D03*
X52750Y-38897D03*
X51750Y-38897D03*
X50750Y-38897D03*
X49750Y-38897D03*
X53750Y-41602D03*
X54750Y-41602D03*
X55750Y-41602D03*
X53750Y-38897D03*
X54750Y-38897D03*
X55750Y-38897D03*
X56750Y-41602D03*
X57750Y-41602D03*
X58750Y-41602D03*
X59750Y-41602D03*
X60750Y-41602D03*
X61750Y-41602D03*
X62750Y-41602D03*
X56750Y-38897D03*
X57750Y-38897D03*
X58750Y-38897D03*
X59750Y-38897D03*
X60750Y-38897D03*
X61750Y-38897D03*
X62750Y-38897D03*
G54D14*
X64900Y-46250D03*
X64900Y-47250D03*
X65687Y-47250D03*
X65687Y-46250D03*
G54D15*
X66750Y-44388D03*
X66750Y-49112D03*
G54D16*
X53250Y-49750D03*
G54D17*
X52250Y-49750D03*
X51250Y-49750D03*
X50250Y-49750D03*
G54D16*
X59750Y-43000D03*
G54D17*
X60750Y-43000D03*
G54D18*
X57750Y-45750D03*
X61750Y-45750D03*
X57750Y-44750D03*
X61750Y-44750D03*
X64000Y-41500D03*
X64000Y-37500D03*
X57750Y-47750D03*
X61750Y-47750D03*
X57750Y-46750D03*
X61750Y-46750D03*
G54D16*
X65500Y-37750D03*
G54D19*
X65500Y-38750D03*
G54D16*
X60750Y-49000D03*
G54D19*
X60750Y-50000D03*
G54D16*
X58750Y-49000D03*
G54D19*
X58750Y-50000D03*
G54D17*
X67250Y-41750D03*
X67250Y-37750D03*
G54D20*
X64250Y-42500D03*
G54D18*
X64250Y-43500D03*
G54D12*
X55750Y-43897D03*
G54D13*
X54750Y-43897D03*
X53750Y-43897D03*
X52750Y-43897D03*
X52750Y-46602D03*
X53750Y-46602D03*
X54750Y-46602D03*
X55750Y-46602D03*
X51750Y-43897D03*
X50750Y-43897D03*
X49750Y-43897D03*
X51750Y-46602D03*
X50750Y-46602D03*
X49750Y-46602D03*
G54D21*
X54750Y-48300D03*
X54750Y-49450D03*
X63250Y-46200D03*
X63250Y-45050D03*
X63250Y-47300D03*
X63250Y-48450D03*
G54D22*
X66300Y-43000D03*
X67450Y-43000D03*
X50100Y-42750D03*
X51250Y-42750D03*
X58200Y-43000D03*
X57050Y-43000D03*
G54D21*
X55750Y-48300D03*
X55750Y-49450D03*
G54D23*
X64000Y-40250D03*
X59750Y-40250D03*
X56250Y-42500D03*
X55250Y-42500D03*
X53750Y-40750D03*
X53750Y-39750D03*
X55250Y-40750D03*
X56250Y-40750D03*
G54D24*
X53250Y-49750D02*
X53250Y-49250D01*
X52750Y-44750D02*
X52250Y-45250D01*
X52250Y-45250D02*
X52250Y-46250D01*
G54D25*
X52250Y-46250D02*
X52250Y-47250D01*
G54D24*
X52250Y-47250D02*
X53250Y-48250D01*
X53250Y-48250D02*
X53250Y-49250D01*
X52750Y-44750D02*
X52750Y-43750D01*
G54D26*
X58250Y-43000D02*
X57500Y-43750D01*
G54D24*
X64250Y-42500D02*
X64750Y-42500D01*
X67250Y-40000D02*
X67250Y-37750D01*
X64750Y-42500D02*
X67250Y-40000D01*
X49750Y-41750D02*
X49750Y-41000D01*
X49750Y-41000D02*
X50500Y-40250D01*
X50500Y-40250D02*
X52750Y-40250D01*
X60250Y-43750D02*
X62250Y-43750D01*
X63500Y-42500D02*
X64250Y-42500D01*
X62250Y-43750D02*
X63500Y-42500D01*
G54D25*
X59500Y-49000D02*
X59750Y-48750D01*
X59750Y-44250D02*
X60250Y-43750D01*
X59750Y-48750D02*
X59750Y-44250D01*
X58750Y-49000D02*
X59500Y-49000D01*
X59500Y-49000D02*
X60750Y-49000D01*
G54D24*
X55750Y-43750D02*
X56250Y-43750D01*
G54D26*
X56250Y-43750D02*
X57500Y-43750D01*
X57500Y-43750D02*
X59000Y-43750D01*
G54D24*
X59000Y-43750D02*
X60250Y-43750D01*
X55750Y-41750D02*
X55750Y-43750D01*
X52750Y-40250D02*
X52250Y-40750D01*
X52750Y-42750D02*
X52750Y-43750D01*
X52250Y-42250D02*
X52750Y-42750D01*
G54D25*
X52250Y-41250D02*
X52250Y-42250D01*
G54D24*
X52250Y-40750D02*
X52250Y-41250D01*
X49750Y-41750D02*
X49750Y-42450D01*
X49750Y-42450D02*
X50050Y-42750D01*
G54D25*
X55750Y-40750D02*
X56250Y-40250D01*
X57750Y-39750D02*
X57750Y-38750D01*
X57250Y-40250D02*
X57750Y-39750D01*
G54D26*
X57000Y-40250D02*
X57250Y-40250D01*
G54D25*
X56250Y-40250D02*
X57000Y-40250D01*
G54D24*
X55750Y-40750D02*
X55750Y-41750D01*
X55250Y-40250D02*
X55750Y-40750D01*
X52750Y-40250D02*
X55250Y-40250D01*
G54D25*
X58750Y-38750D02*
X58750Y-39500D01*
X64000Y-40250D02*
X64000Y-37500D01*
X59500Y-40250D02*
X59750Y-40250D01*
X58750Y-39500D02*
X59500Y-40250D01*
X52750Y-41750D02*
X52750Y-42000D01*
X59500Y-43000D02*
X59750Y-43000D01*
X59000Y-42500D02*
X59500Y-43000D01*
X56250Y-42500D02*
X59000Y-42500D01*
X53250Y-42500D02*
X55250Y-42500D01*
X52750Y-42000D02*
X53250Y-42500D01*
X54675Y-36095D02*
X54675Y-36325D01*
X54675Y-36325D02*
X54250Y-36750D01*
X54250Y-36750D02*
X53250Y-36750D01*
X53250Y-36750D02*
X50750Y-36750D01*
X50750Y-36750D02*
X49750Y-37750D01*
X49750Y-37750D02*
X49750Y-38750D01*
X58750Y-50000D02*
X59750Y-50000D01*
X61000Y-47500D02*
X61750Y-46750D01*
X61000Y-48000D02*
X61000Y-47500D01*
X61250Y-48250D02*
X61000Y-48000D01*
X61500Y-48500D02*
X61250Y-48250D01*
X61500Y-48750D02*
X61500Y-48500D01*
X61500Y-49250D02*
X61500Y-48750D01*
X61250Y-49500D02*
X61500Y-49250D01*
X60250Y-49500D02*
X61250Y-49500D01*
X59750Y-50000D02*
X60250Y-49500D01*
G54D24*
X52750Y-46750D02*
X53250Y-47250D01*
X54250Y-48250D02*
X54750Y-48250D01*
X53250Y-47250D02*
X54250Y-48250D01*
X54750Y-48250D02*
X55750Y-48250D01*
G54D25*
X57750Y-45750D02*
X55000Y-45750D01*
X54750Y-46000D02*
X54750Y-46750D01*
X55000Y-45750D02*
X54750Y-46000D01*
X57750Y-47750D02*
X58250Y-47750D01*
X54750Y-44250D02*
X55250Y-44750D01*
X55250Y-44750D02*
X56250Y-44750D01*
X56250Y-44750D02*
X57000Y-44000D01*
X57000Y-44000D02*
X58000Y-44000D01*
X58000Y-44000D02*
X58250Y-44000D01*
X58250Y-44000D02*
X58500Y-44000D01*
X58500Y-44000D02*
X58750Y-44250D01*
X58750Y-44250D02*
X58750Y-47250D01*
X58750Y-47250D02*
X58250Y-47750D01*
X54750Y-44250D02*
X54750Y-43750D01*
X60625Y-34405D02*
X60200Y-34830D01*
X59750Y-38250D02*
X59750Y-38750D01*
X60200Y-37800D02*
X59750Y-38250D01*
X60200Y-36550D02*
X60200Y-37800D01*
X60200Y-36500D02*
X60200Y-36550D01*
X60200Y-34830D02*
X60200Y-36500D01*
X59750Y-39250D02*
X59750Y-38750D01*
X60625Y-36095D02*
X60500Y-36220D01*
X60500Y-36220D02*
X60500Y-37250D01*
X60500Y-37250D02*
X60500Y-38000D01*
X60500Y-38000D02*
X60250Y-38250D01*
X60250Y-38250D02*
X60250Y-39500D01*
X60250Y-39500D02*
X60250Y-40750D01*
X60250Y-40750D02*
X60000Y-41000D01*
X60000Y-41000D02*
X60000Y-41500D01*
X60000Y-41500D02*
X59750Y-41750D01*
X63175Y-34405D02*
X63175Y-34575D01*
X63175Y-34575D02*
X62750Y-35000D01*
X62750Y-35000D02*
X62750Y-38750D01*
X62325Y-34405D02*
X61900Y-34830D01*
X61900Y-34830D02*
X61900Y-38600D01*
X61900Y-38600D02*
X61750Y-38750D01*
X61475Y-34405D02*
X61050Y-34830D01*
X60750Y-36750D02*
X60750Y-38750D01*
X61050Y-36450D02*
X60750Y-36750D01*
X61050Y-36400D02*
X61050Y-36450D01*
X61050Y-34830D02*
X61050Y-36400D01*
X60750Y-38750D02*
X60625Y-38625D01*
X57225Y-36095D02*
X57225Y-36475D01*
X52750Y-37750D02*
X52750Y-38750D01*
X53000Y-37500D02*
X52750Y-37750D01*
X56500Y-37500D02*
X53000Y-37500D01*
X57225Y-36775D02*
X56500Y-37500D01*
X57225Y-36475D02*
X57225Y-36775D01*
X59775Y-34405D02*
X59775Y-34975D01*
X53750Y-40750D02*
X53750Y-41750D01*
X57000Y-39750D02*
X53750Y-39750D01*
X57250Y-39500D02*
X57000Y-39750D01*
X57250Y-38250D02*
X57250Y-39500D01*
X57600Y-38250D02*
X57250Y-38250D01*
X59350Y-36500D02*
X57600Y-38250D01*
X59350Y-36100D02*
X59350Y-36500D01*
X59350Y-35400D02*
X59350Y-36100D01*
X59775Y-34975D02*
X59350Y-35400D01*
X64000Y-41500D02*
X64750Y-40750D01*
X65250Y-37750D02*
X65500Y-37750D01*
X64750Y-38250D02*
X65250Y-37750D01*
X64750Y-38750D02*
X64750Y-38250D01*
X64750Y-40750D02*
X64750Y-38750D01*
X62325Y-36095D02*
X62250Y-36170D01*
X62250Y-36170D02*
X62250Y-38250D01*
X62250Y-38250D02*
X62250Y-40750D01*
X62250Y-40750D02*
X62250Y-41250D01*
X62250Y-41250D02*
X61750Y-41750D01*
X61475Y-36095D02*
X61250Y-36320D01*
X61250Y-41250D02*
X60750Y-41750D01*
X61250Y-36320D02*
X61250Y-41250D01*
X61500Y-36120D02*
X61475Y-36095D01*
X61750Y-45750D02*
X62000Y-45750D01*
X63000Y-47250D02*
X63250Y-47250D01*
X62500Y-46750D02*
X63000Y-47250D01*
X62500Y-46250D02*
X62500Y-46750D01*
X62000Y-45750D02*
X62500Y-46250D01*
X65687Y-47250D02*
X65687Y-47563D01*
X63750Y-47250D02*
X63250Y-47250D01*
X64500Y-48000D02*
X63750Y-47250D01*
X65250Y-48000D02*
X64500Y-48000D01*
X65687Y-47563D02*
X65250Y-48000D01*
X60750Y-50000D02*
X61250Y-50000D01*
X62000Y-48000D02*
X61750Y-47750D01*
X62000Y-49250D02*
X62000Y-48000D01*
X61250Y-50000D02*
X62000Y-49250D01*
X63175Y-36095D02*
X63500Y-36420D01*
X63500Y-41000D02*
X62750Y-41750D01*
X63500Y-39750D02*
X63500Y-41000D01*
X63500Y-36420D02*
X63500Y-39750D01*
X63175Y-36095D02*
X63175Y-36175D01*
X63175Y-36175D02*
X63250Y-36250D01*
X57750Y-44750D02*
X57000Y-45500D01*
X53750Y-46000D02*
X53750Y-46750D01*
X54250Y-45500D02*
X53750Y-46000D01*
X57000Y-45500D02*
X54250Y-45500D01*
X59775Y-36095D02*
X59775Y-36725D01*
X54750Y-41250D02*
X54750Y-41750D01*
X55250Y-40750D02*
X54750Y-41250D01*
X57500Y-40750D02*
X56250Y-40750D01*
X58250Y-40000D02*
X57500Y-40750D01*
X58250Y-38250D02*
X58250Y-40000D01*
X59775Y-36725D02*
X58250Y-38250D01*
X61750Y-44750D02*
X62000Y-44750D01*
X62500Y-45500D02*
X63250Y-46250D01*
X62500Y-45250D02*
X62500Y-45500D01*
X62000Y-44750D02*
X62500Y-45250D01*
X64900Y-47250D02*
X64750Y-47250D01*
X63750Y-46250D02*
X63250Y-46250D01*
X64750Y-47250D02*
X63750Y-46250D01*
G54D24*
X66250Y-43000D02*
X66250Y-42750D01*
X66250Y-42750D02*
X67250Y-41750D01*
X64900Y-46250D02*
X64900Y-44350D01*
X64900Y-44350D02*
X66250Y-43000D01*
G54D25*
X58925Y-36095D02*
X58925Y-36325D01*
X58925Y-36325D02*
X57250Y-38000D01*
X57250Y-38000D02*
X55250Y-38000D01*
X55250Y-38000D02*
X55000Y-38000D01*
X55000Y-38000D02*
X54750Y-38250D01*
X54750Y-38250D02*
X54750Y-38750D01*
X58075Y-36095D02*
X58075Y-36425D01*
X53750Y-38000D02*
X53750Y-38750D01*
X54000Y-37750D02*
X53750Y-38000D01*
X56750Y-37750D02*
X54000Y-37750D01*
X58075Y-36425D02*
X56750Y-37750D01*
X56375Y-36095D02*
X56375Y-36625D01*
X51750Y-37750D02*
X51750Y-38750D01*
X52250Y-37250D02*
X51750Y-37750D01*
X53250Y-37250D02*
X52250Y-37250D01*
X55750Y-37250D02*
X53250Y-37250D01*
X56375Y-36625D02*
X55750Y-37250D01*
X55525Y-36095D02*
X55525Y-36475D01*
X50750Y-37750D02*
X50750Y-38750D01*
X51500Y-37000D02*
X50750Y-37750D01*
X55000Y-37000D02*
X51500Y-37000D01*
X55525Y-36475D02*
X55000Y-37000D01*
X57750Y-46750D02*
X58250Y-46750D01*
X53750Y-44250D02*
X54500Y-45000D01*
X54500Y-45000D02*
X56500Y-45000D01*
X56500Y-45000D02*
X57250Y-44250D01*
X57250Y-44250D02*
X58250Y-44250D01*
X58250Y-44250D02*
X58500Y-44500D01*
X58500Y-44500D02*
X58500Y-46250D01*
X53750Y-44250D02*
X53750Y-43750D01*
X58500Y-46500D02*
X58500Y-46250D01*
X58250Y-46750D02*
X58500Y-46500D01*
X51250Y-49750D02*
X51250Y-49250D01*
X50750Y-44750D02*
X50250Y-45250D01*
X50250Y-45250D02*
X50250Y-47750D01*
X50250Y-47750D02*
X51250Y-48750D01*
X51250Y-48750D02*
X51250Y-49250D01*
X50750Y-44750D02*
X50750Y-43750D01*
X50750Y-41750D02*
X50750Y-43750D01*
X52250Y-49750D02*
X52250Y-49250D01*
X51750Y-44750D02*
X51250Y-45250D01*
X51250Y-45250D02*
X51250Y-47750D01*
X51250Y-47750D02*
X52250Y-48750D01*
X52250Y-48750D02*
X52250Y-49250D01*
X51750Y-44750D02*
X51750Y-43750D01*
X51750Y-41750D02*
X51750Y-43750D01*
M02*
