G04 (created by PCBNEW (22-Jun-2014 BZR 4027)-stable) date Sat 02 Sep 2017 10:45:24 PM CDT*
%MOIN*%
G04 Gerber Fmt 3.4, Leading zero omitted, Abs format*
%FSLAX34Y34*%
G01*
G70*
G90*
G04 APERTURE LIST*
%ADD10C,0.00393701*%
%ADD11R,0.059X0.0885*%
%ADD12O,0.059X0.0885*%
%ADD13C,0.054*%
%ADD14C,0.14*%
%ADD15C,0.059*%
%ADD16C,0.1063*%
%ADD17R,0.069X0.069*%
%ADD18C,0.069*%
%ADD19O,0.059X0.059*%
%ADD20O,0.069X0.069*%
%ADD21R,0.059X0.059*%
%ADD22R,0.059X0.064*%
%ADD23R,0.064X0.059*%
%ADD24C,0.023622*%
%ADD25C,0.01*%
G04 APERTURE END LIST*
G54D10*
G54D11*
X47250Y-39602D03*
G54D12*
X48250Y-39602D03*
X49250Y-39602D03*
X50250Y-39602D03*
X50250Y-36897D03*
X49250Y-36897D03*
X48250Y-36897D03*
X47250Y-36897D03*
X51250Y-39602D03*
X52250Y-39602D03*
X53250Y-39602D03*
X51250Y-36897D03*
X52250Y-36897D03*
X53250Y-36897D03*
X54250Y-39602D03*
X55250Y-39602D03*
X56250Y-39602D03*
X57250Y-39602D03*
X58250Y-39602D03*
X59250Y-39602D03*
X60250Y-39602D03*
X54250Y-36897D03*
X55250Y-36897D03*
X56250Y-36897D03*
X57250Y-36897D03*
X58250Y-36897D03*
X59250Y-36897D03*
X60250Y-36897D03*
G54D13*
X56425Y-34095D03*
X57275Y-34095D03*
X54725Y-34095D03*
X55575Y-34095D03*
X56425Y-32405D03*
X55575Y-32405D03*
X54725Y-32405D03*
X57275Y-32405D03*
X53875Y-34095D03*
X53025Y-34095D03*
X52175Y-34095D03*
X51325Y-34095D03*
X53875Y-32405D03*
X53025Y-32405D03*
X52175Y-32405D03*
X51325Y-32405D03*
X58125Y-34095D03*
X58975Y-34095D03*
X59825Y-34095D03*
X60675Y-34095D03*
X58125Y-32405D03*
X58975Y-32405D03*
X59825Y-32405D03*
X60675Y-32405D03*
G54D14*
X65250Y-33250D03*
X46750Y-33250D03*
G54D15*
X62400Y-44250D03*
X62400Y-45250D03*
X63187Y-45250D03*
X63187Y-44250D03*
G54D16*
X64250Y-42388D03*
X64250Y-47112D03*
G54D17*
X50750Y-47750D03*
G54D18*
X49750Y-47750D03*
X48750Y-47750D03*
X47750Y-47750D03*
G54D17*
X57250Y-41000D03*
G54D18*
X58250Y-41000D03*
G54D19*
X55250Y-43750D03*
X59250Y-43750D03*
X55250Y-42750D03*
X59250Y-42750D03*
X61500Y-39500D03*
X61500Y-35500D03*
X55250Y-45750D03*
X59250Y-45750D03*
X55250Y-44750D03*
X59250Y-44750D03*
G54D17*
X63000Y-35750D03*
G54D20*
X63000Y-36750D03*
G54D17*
X58250Y-47000D03*
G54D20*
X58250Y-48000D03*
G54D17*
X56250Y-47000D03*
G54D20*
X56250Y-48000D03*
G54D18*
X64750Y-39750D03*
X64750Y-35750D03*
G54D21*
X61750Y-40500D03*
G54D19*
X61750Y-41500D03*
G54D11*
X53250Y-41897D03*
G54D12*
X52250Y-41897D03*
X51250Y-41897D03*
X50250Y-41897D03*
X50250Y-44602D03*
X51250Y-44602D03*
X52250Y-44602D03*
X53250Y-44602D03*
X49250Y-41897D03*
X48250Y-41897D03*
X47250Y-41897D03*
X49250Y-44602D03*
X48250Y-44602D03*
X47250Y-44602D03*
G54D22*
X52250Y-46300D03*
X52250Y-47450D03*
X60750Y-44200D03*
X60750Y-43050D03*
X60750Y-45300D03*
X60750Y-46450D03*
G54D23*
X63800Y-41000D03*
X64950Y-41000D03*
X47600Y-40750D03*
X48750Y-40750D03*
X55700Y-41000D03*
X54550Y-41000D03*
G54D22*
X53250Y-46300D03*
X53250Y-47450D03*
G54D24*
X61500Y-38250D03*
X57250Y-38250D03*
X53750Y-40500D03*
X52750Y-40500D03*
X51250Y-38750D03*
X51250Y-37750D03*
X52750Y-38750D03*
X53750Y-38750D03*
G54D25*
X57250Y-38250D02*
X61500Y-38250D01*
X52750Y-40500D02*
X53750Y-40500D01*
X51250Y-37750D02*
X51250Y-38750D01*
X53750Y-38750D02*
X52750Y-38750D01*
G54D10*
G36*
X65450Y-46993D02*
X65208Y-47960D01*
X65203Y-47967D01*
X65034Y-48051D01*
X65034Y-47249D01*
X65034Y-42525D01*
X65027Y-42214D01*
X64922Y-41961D01*
X64900Y-41950D01*
X64900Y-41482D01*
X64900Y-41050D01*
X64900Y-40950D01*
X64900Y-40517D01*
X64837Y-40455D01*
X64580Y-40454D01*
X64488Y-40492D01*
X64418Y-40563D01*
X64380Y-40655D01*
X64379Y-40754D01*
X64380Y-40887D01*
X64442Y-40950D01*
X64900Y-40950D01*
X64900Y-41050D01*
X64442Y-41050D01*
X64380Y-41112D01*
X64379Y-41245D01*
X64380Y-41344D01*
X64418Y-41436D01*
X64488Y-41507D01*
X64580Y-41545D01*
X64837Y-41545D01*
X64900Y-41482D01*
X64900Y-41950D01*
X64803Y-41905D01*
X64732Y-41976D01*
X64732Y-41834D01*
X64676Y-41715D01*
X64387Y-41603D01*
X64370Y-41603D01*
X64370Y-41245D01*
X64370Y-40655D01*
X64332Y-40563D01*
X64261Y-40493D01*
X64169Y-40455D01*
X64070Y-40454D01*
X63595Y-40454D01*
X63595Y-36045D01*
X63595Y-35355D01*
X63557Y-35263D01*
X63486Y-35193D01*
X63394Y-35155D01*
X63295Y-35154D01*
X62605Y-35154D01*
X62513Y-35192D01*
X62443Y-35263D01*
X62405Y-35355D01*
X62404Y-35454D01*
X62404Y-36144D01*
X62442Y-36236D01*
X62513Y-36306D01*
X62586Y-36337D01*
X62520Y-36397D01*
X62422Y-36607D01*
X62469Y-36700D01*
X62950Y-36700D01*
X62950Y-36692D01*
X63050Y-36692D01*
X63050Y-36700D01*
X63530Y-36700D01*
X63577Y-36607D01*
X63479Y-36397D01*
X63413Y-36337D01*
X63486Y-36307D01*
X63556Y-36236D01*
X63594Y-36144D01*
X63595Y-36045D01*
X63595Y-40454D01*
X63577Y-40454D01*
X63577Y-36892D01*
X63530Y-36800D01*
X63050Y-36800D01*
X63050Y-37280D01*
X63142Y-37327D01*
X63308Y-37259D01*
X63479Y-37102D01*
X63577Y-36892D01*
X63577Y-40454D01*
X63430Y-40454D01*
X63338Y-40492D01*
X63268Y-40563D01*
X63230Y-40655D01*
X63229Y-40754D01*
X63229Y-41344D01*
X63267Y-41436D01*
X63338Y-41506D01*
X63430Y-41544D01*
X63529Y-41545D01*
X64169Y-41545D01*
X64261Y-41507D01*
X64331Y-41436D01*
X64369Y-41344D01*
X64370Y-41245D01*
X64370Y-41603D01*
X64076Y-41610D01*
X63823Y-41715D01*
X63767Y-41834D01*
X64250Y-42317D01*
X64732Y-41834D01*
X64732Y-41976D01*
X64320Y-42388D01*
X64803Y-42870D01*
X64922Y-42814D01*
X65034Y-42525D01*
X65034Y-47249D01*
X65027Y-46938D01*
X64922Y-46685D01*
X64803Y-46629D01*
X64732Y-46700D01*
X64732Y-46558D01*
X64732Y-42941D01*
X64250Y-42458D01*
X64179Y-42529D01*
X64179Y-42388D01*
X63696Y-41905D01*
X63577Y-41961D01*
X63465Y-42250D01*
X63472Y-42561D01*
X63577Y-42814D01*
X63696Y-42870D01*
X64179Y-42388D01*
X64179Y-42529D01*
X63767Y-42941D01*
X63823Y-43060D01*
X64112Y-43172D01*
X64423Y-43165D01*
X64676Y-43060D01*
X64732Y-42941D01*
X64732Y-46558D01*
X64676Y-46439D01*
X64387Y-46327D01*
X64076Y-46334D01*
X63823Y-46439D01*
X63767Y-46558D01*
X64250Y-47041D01*
X64732Y-46558D01*
X64732Y-46700D01*
X64320Y-47112D01*
X64803Y-47594D01*
X64922Y-47538D01*
X65034Y-47249D01*
X65034Y-48051D01*
X64732Y-48202D01*
X64732Y-47665D01*
X64250Y-47182D01*
X64179Y-47253D01*
X64179Y-47112D01*
X63736Y-46669D01*
X63736Y-44330D01*
X63725Y-44114D01*
X63664Y-43965D01*
X63569Y-43938D01*
X63498Y-44009D01*
X63498Y-43867D01*
X63471Y-43772D01*
X63267Y-43700D01*
X63051Y-43711D01*
X62950Y-43753D01*
X62950Y-37280D01*
X62950Y-36800D01*
X62469Y-36800D01*
X62422Y-36892D01*
X62520Y-37102D01*
X62691Y-37259D01*
X62857Y-37327D01*
X62950Y-37280D01*
X62950Y-43753D01*
X62902Y-43772D01*
X62875Y-43867D01*
X63187Y-44179D01*
X63498Y-43867D01*
X63498Y-44009D01*
X63257Y-44250D01*
X63569Y-44561D01*
X63664Y-44534D01*
X63736Y-44330D01*
X63736Y-46669D01*
X63732Y-46664D01*
X63732Y-45142D01*
X63649Y-44941D01*
X63496Y-44788D01*
X63410Y-44752D01*
X63471Y-44727D01*
X63498Y-44632D01*
X63187Y-44320D01*
X62875Y-44632D01*
X62902Y-44727D01*
X62968Y-44750D01*
X62878Y-44787D01*
X62793Y-44872D01*
X62709Y-44788D01*
X62617Y-44750D01*
X62708Y-44712D01*
X62861Y-44559D01*
X62900Y-44465D01*
X63116Y-44250D01*
X62900Y-44034D01*
X62862Y-43941D01*
X62709Y-43788D01*
X62508Y-43705D01*
X62295Y-43704D01*
X62295Y-40745D01*
X62295Y-40155D01*
X62257Y-40063D01*
X62186Y-39993D01*
X62094Y-39955D01*
X61995Y-39954D01*
X61797Y-39954D01*
X61885Y-39896D01*
X62003Y-39719D01*
X62045Y-39510D01*
X62045Y-39489D01*
X62045Y-35510D01*
X62045Y-35489D01*
X62003Y-35280D01*
X61885Y-35103D01*
X61708Y-34985D01*
X61500Y-34944D01*
X61291Y-34985D01*
X61195Y-35050D01*
X61195Y-33992D01*
X61195Y-32302D01*
X61116Y-32110D01*
X60969Y-31964D01*
X60778Y-31885D01*
X60572Y-31884D01*
X60380Y-31963D01*
X60249Y-32094D01*
X60119Y-31964D01*
X59928Y-31885D01*
X59722Y-31884D01*
X59530Y-31963D01*
X59399Y-32094D01*
X59269Y-31964D01*
X59078Y-31885D01*
X58872Y-31884D01*
X58680Y-31963D01*
X58549Y-32094D01*
X58419Y-31964D01*
X58228Y-31885D01*
X58022Y-31884D01*
X57830Y-31963D01*
X57699Y-32094D01*
X57569Y-31964D01*
X57378Y-31885D01*
X57172Y-31884D01*
X56980Y-31963D01*
X56834Y-32110D01*
X56829Y-32121D01*
X56789Y-32111D01*
X56718Y-32182D01*
X56718Y-32040D01*
X56694Y-31948D01*
X56499Y-31880D01*
X56293Y-31891D01*
X56155Y-31948D01*
X56131Y-32040D01*
X56425Y-32334D01*
X56718Y-32040D01*
X56718Y-32182D01*
X56495Y-32405D01*
X56789Y-32698D01*
X56829Y-32688D01*
X56833Y-32699D01*
X56980Y-32845D01*
X57171Y-32924D01*
X57377Y-32925D01*
X57569Y-32846D01*
X57700Y-32715D01*
X57830Y-32845D01*
X58021Y-32924D01*
X58227Y-32925D01*
X58419Y-32846D01*
X58550Y-32715D01*
X58680Y-32845D01*
X58871Y-32924D01*
X59077Y-32925D01*
X59269Y-32846D01*
X59400Y-32715D01*
X59530Y-32845D01*
X59721Y-32924D01*
X59927Y-32925D01*
X60119Y-32846D01*
X60250Y-32715D01*
X60380Y-32845D01*
X60571Y-32924D01*
X60777Y-32925D01*
X60969Y-32846D01*
X61115Y-32699D01*
X61194Y-32508D01*
X61195Y-32302D01*
X61195Y-33992D01*
X61116Y-33800D01*
X60969Y-33654D01*
X60778Y-33575D01*
X60572Y-33574D01*
X60380Y-33653D01*
X60249Y-33784D01*
X60119Y-33654D01*
X59928Y-33575D01*
X59722Y-33574D01*
X59530Y-33653D01*
X59399Y-33784D01*
X59269Y-33654D01*
X59078Y-33575D01*
X58872Y-33574D01*
X58680Y-33653D01*
X58549Y-33784D01*
X58419Y-33654D01*
X58228Y-33575D01*
X58022Y-33574D01*
X57830Y-33653D01*
X57699Y-33784D01*
X57569Y-33654D01*
X57378Y-33575D01*
X57172Y-33574D01*
X56980Y-33653D01*
X56849Y-33784D01*
X56719Y-33654D01*
X56718Y-33653D01*
X56718Y-32769D01*
X56425Y-32475D01*
X56354Y-32546D01*
X56354Y-32405D01*
X56060Y-32111D01*
X55999Y-32127D01*
X55939Y-32111D01*
X55868Y-32182D01*
X55868Y-32040D01*
X55844Y-31948D01*
X55649Y-31880D01*
X55443Y-31891D01*
X55305Y-31948D01*
X55281Y-32040D01*
X55575Y-32334D01*
X55868Y-32040D01*
X55868Y-32182D01*
X55645Y-32405D01*
X55939Y-32698D01*
X55999Y-32682D01*
X56060Y-32698D01*
X56354Y-32405D01*
X56354Y-32546D01*
X56131Y-32769D01*
X56155Y-32861D01*
X56350Y-32929D01*
X56556Y-32918D01*
X56694Y-32861D01*
X56718Y-32769D01*
X56718Y-33653D01*
X56528Y-33575D01*
X56322Y-33574D01*
X56130Y-33653D01*
X55999Y-33784D01*
X55869Y-33654D01*
X55868Y-33653D01*
X55868Y-32769D01*
X55575Y-32475D01*
X55504Y-32546D01*
X55504Y-32405D01*
X55210Y-32111D01*
X55149Y-32127D01*
X55089Y-32111D01*
X55018Y-32182D01*
X55018Y-32040D01*
X54994Y-31948D01*
X54799Y-31880D01*
X54593Y-31891D01*
X54455Y-31948D01*
X54431Y-32040D01*
X54725Y-32334D01*
X55018Y-32040D01*
X55018Y-32182D01*
X54795Y-32405D01*
X55089Y-32698D01*
X55149Y-32682D01*
X55210Y-32698D01*
X55504Y-32405D01*
X55504Y-32546D01*
X55281Y-32769D01*
X55305Y-32861D01*
X55500Y-32929D01*
X55706Y-32918D01*
X55844Y-32861D01*
X55868Y-32769D01*
X55868Y-33653D01*
X55678Y-33575D01*
X55472Y-33574D01*
X55280Y-33653D01*
X55149Y-33784D01*
X55019Y-33654D01*
X55018Y-33653D01*
X55018Y-32769D01*
X54725Y-32475D01*
X54654Y-32546D01*
X54654Y-32405D01*
X54360Y-32111D01*
X54299Y-32127D01*
X54239Y-32111D01*
X54168Y-32182D01*
X54168Y-32040D01*
X54144Y-31948D01*
X53949Y-31880D01*
X53743Y-31891D01*
X53605Y-31948D01*
X53581Y-32040D01*
X53875Y-32334D01*
X54168Y-32040D01*
X54168Y-32182D01*
X53945Y-32405D01*
X54239Y-32698D01*
X54299Y-32682D01*
X54360Y-32698D01*
X54654Y-32405D01*
X54654Y-32546D01*
X54431Y-32769D01*
X54455Y-32861D01*
X54650Y-32929D01*
X54856Y-32918D01*
X54994Y-32861D01*
X55018Y-32769D01*
X55018Y-33653D01*
X54828Y-33575D01*
X54622Y-33574D01*
X54430Y-33653D01*
X54299Y-33784D01*
X54169Y-33654D01*
X54168Y-33653D01*
X54168Y-32769D01*
X53875Y-32475D01*
X53804Y-32546D01*
X53804Y-32405D01*
X53510Y-32111D01*
X53449Y-32127D01*
X53389Y-32111D01*
X53318Y-32182D01*
X53318Y-32040D01*
X53294Y-31948D01*
X53099Y-31880D01*
X52893Y-31891D01*
X52755Y-31948D01*
X52731Y-32040D01*
X53025Y-32334D01*
X53318Y-32040D01*
X53318Y-32182D01*
X53095Y-32405D01*
X53389Y-32698D01*
X53449Y-32682D01*
X53510Y-32698D01*
X53804Y-32405D01*
X53804Y-32546D01*
X53581Y-32769D01*
X53605Y-32861D01*
X53800Y-32929D01*
X54006Y-32918D01*
X54144Y-32861D01*
X54168Y-32769D01*
X54168Y-33653D01*
X53978Y-33575D01*
X53772Y-33574D01*
X53580Y-33653D01*
X53449Y-33784D01*
X53319Y-33654D01*
X53318Y-33653D01*
X53318Y-32769D01*
X53025Y-32475D01*
X52954Y-32546D01*
X52954Y-32405D01*
X52660Y-32111D01*
X52599Y-32127D01*
X52539Y-32111D01*
X52468Y-32182D01*
X52468Y-32040D01*
X52444Y-31948D01*
X52249Y-31880D01*
X52043Y-31891D01*
X51905Y-31948D01*
X51881Y-32040D01*
X52175Y-32334D01*
X52468Y-32040D01*
X52468Y-32182D01*
X52245Y-32405D01*
X52539Y-32698D01*
X52599Y-32682D01*
X52660Y-32698D01*
X52954Y-32405D01*
X52954Y-32546D01*
X52731Y-32769D01*
X52755Y-32861D01*
X52950Y-32929D01*
X53156Y-32918D01*
X53294Y-32861D01*
X53318Y-32769D01*
X53318Y-33653D01*
X53128Y-33575D01*
X52922Y-33574D01*
X52730Y-33653D01*
X52599Y-33784D01*
X52469Y-33654D01*
X52468Y-33653D01*
X52468Y-32769D01*
X52175Y-32475D01*
X52104Y-32546D01*
X52104Y-32405D01*
X51810Y-32111D01*
X51749Y-32127D01*
X51689Y-32111D01*
X51618Y-32182D01*
X51618Y-32040D01*
X51594Y-31948D01*
X51399Y-31880D01*
X51193Y-31891D01*
X51055Y-31948D01*
X51031Y-32040D01*
X51325Y-32334D01*
X51618Y-32040D01*
X51618Y-32182D01*
X51395Y-32405D01*
X51689Y-32698D01*
X51749Y-32682D01*
X51810Y-32698D01*
X52104Y-32405D01*
X52104Y-32546D01*
X51881Y-32769D01*
X51905Y-32861D01*
X52100Y-32929D01*
X52306Y-32918D01*
X52444Y-32861D01*
X52468Y-32769D01*
X52468Y-33653D01*
X52278Y-33575D01*
X52072Y-33574D01*
X51880Y-33653D01*
X51734Y-33800D01*
X51729Y-33811D01*
X51689Y-33801D01*
X51618Y-33872D01*
X51618Y-33730D01*
X51618Y-32769D01*
X51325Y-32475D01*
X51254Y-32546D01*
X51254Y-32405D01*
X50960Y-32111D01*
X50868Y-32135D01*
X50800Y-32330D01*
X50811Y-32536D01*
X50868Y-32674D01*
X50960Y-32698D01*
X51254Y-32405D01*
X51254Y-32546D01*
X51031Y-32769D01*
X51055Y-32861D01*
X51250Y-32929D01*
X51456Y-32918D01*
X51594Y-32861D01*
X51618Y-32769D01*
X51618Y-33730D01*
X51594Y-33638D01*
X51399Y-33570D01*
X51193Y-33581D01*
X51055Y-33638D01*
X51031Y-33730D01*
X51325Y-34024D01*
X51618Y-33730D01*
X51618Y-33872D01*
X51395Y-34095D01*
X51689Y-34388D01*
X51729Y-34378D01*
X51733Y-34389D01*
X51880Y-34535D01*
X52071Y-34614D01*
X52277Y-34615D01*
X52469Y-34536D01*
X52600Y-34405D01*
X52730Y-34535D01*
X52921Y-34614D01*
X53127Y-34615D01*
X53319Y-34536D01*
X53450Y-34405D01*
X53580Y-34535D01*
X53771Y-34614D01*
X53977Y-34615D01*
X54169Y-34536D01*
X54300Y-34405D01*
X54430Y-34535D01*
X54621Y-34614D01*
X54827Y-34615D01*
X55019Y-34536D01*
X55150Y-34405D01*
X55280Y-34535D01*
X55471Y-34614D01*
X55677Y-34615D01*
X55869Y-34536D01*
X56000Y-34405D01*
X56130Y-34535D01*
X56321Y-34614D01*
X56527Y-34615D01*
X56719Y-34536D01*
X56850Y-34405D01*
X56980Y-34535D01*
X57171Y-34614D01*
X57377Y-34615D01*
X57569Y-34536D01*
X57700Y-34405D01*
X57830Y-34535D01*
X58021Y-34614D01*
X58227Y-34615D01*
X58419Y-34536D01*
X58550Y-34405D01*
X58680Y-34535D01*
X58871Y-34614D01*
X59077Y-34615D01*
X59269Y-34536D01*
X59400Y-34405D01*
X59530Y-34535D01*
X59721Y-34614D01*
X59927Y-34615D01*
X60119Y-34536D01*
X60250Y-34405D01*
X60380Y-34535D01*
X60571Y-34614D01*
X60777Y-34615D01*
X60969Y-34536D01*
X61115Y-34389D01*
X61194Y-34198D01*
X61195Y-33992D01*
X61195Y-35050D01*
X61114Y-35103D01*
X60996Y-35280D01*
X60955Y-35489D01*
X60955Y-35510D01*
X60996Y-35719D01*
X61114Y-35896D01*
X61291Y-36014D01*
X61500Y-36055D01*
X61708Y-36014D01*
X61885Y-35896D01*
X62003Y-35719D01*
X62045Y-35510D01*
X62045Y-39489D01*
X62003Y-39280D01*
X61885Y-39103D01*
X61868Y-39092D01*
X61868Y-38177D01*
X61812Y-38041D01*
X61708Y-37938D01*
X61573Y-37881D01*
X61427Y-37881D01*
X61291Y-37937D01*
X61279Y-37950D01*
X60795Y-37950D01*
X60795Y-37058D01*
X60795Y-36736D01*
X60753Y-36527D01*
X60635Y-36351D01*
X60458Y-36232D01*
X60250Y-36191D01*
X60041Y-36232D01*
X59864Y-36351D01*
X59750Y-36522D01*
X59635Y-36351D01*
X59458Y-36232D01*
X59250Y-36191D01*
X59041Y-36232D01*
X58864Y-36351D01*
X58750Y-36522D01*
X58635Y-36351D01*
X58458Y-36232D01*
X58250Y-36191D01*
X58041Y-36232D01*
X57864Y-36351D01*
X57750Y-36522D01*
X57635Y-36351D01*
X57458Y-36232D01*
X57250Y-36191D01*
X57041Y-36232D01*
X56864Y-36351D01*
X56750Y-36522D01*
X56635Y-36351D01*
X56458Y-36232D01*
X56250Y-36191D01*
X56041Y-36232D01*
X55864Y-36351D01*
X55750Y-36522D01*
X55635Y-36351D01*
X55458Y-36232D01*
X55250Y-36191D01*
X55041Y-36232D01*
X54864Y-36351D01*
X54750Y-36522D01*
X54635Y-36351D01*
X54458Y-36232D01*
X54250Y-36191D01*
X54041Y-36232D01*
X53864Y-36351D01*
X53746Y-36527D01*
X53745Y-36532D01*
X53734Y-36495D01*
X53600Y-36329D01*
X53412Y-36227D01*
X53384Y-36221D01*
X53300Y-36270D01*
X53300Y-36847D01*
X53307Y-36847D01*
X53307Y-36947D01*
X53300Y-36947D01*
X53300Y-37524D01*
X53384Y-37573D01*
X53412Y-37567D01*
X53600Y-37465D01*
X53734Y-37299D01*
X53745Y-37262D01*
X53746Y-37267D01*
X53864Y-37443D01*
X54041Y-37562D01*
X54250Y-37603D01*
X54458Y-37562D01*
X54635Y-37443D01*
X54750Y-37272D01*
X54864Y-37443D01*
X55041Y-37562D01*
X55250Y-37603D01*
X55458Y-37562D01*
X55635Y-37443D01*
X55750Y-37272D01*
X55864Y-37443D01*
X56041Y-37562D01*
X56250Y-37603D01*
X56458Y-37562D01*
X56635Y-37443D01*
X56750Y-37272D01*
X56864Y-37443D01*
X57041Y-37562D01*
X57250Y-37603D01*
X57458Y-37562D01*
X57635Y-37443D01*
X57750Y-37272D01*
X57864Y-37443D01*
X58041Y-37562D01*
X58250Y-37603D01*
X58458Y-37562D01*
X58635Y-37443D01*
X58750Y-37272D01*
X58864Y-37443D01*
X59041Y-37562D01*
X59250Y-37603D01*
X59458Y-37562D01*
X59635Y-37443D01*
X59750Y-37272D01*
X59864Y-37443D01*
X60041Y-37562D01*
X60250Y-37603D01*
X60458Y-37562D01*
X60635Y-37443D01*
X60753Y-37267D01*
X60795Y-37058D01*
X60795Y-37950D01*
X57470Y-37950D01*
X57458Y-37938D01*
X57323Y-37881D01*
X57177Y-37881D01*
X57041Y-37937D01*
X56938Y-38041D01*
X56881Y-38176D01*
X56881Y-38322D01*
X56937Y-38458D01*
X57041Y-38561D01*
X57176Y-38618D01*
X57322Y-38618D01*
X57458Y-38562D01*
X57470Y-38550D01*
X61279Y-38550D01*
X61291Y-38561D01*
X61426Y-38618D01*
X61572Y-38618D01*
X61708Y-38562D01*
X61811Y-38458D01*
X61868Y-38323D01*
X61868Y-38177D01*
X61868Y-39092D01*
X61708Y-38985D01*
X61500Y-38944D01*
X61291Y-38985D01*
X61114Y-39103D01*
X60996Y-39280D01*
X60955Y-39489D01*
X60955Y-39510D01*
X60996Y-39719D01*
X61114Y-39896D01*
X61291Y-40014D01*
X61292Y-40014D01*
X61243Y-40063D01*
X61205Y-40155D01*
X61204Y-40254D01*
X61204Y-40844D01*
X61242Y-40936D01*
X61313Y-41006D01*
X61405Y-41044D01*
X61456Y-41045D01*
X61313Y-41173D01*
X61221Y-41365D01*
X61269Y-41450D01*
X61700Y-41450D01*
X61700Y-41442D01*
X61800Y-41442D01*
X61800Y-41450D01*
X62230Y-41450D01*
X62278Y-41365D01*
X62186Y-41173D01*
X62043Y-41045D01*
X62094Y-41045D01*
X62186Y-41007D01*
X62256Y-40936D01*
X62294Y-40844D01*
X62295Y-40745D01*
X62295Y-43704D01*
X62292Y-43704D01*
X62278Y-43710D01*
X62278Y-41634D01*
X62230Y-41550D01*
X61800Y-41550D01*
X61800Y-41979D01*
X61884Y-42028D01*
X62028Y-41968D01*
X62186Y-41826D01*
X62278Y-41634D01*
X62278Y-43710D01*
X62091Y-43787D01*
X61938Y-43940D01*
X61855Y-44141D01*
X61854Y-44357D01*
X61937Y-44558D01*
X62090Y-44711D01*
X62182Y-44749D01*
X62091Y-44787D01*
X61938Y-44940D01*
X61855Y-45141D01*
X61854Y-45357D01*
X61937Y-45558D01*
X62090Y-45711D01*
X62291Y-45794D01*
X62507Y-45795D01*
X62708Y-45712D01*
X62793Y-45627D01*
X62877Y-45711D01*
X63078Y-45794D01*
X63294Y-45795D01*
X63495Y-45712D01*
X63648Y-45559D01*
X63731Y-45358D01*
X63732Y-45142D01*
X63732Y-46664D01*
X63696Y-46629D01*
X63577Y-46685D01*
X63465Y-46974D01*
X63472Y-47285D01*
X63577Y-47538D01*
X63696Y-47594D01*
X64179Y-47112D01*
X64179Y-47253D01*
X63767Y-47665D01*
X63823Y-47784D01*
X64112Y-47896D01*
X64423Y-47889D01*
X64676Y-47784D01*
X64732Y-47665D01*
X64732Y-48202D01*
X64238Y-48450D01*
X61700Y-48450D01*
X61700Y-41979D01*
X61700Y-41550D01*
X61269Y-41550D01*
X61221Y-41634D01*
X61313Y-41826D01*
X61471Y-41968D01*
X61615Y-42028D01*
X61700Y-41979D01*
X61700Y-48450D01*
X61295Y-48450D01*
X61295Y-46819D01*
X61295Y-46080D01*
X61295Y-45570D01*
X61295Y-44930D01*
X61257Y-44838D01*
X61186Y-44768D01*
X61143Y-44750D01*
X61186Y-44732D01*
X61256Y-44661D01*
X61294Y-44569D01*
X61295Y-44470D01*
X61295Y-43830D01*
X61295Y-43419D01*
X61295Y-42680D01*
X61257Y-42588D01*
X61186Y-42518D01*
X61094Y-42480D01*
X60995Y-42479D01*
X60862Y-42480D01*
X60800Y-42542D01*
X60800Y-43000D01*
X61232Y-43000D01*
X61295Y-42937D01*
X61295Y-42680D01*
X61295Y-43419D01*
X61295Y-43162D01*
X61232Y-43100D01*
X60800Y-43100D01*
X60800Y-43557D01*
X60862Y-43620D01*
X60995Y-43620D01*
X61094Y-43619D01*
X61186Y-43581D01*
X61257Y-43511D01*
X61295Y-43419D01*
X61295Y-43830D01*
X61257Y-43738D01*
X61186Y-43668D01*
X61094Y-43630D01*
X60995Y-43629D01*
X60795Y-43629D01*
X60795Y-39763D01*
X60795Y-39441D01*
X60753Y-39232D01*
X60635Y-39056D01*
X60458Y-38937D01*
X60250Y-38896D01*
X60041Y-38937D01*
X59864Y-39056D01*
X59750Y-39227D01*
X59635Y-39056D01*
X59458Y-38937D01*
X59250Y-38896D01*
X59041Y-38937D01*
X58864Y-39056D01*
X58750Y-39227D01*
X58635Y-39056D01*
X58458Y-38937D01*
X58250Y-38896D01*
X58041Y-38937D01*
X57864Y-39056D01*
X57750Y-39227D01*
X57635Y-39056D01*
X57458Y-38937D01*
X57250Y-38896D01*
X57041Y-38937D01*
X56864Y-39056D01*
X56750Y-39227D01*
X56635Y-39056D01*
X56458Y-38937D01*
X56250Y-38896D01*
X56041Y-38937D01*
X55864Y-39056D01*
X55750Y-39227D01*
X55635Y-39056D01*
X55458Y-38937D01*
X55250Y-38896D01*
X55041Y-38937D01*
X54864Y-39056D01*
X54746Y-39232D01*
X54745Y-39237D01*
X54734Y-39200D01*
X54600Y-39034D01*
X54412Y-38932D01*
X54384Y-38926D01*
X54300Y-38975D01*
X54300Y-39552D01*
X54307Y-39552D01*
X54307Y-39652D01*
X54300Y-39652D01*
X54300Y-40229D01*
X54384Y-40278D01*
X54412Y-40272D01*
X54600Y-40170D01*
X54734Y-40004D01*
X54745Y-39967D01*
X54746Y-39972D01*
X54864Y-40148D01*
X55041Y-40267D01*
X55250Y-40308D01*
X55458Y-40267D01*
X55635Y-40148D01*
X55750Y-39977D01*
X55864Y-40148D01*
X56041Y-40267D01*
X56250Y-40308D01*
X56458Y-40267D01*
X56635Y-40148D01*
X56750Y-39977D01*
X56864Y-40148D01*
X57041Y-40267D01*
X57250Y-40308D01*
X57458Y-40267D01*
X57635Y-40148D01*
X57750Y-39977D01*
X57864Y-40148D01*
X58041Y-40267D01*
X58250Y-40308D01*
X58458Y-40267D01*
X58635Y-40148D01*
X58750Y-39977D01*
X58864Y-40148D01*
X59041Y-40267D01*
X59250Y-40308D01*
X59458Y-40267D01*
X59635Y-40148D01*
X59750Y-39977D01*
X59864Y-40148D01*
X60041Y-40267D01*
X60250Y-40308D01*
X60458Y-40267D01*
X60635Y-40148D01*
X60753Y-39972D01*
X60795Y-39763D01*
X60795Y-43629D01*
X60700Y-43629D01*
X60700Y-43557D01*
X60700Y-43100D01*
X60700Y-43000D01*
X60700Y-42542D01*
X60637Y-42480D01*
X60504Y-42479D01*
X60405Y-42480D01*
X60313Y-42518D01*
X60242Y-42588D01*
X60204Y-42680D01*
X60205Y-42937D01*
X60267Y-43000D01*
X60700Y-43000D01*
X60700Y-43100D01*
X60267Y-43100D01*
X60205Y-43162D01*
X60204Y-43419D01*
X60242Y-43511D01*
X60313Y-43581D01*
X60405Y-43619D01*
X60504Y-43620D01*
X60637Y-43620D01*
X60700Y-43557D01*
X60700Y-43629D01*
X60405Y-43629D01*
X60313Y-43667D01*
X60243Y-43738D01*
X60205Y-43830D01*
X60204Y-43929D01*
X60204Y-44569D01*
X60242Y-44661D01*
X60313Y-44731D01*
X60356Y-44749D01*
X60313Y-44767D01*
X60243Y-44838D01*
X60205Y-44930D01*
X60204Y-45029D01*
X60204Y-45669D01*
X60242Y-45761D01*
X60313Y-45831D01*
X60405Y-45869D01*
X60504Y-45870D01*
X61094Y-45870D01*
X61186Y-45832D01*
X61256Y-45761D01*
X61294Y-45669D01*
X61295Y-45570D01*
X61295Y-46080D01*
X61257Y-45988D01*
X61186Y-45918D01*
X61094Y-45880D01*
X60995Y-45879D01*
X60862Y-45880D01*
X60800Y-45942D01*
X60800Y-46400D01*
X61232Y-46400D01*
X61295Y-46337D01*
X61295Y-46080D01*
X61295Y-46819D01*
X61295Y-46562D01*
X61232Y-46500D01*
X60800Y-46500D01*
X60800Y-46957D01*
X60862Y-47020D01*
X60995Y-47020D01*
X61094Y-47019D01*
X61186Y-46981D01*
X61257Y-46911D01*
X61295Y-46819D01*
X61295Y-48450D01*
X60700Y-48450D01*
X60700Y-46957D01*
X60700Y-46500D01*
X60700Y-46400D01*
X60700Y-45942D01*
X60637Y-45880D01*
X60504Y-45879D01*
X60405Y-45880D01*
X60313Y-45918D01*
X60242Y-45988D01*
X60204Y-46080D01*
X60205Y-46337D01*
X60267Y-46400D01*
X60700Y-46400D01*
X60700Y-46500D01*
X60267Y-46500D01*
X60205Y-46562D01*
X60204Y-46819D01*
X60242Y-46911D01*
X60313Y-46981D01*
X60405Y-47019D01*
X60504Y-47020D01*
X60637Y-47020D01*
X60700Y-46957D01*
X60700Y-48450D01*
X59805Y-48450D01*
X59805Y-45750D01*
X59764Y-45541D01*
X59646Y-45364D01*
X59474Y-45250D01*
X59646Y-45135D01*
X59764Y-44958D01*
X59805Y-44750D01*
X59764Y-44541D01*
X59646Y-44364D01*
X59474Y-44250D01*
X59646Y-44135D01*
X59764Y-43958D01*
X59805Y-43750D01*
X59764Y-43541D01*
X59646Y-43364D01*
X59474Y-43250D01*
X59646Y-43135D01*
X59764Y-42958D01*
X59805Y-42750D01*
X59764Y-42541D01*
X59646Y-42364D01*
X59469Y-42246D01*
X59260Y-42205D01*
X59239Y-42205D01*
X59030Y-42246D01*
X58853Y-42364D01*
X58849Y-42371D01*
X58849Y-41092D01*
X58839Y-40856D01*
X58768Y-40685D01*
X58668Y-40652D01*
X58597Y-40722D01*
X58320Y-41000D01*
X58668Y-41347D01*
X58768Y-41314D01*
X58849Y-41092D01*
X58849Y-42371D01*
X58735Y-42541D01*
X58694Y-42750D01*
X58735Y-42958D01*
X58853Y-43135D01*
X59025Y-43250D01*
X58853Y-43364D01*
X58735Y-43541D01*
X58694Y-43750D01*
X58735Y-43958D01*
X58853Y-44135D01*
X59025Y-44250D01*
X58853Y-44364D01*
X58735Y-44541D01*
X58694Y-44750D01*
X58735Y-44958D01*
X58853Y-45135D01*
X59025Y-45250D01*
X58853Y-45364D01*
X58735Y-45541D01*
X58694Y-45750D01*
X58735Y-45958D01*
X58853Y-46135D01*
X59030Y-46253D01*
X59239Y-46295D01*
X59260Y-46295D01*
X59469Y-46253D01*
X59646Y-46135D01*
X59764Y-45958D01*
X59805Y-45750D01*
X59805Y-48450D01*
X58644Y-48450D01*
X58670Y-48432D01*
X58799Y-48239D01*
X58845Y-48011D01*
X58845Y-47988D01*
X58799Y-47760D01*
X58679Y-47580D01*
X58736Y-47557D01*
X58806Y-47486D01*
X58844Y-47394D01*
X58845Y-47295D01*
X58845Y-46605D01*
X58807Y-46513D01*
X58736Y-46443D01*
X58644Y-46405D01*
X58597Y-46405D01*
X58597Y-41418D01*
X58250Y-41070D01*
X58244Y-41076D01*
X58179Y-41011D01*
X58173Y-41005D01*
X58179Y-41000D01*
X58173Y-40994D01*
X58244Y-40923D01*
X58250Y-40929D01*
X58597Y-40581D01*
X58564Y-40481D01*
X58342Y-40400D01*
X58106Y-40410D01*
X57935Y-40481D01*
X57902Y-40581D01*
X57857Y-40536D01*
X57828Y-40565D01*
X57807Y-40513D01*
X57736Y-40443D01*
X57644Y-40405D01*
X57545Y-40404D01*
X56855Y-40404D01*
X56763Y-40442D01*
X56693Y-40513D01*
X56655Y-40605D01*
X56654Y-40704D01*
X56654Y-41394D01*
X56692Y-41486D01*
X56763Y-41556D01*
X56855Y-41594D01*
X56954Y-41595D01*
X57644Y-41595D01*
X57736Y-41557D01*
X57806Y-41486D01*
X57828Y-41434D01*
X57857Y-41463D01*
X57902Y-41418D01*
X57935Y-41518D01*
X58157Y-41599D01*
X58393Y-41589D01*
X58564Y-41518D01*
X58597Y-41418D01*
X58597Y-46405D01*
X58545Y-46404D01*
X57855Y-46404D01*
X57763Y-46442D01*
X57693Y-46513D01*
X57655Y-46605D01*
X57654Y-46704D01*
X57654Y-47394D01*
X57692Y-47486D01*
X57763Y-47556D01*
X57820Y-47580D01*
X57700Y-47760D01*
X57655Y-47988D01*
X57655Y-48011D01*
X57700Y-48239D01*
X57829Y-48432D01*
X57855Y-48450D01*
X56644Y-48450D01*
X56670Y-48432D01*
X56799Y-48239D01*
X56845Y-48011D01*
X56845Y-47988D01*
X56799Y-47760D01*
X56679Y-47580D01*
X56736Y-47557D01*
X56806Y-47486D01*
X56844Y-47394D01*
X56845Y-47295D01*
X56845Y-46605D01*
X56807Y-46513D01*
X56736Y-46443D01*
X56644Y-46405D01*
X56545Y-46404D01*
X56270Y-46404D01*
X56270Y-41245D01*
X56270Y-40655D01*
X56232Y-40563D01*
X56161Y-40493D01*
X56069Y-40455D01*
X55970Y-40454D01*
X55330Y-40454D01*
X55238Y-40492D01*
X55168Y-40563D01*
X55130Y-40655D01*
X55129Y-40754D01*
X55129Y-41344D01*
X55167Y-41436D01*
X55238Y-41506D01*
X55330Y-41544D01*
X55429Y-41545D01*
X56069Y-41545D01*
X56161Y-41507D01*
X56231Y-41436D01*
X56269Y-41344D01*
X56270Y-41245D01*
X56270Y-46404D01*
X55855Y-46404D01*
X55805Y-46425D01*
X55805Y-45750D01*
X55764Y-45541D01*
X55646Y-45364D01*
X55474Y-45250D01*
X55646Y-45135D01*
X55764Y-44958D01*
X55805Y-44750D01*
X55764Y-44541D01*
X55646Y-44364D01*
X55474Y-44250D01*
X55646Y-44135D01*
X55764Y-43958D01*
X55805Y-43750D01*
X55764Y-43541D01*
X55646Y-43364D01*
X55474Y-43250D01*
X55646Y-43135D01*
X55764Y-42958D01*
X55805Y-42750D01*
X55764Y-42541D01*
X55646Y-42364D01*
X55469Y-42246D01*
X55260Y-42205D01*
X55239Y-42205D01*
X55120Y-42228D01*
X55120Y-41245D01*
X55120Y-40754D01*
X55119Y-40655D01*
X55081Y-40563D01*
X55011Y-40492D01*
X54919Y-40454D01*
X54662Y-40455D01*
X54600Y-40517D01*
X54600Y-40950D01*
X55057Y-40950D01*
X55120Y-40887D01*
X55120Y-40754D01*
X55120Y-41245D01*
X55120Y-41112D01*
X55057Y-41050D01*
X54600Y-41050D01*
X54600Y-41482D01*
X54662Y-41545D01*
X54919Y-41545D01*
X55011Y-41507D01*
X55081Y-41436D01*
X55119Y-41344D01*
X55120Y-41245D01*
X55120Y-42228D01*
X55030Y-42246D01*
X54853Y-42364D01*
X54735Y-42541D01*
X54694Y-42750D01*
X54735Y-42958D01*
X54853Y-43135D01*
X55025Y-43250D01*
X54853Y-43364D01*
X54735Y-43541D01*
X54694Y-43750D01*
X54735Y-43958D01*
X54853Y-44135D01*
X55025Y-44250D01*
X54853Y-44364D01*
X54735Y-44541D01*
X54694Y-44750D01*
X54735Y-44958D01*
X54853Y-45135D01*
X55025Y-45250D01*
X54853Y-45364D01*
X54735Y-45541D01*
X54694Y-45750D01*
X54735Y-45958D01*
X54853Y-46135D01*
X55030Y-46253D01*
X55239Y-46295D01*
X55260Y-46295D01*
X55469Y-46253D01*
X55646Y-46135D01*
X55764Y-45958D01*
X55805Y-45750D01*
X55805Y-46425D01*
X55763Y-46442D01*
X55693Y-46513D01*
X55655Y-46605D01*
X55654Y-46704D01*
X55654Y-47394D01*
X55692Y-47486D01*
X55763Y-47556D01*
X55820Y-47580D01*
X55700Y-47760D01*
X55655Y-47988D01*
X55655Y-48011D01*
X55700Y-48239D01*
X55829Y-48432D01*
X55855Y-48450D01*
X54500Y-48450D01*
X54500Y-41482D01*
X54500Y-41050D01*
X54500Y-40950D01*
X54500Y-40517D01*
X54437Y-40455D01*
X54180Y-40454D01*
X54118Y-40480D01*
X54118Y-40427D01*
X54062Y-40291D01*
X53990Y-40219D01*
X54087Y-40272D01*
X54115Y-40278D01*
X54200Y-40229D01*
X54200Y-39652D01*
X54192Y-39652D01*
X54192Y-39552D01*
X54200Y-39552D01*
X54200Y-38975D01*
X54115Y-38926D01*
X54087Y-38932D01*
X54068Y-38942D01*
X54118Y-38823D01*
X54118Y-38677D01*
X54062Y-38541D01*
X53958Y-38438D01*
X53823Y-38381D01*
X53677Y-38381D01*
X53541Y-38437D01*
X53529Y-38450D01*
X52970Y-38450D01*
X52958Y-38438D01*
X52823Y-38381D01*
X52677Y-38381D01*
X52541Y-38437D01*
X52438Y-38541D01*
X52381Y-38676D01*
X52381Y-38822D01*
X52426Y-38931D01*
X52250Y-38896D01*
X52041Y-38937D01*
X51864Y-39056D01*
X51750Y-39227D01*
X51635Y-39056D01*
X51532Y-38987D01*
X51561Y-38958D01*
X51618Y-38823D01*
X51618Y-38677D01*
X51562Y-38541D01*
X51550Y-38529D01*
X51550Y-37970D01*
X51561Y-37958D01*
X51618Y-37823D01*
X51618Y-37677D01*
X51562Y-37541D01*
X51532Y-37512D01*
X51635Y-37443D01*
X51750Y-37272D01*
X51864Y-37443D01*
X52041Y-37562D01*
X52250Y-37603D01*
X52458Y-37562D01*
X52635Y-37443D01*
X52753Y-37267D01*
X52754Y-37262D01*
X52765Y-37299D01*
X52899Y-37465D01*
X53087Y-37567D01*
X53115Y-37573D01*
X53200Y-37524D01*
X53200Y-36947D01*
X53192Y-36947D01*
X53192Y-36847D01*
X53200Y-36847D01*
X53200Y-36270D01*
X53115Y-36221D01*
X53087Y-36227D01*
X52899Y-36329D01*
X52765Y-36495D01*
X52754Y-36532D01*
X52753Y-36527D01*
X52635Y-36351D01*
X52458Y-36232D01*
X52250Y-36191D01*
X52041Y-36232D01*
X51864Y-36351D01*
X51750Y-36522D01*
X51635Y-36351D01*
X51618Y-36339D01*
X51618Y-34459D01*
X51325Y-34165D01*
X51254Y-34236D01*
X51254Y-34095D01*
X50960Y-33801D01*
X50868Y-33825D01*
X50800Y-34020D01*
X50811Y-34226D01*
X50868Y-34364D01*
X50960Y-34388D01*
X51254Y-34095D01*
X51254Y-34236D01*
X51031Y-34459D01*
X51055Y-34551D01*
X51250Y-34619D01*
X51456Y-34608D01*
X51594Y-34551D01*
X51618Y-34459D01*
X51618Y-36339D01*
X51458Y-36232D01*
X51250Y-36191D01*
X51041Y-36232D01*
X50864Y-36351D01*
X50750Y-36522D01*
X50635Y-36351D01*
X50458Y-36232D01*
X50250Y-36191D01*
X50041Y-36232D01*
X49864Y-36351D01*
X49750Y-36522D01*
X49635Y-36351D01*
X49458Y-36232D01*
X49250Y-36191D01*
X49041Y-36232D01*
X48864Y-36351D01*
X48750Y-36522D01*
X48635Y-36351D01*
X48458Y-36232D01*
X48250Y-36191D01*
X48041Y-36232D01*
X47864Y-36351D01*
X47750Y-36522D01*
X47635Y-36351D01*
X47458Y-36232D01*
X47250Y-36191D01*
X47041Y-36232D01*
X46864Y-36351D01*
X46746Y-36527D01*
X46705Y-36736D01*
X46705Y-37058D01*
X46746Y-37267D01*
X46864Y-37443D01*
X47041Y-37562D01*
X47250Y-37603D01*
X47458Y-37562D01*
X47635Y-37443D01*
X47750Y-37272D01*
X47864Y-37443D01*
X48041Y-37562D01*
X48250Y-37603D01*
X48458Y-37562D01*
X48635Y-37443D01*
X48750Y-37272D01*
X48864Y-37443D01*
X49041Y-37562D01*
X49250Y-37603D01*
X49458Y-37562D01*
X49635Y-37443D01*
X49750Y-37272D01*
X49864Y-37443D01*
X50041Y-37562D01*
X50250Y-37603D01*
X50458Y-37562D01*
X50635Y-37443D01*
X50750Y-37272D01*
X50864Y-37443D01*
X50967Y-37512D01*
X50938Y-37541D01*
X50881Y-37676D01*
X50881Y-37822D01*
X50937Y-37958D01*
X50950Y-37970D01*
X50950Y-38529D01*
X50938Y-38541D01*
X50881Y-38676D01*
X50881Y-38822D01*
X50937Y-38958D01*
X50967Y-38987D01*
X50864Y-39056D01*
X50750Y-39227D01*
X50635Y-39056D01*
X50458Y-38937D01*
X50250Y-38896D01*
X50041Y-38937D01*
X49864Y-39056D01*
X49750Y-39227D01*
X49635Y-39056D01*
X49458Y-38937D01*
X49250Y-38896D01*
X49041Y-38937D01*
X48864Y-39056D01*
X48750Y-39227D01*
X48635Y-39056D01*
X48458Y-38937D01*
X48250Y-38896D01*
X48041Y-38937D01*
X47864Y-39056D01*
X47795Y-39160D01*
X47795Y-39110D01*
X47757Y-39018D01*
X47686Y-38948D01*
X47594Y-38910D01*
X47495Y-38909D01*
X46905Y-38909D01*
X46813Y-38947D01*
X46743Y-39018D01*
X46705Y-39110D01*
X46704Y-39209D01*
X46704Y-40094D01*
X46742Y-40186D01*
X46813Y-40256D01*
X46905Y-40294D01*
X47004Y-40295D01*
X47086Y-40295D01*
X47068Y-40313D01*
X47030Y-40405D01*
X47029Y-40504D01*
X47029Y-41094D01*
X47067Y-41186D01*
X47102Y-41220D01*
X47041Y-41232D01*
X46864Y-41351D01*
X46746Y-41527D01*
X46705Y-41736D01*
X46705Y-42058D01*
X46746Y-42267D01*
X46864Y-42443D01*
X47041Y-42562D01*
X47250Y-42603D01*
X47458Y-42562D01*
X47635Y-42443D01*
X47750Y-42272D01*
X47864Y-42443D01*
X48041Y-42562D01*
X48250Y-42603D01*
X48458Y-42562D01*
X48635Y-42443D01*
X48750Y-42272D01*
X48864Y-42443D01*
X49041Y-42562D01*
X49250Y-42603D01*
X49458Y-42562D01*
X49635Y-42443D01*
X49750Y-42272D01*
X49864Y-42443D01*
X50041Y-42562D01*
X50250Y-42603D01*
X50458Y-42562D01*
X50635Y-42443D01*
X50750Y-42272D01*
X50864Y-42443D01*
X51041Y-42562D01*
X51250Y-42603D01*
X51458Y-42562D01*
X51635Y-42443D01*
X51750Y-42272D01*
X51864Y-42443D01*
X52041Y-42562D01*
X52250Y-42603D01*
X52458Y-42562D01*
X52635Y-42443D01*
X52704Y-42339D01*
X52704Y-42389D01*
X52742Y-42481D01*
X52813Y-42551D01*
X52905Y-42589D01*
X53004Y-42590D01*
X53594Y-42590D01*
X53686Y-42552D01*
X53756Y-42481D01*
X53794Y-42389D01*
X53795Y-42290D01*
X53795Y-41405D01*
X53757Y-41313D01*
X53686Y-41243D01*
X53594Y-41205D01*
X53495Y-41204D01*
X52905Y-41204D01*
X52813Y-41242D01*
X52743Y-41313D01*
X52705Y-41405D01*
X52704Y-41455D01*
X52635Y-41351D01*
X52458Y-41232D01*
X52250Y-41191D01*
X52041Y-41232D01*
X51864Y-41351D01*
X51750Y-41522D01*
X51635Y-41351D01*
X51458Y-41232D01*
X51250Y-41191D01*
X51041Y-41232D01*
X50864Y-41351D01*
X50750Y-41522D01*
X50635Y-41351D01*
X50458Y-41232D01*
X50250Y-41191D01*
X50041Y-41232D01*
X49864Y-41351D01*
X49750Y-41522D01*
X49635Y-41351D01*
X49458Y-41232D01*
X49272Y-41195D01*
X49281Y-41186D01*
X49319Y-41094D01*
X49320Y-40995D01*
X49320Y-40862D01*
X49257Y-40800D01*
X48800Y-40800D01*
X48800Y-41232D01*
X48862Y-41295D01*
X48948Y-41295D01*
X48864Y-41351D01*
X48750Y-41522D01*
X48635Y-41351D01*
X48551Y-41295D01*
X48637Y-41295D01*
X48700Y-41232D01*
X48700Y-40800D01*
X48242Y-40800D01*
X48180Y-40862D01*
X48179Y-40995D01*
X48180Y-41094D01*
X48218Y-41186D01*
X48227Y-41195D01*
X48096Y-41221D01*
X48131Y-41186D01*
X48169Y-41094D01*
X48170Y-40995D01*
X48170Y-40405D01*
X48132Y-40313D01*
X48096Y-40278D01*
X48227Y-40304D01*
X48218Y-40313D01*
X48180Y-40405D01*
X48179Y-40504D01*
X48180Y-40637D01*
X48242Y-40700D01*
X48700Y-40700D01*
X48700Y-40267D01*
X48637Y-40205D01*
X48551Y-40204D01*
X48635Y-40148D01*
X48750Y-39977D01*
X48864Y-40148D01*
X48948Y-40204D01*
X48862Y-40205D01*
X48800Y-40267D01*
X48800Y-40700D01*
X49257Y-40700D01*
X49320Y-40637D01*
X49320Y-40504D01*
X49319Y-40405D01*
X49281Y-40313D01*
X49272Y-40304D01*
X49458Y-40267D01*
X49635Y-40148D01*
X49750Y-39977D01*
X49864Y-40148D01*
X50041Y-40267D01*
X50250Y-40308D01*
X50458Y-40267D01*
X50635Y-40148D01*
X50750Y-39977D01*
X50864Y-40148D01*
X51041Y-40267D01*
X51250Y-40308D01*
X51458Y-40267D01*
X51635Y-40148D01*
X51750Y-39977D01*
X51864Y-40148D01*
X52041Y-40267D01*
X52250Y-40308D01*
X52458Y-40267D01*
X52469Y-40259D01*
X52438Y-40291D01*
X52381Y-40426D01*
X52381Y-40572D01*
X52437Y-40708D01*
X52541Y-40811D01*
X52676Y-40868D01*
X52822Y-40868D01*
X52958Y-40812D01*
X52970Y-40800D01*
X53529Y-40800D01*
X53541Y-40811D01*
X53676Y-40868D01*
X53822Y-40868D01*
X53958Y-40812D01*
X53979Y-40790D01*
X53980Y-40887D01*
X54042Y-40950D01*
X54500Y-40950D01*
X54500Y-41050D01*
X54042Y-41050D01*
X53980Y-41112D01*
X53979Y-41245D01*
X53980Y-41344D01*
X54018Y-41436D01*
X54088Y-41507D01*
X54180Y-41545D01*
X54437Y-41545D01*
X54500Y-41482D01*
X54500Y-48450D01*
X53795Y-48450D01*
X53795Y-47819D01*
X53795Y-47080D01*
X53795Y-46570D01*
X53795Y-45930D01*
X53795Y-45930D01*
X53795Y-44800D01*
X53795Y-44652D01*
X53795Y-44552D01*
X53795Y-44405D01*
X53734Y-44200D01*
X53600Y-44034D01*
X53412Y-43932D01*
X53384Y-43926D01*
X53300Y-43975D01*
X53300Y-44552D01*
X53795Y-44552D01*
X53795Y-44652D01*
X53300Y-44652D01*
X53300Y-45229D01*
X53384Y-45278D01*
X53412Y-45272D01*
X53600Y-45170D01*
X53734Y-45004D01*
X53795Y-44800D01*
X53795Y-45930D01*
X53757Y-45838D01*
X53686Y-45768D01*
X53594Y-45730D01*
X53495Y-45729D01*
X53200Y-45729D01*
X53200Y-45229D01*
X53200Y-44652D01*
X53192Y-44652D01*
X53192Y-44552D01*
X53200Y-44552D01*
X53200Y-43975D01*
X53115Y-43926D01*
X53087Y-43932D01*
X52899Y-44034D01*
X52765Y-44200D01*
X52754Y-44237D01*
X52753Y-44232D01*
X52635Y-44056D01*
X52458Y-43937D01*
X52250Y-43896D01*
X52041Y-43937D01*
X51864Y-44056D01*
X51750Y-44227D01*
X51635Y-44056D01*
X51458Y-43937D01*
X51250Y-43896D01*
X51041Y-43937D01*
X50864Y-44056D01*
X50750Y-44227D01*
X50635Y-44056D01*
X50458Y-43937D01*
X50250Y-43896D01*
X50041Y-43937D01*
X49864Y-44056D01*
X49750Y-44227D01*
X49635Y-44056D01*
X49458Y-43937D01*
X49250Y-43896D01*
X49041Y-43937D01*
X48864Y-44056D01*
X48750Y-44227D01*
X48635Y-44056D01*
X48458Y-43937D01*
X48250Y-43896D01*
X48041Y-43937D01*
X47864Y-44056D01*
X47750Y-44227D01*
X47635Y-44056D01*
X47458Y-43937D01*
X47250Y-43896D01*
X47041Y-43937D01*
X46864Y-44056D01*
X46746Y-44232D01*
X46705Y-44441D01*
X46705Y-44763D01*
X46746Y-44972D01*
X46864Y-45148D01*
X47041Y-45267D01*
X47250Y-45308D01*
X47458Y-45267D01*
X47635Y-45148D01*
X47750Y-44977D01*
X47864Y-45148D01*
X48041Y-45267D01*
X48250Y-45308D01*
X48458Y-45267D01*
X48635Y-45148D01*
X48750Y-44977D01*
X48864Y-45148D01*
X49041Y-45267D01*
X49250Y-45308D01*
X49458Y-45267D01*
X49635Y-45148D01*
X49750Y-44977D01*
X49864Y-45148D01*
X50041Y-45267D01*
X50250Y-45308D01*
X50458Y-45267D01*
X50635Y-45148D01*
X50750Y-44977D01*
X50864Y-45148D01*
X51041Y-45267D01*
X51250Y-45308D01*
X51458Y-45267D01*
X51635Y-45148D01*
X51750Y-44977D01*
X51864Y-45148D01*
X52041Y-45267D01*
X52250Y-45308D01*
X52458Y-45267D01*
X52635Y-45148D01*
X52753Y-44972D01*
X52754Y-44967D01*
X52765Y-45004D01*
X52899Y-45170D01*
X53087Y-45272D01*
X53115Y-45278D01*
X53200Y-45229D01*
X53200Y-45729D01*
X52905Y-45729D01*
X52813Y-45767D01*
X52749Y-45831D01*
X52686Y-45768D01*
X52594Y-45730D01*
X52495Y-45729D01*
X51905Y-45729D01*
X51813Y-45767D01*
X51743Y-45838D01*
X51705Y-45930D01*
X51704Y-46029D01*
X51704Y-46669D01*
X51742Y-46761D01*
X51813Y-46831D01*
X51905Y-46869D01*
X52004Y-46870D01*
X52594Y-46870D01*
X52686Y-46832D01*
X52750Y-46768D01*
X52813Y-46831D01*
X52905Y-46869D01*
X53004Y-46870D01*
X53594Y-46870D01*
X53686Y-46832D01*
X53756Y-46761D01*
X53794Y-46669D01*
X53795Y-46570D01*
X53795Y-47080D01*
X53757Y-46988D01*
X53686Y-46918D01*
X53594Y-46880D01*
X53495Y-46879D01*
X53362Y-46880D01*
X53300Y-46942D01*
X53300Y-47400D01*
X53732Y-47400D01*
X53795Y-47337D01*
X53795Y-47080D01*
X53795Y-47819D01*
X53795Y-47562D01*
X53732Y-47500D01*
X53300Y-47500D01*
X53300Y-47957D01*
X53362Y-48020D01*
X53495Y-48020D01*
X53594Y-48019D01*
X53686Y-47981D01*
X53757Y-47911D01*
X53795Y-47819D01*
X53795Y-48450D01*
X53200Y-48450D01*
X53200Y-47957D01*
X53200Y-47500D01*
X53200Y-47400D01*
X53200Y-46942D01*
X53137Y-46880D01*
X53004Y-46879D01*
X52905Y-46880D01*
X52813Y-46918D01*
X52750Y-46981D01*
X52686Y-46918D01*
X52594Y-46880D01*
X52495Y-46879D01*
X52362Y-46880D01*
X52300Y-46942D01*
X52300Y-47400D01*
X52732Y-47400D01*
X52750Y-47382D01*
X52767Y-47400D01*
X53200Y-47400D01*
X53200Y-47500D01*
X52767Y-47500D01*
X52750Y-47517D01*
X52732Y-47500D01*
X52300Y-47500D01*
X52300Y-47957D01*
X52362Y-48020D01*
X52495Y-48020D01*
X52594Y-48019D01*
X52686Y-47981D01*
X52750Y-47918D01*
X52813Y-47981D01*
X52905Y-48019D01*
X53004Y-48020D01*
X53137Y-48020D01*
X53200Y-47957D01*
X53200Y-48450D01*
X52200Y-48450D01*
X52200Y-47957D01*
X52200Y-47500D01*
X52200Y-47400D01*
X52200Y-46942D01*
X52137Y-46880D01*
X52004Y-46879D01*
X51905Y-46880D01*
X51813Y-46918D01*
X51742Y-46988D01*
X51704Y-47080D01*
X51705Y-47337D01*
X51767Y-47400D01*
X52200Y-47400D01*
X52200Y-47500D01*
X51767Y-47500D01*
X51705Y-47562D01*
X51704Y-47819D01*
X51742Y-47911D01*
X51813Y-47981D01*
X51905Y-48019D01*
X52004Y-48020D01*
X52137Y-48020D01*
X52200Y-47957D01*
X52200Y-48450D01*
X51345Y-48450D01*
X51345Y-48045D01*
X51345Y-47355D01*
X51307Y-47263D01*
X51236Y-47193D01*
X51144Y-47155D01*
X51045Y-47154D01*
X50355Y-47154D01*
X50263Y-47192D01*
X50193Y-47263D01*
X50167Y-47325D01*
X50087Y-47245D01*
X49868Y-47155D01*
X49632Y-47154D01*
X49413Y-47245D01*
X49249Y-47408D01*
X49087Y-47245D01*
X48868Y-47155D01*
X48632Y-47154D01*
X48413Y-47245D01*
X48245Y-47412D01*
X48240Y-47425D01*
X48168Y-47402D01*
X48097Y-47472D01*
X48097Y-47331D01*
X48064Y-47231D01*
X47842Y-47150D01*
X47606Y-47160D01*
X47435Y-47231D01*
X47402Y-47331D01*
X47750Y-47679D01*
X48097Y-47331D01*
X48097Y-47472D01*
X47820Y-47750D01*
X48168Y-48097D01*
X48240Y-48074D01*
X48245Y-48086D01*
X48412Y-48254D01*
X48631Y-48344D01*
X48867Y-48345D01*
X49086Y-48254D01*
X49250Y-48091D01*
X49412Y-48254D01*
X49631Y-48344D01*
X49867Y-48345D01*
X50086Y-48254D01*
X50167Y-48174D01*
X50192Y-48236D01*
X50263Y-48306D01*
X50355Y-48344D01*
X50454Y-48345D01*
X51144Y-48345D01*
X51236Y-48307D01*
X51306Y-48236D01*
X51344Y-48144D01*
X51345Y-48045D01*
X51345Y-48450D01*
X48097Y-48450D01*
X48097Y-48168D01*
X47750Y-47820D01*
X47679Y-47891D01*
X47679Y-47750D01*
X47331Y-47402D01*
X47231Y-47435D01*
X47150Y-47657D01*
X47160Y-47893D01*
X47231Y-48064D01*
X47331Y-48097D01*
X47679Y-47750D01*
X47679Y-47891D01*
X47402Y-48168D01*
X47435Y-48268D01*
X47657Y-48349D01*
X47893Y-48339D01*
X48064Y-48268D01*
X48097Y-48168D01*
X48097Y-48450D01*
X47676Y-48450D01*
X47446Y-48404D01*
X46799Y-47972D01*
X46787Y-47955D01*
X46550Y-47241D01*
X46550Y-34300D01*
X47800Y-34300D01*
X47800Y-32200D01*
X46550Y-32200D01*
X46550Y-29550D01*
X65450Y-29550D01*
X65450Y-32200D01*
X64200Y-32200D01*
X64200Y-34300D01*
X65450Y-34300D01*
X65450Y-40531D01*
X65411Y-40492D01*
X65345Y-40465D01*
X65345Y-39632D01*
X65345Y-35632D01*
X65254Y-35413D01*
X65087Y-35245D01*
X64868Y-35155D01*
X64632Y-35154D01*
X64413Y-35245D01*
X64245Y-35412D01*
X64155Y-35631D01*
X64154Y-35867D01*
X64245Y-36086D01*
X64412Y-36254D01*
X64631Y-36344D01*
X64867Y-36345D01*
X65086Y-36254D01*
X65254Y-36087D01*
X65344Y-35868D01*
X65345Y-35632D01*
X65345Y-39632D01*
X65254Y-39413D01*
X65087Y-39245D01*
X64868Y-39155D01*
X64632Y-39154D01*
X64413Y-39245D01*
X64245Y-39412D01*
X64155Y-39631D01*
X64154Y-39867D01*
X64245Y-40086D01*
X64412Y-40254D01*
X64631Y-40344D01*
X64867Y-40345D01*
X65086Y-40254D01*
X65254Y-40087D01*
X65344Y-39868D01*
X65345Y-39632D01*
X65345Y-40465D01*
X65319Y-40454D01*
X65062Y-40455D01*
X65000Y-40517D01*
X65000Y-40950D01*
X65007Y-40950D01*
X65007Y-41050D01*
X65000Y-41050D01*
X65000Y-41482D01*
X65062Y-41545D01*
X65319Y-41545D01*
X65411Y-41507D01*
X65450Y-41468D01*
X65450Y-46993D01*
X65450Y-46993D01*
G37*
G54D25*
X65450Y-46993D02*
X65208Y-47960D01*
X65203Y-47967D01*
X65034Y-48051D01*
X65034Y-47249D01*
X65034Y-42525D01*
X65027Y-42214D01*
X64922Y-41961D01*
X64900Y-41950D01*
X64900Y-41482D01*
X64900Y-41050D01*
X64900Y-40950D01*
X64900Y-40517D01*
X64837Y-40455D01*
X64580Y-40454D01*
X64488Y-40492D01*
X64418Y-40563D01*
X64380Y-40655D01*
X64379Y-40754D01*
X64380Y-40887D01*
X64442Y-40950D01*
X64900Y-40950D01*
X64900Y-41050D01*
X64442Y-41050D01*
X64380Y-41112D01*
X64379Y-41245D01*
X64380Y-41344D01*
X64418Y-41436D01*
X64488Y-41507D01*
X64580Y-41545D01*
X64837Y-41545D01*
X64900Y-41482D01*
X64900Y-41950D01*
X64803Y-41905D01*
X64732Y-41976D01*
X64732Y-41834D01*
X64676Y-41715D01*
X64387Y-41603D01*
X64370Y-41603D01*
X64370Y-41245D01*
X64370Y-40655D01*
X64332Y-40563D01*
X64261Y-40493D01*
X64169Y-40455D01*
X64070Y-40454D01*
X63595Y-40454D01*
X63595Y-36045D01*
X63595Y-35355D01*
X63557Y-35263D01*
X63486Y-35193D01*
X63394Y-35155D01*
X63295Y-35154D01*
X62605Y-35154D01*
X62513Y-35192D01*
X62443Y-35263D01*
X62405Y-35355D01*
X62404Y-35454D01*
X62404Y-36144D01*
X62442Y-36236D01*
X62513Y-36306D01*
X62586Y-36337D01*
X62520Y-36397D01*
X62422Y-36607D01*
X62469Y-36700D01*
X62950Y-36700D01*
X62950Y-36692D01*
X63050Y-36692D01*
X63050Y-36700D01*
X63530Y-36700D01*
X63577Y-36607D01*
X63479Y-36397D01*
X63413Y-36337D01*
X63486Y-36307D01*
X63556Y-36236D01*
X63594Y-36144D01*
X63595Y-36045D01*
X63595Y-40454D01*
X63577Y-40454D01*
X63577Y-36892D01*
X63530Y-36800D01*
X63050Y-36800D01*
X63050Y-37280D01*
X63142Y-37327D01*
X63308Y-37259D01*
X63479Y-37102D01*
X63577Y-36892D01*
X63577Y-40454D01*
X63430Y-40454D01*
X63338Y-40492D01*
X63268Y-40563D01*
X63230Y-40655D01*
X63229Y-40754D01*
X63229Y-41344D01*
X63267Y-41436D01*
X63338Y-41506D01*
X63430Y-41544D01*
X63529Y-41545D01*
X64169Y-41545D01*
X64261Y-41507D01*
X64331Y-41436D01*
X64369Y-41344D01*
X64370Y-41245D01*
X64370Y-41603D01*
X64076Y-41610D01*
X63823Y-41715D01*
X63767Y-41834D01*
X64250Y-42317D01*
X64732Y-41834D01*
X64732Y-41976D01*
X64320Y-42388D01*
X64803Y-42870D01*
X64922Y-42814D01*
X65034Y-42525D01*
X65034Y-47249D01*
X65027Y-46938D01*
X64922Y-46685D01*
X64803Y-46629D01*
X64732Y-46700D01*
X64732Y-46558D01*
X64732Y-42941D01*
X64250Y-42458D01*
X64179Y-42529D01*
X64179Y-42388D01*
X63696Y-41905D01*
X63577Y-41961D01*
X63465Y-42250D01*
X63472Y-42561D01*
X63577Y-42814D01*
X63696Y-42870D01*
X64179Y-42388D01*
X64179Y-42529D01*
X63767Y-42941D01*
X63823Y-43060D01*
X64112Y-43172D01*
X64423Y-43165D01*
X64676Y-43060D01*
X64732Y-42941D01*
X64732Y-46558D01*
X64676Y-46439D01*
X64387Y-46327D01*
X64076Y-46334D01*
X63823Y-46439D01*
X63767Y-46558D01*
X64250Y-47041D01*
X64732Y-46558D01*
X64732Y-46700D01*
X64320Y-47112D01*
X64803Y-47594D01*
X64922Y-47538D01*
X65034Y-47249D01*
X65034Y-48051D01*
X64732Y-48202D01*
X64732Y-47665D01*
X64250Y-47182D01*
X64179Y-47253D01*
X64179Y-47112D01*
X63736Y-46669D01*
X63736Y-44330D01*
X63725Y-44114D01*
X63664Y-43965D01*
X63569Y-43938D01*
X63498Y-44009D01*
X63498Y-43867D01*
X63471Y-43772D01*
X63267Y-43700D01*
X63051Y-43711D01*
X62950Y-43753D01*
X62950Y-37280D01*
X62950Y-36800D01*
X62469Y-36800D01*
X62422Y-36892D01*
X62520Y-37102D01*
X62691Y-37259D01*
X62857Y-37327D01*
X62950Y-37280D01*
X62950Y-43753D01*
X62902Y-43772D01*
X62875Y-43867D01*
X63187Y-44179D01*
X63498Y-43867D01*
X63498Y-44009D01*
X63257Y-44250D01*
X63569Y-44561D01*
X63664Y-44534D01*
X63736Y-44330D01*
X63736Y-46669D01*
X63732Y-46664D01*
X63732Y-45142D01*
X63649Y-44941D01*
X63496Y-44788D01*
X63410Y-44752D01*
X63471Y-44727D01*
X63498Y-44632D01*
X63187Y-44320D01*
X62875Y-44632D01*
X62902Y-44727D01*
X62968Y-44750D01*
X62878Y-44787D01*
X62793Y-44872D01*
X62709Y-44788D01*
X62617Y-44750D01*
X62708Y-44712D01*
X62861Y-44559D01*
X62900Y-44465D01*
X63116Y-44250D01*
X62900Y-44034D01*
X62862Y-43941D01*
X62709Y-43788D01*
X62508Y-43705D01*
X62295Y-43704D01*
X62295Y-40745D01*
X62295Y-40155D01*
X62257Y-40063D01*
X62186Y-39993D01*
X62094Y-39955D01*
X61995Y-39954D01*
X61797Y-39954D01*
X61885Y-39896D01*
X62003Y-39719D01*
X62045Y-39510D01*
X62045Y-39489D01*
X62045Y-35510D01*
X62045Y-35489D01*
X62003Y-35280D01*
X61885Y-35103D01*
X61708Y-34985D01*
X61500Y-34944D01*
X61291Y-34985D01*
X61195Y-35050D01*
X61195Y-33992D01*
X61195Y-32302D01*
X61116Y-32110D01*
X60969Y-31964D01*
X60778Y-31885D01*
X60572Y-31884D01*
X60380Y-31963D01*
X60249Y-32094D01*
X60119Y-31964D01*
X59928Y-31885D01*
X59722Y-31884D01*
X59530Y-31963D01*
X59399Y-32094D01*
X59269Y-31964D01*
X59078Y-31885D01*
X58872Y-31884D01*
X58680Y-31963D01*
X58549Y-32094D01*
X58419Y-31964D01*
X58228Y-31885D01*
X58022Y-31884D01*
X57830Y-31963D01*
X57699Y-32094D01*
X57569Y-31964D01*
X57378Y-31885D01*
X57172Y-31884D01*
X56980Y-31963D01*
X56834Y-32110D01*
X56829Y-32121D01*
X56789Y-32111D01*
X56718Y-32182D01*
X56718Y-32040D01*
X56694Y-31948D01*
X56499Y-31880D01*
X56293Y-31891D01*
X56155Y-31948D01*
X56131Y-32040D01*
X56425Y-32334D01*
X56718Y-32040D01*
X56718Y-32182D01*
X56495Y-32405D01*
X56789Y-32698D01*
X56829Y-32688D01*
X56833Y-32699D01*
X56980Y-32845D01*
X57171Y-32924D01*
X57377Y-32925D01*
X57569Y-32846D01*
X57700Y-32715D01*
X57830Y-32845D01*
X58021Y-32924D01*
X58227Y-32925D01*
X58419Y-32846D01*
X58550Y-32715D01*
X58680Y-32845D01*
X58871Y-32924D01*
X59077Y-32925D01*
X59269Y-32846D01*
X59400Y-32715D01*
X59530Y-32845D01*
X59721Y-32924D01*
X59927Y-32925D01*
X60119Y-32846D01*
X60250Y-32715D01*
X60380Y-32845D01*
X60571Y-32924D01*
X60777Y-32925D01*
X60969Y-32846D01*
X61115Y-32699D01*
X61194Y-32508D01*
X61195Y-32302D01*
X61195Y-33992D01*
X61116Y-33800D01*
X60969Y-33654D01*
X60778Y-33575D01*
X60572Y-33574D01*
X60380Y-33653D01*
X60249Y-33784D01*
X60119Y-33654D01*
X59928Y-33575D01*
X59722Y-33574D01*
X59530Y-33653D01*
X59399Y-33784D01*
X59269Y-33654D01*
X59078Y-33575D01*
X58872Y-33574D01*
X58680Y-33653D01*
X58549Y-33784D01*
X58419Y-33654D01*
X58228Y-33575D01*
X58022Y-33574D01*
X57830Y-33653D01*
X57699Y-33784D01*
X57569Y-33654D01*
X57378Y-33575D01*
X57172Y-33574D01*
X56980Y-33653D01*
X56849Y-33784D01*
X56719Y-33654D01*
X56718Y-33653D01*
X56718Y-32769D01*
X56425Y-32475D01*
X56354Y-32546D01*
X56354Y-32405D01*
X56060Y-32111D01*
X55999Y-32127D01*
X55939Y-32111D01*
X55868Y-32182D01*
X55868Y-32040D01*
X55844Y-31948D01*
X55649Y-31880D01*
X55443Y-31891D01*
X55305Y-31948D01*
X55281Y-32040D01*
X55575Y-32334D01*
X55868Y-32040D01*
X55868Y-32182D01*
X55645Y-32405D01*
X55939Y-32698D01*
X55999Y-32682D01*
X56060Y-32698D01*
X56354Y-32405D01*
X56354Y-32546D01*
X56131Y-32769D01*
X56155Y-32861D01*
X56350Y-32929D01*
X56556Y-32918D01*
X56694Y-32861D01*
X56718Y-32769D01*
X56718Y-33653D01*
X56528Y-33575D01*
X56322Y-33574D01*
X56130Y-33653D01*
X55999Y-33784D01*
X55869Y-33654D01*
X55868Y-33653D01*
X55868Y-32769D01*
X55575Y-32475D01*
X55504Y-32546D01*
X55504Y-32405D01*
X55210Y-32111D01*
X55149Y-32127D01*
X55089Y-32111D01*
X55018Y-32182D01*
X55018Y-32040D01*
X54994Y-31948D01*
X54799Y-31880D01*
X54593Y-31891D01*
X54455Y-31948D01*
X54431Y-32040D01*
X54725Y-32334D01*
X55018Y-32040D01*
X55018Y-32182D01*
X54795Y-32405D01*
X55089Y-32698D01*
X55149Y-32682D01*
X55210Y-32698D01*
X55504Y-32405D01*
X55504Y-32546D01*
X55281Y-32769D01*
X55305Y-32861D01*
X55500Y-32929D01*
X55706Y-32918D01*
X55844Y-32861D01*
X55868Y-32769D01*
X55868Y-33653D01*
X55678Y-33575D01*
X55472Y-33574D01*
X55280Y-33653D01*
X55149Y-33784D01*
X55019Y-33654D01*
X55018Y-33653D01*
X55018Y-32769D01*
X54725Y-32475D01*
X54654Y-32546D01*
X54654Y-32405D01*
X54360Y-32111D01*
X54299Y-32127D01*
X54239Y-32111D01*
X54168Y-32182D01*
X54168Y-32040D01*
X54144Y-31948D01*
X53949Y-31880D01*
X53743Y-31891D01*
X53605Y-31948D01*
X53581Y-32040D01*
X53875Y-32334D01*
X54168Y-32040D01*
X54168Y-32182D01*
X53945Y-32405D01*
X54239Y-32698D01*
X54299Y-32682D01*
X54360Y-32698D01*
X54654Y-32405D01*
X54654Y-32546D01*
X54431Y-32769D01*
X54455Y-32861D01*
X54650Y-32929D01*
X54856Y-32918D01*
X54994Y-32861D01*
X55018Y-32769D01*
X55018Y-33653D01*
X54828Y-33575D01*
X54622Y-33574D01*
X54430Y-33653D01*
X54299Y-33784D01*
X54169Y-33654D01*
X54168Y-33653D01*
X54168Y-32769D01*
X53875Y-32475D01*
X53804Y-32546D01*
X53804Y-32405D01*
X53510Y-32111D01*
X53449Y-32127D01*
X53389Y-32111D01*
X53318Y-32182D01*
X53318Y-32040D01*
X53294Y-31948D01*
X53099Y-31880D01*
X52893Y-31891D01*
X52755Y-31948D01*
X52731Y-32040D01*
X53025Y-32334D01*
X53318Y-32040D01*
X53318Y-32182D01*
X53095Y-32405D01*
X53389Y-32698D01*
X53449Y-32682D01*
X53510Y-32698D01*
X53804Y-32405D01*
X53804Y-32546D01*
X53581Y-32769D01*
X53605Y-32861D01*
X53800Y-32929D01*
X54006Y-32918D01*
X54144Y-32861D01*
X54168Y-32769D01*
X54168Y-33653D01*
X53978Y-33575D01*
X53772Y-33574D01*
X53580Y-33653D01*
X53449Y-33784D01*
X53319Y-33654D01*
X53318Y-33653D01*
X53318Y-32769D01*
X53025Y-32475D01*
X52954Y-32546D01*
X52954Y-32405D01*
X52660Y-32111D01*
X52599Y-32127D01*
X52539Y-32111D01*
X52468Y-32182D01*
X52468Y-32040D01*
X52444Y-31948D01*
X52249Y-31880D01*
X52043Y-31891D01*
X51905Y-31948D01*
X51881Y-32040D01*
X52175Y-32334D01*
X52468Y-32040D01*
X52468Y-32182D01*
X52245Y-32405D01*
X52539Y-32698D01*
X52599Y-32682D01*
X52660Y-32698D01*
X52954Y-32405D01*
X52954Y-32546D01*
X52731Y-32769D01*
X52755Y-32861D01*
X52950Y-32929D01*
X53156Y-32918D01*
X53294Y-32861D01*
X53318Y-32769D01*
X53318Y-33653D01*
X53128Y-33575D01*
X52922Y-33574D01*
X52730Y-33653D01*
X52599Y-33784D01*
X52469Y-33654D01*
X52468Y-33653D01*
X52468Y-32769D01*
X52175Y-32475D01*
X52104Y-32546D01*
X52104Y-32405D01*
X51810Y-32111D01*
X51749Y-32127D01*
X51689Y-32111D01*
X51618Y-32182D01*
X51618Y-32040D01*
X51594Y-31948D01*
X51399Y-31880D01*
X51193Y-31891D01*
X51055Y-31948D01*
X51031Y-32040D01*
X51325Y-32334D01*
X51618Y-32040D01*
X51618Y-32182D01*
X51395Y-32405D01*
X51689Y-32698D01*
X51749Y-32682D01*
X51810Y-32698D01*
X52104Y-32405D01*
X52104Y-32546D01*
X51881Y-32769D01*
X51905Y-32861D01*
X52100Y-32929D01*
X52306Y-32918D01*
X52444Y-32861D01*
X52468Y-32769D01*
X52468Y-33653D01*
X52278Y-33575D01*
X52072Y-33574D01*
X51880Y-33653D01*
X51734Y-33800D01*
X51729Y-33811D01*
X51689Y-33801D01*
X51618Y-33872D01*
X51618Y-33730D01*
X51618Y-32769D01*
X51325Y-32475D01*
X51254Y-32546D01*
X51254Y-32405D01*
X50960Y-32111D01*
X50868Y-32135D01*
X50800Y-32330D01*
X50811Y-32536D01*
X50868Y-32674D01*
X50960Y-32698D01*
X51254Y-32405D01*
X51254Y-32546D01*
X51031Y-32769D01*
X51055Y-32861D01*
X51250Y-32929D01*
X51456Y-32918D01*
X51594Y-32861D01*
X51618Y-32769D01*
X51618Y-33730D01*
X51594Y-33638D01*
X51399Y-33570D01*
X51193Y-33581D01*
X51055Y-33638D01*
X51031Y-33730D01*
X51325Y-34024D01*
X51618Y-33730D01*
X51618Y-33872D01*
X51395Y-34095D01*
X51689Y-34388D01*
X51729Y-34378D01*
X51733Y-34389D01*
X51880Y-34535D01*
X52071Y-34614D01*
X52277Y-34615D01*
X52469Y-34536D01*
X52600Y-34405D01*
X52730Y-34535D01*
X52921Y-34614D01*
X53127Y-34615D01*
X53319Y-34536D01*
X53450Y-34405D01*
X53580Y-34535D01*
X53771Y-34614D01*
X53977Y-34615D01*
X54169Y-34536D01*
X54300Y-34405D01*
X54430Y-34535D01*
X54621Y-34614D01*
X54827Y-34615D01*
X55019Y-34536D01*
X55150Y-34405D01*
X55280Y-34535D01*
X55471Y-34614D01*
X55677Y-34615D01*
X55869Y-34536D01*
X56000Y-34405D01*
X56130Y-34535D01*
X56321Y-34614D01*
X56527Y-34615D01*
X56719Y-34536D01*
X56850Y-34405D01*
X56980Y-34535D01*
X57171Y-34614D01*
X57377Y-34615D01*
X57569Y-34536D01*
X57700Y-34405D01*
X57830Y-34535D01*
X58021Y-34614D01*
X58227Y-34615D01*
X58419Y-34536D01*
X58550Y-34405D01*
X58680Y-34535D01*
X58871Y-34614D01*
X59077Y-34615D01*
X59269Y-34536D01*
X59400Y-34405D01*
X59530Y-34535D01*
X59721Y-34614D01*
X59927Y-34615D01*
X60119Y-34536D01*
X60250Y-34405D01*
X60380Y-34535D01*
X60571Y-34614D01*
X60777Y-34615D01*
X60969Y-34536D01*
X61115Y-34389D01*
X61194Y-34198D01*
X61195Y-33992D01*
X61195Y-35050D01*
X61114Y-35103D01*
X60996Y-35280D01*
X60955Y-35489D01*
X60955Y-35510D01*
X60996Y-35719D01*
X61114Y-35896D01*
X61291Y-36014D01*
X61500Y-36055D01*
X61708Y-36014D01*
X61885Y-35896D01*
X62003Y-35719D01*
X62045Y-35510D01*
X62045Y-39489D01*
X62003Y-39280D01*
X61885Y-39103D01*
X61868Y-39092D01*
X61868Y-38177D01*
X61812Y-38041D01*
X61708Y-37938D01*
X61573Y-37881D01*
X61427Y-37881D01*
X61291Y-37937D01*
X61279Y-37950D01*
X60795Y-37950D01*
X60795Y-37058D01*
X60795Y-36736D01*
X60753Y-36527D01*
X60635Y-36351D01*
X60458Y-36232D01*
X60250Y-36191D01*
X60041Y-36232D01*
X59864Y-36351D01*
X59750Y-36522D01*
X59635Y-36351D01*
X59458Y-36232D01*
X59250Y-36191D01*
X59041Y-36232D01*
X58864Y-36351D01*
X58750Y-36522D01*
X58635Y-36351D01*
X58458Y-36232D01*
X58250Y-36191D01*
X58041Y-36232D01*
X57864Y-36351D01*
X57750Y-36522D01*
X57635Y-36351D01*
X57458Y-36232D01*
X57250Y-36191D01*
X57041Y-36232D01*
X56864Y-36351D01*
X56750Y-36522D01*
X56635Y-36351D01*
X56458Y-36232D01*
X56250Y-36191D01*
X56041Y-36232D01*
X55864Y-36351D01*
X55750Y-36522D01*
X55635Y-36351D01*
X55458Y-36232D01*
X55250Y-36191D01*
X55041Y-36232D01*
X54864Y-36351D01*
X54750Y-36522D01*
X54635Y-36351D01*
X54458Y-36232D01*
X54250Y-36191D01*
X54041Y-36232D01*
X53864Y-36351D01*
X53746Y-36527D01*
X53745Y-36532D01*
X53734Y-36495D01*
X53600Y-36329D01*
X53412Y-36227D01*
X53384Y-36221D01*
X53300Y-36270D01*
X53300Y-36847D01*
X53307Y-36847D01*
X53307Y-36947D01*
X53300Y-36947D01*
X53300Y-37524D01*
X53384Y-37573D01*
X53412Y-37567D01*
X53600Y-37465D01*
X53734Y-37299D01*
X53745Y-37262D01*
X53746Y-37267D01*
X53864Y-37443D01*
X54041Y-37562D01*
X54250Y-37603D01*
X54458Y-37562D01*
X54635Y-37443D01*
X54750Y-37272D01*
X54864Y-37443D01*
X55041Y-37562D01*
X55250Y-37603D01*
X55458Y-37562D01*
X55635Y-37443D01*
X55750Y-37272D01*
X55864Y-37443D01*
X56041Y-37562D01*
X56250Y-37603D01*
X56458Y-37562D01*
X56635Y-37443D01*
X56750Y-37272D01*
X56864Y-37443D01*
X57041Y-37562D01*
X57250Y-37603D01*
X57458Y-37562D01*
X57635Y-37443D01*
X57750Y-37272D01*
X57864Y-37443D01*
X58041Y-37562D01*
X58250Y-37603D01*
X58458Y-37562D01*
X58635Y-37443D01*
X58750Y-37272D01*
X58864Y-37443D01*
X59041Y-37562D01*
X59250Y-37603D01*
X59458Y-37562D01*
X59635Y-37443D01*
X59750Y-37272D01*
X59864Y-37443D01*
X60041Y-37562D01*
X60250Y-37603D01*
X60458Y-37562D01*
X60635Y-37443D01*
X60753Y-37267D01*
X60795Y-37058D01*
X60795Y-37950D01*
X57470Y-37950D01*
X57458Y-37938D01*
X57323Y-37881D01*
X57177Y-37881D01*
X57041Y-37937D01*
X56938Y-38041D01*
X56881Y-38176D01*
X56881Y-38322D01*
X56937Y-38458D01*
X57041Y-38561D01*
X57176Y-38618D01*
X57322Y-38618D01*
X57458Y-38562D01*
X57470Y-38550D01*
X61279Y-38550D01*
X61291Y-38561D01*
X61426Y-38618D01*
X61572Y-38618D01*
X61708Y-38562D01*
X61811Y-38458D01*
X61868Y-38323D01*
X61868Y-38177D01*
X61868Y-39092D01*
X61708Y-38985D01*
X61500Y-38944D01*
X61291Y-38985D01*
X61114Y-39103D01*
X60996Y-39280D01*
X60955Y-39489D01*
X60955Y-39510D01*
X60996Y-39719D01*
X61114Y-39896D01*
X61291Y-40014D01*
X61292Y-40014D01*
X61243Y-40063D01*
X61205Y-40155D01*
X61204Y-40254D01*
X61204Y-40844D01*
X61242Y-40936D01*
X61313Y-41006D01*
X61405Y-41044D01*
X61456Y-41045D01*
X61313Y-41173D01*
X61221Y-41365D01*
X61269Y-41450D01*
X61700Y-41450D01*
X61700Y-41442D01*
X61800Y-41442D01*
X61800Y-41450D01*
X62230Y-41450D01*
X62278Y-41365D01*
X62186Y-41173D01*
X62043Y-41045D01*
X62094Y-41045D01*
X62186Y-41007D01*
X62256Y-40936D01*
X62294Y-40844D01*
X62295Y-40745D01*
X62295Y-43704D01*
X62292Y-43704D01*
X62278Y-43710D01*
X62278Y-41634D01*
X62230Y-41550D01*
X61800Y-41550D01*
X61800Y-41979D01*
X61884Y-42028D01*
X62028Y-41968D01*
X62186Y-41826D01*
X62278Y-41634D01*
X62278Y-43710D01*
X62091Y-43787D01*
X61938Y-43940D01*
X61855Y-44141D01*
X61854Y-44357D01*
X61937Y-44558D01*
X62090Y-44711D01*
X62182Y-44749D01*
X62091Y-44787D01*
X61938Y-44940D01*
X61855Y-45141D01*
X61854Y-45357D01*
X61937Y-45558D01*
X62090Y-45711D01*
X62291Y-45794D01*
X62507Y-45795D01*
X62708Y-45712D01*
X62793Y-45627D01*
X62877Y-45711D01*
X63078Y-45794D01*
X63294Y-45795D01*
X63495Y-45712D01*
X63648Y-45559D01*
X63731Y-45358D01*
X63732Y-45142D01*
X63732Y-46664D01*
X63696Y-46629D01*
X63577Y-46685D01*
X63465Y-46974D01*
X63472Y-47285D01*
X63577Y-47538D01*
X63696Y-47594D01*
X64179Y-47112D01*
X64179Y-47253D01*
X63767Y-47665D01*
X63823Y-47784D01*
X64112Y-47896D01*
X64423Y-47889D01*
X64676Y-47784D01*
X64732Y-47665D01*
X64732Y-48202D01*
X64238Y-48450D01*
X61700Y-48450D01*
X61700Y-41979D01*
X61700Y-41550D01*
X61269Y-41550D01*
X61221Y-41634D01*
X61313Y-41826D01*
X61471Y-41968D01*
X61615Y-42028D01*
X61700Y-41979D01*
X61700Y-48450D01*
X61295Y-48450D01*
X61295Y-46819D01*
X61295Y-46080D01*
X61295Y-45570D01*
X61295Y-44930D01*
X61257Y-44838D01*
X61186Y-44768D01*
X61143Y-44750D01*
X61186Y-44732D01*
X61256Y-44661D01*
X61294Y-44569D01*
X61295Y-44470D01*
X61295Y-43830D01*
X61295Y-43419D01*
X61295Y-42680D01*
X61257Y-42588D01*
X61186Y-42518D01*
X61094Y-42480D01*
X60995Y-42479D01*
X60862Y-42480D01*
X60800Y-42542D01*
X60800Y-43000D01*
X61232Y-43000D01*
X61295Y-42937D01*
X61295Y-42680D01*
X61295Y-43419D01*
X61295Y-43162D01*
X61232Y-43100D01*
X60800Y-43100D01*
X60800Y-43557D01*
X60862Y-43620D01*
X60995Y-43620D01*
X61094Y-43619D01*
X61186Y-43581D01*
X61257Y-43511D01*
X61295Y-43419D01*
X61295Y-43830D01*
X61257Y-43738D01*
X61186Y-43668D01*
X61094Y-43630D01*
X60995Y-43629D01*
X60795Y-43629D01*
X60795Y-39763D01*
X60795Y-39441D01*
X60753Y-39232D01*
X60635Y-39056D01*
X60458Y-38937D01*
X60250Y-38896D01*
X60041Y-38937D01*
X59864Y-39056D01*
X59750Y-39227D01*
X59635Y-39056D01*
X59458Y-38937D01*
X59250Y-38896D01*
X59041Y-38937D01*
X58864Y-39056D01*
X58750Y-39227D01*
X58635Y-39056D01*
X58458Y-38937D01*
X58250Y-38896D01*
X58041Y-38937D01*
X57864Y-39056D01*
X57750Y-39227D01*
X57635Y-39056D01*
X57458Y-38937D01*
X57250Y-38896D01*
X57041Y-38937D01*
X56864Y-39056D01*
X56750Y-39227D01*
X56635Y-39056D01*
X56458Y-38937D01*
X56250Y-38896D01*
X56041Y-38937D01*
X55864Y-39056D01*
X55750Y-39227D01*
X55635Y-39056D01*
X55458Y-38937D01*
X55250Y-38896D01*
X55041Y-38937D01*
X54864Y-39056D01*
X54746Y-39232D01*
X54745Y-39237D01*
X54734Y-39200D01*
X54600Y-39034D01*
X54412Y-38932D01*
X54384Y-38926D01*
X54300Y-38975D01*
X54300Y-39552D01*
X54307Y-39552D01*
X54307Y-39652D01*
X54300Y-39652D01*
X54300Y-40229D01*
X54384Y-40278D01*
X54412Y-40272D01*
X54600Y-40170D01*
X54734Y-40004D01*
X54745Y-39967D01*
X54746Y-39972D01*
X54864Y-40148D01*
X55041Y-40267D01*
X55250Y-40308D01*
X55458Y-40267D01*
X55635Y-40148D01*
X55750Y-39977D01*
X55864Y-40148D01*
X56041Y-40267D01*
X56250Y-40308D01*
X56458Y-40267D01*
X56635Y-40148D01*
X56750Y-39977D01*
X56864Y-40148D01*
X57041Y-40267D01*
X57250Y-40308D01*
X57458Y-40267D01*
X57635Y-40148D01*
X57750Y-39977D01*
X57864Y-40148D01*
X58041Y-40267D01*
X58250Y-40308D01*
X58458Y-40267D01*
X58635Y-40148D01*
X58750Y-39977D01*
X58864Y-40148D01*
X59041Y-40267D01*
X59250Y-40308D01*
X59458Y-40267D01*
X59635Y-40148D01*
X59750Y-39977D01*
X59864Y-40148D01*
X60041Y-40267D01*
X60250Y-40308D01*
X60458Y-40267D01*
X60635Y-40148D01*
X60753Y-39972D01*
X60795Y-39763D01*
X60795Y-43629D01*
X60700Y-43629D01*
X60700Y-43557D01*
X60700Y-43100D01*
X60700Y-43000D01*
X60700Y-42542D01*
X60637Y-42480D01*
X60504Y-42479D01*
X60405Y-42480D01*
X60313Y-42518D01*
X60242Y-42588D01*
X60204Y-42680D01*
X60205Y-42937D01*
X60267Y-43000D01*
X60700Y-43000D01*
X60700Y-43100D01*
X60267Y-43100D01*
X60205Y-43162D01*
X60204Y-43419D01*
X60242Y-43511D01*
X60313Y-43581D01*
X60405Y-43619D01*
X60504Y-43620D01*
X60637Y-43620D01*
X60700Y-43557D01*
X60700Y-43629D01*
X60405Y-43629D01*
X60313Y-43667D01*
X60243Y-43738D01*
X60205Y-43830D01*
X60204Y-43929D01*
X60204Y-44569D01*
X60242Y-44661D01*
X60313Y-44731D01*
X60356Y-44749D01*
X60313Y-44767D01*
X60243Y-44838D01*
X60205Y-44930D01*
X60204Y-45029D01*
X60204Y-45669D01*
X60242Y-45761D01*
X60313Y-45831D01*
X60405Y-45869D01*
X60504Y-45870D01*
X61094Y-45870D01*
X61186Y-45832D01*
X61256Y-45761D01*
X61294Y-45669D01*
X61295Y-45570D01*
X61295Y-46080D01*
X61257Y-45988D01*
X61186Y-45918D01*
X61094Y-45880D01*
X60995Y-45879D01*
X60862Y-45880D01*
X60800Y-45942D01*
X60800Y-46400D01*
X61232Y-46400D01*
X61295Y-46337D01*
X61295Y-46080D01*
X61295Y-46819D01*
X61295Y-46562D01*
X61232Y-46500D01*
X60800Y-46500D01*
X60800Y-46957D01*
X60862Y-47020D01*
X60995Y-47020D01*
X61094Y-47019D01*
X61186Y-46981D01*
X61257Y-46911D01*
X61295Y-46819D01*
X61295Y-48450D01*
X60700Y-48450D01*
X60700Y-46957D01*
X60700Y-46500D01*
X60700Y-46400D01*
X60700Y-45942D01*
X60637Y-45880D01*
X60504Y-45879D01*
X60405Y-45880D01*
X60313Y-45918D01*
X60242Y-45988D01*
X60204Y-46080D01*
X60205Y-46337D01*
X60267Y-46400D01*
X60700Y-46400D01*
X60700Y-46500D01*
X60267Y-46500D01*
X60205Y-46562D01*
X60204Y-46819D01*
X60242Y-46911D01*
X60313Y-46981D01*
X60405Y-47019D01*
X60504Y-47020D01*
X60637Y-47020D01*
X60700Y-46957D01*
X60700Y-48450D01*
X59805Y-48450D01*
X59805Y-45750D01*
X59764Y-45541D01*
X59646Y-45364D01*
X59474Y-45250D01*
X59646Y-45135D01*
X59764Y-44958D01*
X59805Y-44750D01*
X59764Y-44541D01*
X59646Y-44364D01*
X59474Y-44250D01*
X59646Y-44135D01*
X59764Y-43958D01*
X59805Y-43750D01*
X59764Y-43541D01*
X59646Y-43364D01*
X59474Y-43250D01*
X59646Y-43135D01*
X59764Y-42958D01*
X59805Y-42750D01*
X59764Y-42541D01*
X59646Y-42364D01*
X59469Y-42246D01*
X59260Y-42205D01*
X59239Y-42205D01*
X59030Y-42246D01*
X58853Y-42364D01*
X58849Y-42371D01*
X58849Y-41092D01*
X58839Y-40856D01*
X58768Y-40685D01*
X58668Y-40652D01*
X58597Y-40722D01*
X58320Y-41000D01*
X58668Y-41347D01*
X58768Y-41314D01*
X58849Y-41092D01*
X58849Y-42371D01*
X58735Y-42541D01*
X58694Y-42750D01*
X58735Y-42958D01*
X58853Y-43135D01*
X59025Y-43250D01*
X58853Y-43364D01*
X58735Y-43541D01*
X58694Y-43750D01*
X58735Y-43958D01*
X58853Y-44135D01*
X59025Y-44250D01*
X58853Y-44364D01*
X58735Y-44541D01*
X58694Y-44750D01*
X58735Y-44958D01*
X58853Y-45135D01*
X59025Y-45250D01*
X58853Y-45364D01*
X58735Y-45541D01*
X58694Y-45750D01*
X58735Y-45958D01*
X58853Y-46135D01*
X59030Y-46253D01*
X59239Y-46295D01*
X59260Y-46295D01*
X59469Y-46253D01*
X59646Y-46135D01*
X59764Y-45958D01*
X59805Y-45750D01*
X59805Y-48450D01*
X58644Y-48450D01*
X58670Y-48432D01*
X58799Y-48239D01*
X58845Y-48011D01*
X58845Y-47988D01*
X58799Y-47760D01*
X58679Y-47580D01*
X58736Y-47557D01*
X58806Y-47486D01*
X58844Y-47394D01*
X58845Y-47295D01*
X58845Y-46605D01*
X58807Y-46513D01*
X58736Y-46443D01*
X58644Y-46405D01*
X58597Y-46405D01*
X58597Y-41418D01*
X58250Y-41070D01*
X58244Y-41076D01*
X58179Y-41011D01*
X58173Y-41005D01*
X58179Y-41000D01*
X58173Y-40994D01*
X58244Y-40923D01*
X58250Y-40929D01*
X58597Y-40581D01*
X58564Y-40481D01*
X58342Y-40400D01*
X58106Y-40410D01*
X57935Y-40481D01*
X57902Y-40581D01*
X57857Y-40536D01*
X57828Y-40565D01*
X57807Y-40513D01*
X57736Y-40443D01*
X57644Y-40405D01*
X57545Y-40404D01*
X56855Y-40404D01*
X56763Y-40442D01*
X56693Y-40513D01*
X56655Y-40605D01*
X56654Y-40704D01*
X56654Y-41394D01*
X56692Y-41486D01*
X56763Y-41556D01*
X56855Y-41594D01*
X56954Y-41595D01*
X57644Y-41595D01*
X57736Y-41557D01*
X57806Y-41486D01*
X57828Y-41434D01*
X57857Y-41463D01*
X57902Y-41418D01*
X57935Y-41518D01*
X58157Y-41599D01*
X58393Y-41589D01*
X58564Y-41518D01*
X58597Y-41418D01*
X58597Y-46405D01*
X58545Y-46404D01*
X57855Y-46404D01*
X57763Y-46442D01*
X57693Y-46513D01*
X57655Y-46605D01*
X57654Y-46704D01*
X57654Y-47394D01*
X57692Y-47486D01*
X57763Y-47556D01*
X57820Y-47580D01*
X57700Y-47760D01*
X57655Y-47988D01*
X57655Y-48011D01*
X57700Y-48239D01*
X57829Y-48432D01*
X57855Y-48450D01*
X56644Y-48450D01*
X56670Y-48432D01*
X56799Y-48239D01*
X56845Y-48011D01*
X56845Y-47988D01*
X56799Y-47760D01*
X56679Y-47580D01*
X56736Y-47557D01*
X56806Y-47486D01*
X56844Y-47394D01*
X56845Y-47295D01*
X56845Y-46605D01*
X56807Y-46513D01*
X56736Y-46443D01*
X56644Y-46405D01*
X56545Y-46404D01*
X56270Y-46404D01*
X56270Y-41245D01*
X56270Y-40655D01*
X56232Y-40563D01*
X56161Y-40493D01*
X56069Y-40455D01*
X55970Y-40454D01*
X55330Y-40454D01*
X55238Y-40492D01*
X55168Y-40563D01*
X55130Y-40655D01*
X55129Y-40754D01*
X55129Y-41344D01*
X55167Y-41436D01*
X55238Y-41506D01*
X55330Y-41544D01*
X55429Y-41545D01*
X56069Y-41545D01*
X56161Y-41507D01*
X56231Y-41436D01*
X56269Y-41344D01*
X56270Y-41245D01*
X56270Y-46404D01*
X55855Y-46404D01*
X55805Y-46425D01*
X55805Y-45750D01*
X55764Y-45541D01*
X55646Y-45364D01*
X55474Y-45250D01*
X55646Y-45135D01*
X55764Y-44958D01*
X55805Y-44750D01*
X55764Y-44541D01*
X55646Y-44364D01*
X55474Y-44250D01*
X55646Y-44135D01*
X55764Y-43958D01*
X55805Y-43750D01*
X55764Y-43541D01*
X55646Y-43364D01*
X55474Y-43250D01*
X55646Y-43135D01*
X55764Y-42958D01*
X55805Y-42750D01*
X55764Y-42541D01*
X55646Y-42364D01*
X55469Y-42246D01*
X55260Y-42205D01*
X55239Y-42205D01*
X55120Y-42228D01*
X55120Y-41245D01*
X55120Y-40754D01*
X55119Y-40655D01*
X55081Y-40563D01*
X55011Y-40492D01*
X54919Y-40454D01*
X54662Y-40455D01*
X54600Y-40517D01*
X54600Y-40950D01*
X55057Y-40950D01*
X55120Y-40887D01*
X55120Y-40754D01*
X55120Y-41245D01*
X55120Y-41112D01*
X55057Y-41050D01*
X54600Y-41050D01*
X54600Y-41482D01*
X54662Y-41545D01*
X54919Y-41545D01*
X55011Y-41507D01*
X55081Y-41436D01*
X55119Y-41344D01*
X55120Y-41245D01*
X55120Y-42228D01*
X55030Y-42246D01*
X54853Y-42364D01*
X54735Y-42541D01*
X54694Y-42750D01*
X54735Y-42958D01*
X54853Y-43135D01*
X55025Y-43250D01*
X54853Y-43364D01*
X54735Y-43541D01*
X54694Y-43750D01*
X54735Y-43958D01*
X54853Y-44135D01*
X55025Y-44250D01*
X54853Y-44364D01*
X54735Y-44541D01*
X54694Y-44750D01*
X54735Y-44958D01*
X54853Y-45135D01*
X55025Y-45250D01*
X54853Y-45364D01*
X54735Y-45541D01*
X54694Y-45750D01*
X54735Y-45958D01*
X54853Y-46135D01*
X55030Y-46253D01*
X55239Y-46295D01*
X55260Y-46295D01*
X55469Y-46253D01*
X55646Y-46135D01*
X55764Y-45958D01*
X55805Y-45750D01*
X55805Y-46425D01*
X55763Y-46442D01*
X55693Y-46513D01*
X55655Y-46605D01*
X55654Y-46704D01*
X55654Y-47394D01*
X55692Y-47486D01*
X55763Y-47556D01*
X55820Y-47580D01*
X55700Y-47760D01*
X55655Y-47988D01*
X55655Y-48011D01*
X55700Y-48239D01*
X55829Y-48432D01*
X55855Y-48450D01*
X54500Y-48450D01*
X54500Y-41482D01*
X54500Y-41050D01*
X54500Y-40950D01*
X54500Y-40517D01*
X54437Y-40455D01*
X54180Y-40454D01*
X54118Y-40480D01*
X54118Y-40427D01*
X54062Y-40291D01*
X53990Y-40219D01*
X54087Y-40272D01*
X54115Y-40278D01*
X54200Y-40229D01*
X54200Y-39652D01*
X54192Y-39652D01*
X54192Y-39552D01*
X54200Y-39552D01*
X54200Y-38975D01*
X54115Y-38926D01*
X54087Y-38932D01*
X54068Y-38942D01*
X54118Y-38823D01*
X54118Y-38677D01*
X54062Y-38541D01*
X53958Y-38438D01*
X53823Y-38381D01*
X53677Y-38381D01*
X53541Y-38437D01*
X53529Y-38450D01*
X52970Y-38450D01*
X52958Y-38438D01*
X52823Y-38381D01*
X52677Y-38381D01*
X52541Y-38437D01*
X52438Y-38541D01*
X52381Y-38676D01*
X52381Y-38822D01*
X52426Y-38931D01*
X52250Y-38896D01*
X52041Y-38937D01*
X51864Y-39056D01*
X51750Y-39227D01*
X51635Y-39056D01*
X51532Y-38987D01*
X51561Y-38958D01*
X51618Y-38823D01*
X51618Y-38677D01*
X51562Y-38541D01*
X51550Y-38529D01*
X51550Y-37970D01*
X51561Y-37958D01*
X51618Y-37823D01*
X51618Y-37677D01*
X51562Y-37541D01*
X51532Y-37512D01*
X51635Y-37443D01*
X51750Y-37272D01*
X51864Y-37443D01*
X52041Y-37562D01*
X52250Y-37603D01*
X52458Y-37562D01*
X52635Y-37443D01*
X52753Y-37267D01*
X52754Y-37262D01*
X52765Y-37299D01*
X52899Y-37465D01*
X53087Y-37567D01*
X53115Y-37573D01*
X53200Y-37524D01*
X53200Y-36947D01*
X53192Y-36947D01*
X53192Y-36847D01*
X53200Y-36847D01*
X53200Y-36270D01*
X53115Y-36221D01*
X53087Y-36227D01*
X52899Y-36329D01*
X52765Y-36495D01*
X52754Y-36532D01*
X52753Y-36527D01*
X52635Y-36351D01*
X52458Y-36232D01*
X52250Y-36191D01*
X52041Y-36232D01*
X51864Y-36351D01*
X51750Y-36522D01*
X51635Y-36351D01*
X51618Y-36339D01*
X51618Y-34459D01*
X51325Y-34165D01*
X51254Y-34236D01*
X51254Y-34095D01*
X50960Y-33801D01*
X50868Y-33825D01*
X50800Y-34020D01*
X50811Y-34226D01*
X50868Y-34364D01*
X50960Y-34388D01*
X51254Y-34095D01*
X51254Y-34236D01*
X51031Y-34459D01*
X51055Y-34551D01*
X51250Y-34619D01*
X51456Y-34608D01*
X51594Y-34551D01*
X51618Y-34459D01*
X51618Y-36339D01*
X51458Y-36232D01*
X51250Y-36191D01*
X51041Y-36232D01*
X50864Y-36351D01*
X50750Y-36522D01*
X50635Y-36351D01*
X50458Y-36232D01*
X50250Y-36191D01*
X50041Y-36232D01*
X49864Y-36351D01*
X49750Y-36522D01*
X49635Y-36351D01*
X49458Y-36232D01*
X49250Y-36191D01*
X49041Y-36232D01*
X48864Y-36351D01*
X48750Y-36522D01*
X48635Y-36351D01*
X48458Y-36232D01*
X48250Y-36191D01*
X48041Y-36232D01*
X47864Y-36351D01*
X47750Y-36522D01*
X47635Y-36351D01*
X47458Y-36232D01*
X47250Y-36191D01*
X47041Y-36232D01*
X46864Y-36351D01*
X46746Y-36527D01*
X46705Y-36736D01*
X46705Y-37058D01*
X46746Y-37267D01*
X46864Y-37443D01*
X47041Y-37562D01*
X47250Y-37603D01*
X47458Y-37562D01*
X47635Y-37443D01*
X47750Y-37272D01*
X47864Y-37443D01*
X48041Y-37562D01*
X48250Y-37603D01*
X48458Y-37562D01*
X48635Y-37443D01*
X48750Y-37272D01*
X48864Y-37443D01*
X49041Y-37562D01*
X49250Y-37603D01*
X49458Y-37562D01*
X49635Y-37443D01*
X49750Y-37272D01*
X49864Y-37443D01*
X50041Y-37562D01*
X50250Y-37603D01*
X50458Y-37562D01*
X50635Y-37443D01*
X50750Y-37272D01*
X50864Y-37443D01*
X50967Y-37512D01*
X50938Y-37541D01*
X50881Y-37676D01*
X50881Y-37822D01*
X50937Y-37958D01*
X50950Y-37970D01*
X50950Y-38529D01*
X50938Y-38541D01*
X50881Y-38676D01*
X50881Y-38822D01*
X50937Y-38958D01*
X50967Y-38987D01*
X50864Y-39056D01*
X50750Y-39227D01*
X50635Y-39056D01*
X50458Y-38937D01*
X50250Y-38896D01*
X50041Y-38937D01*
X49864Y-39056D01*
X49750Y-39227D01*
X49635Y-39056D01*
X49458Y-38937D01*
X49250Y-38896D01*
X49041Y-38937D01*
X48864Y-39056D01*
X48750Y-39227D01*
X48635Y-39056D01*
X48458Y-38937D01*
X48250Y-38896D01*
X48041Y-38937D01*
X47864Y-39056D01*
X47795Y-39160D01*
X47795Y-39110D01*
X47757Y-39018D01*
X47686Y-38948D01*
X47594Y-38910D01*
X47495Y-38909D01*
X46905Y-38909D01*
X46813Y-38947D01*
X46743Y-39018D01*
X46705Y-39110D01*
X46704Y-39209D01*
X46704Y-40094D01*
X46742Y-40186D01*
X46813Y-40256D01*
X46905Y-40294D01*
X47004Y-40295D01*
X47086Y-40295D01*
X47068Y-40313D01*
X47030Y-40405D01*
X47029Y-40504D01*
X47029Y-41094D01*
X47067Y-41186D01*
X47102Y-41220D01*
X47041Y-41232D01*
X46864Y-41351D01*
X46746Y-41527D01*
X46705Y-41736D01*
X46705Y-42058D01*
X46746Y-42267D01*
X46864Y-42443D01*
X47041Y-42562D01*
X47250Y-42603D01*
X47458Y-42562D01*
X47635Y-42443D01*
X47750Y-42272D01*
X47864Y-42443D01*
X48041Y-42562D01*
X48250Y-42603D01*
X48458Y-42562D01*
X48635Y-42443D01*
X48750Y-42272D01*
X48864Y-42443D01*
X49041Y-42562D01*
X49250Y-42603D01*
X49458Y-42562D01*
X49635Y-42443D01*
X49750Y-42272D01*
X49864Y-42443D01*
X50041Y-42562D01*
X50250Y-42603D01*
X50458Y-42562D01*
X50635Y-42443D01*
X50750Y-42272D01*
X50864Y-42443D01*
X51041Y-42562D01*
X51250Y-42603D01*
X51458Y-42562D01*
X51635Y-42443D01*
X51750Y-42272D01*
X51864Y-42443D01*
X52041Y-42562D01*
X52250Y-42603D01*
X52458Y-42562D01*
X52635Y-42443D01*
X52704Y-42339D01*
X52704Y-42389D01*
X52742Y-42481D01*
X52813Y-42551D01*
X52905Y-42589D01*
X53004Y-42590D01*
X53594Y-42590D01*
X53686Y-42552D01*
X53756Y-42481D01*
X53794Y-42389D01*
X53795Y-42290D01*
X53795Y-41405D01*
X53757Y-41313D01*
X53686Y-41243D01*
X53594Y-41205D01*
X53495Y-41204D01*
X52905Y-41204D01*
X52813Y-41242D01*
X52743Y-41313D01*
X52705Y-41405D01*
X52704Y-41455D01*
X52635Y-41351D01*
X52458Y-41232D01*
X52250Y-41191D01*
X52041Y-41232D01*
X51864Y-41351D01*
X51750Y-41522D01*
X51635Y-41351D01*
X51458Y-41232D01*
X51250Y-41191D01*
X51041Y-41232D01*
X50864Y-41351D01*
X50750Y-41522D01*
X50635Y-41351D01*
X50458Y-41232D01*
X50250Y-41191D01*
X50041Y-41232D01*
X49864Y-41351D01*
X49750Y-41522D01*
X49635Y-41351D01*
X49458Y-41232D01*
X49272Y-41195D01*
X49281Y-41186D01*
X49319Y-41094D01*
X49320Y-40995D01*
X49320Y-40862D01*
X49257Y-40800D01*
X48800Y-40800D01*
X48800Y-41232D01*
X48862Y-41295D01*
X48948Y-41295D01*
X48864Y-41351D01*
X48750Y-41522D01*
X48635Y-41351D01*
X48551Y-41295D01*
X48637Y-41295D01*
X48700Y-41232D01*
X48700Y-40800D01*
X48242Y-40800D01*
X48180Y-40862D01*
X48179Y-40995D01*
X48180Y-41094D01*
X48218Y-41186D01*
X48227Y-41195D01*
X48096Y-41221D01*
X48131Y-41186D01*
X48169Y-41094D01*
X48170Y-40995D01*
X48170Y-40405D01*
X48132Y-40313D01*
X48096Y-40278D01*
X48227Y-40304D01*
X48218Y-40313D01*
X48180Y-40405D01*
X48179Y-40504D01*
X48180Y-40637D01*
X48242Y-40700D01*
X48700Y-40700D01*
X48700Y-40267D01*
X48637Y-40205D01*
X48551Y-40204D01*
X48635Y-40148D01*
X48750Y-39977D01*
X48864Y-40148D01*
X48948Y-40204D01*
X48862Y-40205D01*
X48800Y-40267D01*
X48800Y-40700D01*
X49257Y-40700D01*
X49320Y-40637D01*
X49320Y-40504D01*
X49319Y-40405D01*
X49281Y-40313D01*
X49272Y-40304D01*
X49458Y-40267D01*
X49635Y-40148D01*
X49750Y-39977D01*
X49864Y-40148D01*
X50041Y-40267D01*
X50250Y-40308D01*
X50458Y-40267D01*
X50635Y-40148D01*
X50750Y-39977D01*
X50864Y-40148D01*
X51041Y-40267D01*
X51250Y-40308D01*
X51458Y-40267D01*
X51635Y-40148D01*
X51750Y-39977D01*
X51864Y-40148D01*
X52041Y-40267D01*
X52250Y-40308D01*
X52458Y-40267D01*
X52469Y-40259D01*
X52438Y-40291D01*
X52381Y-40426D01*
X52381Y-40572D01*
X52437Y-40708D01*
X52541Y-40811D01*
X52676Y-40868D01*
X52822Y-40868D01*
X52958Y-40812D01*
X52970Y-40800D01*
X53529Y-40800D01*
X53541Y-40811D01*
X53676Y-40868D01*
X53822Y-40868D01*
X53958Y-40812D01*
X53979Y-40790D01*
X53980Y-40887D01*
X54042Y-40950D01*
X54500Y-40950D01*
X54500Y-41050D01*
X54042Y-41050D01*
X53980Y-41112D01*
X53979Y-41245D01*
X53980Y-41344D01*
X54018Y-41436D01*
X54088Y-41507D01*
X54180Y-41545D01*
X54437Y-41545D01*
X54500Y-41482D01*
X54500Y-48450D01*
X53795Y-48450D01*
X53795Y-47819D01*
X53795Y-47080D01*
X53795Y-46570D01*
X53795Y-45930D01*
X53795Y-45930D01*
X53795Y-44800D01*
X53795Y-44652D01*
X53795Y-44552D01*
X53795Y-44405D01*
X53734Y-44200D01*
X53600Y-44034D01*
X53412Y-43932D01*
X53384Y-43926D01*
X53300Y-43975D01*
X53300Y-44552D01*
X53795Y-44552D01*
X53795Y-44652D01*
X53300Y-44652D01*
X53300Y-45229D01*
X53384Y-45278D01*
X53412Y-45272D01*
X53600Y-45170D01*
X53734Y-45004D01*
X53795Y-44800D01*
X53795Y-45930D01*
X53757Y-45838D01*
X53686Y-45768D01*
X53594Y-45730D01*
X53495Y-45729D01*
X53200Y-45729D01*
X53200Y-45229D01*
X53200Y-44652D01*
X53192Y-44652D01*
X53192Y-44552D01*
X53200Y-44552D01*
X53200Y-43975D01*
X53115Y-43926D01*
X53087Y-43932D01*
X52899Y-44034D01*
X52765Y-44200D01*
X52754Y-44237D01*
X52753Y-44232D01*
X52635Y-44056D01*
X52458Y-43937D01*
X52250Y-43896D01*
X52041Y-43937D01*
X51864Y-44056D01*
X51750Y-44227D01*
X51635Y-44056D01*
X51458Y-43937D01*
X51250Y-43896D01*
X51041Y-43937D01*
X50864Y-44056D01*
X50750Y-44227D01*
X50635Y-44056D01*
X50458Y-43937D01*
X50250Y-43896D01*
X50041Y-43937D01*
X49864Y-44056D01*
X49750Y-44227D01*
X49635Y-44056D01*
X49458Y-43937D01*
X49250Y-43896D01*
X49041Y-43937D01*
X48864Y-44056D01*
X48750Y-44227D01*
X48635Y-44056D01*
X48458Y-43937D01*
X48250Y-43896D01*
X48041Y-43937D01*
X47864Y-44056D01*
X47750Y-44227D01*
X47635Y-44056D01*
X47458Y-43937D01*
X47250Y-43896D01*
X47041Y-43937D01*
X46864Y-44056D01*
X46746Y-44232D01*
X46705Y-44441D01*
X46705Y-44763D01*
X46746Y-44972D01*
X46864Y-45148D01*
X47041Y-45267D01*
X47250Y-45308D01*
X47458Y-45267D01*
X47635Y-45148D01*
X47750Y-44977D01*
X47864Y-45148D01*
X48041Y-45267D01*
X48250Y-45308D01*
X48458Y-45267D01*
X48635Y-45148D01*
X48750Y-44977D01*
X48864Y-45148D01*
X49041Y-45267D01*
X49250Y-45308D01*
X49458Y-45267D01*
X49635Y-45148D01*
X49750Y-44977D01*
X49864Y-45148D01*
X50041Y-45267D01*
X50250Y-45308D01*
X50458Y-45267D01*
X50635Y-45148D01*
X50750Y-44977D01*
X50864Y-45148D01*
X51041Y-45267D01*
X51250Y-45308D01*
X51458Y-45267D01*
X51635Y-45148D01*
X51750Y-44977D01*
X51864Y-45148D01*
X52041Y-45267D01*
X52250Y-45308D01*
X52458Y-45267D01*
X52635Y-45148D01*
X52753Y-44972D01*
X52754Y-44967D01*
X52765Y-45004D01*
X52899Y-45170D01*
X53087Y-45272D01*
X53115Y-45278D01*
X53200Y-45229D01*
X53200Y-45729D01*
X52905Y-45729D01*
X52813Y-45767D01*
X52749Y-45831D01*
X52686Y-45768D01*
X52594Y-45730D01*
X52495Y-45729D01*
X51905Y-45729D01*
X51813Y-45767D01*
X51743Y-45838D01*
X51705Y-45930D01*
X51704Y-46029D01*
X51704Y-46669D01*
X51742Y-46761D01*
X51813Y-46831D01*
X51905Y-46869D01*
X52004Y-46870D01*
X52594Y-46870D01*
X52686Y-46832D01*
X52750Y-46768D01*
X52813Y-46831D01*
X52905Y-46869D01*
X53004Y-46870D01*
X53594Y-46870D01*
X53686Y-46832D01*
X53756Y-46761D01*
X53794Y-46669D01*
X53795Y-46570D01*
X53795Y-47080D01*
X53757Y-46988D01*
X53686Y-46918D01*
X53594Y-46880D01*
X53495Y-46879D01*
X53362Y-46880D01*
X53300Y-46942D01*
X53300Y-47400D01*
X53732Y-47400D01*
X53795Y-47337D01*
X53795Y-47080D01*
X53795Y-47819D01*
X53795Y-47562D01*
X53732Y-47500D01*
X53300Y-47500D01*
X53300Y-47957D01*
X53362Y-48020D01*
X53495Y-48020D01*
X53594Y-48019D01*
X53686Y-47981D01*
X53757Y-47911D01*
X53795Y-47819D01*
X53795Y-48450D01*
X53200Y-48450D01*
X53200Y-47957D01*
X53200Y-47500D01*
X53200Y-47400D01*
X53200Y-46942D01*
X53137Y-46880D01*
X53004Y-46879D01*
X52905Y-46880D01*
X52813Y-46918D01*
X52750Y-46981D01*
X52686Y-46918D01*
X52594Y-46880D01*
X52495Y-46879D01*
X52362Y-46880D01*
X52300Y-46942D01*
X52300Y-47400D01*
X52732Y-47400D01*
X52750Y-47382D01*
X52767Y-47400D01*
X53200Y-47400D01*
X53200Y-47500D01*
X52767Y-47500D01*
X52750Y-47517D01*
X52732Y-47500D01*
X52300Y-47500D01*
X52300Y-47957D01*
X52362Y-48020D01*
X52495Y-48020D01*
X52594Y-48019D01*
X52686Y-47981D01*
X52750Y-47918D01*
X52813Y-47981D01*
X52905Y-48019D01*
X53004Y-48020D01*
X53137Y-48020D01*
X53200Y-47957D01*
X53200Y-48450D01*
X52200Y-48450D01*
X52200Y-47957D01*
X52200Y-47500D01*
X52200Y-47400D01*
X52200Y-46942D01*
X52137Y-46880D01*
X52004Y-46879D01*
X51905Y-46880D01*
X51813Y-46918D01*
X51742Y-46988D01*
X51704Y-47080D01*
X51705Y-47337D01*
X51767Y-47400D01*
X52200Y-47400D01*
X52200Y-47500D01*
X51767Y-47500D01*
X51705Y-47562D01*
X51704Y-47819D01*
X51742Y-47911D01*
X51813Y-47981D01*
X51905Y-48019D01*
X52004Y-48020D01*
X52137Y-48020D01*
X52200Y-47957D01*
X52200Y-48450D01*
X51345Y-48450D01*
X51345Y-48045D01*
X51345Y-47355D01*
X51307Y-47263D01*
X51236Y-47193D01*
X51144Y-47155D01*
X51045Y-47154D01*
X50355Y-47154D01*
X50263Y-47192D01*
X50193Y-47263D01*
X50167Y-47325D01*
X50087Y-47245D01*
X49868Y-47155D01*
X49632Y-47154D01*
X49413Y-47245D01*
X49249Y-47408D01*
X49087Y-47245D01*
X48868Y-47155D01*
X48632Y-47154D01*
X48413Y-47245D01*
X48245Y-47412D01*
X48240Y-47425D01*
X48168Y-47402D01*
X48097Y-47472D01*
X48097Y-47331D01*
X48064Y-47231D01*
X47842Y-47150D01*
X47606Y-47160D01*
X47435Y-47231D01*
X47402Y-47331D01*
X47750Y-47679D01*
X48097Y-47331D01*
X48097Y-47472D01*
X47820Y-47750D01*
X48168Y-48097D01*
X48240Y-48074D01*
X48245Y-48086D01*
X48412Y-48254D01*
X48631Y-48344D01*
X48867Y-48345D01*
X49086Y-48254D01*
X49250Y-48091D01*
X49412Y-48254D01*
X49631Y-48344D01*
X49867Y-48345D01*
X50086Y-48254D01*
X50167Y-48174D01*
X50192Y-48236D01*
X50263Y-48306D01*
X50355Y-48344D01*
X50454Y-48345D01*
X51144Y-48345D01*
X51236Y-48307D01*
X51306Y-48236D01*
X51344Y-48144D01*
X51345Y-48045D01*
X51345Y-48450D01*
X48097Y-48450D01*
X48097Y-48168D01*
X47750Y-47820D01*
X47679Y-47891D01*
X47679Y-47750D01*
X47331Y-47402D01*
X47231Y-47435D01*
X47150Y-47657D01*
X47160Y-47893D01*
X47231Y-48064D01*
X47331Y-48097D01*
X47679Y-47750D01*
X47679Y-47891D01*
X47402Y-48168D01*
X47435Y-48268D01*
X47657Y-48349D01*
X47893Y-48339D01*
X48064Y-48268D01*
X48097Y-48168D01*
X48097Y-48450D01*
X47676Y-48450D01*
X47446Y-48404D01*
X46799Y-47972D01*
X46787Y-47955D01*
X46550Y-47241D01*
X46550Y-34300D01*
X47800Y-34300D01*
X47800Y-32200D01*
X46550Y-32200D01*
X46550Y-29550D01*
X65450Y-29550D01*
X65450Y-32200D01*
X64200Y-32200D01*
X64200Y-34300D01*
X65450Y-34300D01*
X65450Y-40531D01*
X65411Y-40492D01*
X65345Y-40465D01*
X65345Y-39632D01*
X65345Y-35632D01*
X65254Y-35413D01*
X65087Y-35245D01*
X64868Y-35155D01*
X64632Y-35154D01*
X64413Y-35245D01*
X64245Y-35412D01*
X64155Y-35631D01*
X64154Y-35867D01*
X64245Y-36086D01*
X64412Y-36254D01*
X64631Y-36344D01*
X64867Y-36345D01*
X65086Y-36254D01*
X65254Y-36087D01*
X65344Y-35868D01*
X65345Y-35632D01*
X65345Y-39632D01*
X65254Y-39413D01*
X65087Y-39245D01*
X64868Y-39155D01*
X64632Y-39154D01*
X64413Y-39245D01*
X64245Y-39412D01*
X64155Y-39631D01*
X64154Y-39867D01*
X64245Y-40086D01*
X64412Y-40254D01*
X64631Y-40344D01*
X64867Y-40345D01*
X65086Y-40254D01*
X65254Y-40087D01*
X65344Y-39868D01*
X65345Y-39632D01*
X65345Y-40465D01*
X65319Y-40454D01*
X65062Y-40455D01*
X65000Y-40517D01*
X65000Y-40950D01*
X65007Y-40950D01*
X65007Y-41050D01*
X65000Y-41050D01*
X65000Y-41482D01*
X65062Y-41545D01*
X65319Y-41545D01*
X65411Y-41507D01*
X65450Y-41468D01*
X65450Y-46993D01*
M02*
