G04 (created by PCBNEW (22-Jun-2014 BZR 4027)-stable) date Sat 02 Sep 2017 10:31:11 PM CDT*
%MOIN*%
G04 Gerber Fmt 3.4, Leading zero omitted, Abs format*
%FSLAX34Y34*%
G01*
G70*
G90*
G04 APERTURE LIST*
%ADD10C,0.00393701*%
%ADD11C,0.008*%
%ADD12C,0.01*%
%ADD13C,0.00590551*%
%ADD14C,0.006*%
%ADD15C,0.005*%
G04 APERTURE END LIST*
G54D10*
G54D11*
X20738Y-159061D02*
X20738Y-158871D01*
X20547Y-158852D01*
X20566Y-158871D01*
X20585Y-158909D01*
X20585Y-159004D01*
X20566Y-159042D01*
X20547Y-159061D01*
X20509Y-159080D01*
X20414Y-159080D01*
X20376Y-159061D01*
X20357Y-159042D01*
X20338Y-159004D01*
X20338Y-158909D01*
X20357Y-158871D01*
X20376Y-158852D01*
X20738Y-159195D02*
X20338Y-159328D01*
X20738Y-159461D01*
X19738Y-158852D02*
X19738Y-159080D01*
X19338Y-158966D02*
X19738Y-158966D01*
X19738Y-159176D02*
X19338Y-159442D01*
X19738Y-159442D02*
X19338Y-159176D01*
X18338Y-159042D02*
X18528Y-158909D01*
X18338Y-158814D02*
X18738Y-158814D01*
X18738Y-158966D01*
X18719Y-159004D01*
X18700Y-159023D01*
X18661Y-159042D01*
X18604Y-159042D01*
X18566Y-159023D01*
X18547Y-159004D01*
X18528Y-158966D01*
X18528Y-158814D01*
X18738Y-159176D02*
X18338Y-159442D01*
X18738Y-159442D02*
X18338Y-159176D01*
X17719Y-158585D02*
X17738Y-158547D01*
X17738Y-158490D01*
X17719Y-158433D01*
X17680Y-158395D01*
X17642Y-158376D01*
X17566Y-158357D01*
X17509Y-158357D01*
X17433Y-158376D01*
X17395Y-158395D01*
X17357Y-158433D01*
X17338Y-158490D01*
X17338Y-158528D01*
X17357Y-158585D01*
X17376Y-158604D01*
X17509Y-158604D01*
X17509Y-158528D01*
X17338Y-158776D02*
X17738Y-158776D01*
X17338Y-159004D01*
X17738Y-159004D01*
X17338Y-159195D02*
X17738Y-159195D01*
X17738Y-159290D01*
X17719Y-159347D01*
X17680Y-159385D01*
X17642Y-159404D01*
X17566Y-159423D01*
X17509Y-159423D01*
X17433Y-159404D01*
X17395Y-159385D01*
X17357Y-159347D01*
X17338Y-159290D01*
X17338Y-159195D01*
G54D12*
X30500Y-152000D02*
X23500Y-152000D01*
X23500Y-150000D02*
X30500Y-150000D01*
X20500Y-152000D02*
X23500Y-152000D01*
X20500Y-150000D02*
X23500Y-150000D01*
X16800Y-151000D02*
G75*
G03X16500Y-150700I-300J0D01*
G74*
G01*
X16500Y-151300D02*
G75*
G03X16800Y-151000I0J300D01*
G74*
G01*
X16500Y-150000D02*
X20500Y-150000D01*
X30500Y-150000D02*
X30500Y-152000D01*
X20500Y-152000D02*
X16500Y-152000D01*
X16500Y-152000D02*
X16500Y-150000D01*
X36500Y-141750D02*
X36500Y-147750D01*
X36500Y-147750D02*
X15000Y-147750D01*
X15000Y-147750D02*
X15000Y-141750D01*
X36500Y-141750D02*
X15000Y-141750D01*
X38050Y-159900D02*
X38050Y-155100D01*
X38050Y-155100D02*
X31350Y-155100D01*
X31350Y-155100D02*
X31350Y-159900D01*
X31350Y-159900D02*
X38050Y-159900D01*
X20000Y-161000D02*
X20000Y-160000D01*
X21000Y-161000D02*
X17000Y-161000D01*
X17000Y-161000D02*
X17000Y-160000D01*
X17000Y-160000D02*
X21000Y-160000D01*
X21000Y-160000D02*
X21000Y-161000D01*
X26500Y-153250D02*
X28500Y-153250D01*
X28500Y-153250D02*
X28500Y-154250D01*
X28500Y-154250D02*
X26500Y-154250D01*
X26500Y-154250D02*
X26500Y-153250D01*
X25000Y-156500D02*
X25400Y-156500D01*
X25400Y-156500D02*
X25400Y-156100D01*
X25400Y-156100D02*
X28600Y-156100D01*
X28600Y-156100D02*
X28600Y-156900D01*
X28600Y-156900D02*
X25400Y-156900D01*
X25400Y-156900D02*
X25400Y-156500D01*
X29000Y-156500D02*
X28600Y-156500D01*
X25000Y-155500D02*
X25400Y-155500D01*
X25400Y-155500D02*
X25400Y-155100D01*
X25400Y-155100D02*
X28600Y-155100D01*
X28600Y-155100D02*
X28600Y-155900D01*
X28600Y-155900D02*
X25400Y-155900D01*
X25400Y-155900D02*
X25400Y-155500D01*
X29000Y-155500D02*
X28600Y-155500D01*
X31250Y-152250D02*
X31250Y-151850D01*
X31250Y-151850D02*
X30850Y-151850D01*
X30850Y-151850D02*
X30850Y-148650D01*
X30850Y-148650D02*
X31650Y-148650D01*
X31650Y-148650D02*
X31650Y-151850D01*
X31650Y-151850D02*
X31250Y-151850D01*
X31250Y-148250D02*
X31250Y-148650D01*
X25000Y-158500D02*
X25400Y-158500D01*
X25400Y-158500D02*
X25400Y-158100D01*
X25400Y-158100D02*
X28600Y-158100D01*
X28600Y-158100D02*
X28600Y-158900D01*
X28600Y-158900D02*
X25400Y-158900D01*
X25400Y-158900D02*
X25400Y-158500D01*
X29000Y-158500D02*
X28600Y-158500D01*
X25000Y-157500D02*
X25400Y-157500D01*
X25400Y-157500D02*
X25400Y-157100D01*
X25400Y-157100D02*
X28600Y-157100D01*
X28600Y-157100D02*
X28600Y-157900D01*
X28600Y-157900D02*
X25400Y-157900D01*
X25400Y-157900D02*
X25400Y-157500D01*
X29000Y-157500D02*
X28600Y-157500D01*
X33301Y-149551D02*
X32198Y-149551D01*
X32198Y-148448D02*
G75*
G03X32198Y-149551I551J-551D01*
G74*
G01*
X33301Y-148448D02*
G75*
G03X32198Y-148448I-551J-551D01*
G74*
G01*
X33301Y-149551D02*
G75*
G03X33301Y-148448I-551J551D01*
G74*
G01*
X28551Y-160801D02*
X27448Y-160801D01*
X27448Y-159698D02*
G75*
G03X27448Y-160801I551J-551D01*
G74*
G01*
X28551Y-159698D02*
G75*
G03X27448Y-159698I-551J-551D01*
G74*
G01*
X28551Y-160801D02*
G75*
G03X28551Y-159698I-551J551D01*
G74*
G01*
X26551Y-160801D02*
X25448Y-160801D01*
X25448Y-159698D02*
G75*
G03X25448Y-160801I551J-551D01*
G74*
G01*
X26551Y-159698D02*
G75*
G03X25448Y-159698I-551J-551D01*
G74*
G01*
X26551Y-160801D02*
G75*
G03X26551Y-159698I-551J551D01*
G74*
G01*
X35250Y-151750D02*
X35250Y-149250D01*
X33750Y-151750D02*
X33750Y-149250D01*
X34500Y-151750D02*
X33750Y-151750D01*
X33750Y-149250D02*
X35250Y-149250D01*
X35250Y-151750D02*
X34500Y-151750D01*
X34500Y-148500D02*
X34500Y-149250D01*
X34500Y-152500D02*
X34500Y-151750D01*
X32500Y-153750D02*
G75*
G03X32500Y-153750I-1000J0D01*
G74*
G01*
X19500Y-155000D02*
X16500Y-155000D01*
X19500Y-157000D02*
X16500Y-157000D01*
X23200Y-156000D02*
G75*
G03X23500Y-156300I300J0D01*
G74*
G01*
X23500Y-155700D02*
G75*
G03X23200Y-156000I0J-300D01*
G74*
G01*
X23500Y-157000D02*
X19500Y-157000D01*
X16500Y-157000D02*
X16500Y-155000D01*
X19500Y-155000D02*
X23500Y-155000D01*
X23500Y-155000D02*
X23500Y-157000D01*
X21600Y-158600D02*
X21600Y-160650D01*
X22400Y-158600D02*
X22400Y-160650D01*
X22400Y-160650D02*
X21600Y-160650D01*
X21600Y-158600D02*
X22400Y-158600D01*
X30900Y-157400D02*
X30900Y-155350D01*
X30100Y-157400D02*
X30100Y-155350D01*
X30100Y-155350D02*
X30900Y-155350D01*
X30900Y-157400D02*
X30100Y-157400D01*
X30100Y-157600D02*
X30100Y-159650D01*
X30900Y-157600D02*
X30900Y-159650D01*
X30900Y-159650D02*
X30100Y-159650D01*
X30100Y-157600D02*
X30900Y-157600D01*
X33100Y-154150D02*
X35150Y-154150D01*
X33100Y-153350D02*
X35150Y-153350D01*
X35150Y-153350D02*
X35150Y-154150D01*
X33100Y-154150D02*
X33100Y-153350D01*
X16900Y-153900D02*
X18950Y-153900D01*
X16900Y-153100D02*
X18950Y-153100D01*
X18950Y-153100D02*
X18950Y-153900D01*
X16900Y-153900D02*
X16900Y-153100D01*
X25900Y-153350D02*
X23850Y-153350D01*
X25900Y-154150D02*
X23850Y-154150D01*
X23850Y-154150D02*
X23850Y-153350D01*
X25900Y-153350D02*
X25900Y-154150D01*
X22600Y-158600D02*
X22600Y-160650D01*
X23400Y-158600D02*
X23400Y-160650D01*
X23400Y-160650D02*
X22600Y-160650D01*
X22600Y-158600D02*
X23400Y-158600D01*
G54D11*
X17411Y-151390D02*
X17011Y-151390D01*
X17373Y-150971D02*
X17392Y-150990D01*
X17411Y-151047D01*
X17411Y-151085D01*
X17392Y-151142D01*
X17354Y-151180D01*
X17316Y-151199D01*
X17240Y-151219D01*
X17183Y-151219D01*
X17107Y-151199D01*
X17069Y-151180D01*
X17030Y-151142D01*
X17011Y-151085D01*
X17011Y-151047D01*
X17030Y-150990D01*
X17050Y-150971D01*
X17411Y-150590D02*
X17411Y-150819D01*
X17411Y-150704D02*
X17011Y-150704D01*
X17069Y-150742D01*
X17107Y-150780D01*
X17126Y-150819D01*
X21080Y-151047D02*
X21271Y-151047D01*
X21042Y-151161D02*
X21176Y-150761D01*
X21309Y-151161D01*
X21385Y-150761D02*
X21614Y-150761D01*
X21500Y-151161D02*
X21500Y-150761D01*
X21747Y-151161D02*
X21747Y-150761D01*
X21880Y-151047D01*
X22014Y-150761D01*
X22014Y-151161D01*
X22204Y-150952D02*
X22338Y-150952D01*
X22395Y-151161D02*
X22204Y-151161D01*
X22204Y-150761D01*
X22395Y-150761D01*
X22776Y-150780D02*
X22738Y-150761D01*
X22680Y-150761D01*
X22623Y-150780D01*
X22585Y-150819D01*
X22566Y-150857D01*
X22547Y-150933D01*
X22547Y-150990D01*
X22566Y-151066D01*
X22585Y-151104D01*
X22623Y-151142D01*
X22680Y-151161D01*
X22719Y-151161D01*
X22776Y-151142D01*
X22795Y-151123D01*
X22795Y-150990D01*
X22719Y-150990D01*
X22947Y-151047D02*
X23138Y-151047D01*
X22909Y-151161D02*
X23042Y-150761D01*
X23176Y-151161D01*
X23519Y-151161D02*
X23290Y-151161D01*
X23404Y-151161D02*
X23404Y-150761D01*
X23366Y-150819D01*
X23328Y-150857D01*
X23290Y-150876D01*
X23861Y-150761D02*
X23785Y-150761D01*
X23747Y-150780D01*
X23728Y-150800D01*
X23690Y-150857D01*
X23671Y-150933D01*
X23671Y-151085D01*
X23690Y-151123D01*
X23709Y-151142D01*
X23747Y-151161D01*
X23823Y-151161D01*
X23861Y-151142D01*
X23880Y-151123D01*
X23900Y-151085D01*
X23900Y-150990D01*
X23880Y-150952D01*
X23861Y-150933D01*
X23823Y-150914D01*
X23747Y-150914D01*
X23709Y-150933D01*
X23690Y-150952D01*
X23671Y-150990D01*
X24128Y-150933D02*
X24090Y-150914D01*
X24071Y-150895D01*
X24052Y-150857D01*
X24052Y-150838D01*
X24071Y-150800D01*
X24090Y-150780D01*
X24128Y-150761D01*
X24204Y-150761D01*
X24242Y-150780D01*
X24261Y-150800D01*
X24280Y-150838D01*
X24280Y-150857D01*
X24261Y-150895D01*
X24242Y-150914D01*
X24204Y-150933D01*
X24128Y-150933D01*
X24090Y-150952D01*
X24071Y-150971D01*
X24052Y-151009D01*
X24052Y-151085D01*
X24071Y-151123D01*
X24090Y-151142D01*
X24128Y-151161D01*
X24204Y-151161D01*
X24242Y-151142D01*
X24261Y-151123D01*
X24280Y-151085D01*
X24280Y-151009D01*
X24261Y-150971D01*
X24242Y-150952D01*
X24204Y-150933D01*
X24452Y-151161D02*
X24452Y-150761D01*
X24604Y-150761D01*
X24642Y-150780D01*
X24661Y-150800D01*
X24680Y-150838D01*
X24680Y-150895D01*
X24661Y-150933D01*
X24642Y-150952D01*
X24604Y-150971D01*
X24452Y-150971D01*
X24833Y-151047D02*
X25023Y-151047D01*
X24795Y-151161D02*
X24928Y-150761D01*
X25061Y-151161D01*
X25195Y-151009D02*
X25500Y-151009D01*
X25690Y-151161D02*
X25690Y-150761D01*
X25842Y-150761D01*
X25880Y-150780D01*
X25900Y-150800D01*
X25919Y-150838D01*
X25919Y-150895D01*
X25900Y-150933D01*
X25880Y-150952D01*
X25842Y-150971D01*
X25690Y-150971D01*
X34454Y-142661D02*
X34454Y-142261D01*
X34607Y-142261D01*
X34645Y-142280D01*
X34664Y-142300D01*
X34683Y-142338D01*
X34683Y-142395D01*
X34664Y-142433D01*
X34645Y-142452D01*
X34607Y-142471D01*
X34454Y-142471D01*
X34835Y-142300D02*
X34854Y-142280D01*
X34892Y-142261D01*
X34988Y-142261D01*
X35026Y-142280D01*
X35045Y-142300D01*
X35064Y-142338D01*
X35064Y-142376D01*
X35045Y-142433D01*
X34816Y-142661D01*
X35064Y-142661D01*
G54D13*
X24484Y-143034D02*
X24447Y-143015D01*
X24390Y-143015D01*
X24334Y-143034D01*
X24297Y-143071D01*
X24278Y-143109D01*
X24259Y-143184D01*
X24259Y-143240D01*
X24278Y-143315D01*
X24297Y-143353D01*
X24334Y-143390D01*
X24390Y-143409D01*
X24428Y-143409D01*
X24484Y-143390D01*
X24503Y-143371D01*
X24503Y-143240D01*
X24428Y-143240D01*
X24672Y-143409D02*
X24672Y-143015D01*
X24821Y-143015D01*
X24859Y-143034D01*
X24878Y-143053D01*
X24896Y-143090D01*
X24896Y-143146D01*
X24878Y-143184D01*
X24859Y-143203D01*
X24821Y-143221D01*
X24672Y-143221D01*
X25065Y-143409D02*
X25065Y-143015D01*
X25384Y-143203D02*
X25440Y-143221D01*
X25459Y-143240D01*
X25478Y-143278D01*
X25478Y-143334D01*
X25459Y-143371D01*
X25440Y-143390D01*
X25403Y-143409D01*
X25253Y-143409D01*
X25253Y-143015D01*
X25384Y-143015D01*
X25421Y-143034D01*
X25440Y-143053D01*
X25459Y-143090D01*
X25459Y-143128D01*
X25440Y-143165D01*
X25421Y-143184D01*
X25384Y-143203D01*
X25253Y-143203D01*
X25946Y-143409D02*
X25946Y-143015D01*
X26078Y-143296D01*
X26209Y-143015D01*
X26209Y-143409D01*
X26378Y-143296D02*
X26565Y-143296D01*
X26340Y-143409D02*
X26471Y-143015D01*
X26603Y-143409D01*
X26921Y-143409D02*
X26734Y-143409D01*
X26734Y-143015D01*
X27052Y-143203D02*
X27184Y-143203D01*
X27240Y-143409D02*
X27052Y-143409D01*
X27052Y-143015D01*
X27240Y-143015D01*
G54D11*
X20673Y-144161D02*
X20673Y-143761D01*
X20902Y-144161D01*
X20902Y-143761D01*
X21150Y-144161D02*
X21111Y-144142D01*
X21092Y-144123D01*
X21073Y-144085D01*
X21073Y-143971D01*
X21092Y-143933D01*
X21111Y-143914D01*
X21150Y-143895D01*
X21207Y-143895D01*
X21245Y-143914D01*
X21264Y-143933D01*
X21283Y-143971D01*
X21283Y-144085D01*
X21264Y-144123D01*
X21245Y-144142D01*
X21207Y-144161D01*
X21150Y-144161D01*
X21454Y-144161D02*
X21454Y-143895D01*
X21454Y-143971D02*
X21473Y-143933D01*
X21492Y-143914D01*
X21530Y-143895D01*
X21569Y-143895D01*
X21930Y-144123D02*
X21911Y-144142D01*
X21854Y-144161D01*
X21816Y-144161D01*
X21759Y-144142D01*
X21721Y-144104D01*
X21702Y-144066D01*
X21683Y-143990D01*
X21683Y-143933D01*
X21702Y-143857D01*
X21721Y-143819D01*
X21759Y-143780D01*
X21816Y-143761D01*
X21854Y-143761D01*
X21911Y-143780D01*
X21930Y-143800D01*
X22159Y-144161D02*
X22121Y-144142D01*
X22102Y-144123D01*
X22083Y-144085D01*
X22083Y-143971D01*
X22102Y-143933D01*
X22121Y-143914D01*
X22159Y-143895D01*
X22216Y-143895D01*
X22254Y-143914D01*
X22273Y-143933D01*
X22292Y-143971D01*
X22292Y-144085D01*
X22273Y-144123D01*
X22254Y-144142D01*
X22216Y-144161D01*
X22159Y-144161D01*
X22464Y-144161D02*
X22464Y-143895D01*
X22464Y-143933D02*
X22483Y-143914D01*
X22521Y-143895D01*
X22578Y-143895D01*
X22616Y-143914D01*
X22635Y-143952D01*
X22635Y-144161D01*
X22635Y-143952D02*
X22654Y-143914D01*
X22692Y-143895D01*
X22750Y-143895D01*
X22788Y-143914D01*
X22807Y-143952D01*
X22807Y-144161D01*
X22997Y-143895D02*
X22997Y-144295D01*
X22997Y-143914D02*
X23035Y-143895D01*
X23111Y-143895D01*
X23150Y-143914D01*
X23169Y-143933D01*
X23188Y-143971D01*
X23188Y-144085D01*
X23169Y-144123D01*
X23150Y-144142D01*
X23111Y-144161D01*
X23035Y-144161D01*
X22997Y-144142D01*
X23664Y-144161D02*
X23664Y-143761D01*
X23854Y-143895D02*
X23854Y-144161D01*
X23854Y-143933D02*
X23873Y-143914D01*
X23911Y-143895D01*
X23969Y-143895D01*
X24007Y-143914D01*
X24026Y-143952D01*
X24026Y-144161D01*
X24388Y-144142D02*
X24350Y-144161D01*
X24273Y-144161D01*
X24235Y-144142D01*
X24216Y-144123D01*
X24197Y-144085D01*
X24197Y-143971D01*
X24216Y-143933D01*
X24235Y-143914D01*
X24273Y-143895D01*
X24350Y-143895D01*
X24388Y-143914D01*
X24559Y-144123D02*
X24578Y-144142D01*
X24559Y-144161D01*
X24540Y-144142D01*
X24559Y-144123D01*
X24559Y-144161D01*
X25264Y-144161D02*
X25035Y-144161D01*
X25150Y-144161D02*
X25150Y-143761D01*
X25111Y-143819D01*
X25073Y-143857D01*
X25035Y-143876D01*
X25645Y-144161D02*
X25416Y-144161D01*
X25530Y-144161D02*
X25530Y-143761D01*
X25492Y-143819D01*
X25454Y-143857D01*
X25416Y-143876D01*
X25797Y-143800D02*
X25816Y-143780D01*
X25854Y-143761D01*
X25950Y-143761D01*
X25988Y-143780D01*
X26007Y-143800D01*
X26026Y-143838D01*
X26026Y-143876D01*
X26007Y-143933D01*
X25778Y-144161D01*
X26026Y-144161D01*
X26197Y-144009D02*
X26502Y-144009D01*
X26769Y-143761D02*
X26807Y-143761D01*
X26845Y-143780D01*
X26864Y-143800D01*
X26883Y-143838D01*
X26902Y-143914D01*
X26902Y-144009D01*
X26883Y-144085D01*
X26864Y-144123D01*
X26845Y-144142D01*
X26807Y-144161D01*
X26769Y-144161D01*
X26730Y-144142D01*
X26711Y-144123D01*
X26692Y-144085D01*
X26673Y-144009D01*
X26673Y-143914D01*
X26692Y-143838D01*
X26711Y-143800D01*
X26730Y-143780D01*
X26769Y-143761D01*
X27054Y-143800D02*
X27073Y-143780D01*
X27111Y-143761D01*
X27207Y-143761D01*
X27245Y-143780D01*
X27264Y-143800D01*
X27283Y-143838D01*
X27283Y-143876D01*
X27264Y-143933D01*
X27035Y-144161D01*
X27283Y-144161D01*
X27626Y-143895D02*
X27626Y-144161D01*
X27530Y-143742D02*
X27435Y-144028D01*
X27683Y-144028D01*
X27835Y-144009D02*
X28140Y-144009D01*
X28540Y-144161D02*
X28311Y-144161D01*
X28426Y-144161D02*
X28426Y-143761D01*
X28388Y-143819D01*
X28350Y-143857D01*
X28311Y-143876D01*
X28921Y-144161D02*
X28692Y-144161D01*
X28807Y-144161D02*
X28807Y-143761D01*
X28769Y-143819D01*
X28730Y-143857D01*
X28692Y-143876D01*
X29054Y-143761D02*
X29302Y-143761D01*
X29169Y-143914D01*
X29226Y-143914D01*
X29264Y-143933D01*
X29283Y-143952D01*
X29302Y-143990D01*
X29302Y-144085D01*
X29283Y-144123D01*
X29264Y-144142D01*
X29226Y-144161D01*
X29111Y-144161D01*
X29073Y-144142D01*
X29054Y-144123D01*
X29702Y-144161D02*
X29569Y-143971D01*
X29473Y-144161D02*
X29473Y-143761D01*
X29626Y-143761D01*
X29664Y-143780D01*
X29683Y-143800D01*
X29702Y-143838D01*
X29702Y-143895D01*
X29683Y-143933D01*
X29664Y-143952D01*
X29626Y-143971D01*
X29473Y-143971D01*
X29950Y-143761D02*
X29988Y-143761D01*
X30026Y-143780D01*
X30045Y-143800D01*
X30064Y-143838D01*
X30083Y-143914D01*
X30083Y-144009D01*
X30064Y-144085D01*
X30045Y-144123D01*
X30026Y-144142D01*
X29988Y-144161D01*
X29950Y-144161D01*
X29911Y-144142D01*
X29892Y-144123D01*
X29873Y-144085D01*
X29854Y-144009D01*
X29854Y-143914D01*
X29873Y-143838D01*
X29892Y-143800D01*
X29911Y-143780D01*
X29950Y-143761D01*
X30330Y-143761D02*
X30369Y-143761D01*
X30407Y-143780D01*
X30426Y-143800D01*
X30445Y-143838D01*
X30464Y-143914D01*
X30464Y-144009D01*
X30445Y-144085D01*
X30426Y-144123D01*
X30407Y-144142D01*
X30369Y-144161D01*
X30330Y-144161D01*
X30292Y-144142D01*
X30273Y-144123D01*
X30254Y-144085D01*
X30235Y-144009D01*
X30235Y-143914D01*
X30254Y-143838D01*
X30273Y-143800D01*
X30292Y-143780D01*
X30330Y-143761D01*
X30845Y-144161D02*
X30616Y-144161D01*
X30730Y-144161D02*
X30730Y-143761D01*
X30692Y-143819D01*
X30654Y-143857D01*
X30616Y-143876D01*
X31816Y-159261D02*
X31816Y-159547D01*
X31797Y-159604D01*
X31759Y-159642D01*
X31702Y-159661D01*
X31664Y-159661D01*
X32216Y-159661D02*
X31988Y-159661D01*
X32102Y-159661D02*
X32102Y-159261D01*
X32064Y-159319D01*
X32026Y-159357D01*
X31988Y-159376D01*
X33761Y-158357D02*
X34085Y-158357D01*
X34123Y-158338D01*
X34142Y-158319D01*
X34161Y-158280D01*
X34161Y-158204D01*
X34142Y-158166D01*
X34123Y-158147D01*
X34085Y-158128D01*
X33761Y-158128D01*
X34142Y-157957D02*
X34161Y-157899D01*
X34161Y-157804D01*
X34142Y-157766D01*
X34123Y-157747D01*
X34085Y-157728D01*
X34047Y-157728D01*
X34009Y-157747D01*
X33990Y-157766D01*
X33971Y-157804D01*
X33952Y-157880D01*
X33933Y-157919D01*
X33914Y-157938D01*
X33876Y-157957D01*
X33838Y-157957D01*
X33800Y-157938D01*
X33780Y-157919D01*
X33761Y-157880D01*
X33761Y-157785D01*
X33780Y-157728D01*
X33952Y-157423D02*
X33971Y-157366D01*
X33990Y-157347D01*
X34028Y-157328D01*
X34085Y-157328D01*
X34123Y-157347D01*
X34142Y-157366D01*
X34161Y-157404D01*
X34161Y-157557D01*
X33761Y-157557D01*
X33761Y-157423D01*
X33780Y-157385D01*
X33800Y-157366D01*
X33838Y-157347D01*
X33876Y-157347D01*
X33914Y-157366D01*
X33933Y-157385D01*
X33952Y-157423D01*
X33952Y-157557D01*
X34200Y-157252D02*
X34200Y-156947D01*
X33952Y-156719D02*
X33971Y-156661D01*
X33990Y-156642D01*
X34028Y-156623D01*
X34085Y-156623D01*
X34123Y-156642D01*
X34142Y-156661D01*
X34161Y-156700D01*
X34161Y-156852D01*
X33761Y-156852D01*
X33761Y-156719D01*
X33780Y-156680D01*
X33800Y-156661D01*
X33838Y-156642D01*
X33876Y-156642D01*
X33914Y-156661D01*
X33933Y-156680D01*
X33952Y-156719D01*
X33952Y-156852D01*
G54D14*
X28828Y-153571D02*
X28828Y-153785D01*
X28814Y-153828D01*
X28785Y-153857D01*
X28742Y-153871D01*
X28714Y-153871D01*
X28971Y-153871D02*
X28971Y-153571D01*
X29071Y-153785D01*
X29171Y-153571D01*
X29171Y-153871D01*
X29314Y-153871D02*
X29314Y-153571D01*
X29428Y-153571D01*
X29457Y-153585D01*
X29471Y-153600D01*
X29485Y-153628D01*
X29485Y-153671D01*
X29471Y-153700D01*
X29457Y-153714D01*
X29428Y-153728D01*
X29314Y-153728D01*
X29771Y-153871D02*
X29600Y-153871D01*
X29685Y-153871D02*
X29685Y-153571D01*
X29657Y-153614D01*
X29628Y-153642D01*
X29600Y-153657D01*
X26150Y-156621D02*
X26050Y-156478D01*
X25978Y-156621D02*
X25978Y-156321D01*
X26092Y-156321D01*
X26121Y-156335D01*
X26135Y-156350D01*
X26150Y-156378D01*
X26150Y-156421D01*
X26135Y-156450D01*
X26121Y-156464D01*
X26092Y-156478D01*
X25978Y-156478D01*
X26435Y-156621D02*
X26264Y-156621D01*
X26350Y-156621D02*
X26350Y-156321D01*
X26321Y-156364D01*
X26292Y-156392D01*
X26264Y-156407D01*
X27557Y-156321D02*
X27742Y-156321D01*
X27642Y-156435D01*
X27685Y-156435D01*
X27714Y-156450D01*
X27728Y-156464D01*
X27742Y-156492D01*
X27742Y-156564D01*
X27728Y-156592D01*
X27714Y-156607D01*
X27685Y-156621D01*
X27600Y-156621D01*
X27571Y-156607D01*
X27557Y-156592D01*
X27842Y-156321D02*
X28028Y-156321D01*
X27928Y-156435D01*
X27971Y-156435D01*
X28000Y-156450D01*
X28014Y-156464D01*
X28028Y-156492D01*
X28028Y-156564D01*
X28014Y-156592D01*
X28000Y-156607D01*
X27971Y-156621D01*
X27885Y-156621D01*
X27857Y-156607D01*
X27842Y-156592D01*
X26150Y-155621D02*
X26050Y-155478D01*
X25978Y-155621D02*
X25978Y-155321D01*
X26092Y-155321D01*
X26121Y-155335D01*
X26135Y-155350D01*
X26150Y-155378D01*
X26150Y-155421D01*
X26135Y-155450D01*
X26121Y-155464D01*
X26092Y-155478D01*
X25978Y-155478D01*
X26264Y-155350D02*
X26278Y-155335D01*
X26307Y-155321D01*
X26378Y-155321D01*
X26407Y-155335D01*
X26421Y-155350D01*
X26435Y-155378D01*
X26435Y-155407D01*
X26421Y-155450D01*
X26250Y-155621D01*
X26435Y-155621D01*
X27557Y-155321D02*
X27742Y-155321D01*
X27642Y-155435D01*
X27685Y-155435D01*
X27714Y-155450D01*
X27728Y-155464D01*
X27742Y-155492D01*
X27742Y-155564D01*
X27728Y-155592D01*
X27714Y-155607D01*
X27685Y-155621D01*
X27600Y-155621D01*
X27571Y-155607D01*
X27557Y-155592D01*
X27842Y-155321D02*
X28028Y-155321D01*
X27928Y-155435D01*
X27971Y-155435D01*
X28000Y-155450D01*
X28014Y-155464D01*
X28028Y-155492D01*
X28028Y-155564D01*
X28014Y-155592D01*
X28000Y-155607D01*
X27971Y-155621D01*
X27885Y-155621D01*
X27857Y-155607D01*
X27842Y-155592D01*
X31371Y-151100D02*
X31228Y-151200D01*
X31371Y-151271D02*
X31071Y-151271D01*
X31071Y-151157D01*
X31085Y-151128D01*
X31100Y-151114D01*
X31128Y-151100D01*
X31171Y-151100D01*
X31200Y-151114D01*
X31214Y-151128D01*
X31228Y-151157D01*
X31228Y-151271D01*
X31071Y-150828D02*
X31071Y-150971D01*
X31214Y-150985D01*
X31200Y-150971D01*
X31185Y-150942D01*
X31185Y-150871D01*
X31200Y-150842D01*
X31214Y-150828D01*
X31242Y-150814D01*
X31314Y-150814D01*
X31342Y-150828D01*
X31357Y-150842D01*
X31371Y-150871D01*
X31371Y-150942D01*
X31357Y-150971D01*
X31342Y-150985D01*
X31071Y-149835D02*
X31071Y-149650D01*
X31185Y-149750D01*
X31185Y-149707D01*
X31200Y-149678D01*
X31214Y-149664D01*
X31242Y-149650D01*
X31314Y-149650D01*
X31342Y-149664D01*
X31357Y-149678D01*
X31371Y-149707D01*
X31371Y-149792D01*
X31357Y-149821D01*
X31342Y-149835D01*
X31071Y-149550D02*
X31071Y-149364D01*
X31185Y-149464D01*
X31185Y-149421D01*
X31200Y-149392D01*
X31214Y-149378D01*
X31242Y-149364D01*
X31314Y-149364D01*
X31342Y-149378D01*
X31357Y-149392D01*
X31371Y-149421D01*
X31371Y-149507D01*
X31357Y-149535D01*
X31342Y-149550D01*
X31071Y-149178D02*
X31071Y-149150D01*
X31085Y-149121D01*
X31100Y-149107D01*
X31128Y-149092D01*
X31185Y-149078D01*
X31257Y-149078D01*
X31314Y-149092D01*
X31342Y-149107D01*
X31357Y-149121D01*
X31371Y-149150D01*
X31371Y-149178D01*
X31357Y-149207D01*
X31342Y-149221D01*
X31314Y-149235D01*
X31257Y-149250D01*
X31185Y-149250D01*
X31128Y-149235D01*
X31100Y-149221D01*
X31085Y-149207D01*
X31071Y-149178D01*
X26150Y-158621D02*
X26050Y-158478D01*
X25978Y-158621D02*
X25978Y-158321D01*
X26092Y-158321D01*
X26121Y-158335D01*
X26135Y-158350D01*
X26150Y-158378D01*
X26150Y-158421D01*
X26135Y-158450D01*
X26121Y-158464D01*
X26092Y-158478D01*
X25978Y-158478D01*
X26250Y-158321D02*
X26435Y-158321D01*
X26335Y-158435D01*
X26378Y-158435D01*
X26407Y-158450D01*
X26421Y-158464D01*
X26435Y-158492D01*
X26435Y-158564D01*
X26421Y-158592D01*
X26407Y-158607D01*
X26378Y-158621D01*
X26292Y-158621D01*
X26264Y-158607D01*
X26250Y-158592D01*
X27414Y-158321D02*
X27600Y-158321D01*
X27500Y-158435D01*
X27542Y-158435D01*
X27571Y-158450D01*
X27585Y-158464D01*
X27600Y-158492D01*
X27600Y-158564D01*
X27585Y-158592D01*
X27571Y-158607D01*
X27542Y-158621D01*
X27457Y-158621D01*
X27428Y-158607D01*
X27414Y-158592D01*
X27700Y-158321D02*
X27885Y-158321D01*
X27785Y-158435D01*
X27828Y-158435D01*
X27857Y-158450D01*
X27871Y-158464D01*
X27885Y-158492D01*
X27885Y-158564D01*
X27871Y-158592D01*
X27857Y-158607D01*
X27828Y-158621D01*
X27742Y-158621D01*
X27714Y-158607D01*
X27700Y-158592D01*
X28071Y-158321D02*
X28100Y-158321D01*
X28128Y-158335D01*
X28142Y-158350D01*
X28157Y-158378D01*
X28171Y-158435D01*
X28171Y-158507D01*
X28157Y-158564D01*
X28142Y-158592D01*
X28128Y-158607D01*
X28100Y-158621D01*
X28071Y-158621D01*
X28042Y-158607D01*
X28028Y-158592D01*
X28014Y-158564D01*
X28000Y-158507D01*
X28000Y-158435D01*
X28014Y-158378D01*
X28028Y-158350D01*
X28042Y-158335D01*
X28071Y-158321D01*
X26150Y-157621D02*
X26050Y-157478D01*
X25978Y-157621D02*
X25978Y-157321D01*
X26092Y-157321D01*
X26121Y-157335D01*
X26135Y-157350D01*
X26150Y-157378D01*
X26150Y-157421D01*
X26135Y-157450D01*
X26121Y-157464D01*
X26092Y-157478D01*
X25978Y-157478D01*
X26407Y-157421D02*
X26407Y-157621D01*
X26335Y-157307D02*
X26264Y-157521D01*
X26450Y-157521D01*
X27414Y-157321D02*
X27600Y-157321D01*
X27500Y-157435D01*
X27542Y-157435D01*
X27571Y-157450D01*
X27585Y-157464D01*
X27600Y-157492D01*
X27600Y-157564D01*
X27585Y-157592D01*
X27571Y-157607D01*
X27542Y-157621D01*
X27457Y-157621D01*
X27428Y-157607D01*
X27414Y-157592D01*
X27700Y-157321D02*
X27885Y-157321D01*
X27785Y-157435D01*
X27828Y-157435D01*
X27857Y-157450D01*
X27871Y-157464D01*
X27885Y-157492D01*
X27885Y-157564D01*
X27871Y-157592D01*
X27857Y-157607D01*
X27828Y-157621D01*
X27742Y-157621D01*
X27714Y-157607D01*
X27700Y-157592D01*
X28071Y-157321D02*
X28100Y-157321D01*
X28128Y-157335D01*
X28142Y-157350D01*
X28157Y-157378D01*
X28171Y-157435D01*
X28171Y-157507D01*
X28157Y-157564D01*
X28142Y-157592D01*
X28128Y-157607D01*
X28100Y-157621D01*
X28071Y-157621D01*
X28042Y-157607D01*
X28028Y-157592D01*
X28014Y-157564D01*
X28000Y-157507D01*
X28000Y-157435D01*
X28014Y-157378D01*
X28028Y-157350D01*
X28042Y-157335D01*
X28071Y-157321D01*
G54D12*
X32740Y-151607D02*
X32740Y-151440D01*
X33002Y-151369D02*
X33002Y-151607D01*
X32502Y-151607D01*
X32502Y-151369D01*
X33002Y-150869D02*
X32764Y-151035D01*
X33002Y-151154D02*
X32502Y-151154D01*
X32502Y-150964D01*
X32526Y-150916D01*
X32550Y-150892D01*
X32597Y-150869D01*
X32669Y-150869D01*
X32716Y-150892D01*
X32740Y-150916D01*
X32764Y-150964D01*
X32764Y-151154D01*
X33002Y-150369D02*
X32764Y-150535D01*
X33002Y-150654D02*
X32502Y-150654D01*
X32502Y-150464D01*
X32526Y-150416D01*
X32550Y-150392D01*
X32597Y-150369D01*
X32669Y-150369D01*
X32716Y-150392D01*
X32740Y-150416D01*
X32764Y-150464D01*
X32764Y-150654D01*
X29119Y-160202D02*
X29404Y-160202D01*
X29261Y-160702D02*
X29261Y-160202D01*
X29523Y-160202D02*
X29857Y-160702D01*
X29857Y-160202D02*
X29523Y-160702D01*
X24416Y-160702D02*
X24250Y-160464D01*
X24130Y-160702D02*
X24130Y-160202D01*
X24321Y-160202D01*
X24369Y-160226D01*
X24392Y-160250D01*
X24416Y-160297D01*
X24416Y-160369D01*
X24392Y-160416D01*
X24369Y-160440D01*
X24321Y-160464D01*
X24130Y-160464D01*
X24583Y-160202D02*
X24916Y-160702D01*
X24916Y-160202D02*
X24583Y-160702D01*
G54D14*
X34164Y-150749D02*
X34164Y-150849D01*
X34321Y-150849D02*
X34021Y-150849D01*
X34021Y-150707D01*
X34164Y-150492D02*
X34178Y-150449D01*
X34192Y-150435D01*
X34221Y-150421D01*
X34264Y-150421D01*
X34292Y-150435D01*
X34307Y-150449D01*
X34321Y-150478D01*
X34321Y-150592D01*
X34021Y-150592D01*
X34021Y-150492D01*
X34035Y-150464D01*
X34050Y-150449D01*
X34078Y-150435D01*
X34107Y-150435D01*
X34135Y-150449D01*
X34150Y-150464D01*
X34164Y-150492D01*
X34164Y-150592D01*
X34321Y-150135D02*
X34321Y-150307D01*
X34321Y-150221D02*
X34021Y-150221D01*
X34064Y-150249D01*
X34092Y-150278D01*
X34107Y-150307D01*
X34864Y-151214D02*
X34864Y-151314D01*
X35021Y-151314D02*
X34721Y-151314D01*
X34721Y-151171D01*
X34864Y-151057D02*
X34864Y-150957D01*
X35021Y-150914D02*
X35021Y-151057D01*
X34721Y-151057D01*
X34721Y-150914D01*
X35021Y-150614D02*
X34878Y-150714D01*
X35021Y-150785D02*
X34721Y-150785D01*
X34721Y-150671D01*
X34735Y-150642D01*
X34750Y-150628D01*
X34778Y-150614D01*
X34821Y-150614D01*
X34850Y-150628D01*
X34864Y-150642D01*
X34878Y-150671D01*
X34878Y-150785D01*
X35021Y-150314D02*
X34878Y-150414D01*
X35021Y-150485D02*
X34721Y-150485D01*
X34721Y-150371D01*
X34735Y-150342D01*
X34750Y-150328D01*
X34778Y-150314D01*
X34821Y-150314D01*
X34850Y-150328D01*
X34864Y-150342D01*
X34878Y-150371D01*
X34878Y-150485D01*
X35021Y-150185D02*
X34721Y-150185D01*
X34721Y-150085D02*
X34721Y-149914D01*
X35021Y-149999D02*
X34721Y-149999D01*
X34864Y-149814D02*
X34864Y-149714D01*
X35021Y-149671D02*
X35021Y-149814D01*
X34721Y-149814D01*
X34721Y-149671D01*
G54D15*
X32277Y-153791D02*
X32289Y-153803D01*
X32301Y-153839D01*
X32301Y-153863D01*
X32289Y-153898D01*
X32265Y-153922D01*
X32241Y-153934D01*
X32194Y-153946D01*
X32158Y-153946D01*
X32110Y-153934D01*
X32086Y-153922D01*
X32063Y-153898D01*
X32051Y-153863D01*
X32051Y-153839D01*
X32063Y-153803D01*
X32075Y-153791D01*
X32051Y-153708D02*
X32051Y-153553D01*
X32146Y-153636D01*
X32146Y-153601D01*
X32158Y-153577D01*
X32170Y-153565D01*
X32194Y-153553D01*
X32253Y-153553D01*
X32277Y-153565D01*
X32289Y-153577D01*
X32301Y-153601D01*
X32301Y-153672D01*
X32289Y-153696D01*
X32277Y-153708D01*
X31001Y-154017D02*
X31001Y-154160D01*
X31001Y-154089D02*
X30751Y-154089D01*
X30786Y-154113D01*
X30810Y-154136D01*
X30822Y-154160D01*
X30751Y-153863D02*
X30751Y-153839D01*
X30763Y-153815D01*
X30775Y-153803D01*
X30798Y-153791D01*
X30846Y-153779D01*
X30905Y-153779D01*
X30953Y-153791D01*
X30977Y-153803D01*
X30989Y-153815D01*
X31001Y-153839D01*
X31001Y-153863D01*
X30989Y-153886D01*
X30977Y-153898D01*
X30953Y-153910D01*
X30905Y-153922D01*
X30846Y-153922D01*
X30798Y-153910D01*
X30775Y-153898D01*
X30763Y-153886D01*
X30751Y-153863D01*
X30834Y-153565D02*
X31001Y-153565D01*
X30834Y-153672D02*
X30965Y-153672D01*
X30989Y-153660D01*
X31001Y-153636D01*
X31001Y-153601D01*
X30989Y-153577D01*
X30977Y-153565D01*
X30870Y-153363D02*
X30870Y-153446D01*
X31001Y-153446D02*
X30751Y-153446D01*
X30751Y-153327D01*
G54D14*
X32257Y-152864D02*
X32257Y-152635D01*
X32371Y-152750D02*
X32142Y-152750D01*
G54D11*
X22511Y-156304D02*
X22835Y-156304D01*
X22873Y-156285D01*
X22892Y-156266D01*
X22911Y-156228D01*
X22911Y-156152D01*
X22892Y-156114D01*
X22873Y-156095D01*
X22835Y-156076D01*
X22511Y-156076D01*
X22911Y-155676D02*
X22911Y-155904D01*
X22911Y-155790D02*
X22511Y-155790D01*
X22569Y-155828D01*
X22607Y-155866D01*
X22626Y-155904D01*
X18533Y-156161D02*
X18533Y-155761D01*
X18666Y-156047D01*
X18800Y-155761D01*
X18800Y-156161D01*
X19219Y-156123D02*
X19200Y-156142D01*
X19142Y-156161D01*
X19104Y-156161D01*
X19047Y-156142D01*
X19009Y-156104D01*
X18990Y-156066D01*
X18971Y-155990D01*
X18971Y-155933D01*
X18990Y-155857D01*
X19009Y-155819D01*
X19047Y-155780D01*
X19104Y-155761D01*
X19142Y-155761D01*
X19200Y-155780D01*
X19219Y-155800D01*
X19390Y-156161D02*
X19390Y-155761D01*
X19542Y-155761D01*
X19580Y-155780D01*
X19600Y-155800D01*
X19619Y-155838D01*
X19619Y-155895D01*
X19600Y-155933D01*
X19580Y-155952D01*
X19542Y-155971D01*
X19390Y-155971D01*
X19771Y-155800D02*
X19790Y-155780D01*
X19828Y-155761D01*
X19923Y-155761D01*
X19961Y-155780D01*
X19980Y-155800D01*
X20000Y-155838D01*
X20000Y-155876D01*
X19980Y-155933D01*
X19752Y-156161D01*
X20000Y-156161D01*
X20152Y-155800D02*
X20171Y-155780D01*
X20209Y-155761D01*
X20304Y-155761D01*
X20342Y-155780D01*
X20361Y-155800D01*
X20380Y-155838D01*
X20380Y-155876D01*
X20361Y-155933D01*
X20133Y-156161D01*
X20380Y-156161D01*
X20533Y-155800D02*
X20552Y-155780D01*
X20590Y-155761D01*
X20685Y-155761D01*
X20723Y-155780D01*
X20742Y-155800D01*
X20761Y-155838D01*
X20761Y-155876D01*
X20742Y-155933D01*
X20514Y-156161D01*
X20761Y-156161D01*
X21142Y-156161D02*
X20914Y-156161D01*
X21028Y-156161D02*
X21028Y-155761D01*
X20990Y-155819D01*
X20952Y-155857D01*
X20914Y-155876D01*
X21295Y-156047D02*
X21485Y-156047D01*
X21257Y-156161D02*
X21390Y-155761D01*
X21523Y-156161D01*
G54D15*
X21958Y-158377D02*
X21946Y-158389D01*
X21910Y-158401D01*
X21886Y-158401D01*
X21851Y-158389D01*
X21827Y-158365D01*
X21815Y-158341D01*
X21803Y-158294D01*
X21803Y-158258D01*
X21815Y-158210D01*
X21827Y-158186D01*
X21851Y-158163D01*
X21886Y-158151D01*
X21910Y-158151D01*
X21946Y-158163D01*
X21958Y-158175D01*
X22077Y-158401D02*
X22125Y-158401D01*
X22148Y-158389D01*
X22160Y-158377D01*
X22184Y-158341D01*
X22196Y-158294D01*
X22196Y-158198D01*
X22184Y-158175D01*
X22172Y-158163D01*
X22148Y-158151D01*
X22101Y-158151D01*
X22077Y-158163D01*
X22065Y-158175D01*
X22053Y-158198D01*
X22053Y-158258D01*
X22065Y-158282D01*
X22077Y-158294D01*
X22101Y-158305D01*
X22148Y-158305D01*
X22172Y-158294D01*
X22184Y-158282D01*
X22196Y-158258D01*
X21489Y-160851D02*
X21513Y-160851D01*
X21536Y-160863D01*
X21548Y-160875D01*
X21560Y-160898D01*
X21572Y-160946D01*
X21572Y-161005D01*
X21560Y-161053D01*
X21548Y-161077D01*
X21536Y-161089D01*
X21513Y-161101D01*
X21489Y-161101D01*
X21465Y-161089D01*
X21453Y-161077D01*
X21441Y-161053D01*
X21429Y-161005D01*
X21429Y-160946D01*
X21441Y-160898D01*
X21453Y-160875D01*
X21465Y-160863D01*
X21489Y-160851D01*
X21679Y-161077D02*
X21691Y-161089D01*
X21679Y-161101D01*
X21667Y-161089D01*
X21679Y-161077D01*
X21679Y-161101D01*
X21929Y-161101D02*
X21786Y-161101D01*
X21858Y-161101D02*
X21858Y-160851D01*
X21834Y-160886D01*
X21810Y-160910D01*
X21786Y-160922D01*
X22144Y-160934D02*
X22144Y-161101D01*
X22036Y-160934D02*
X22036Y-161065D01*
X22048Y-161089D01*
X22072Y-161101D01*
X22108Y-161101D01*
X22132Y-161089D01*
X22144Y-161077D01*
X22346Y-160970D02*
X22263Y-160970D01*
X22263Y-161101D02*
X22263Y-160851D01*
X22382Y-160851D01*
X30458Y-155127D02*
X30446Y-155139D01*
X30410Y-155151D01*
X30386Y-155151D01*
X30351Y-155139D01*
X30327Y-155115D01*
X30315Y-155091D01*
X30303Y-155044D01*
X30303Y-155008D01*
X30315Y-154960D01*
X30327Y-154936D01*
X30351Y-154913D01*
X30386Y-154901D01*
X30410Y-154901D01*
X30446Y-154913D01*
X30458Y-154925D01*
X30672Y-154901D02*
X30625Y-154901D01*
X30601Y-154913D01*
X30589Y-154925D01*
X30565Y-154960D01*
X30553Y-155008D01*
X30553Y-155103D01*
X30565Y-155127D01*
X30577Y-155139D01*
X30601Y-155151D01*
X30648Y-155151D01*
X30672Y-155139D01*
X30684Y-155127D01*
X30696Y-155103D01*
X30696Y-155044D01*
X30684Y-155020D01*
X30672Y-155008D01*
X30648Y-154996D01*
X30601Y-154996D01*
X30577Y-155008D01*
X30565Y-155020D01*
X30553Y-155044D01*
X29684Y-156641D02*
X29851Y-156641D01*
X29589Y-156701D02*
X29767Y-156760D01*
X29767Y-156605D01*
X29601Y-156534D02*
X29601Y-156367D01*
X29851Y-156475D01*
X29684Y-156272D02*
X29934Y-156272D01*
X29696Y-156272D02*
X29684Y-156248D01*
X29684Y-156201D01*
X29696Y-156177D01*
X29708Y-156165D01*
X29732Y-156153D01*
X29803Y-156153D01*
X29827Y-156165D01*
X29839Y-156177D01*
X29851Y-156201D01*
X29851Y-156248D01*
X29839Y-156272D01*
X29720Y-155963D02*
X29720Y-156046D01*
X29851Y-156046D02*
X29601Y-156046D01*
X29601Y-155927D01*
X30458Y-160077D02*
X30446Y-160089D01*
X30410Y-160101D01*
X30386Y-160101D01*
X30351Y-160089D01*
X30327Y-160065D01*
X30315Y-160041D01*
X30303Y-159994D01*
X30303Y-159958D01*
X30315Y-159910D01*
X30327Y-159886D01*
X30351Y-159863D01*
X30386Y-159851D01*
X30410Y-159851D01*
X30446Y-159863D01*
X30458Y-159875D01*
X30684Y-159851D02*
X30565Y-159851D01*
X30553Y-159970D01*
X30565Y-159958D01*
X30589Y-159946D01*
X30648Y-159946D01*
X30672Y-159958D01*
X30684Y-159970D01*
X30696Y-159994D01*
X30696Y-160053D01*
X30684Y-160077D01*
X30672Y-160089D01*
X30648Y-160101D01*
X30589Y-160101D01*
X30565Y-160089D01*
X30553Y-160077D01*
X29684Y-158891D02*
X29851Y-158891D01*
X29589Y-158951D02*
X29767Y-159010D01*
X29767Y-158855D01*
X29601Y-158784D02*
X29601Y-158617D01*
X29851Y-158725D01*
X29684Y-158522D02*
X29934Y-158522D01*
X29696Y-158522D02*
X29684Y-158498D01*
X29684Y-158451D01*
X29696Y-158427D01*
X29708Y-158415D01*
X29732Y-158403D01*
X29803Y-158403D01*
X29827Y-158415D01*
X29839Y-158427D01*
X29851Y-158451D01*
X29851Y-158498D01*
X29839Y-158522D01*
X29720Y-158213D02*
X29720Y-158296D01*
X29851Y-158296D02*
X29601Y-158296D01*
X29601Y-158177D01*
X33458Y-153127D02*
X33446Y-153139D01*
X33410Y-153151D01*
X33386Y-153151D01*
X33351Y-153139D01*
X33327Y-153115D01*
X33315Y-153091D01*
X33303Y-153044D01*
X33303Y-153008D01*
X33315Y-152960D01*
X33327Y-152936D01*
X33351Y-152913D01*
X33386Y-152901D01*
X33410Y-152901D01*
X33446Y-152913D01*
X33458Y-152925D01*
X33553Y-152925D02*
X33565Y-152913D01*
X33589Y-152901D01*
X33648Y-152901D01*
X33672Y-152913D01*
X33684Y-152925D01*
X33696Y-152948D01*
X33696Y-152972D01*
X33684Y-153008D01*
X33541Y-153151D01*
X33696Y-153151D01*
X34432Y-154551D02*
X34289Y-154551D01*
X34360Y-154551D02*
X34360Y-154301D01*
X34336Y-154336D01*
X34313Y-154360D01*
X34289Y-154372D01*
X34586Y-154301D02*
X34610Y-154301D01*
X34634Y-154313D01*
X34646Y-154325D01*
X34658Y-154348D01*
X34670Y-154396D01*
X34670Y-154455D01*
X34658Y-154503D01*
X34646Y-154527D01*
X34634Y-154539D01*
X34610Y-154551D01*
X34586Y-154551D01*
X34563Y-154539D01*
X34551Y-154527D01*
X34539Y-154503D01*
X34527Y-154455D01*
X34527Y-154396D01*
X34539Y-154348D01*
X34551Y-154325D01*
X34563Y-154313D01*
X34586Y-154301D01*
X34777Y-154384D02*
X34777Y-154551D01*
X34777Y-154408D02*
X34789Y-154396D01*
X34813Y-154384D01*
X34848Y-154384D01*
X34872Y-154396D01*
X34884Y-154420D01*
X34884Y-154551D01*
X35086Y-154420D02*
X35003Y-154420D01*
X35003Y-154551D02*
X35003Y-154301D01*
X35122Y-154301D01*
X16627Y-153541D02*
X16639Y-153553D01*
X16651Y-153589D01*
X16651Y-153613D01*
X16639Y-153648D01*
X16615Y-153672D01*
X16591Y-153684D01*
X16544Y-153696D01*
X16508Y-153696D01*
X16460Y-153684D01*
X16436Y-153672D01*
X16413Y-153648D01*
X16401Y-153613D01*
X16401Y-153589D01*
X16413Y-153553D01*
X16425Y-153541D01*
X16651Y-153303D02*
X16651Y-153446D01*
X16651Y-153375D02*
X16401Y-153375D01*
X16436Y-153398D01*
X16460Y-153422D01*
X16472Y-153446D01*
X19239Y-153351D02*
X19263Y-153351D01*
X19286Y-153363D01*
X19298Y-153375D01*
X19310Y-153398D01*
X19322Y-153446D01*
X19322Y-153505D01*
X19310Y-153553D01*
X19298Y-153577D01*
X19286Y-153589D01*
X19263Y-153601D01*
X19239Y-153601D01*
X19215Y-153589D01*
X19203Y-153577D01*
X19191Y-153553D01*
X19179Y-153505D01*
X19179Y-153446D01*
X19191Y-153398D01*
X19203Y-153375D01*
X19215Y-153363D01*
X19239Y-153351D01*
X19429Y-153577D02*
X19441Y-153589D01*
X19429Y-153601D01*
X19417Y-153589D01*
X19429Y-153577D01*
X19429Y-153601D01*
X19679Y-153601D02*
X19536Y-153601D01*
X19608Y-153601D02*
X19608Y-153351D01*
X19584Y-153386D01*
X19560Y-153410D01*
X19536Y-153422D01*
X19894Y-153434D02*
X19894Y-153601D01*
X19786Y-153434D02*
X19786Y-153565D01*
X19798Y-153589D01*
X19822Y-153601D01*
X19858Y-153601D01*
X19882Y-153589D01*
X19894Y-153577D01*
X20096Y-153470D02*
X20013Y-153470D01*
X20013Y-153601D02*
X20013Y-153351D01*
X20132Y-153351D01*
X25508Y-154477D02*
X25496Y-154489D01*
X25460Y-154501D01*
X25436Y-154501D01*
X25401Y-154489D01*
X25377Y-154465D01*
X25365Y-154441D01*
X25353Y-154394D01*
X25353Y-154358D01*
X25365Y-154310D01*
X25377Y-154286D01*
X25401Y-154263D01*
X25436Y-154251D01*
X25460Y-154251D01*
X25496Y-154263D01*
X25508Y-154275D01*
X25591Y-154251D02*
X25758Y-154251D01*
X25651Y-154501D01*
X24989Y-152851D02*
X25013Y-152851D01*
X25036Y-152863D01*
X25048Y-152875D01*
X25060Y-152898D01*
X25072Y-152946D01*
X25072Y-153005D01*
X25060Y-153053D01*
X25048Y-153077D01*
X25036Y-153089D01*
X25013Y-153101D01*
X24989Y-153101D01*
X24965Y-153089D01*
X24953Y-153077D01*
X24941Y-153053D01*
X24929Y-153005D01*
X24929Y-152946D01*
X24941Y-152898D01*
X24953Y-152875D01*
X24965Y-152863D01*
X24989Y-152851D01*
X25179Y-153077D02*
X25191Y-153089D01*
X25179Y-153101D01*
X25167Y-153089D01*
X25179Y-153077D01*
X25179Y-153101D01*
X25429Y-153101D02*
X25286Y-153101D01*
X25358Y-153101D02*
X25358Y-152851D01*
X25334Y-152886D01*
X25310Y-152910D01*
X25286Y-152922D01*
X25644Y-152934D02*
X25644Y-153101D01*
X25536Y-152934D02*
X25536Y-153065D01*
X25548Y-153089D01*
X25572Y-153101D01*
X25608Y-153101D01*
X25632Y-153089D01*
X25644Y-153077D01*
X25846Y-152970D02*
X25763Y-152970D01*
X25763Y-153101D02*
X25763Y-152851D01*
X25882Y-152851D01*
X22958Y-158377D02*
X22946Y-158389D01*
X22910Y-158401D01*
X22886Y-158401D01*
X22851Y-158389D01*
X22827Y-158365D01*
X22815Y-158341D01*
X22803Y-158294D01*
X22803Y-158258D01*
X22815Y-158210D01*
X22827Y-158186D01*
X22851Y-158163D01*
X22886Y-158151D01*
X22910Y-158151D01*
X22946Y-158163D01*
X22958Y-158175D01*
X23101Y-158258D02*
X23077Y-158246D01*
X23065Y-158234D01*
X23053Y-158210D01*
X23053Y-158198D01*
X23065Y-158175D01*
X23077Y-158163D01*
X23101Y-158151D01*
X23148Y-158151D01*
X23172Y-158163D01*
X23184Y-158175D01*
X23196Y-158198D01*
X23196Y-158210D01*
X23184Y-158234D01*
X23172Y-158246D01*
X23148Y-158258D01*
X23101Y-158258D01*
X23077Y-158270D01*
X23065Y-158282D01*
X23053Y-158305D01*
X23053Y-158353D01*
X23065Y-158377D01*
X23077Y-158389D01*
X23101Y-158401D01*
X23148Y-158401D01*
X23172Y-158389D01*
X23184Y-158377D01*
X23196Y-158353D01*
X23196Y-158305D01*
X23184Y-158282D01*
X23172Y-158270D01*
X23148Y-158258D01*
X22689Y-160851D02*
X22713Y-160851D01*
X22736Y-160863D01*
X22748Y-160875D01*
X22760Y-160898D01*
X22772Y-160946D01*
X22772Y-161005D01*
X22760Y-161053D01*
X22748Y-161077D01*
X22736Y-161089D01*
X22713Y-161101D01*
X22689Y-161101D01*
X22665Y-161089D01*
X22653Y-161077D01*
X22641Y-161053D01*
X22629Y-161005D01*
X22629Y-160946D01*
X22641Y-160898D01*
X22653Y-160875D01*
X22665Y-160863D01*
X22689Y-160851D01*
X22879Y-161077D02*
X22891Y-161089D01*
X22879Y-161101D01*
X22867Y-161089D01*
X22879Y-161077D01*
X22879Y-161101D01*
X23129Y-161101D02*
X22986Y-161101D01*
X23058Y-161101D02*
X23058Y-160851D01*
X23034Y-160886D01*
X23010Y-160910D01*
X22986Y-160922D01*
X23344Y-160934D02*
X23344Y-161101D01*
X23236Y-160934D02*
X23236Y-161065D01*
X23248Y-161089D01*
X23272Y-161101D01*
X23308Y-161101D01*
X23332Y-161089D01*
X23344Y-161077D01*
X23546Y-160970D02*
X23463Y-160970D01*
X23463Y-161101D02*
X23463Y-160851D01*
X23582Y-160851D01*
M02*
