M48
;DRILL file {Pcbnew (22-Jun-2014 BZR 4027)-stable} date Sat 02 Sep 2017 10:31:14 PM CDT
;FORMAT={-:-/ absolute / inch / decimal}
FMAT,2
INCH,TZ
T1C0.016
T2C0.032
T3C0.040
T4C0.091
T5C0.140
%
G90
G05
M72
T1
X2.1Y-15.05
X2.1Y-15.15
X2.25Y-15.15
X2.25Y-15.325
X2.35Y-15.15
X2.35Y-15.325
X2.7Y-15.1
X3.125Y-15.1
T2
X1.7Y-14.95
X1.7Y-15.25
X1.7Y-15.45
X1.7Y-15.75
X1.73Y-15.35
X1.8Y-14.95
X1.8Y-15.25
X1.8Y-15.45
X1.8Y-15.75
X1.855Y-15.35
X1.9Y-14.95
X1.9Y-15.25
X1.9Y-15.45
X1.9Y-15.75
X2.Y-14.95
X2.Y-15.25
X2.Y-15.45
X2.Y-15.75
X2.1Y-14.95
X2.1Y-15.25
X2.1Y-15.45
X2.1Y-15.75
X2.1075Y-14.5155
X2.1075Y-14.6845
X2.1925Y-14.5155
X2.1925Y-14.6845
X2.2Y-14.95
X2.2Y-15.25
X2.2Y-15.45
X2.2Y-15.75
X2.2Y-15.9
X2.2Y-16.025
X2.2775Y-14.5155
X2.2775Y-14.6845
X2.3Y-14.95
X2.3Y-15.25
X2.3Y-15.45
X2.3Y-15.75
X2.3Y-15.9
X2.3Y-16.025
X2.3625Y-14.5155
X2.3625Y-14.6845
X2.4Y-14.95
X2.4Y-15.25
X2.425Y-15.375
X2.4475Y-14.5155
X2.4475Y-14.6845
X2.5Y-14.95
X2.5Y-15.25
X2.5Y-15.55
X2.5Y-15.65
X2.5Y-15.75
X2.5Y-15.85
X2.5325Y-14.5155
X2.5325Y-14.6845
X2.55Y-15.375
X2.6Y-14.95
X2.6Y-15.25
X2.6175Y-14.5155
X2.6175Y-14.6845
X2.7Y-14.95
X2.7Y-15.25
X2.7025Y-14.5155
X2.7025Y-14.6845
X2.7875Y-14.5155
X2.7875Y-14.6845
X2.8Y-14.95
X2.8Y-15.25
X2.8725Y-14.5155
X2.8725Y-14.6845
X2.9Y-14.95
X2.9Y-15.25
X2.9Y-15.55
X2.9Y-15.65
X2.9Y-15.75
X2.9Y-15.85
X2.9575Y-14.5155
X2.9575Y-14.6845
X3.Y-14.95
X3.Y-15.25
X3.0425Y-14.5155
X3.0425Y-14.6845
X3.05Y-15.575
X3.05Y-15.7
X3.05Y-15.8
X3.05Y-15.925
X3.125Y-14.825
X3.125Y-15.225
X3.15Y-15.325
X3.15Y-15.425
X3.215Y-15.7
X3.215Y-15.8
X3.2937Y-15.7
X3.2937Y-15.8
X3.35Y-15.375
X3.475Y-15.375
T3
X1.75Y-16.05
X1.85Y-16.05
X1.95Y-16.05
X2.05Y-16.05
X2.6Y-15.975
X2.6Y-16.075
X2.7Y-15.375
X2.8Y-15.375
X2.8Y-15.975
X2.8Y-16.075
X3.275Y-14.85
X3.275Y-14.95
X3.45Y-14.85
X3.45Y-15.25
T4
X3.4Y-15.5138
X3.4Y-15.9862
T5
X1.65Y-14.6
X3.5Y-14.6
T0
M30
