G04 (created by PCBNEW (22-Jun-2014 BZR 4027)-stable) date Sat 02 Sep 2017 11:43:59 PM CDT*
%MOIN*%
G04 Gerber Fmt 3.4, Leading zero omitted, Abs format*
%FSLAX34Y34*%
G01*
G70*
G90*
G04 APERTURE LIST*
%ADD10C,0.00393701*%
%ADD11C,0.069748*%
%ADD12R,0.074748X0.104248*%
%ADD13O,0.074748X0.104248*%
%ADD14C,0.074748*%
%ADD15C,0.122048*%
%ADD16R,0.084748X0.084748*%
%ADD17C,0.084748*%
%ADD18O,0.074748X0.074748*%
%ADD19O,0.084748X0.084748*%
%ADD20R,0.074748X0.074748*%
%ADD21R,0.074748X0.079748*%
%ADD22R,0.079748X0.074748*%
G04 APERTURE END LIST*
G54D10*
G54D11*
X58925Y-36095D03*
X59775Y-36095D03*
X57225Y-36095D03*
X58075Y-36095D03*
X58925Y-34405D03*
X58075Y-34405D03*
X57225Y-34405D03*
X59775Y-34405D03*
X56375Y-36095D03*
X55525Y-36095D03*
X54675Y-36095D03*
X53825Y-36095D03*
X56375Y-34405D03*
X55525Y-34405D03*
X54675Y-34405D03*
X53825Y-34405D03*
X60625Y-36095D03*
X61475Y-36095D03*
X62325Y-36095D03*
X63175Y-36095D03*
X60625Y-34405D03*
X61475Y-34405D03*
X62325Y-34405D03*
X63175Y-34405D03*
G54D12*
X49750Y-41602D03*
G54D13*
X50750Y-41602D03*
X51750Y-41602D03*
X52750Y-41602D03*
X52750Y-38897D03*
X51750Y-38897D03*
X50750Y-38897D03*
X49750Y-38897D03*
X53750Y-41602D03*
X54750Y-41602D03*
X55750Y-41602D03*
X53750Y-38897D03*
X54750Y-38897D03*
X55750Y-38897D03*
X56750Y-41602D03*
X57750Y-41602D03*
X58750Y-41602D03*
X59750Y-41602D03*
X60750Y-41602D03*
X61750Y-41602D03*
X62750Y-41602D03*
X56750Y-38897D03*
X57750Y-38897D03*
X58750Y-38897D03*
X59750Y-38897D03*
X60750Y-38897D03*
X61750Y-38897D03*
X62750Y-38897D03*
G54D14*
X64900Y-46250D03*
X64900Y-47250D03*
X65687Y-47250D03*
X65687Y-46250D03*
G54D15*
X66750Y-44388D03*
X66750Y-49112D03*
G54D16*
X53250Y-49750D03*
G54D17*
X52250Y-49750D03*
X51250Y-49750D03*
X50250Y-49750D03*
G54D16*
X59750Y-43000D03*
G54D17*
X60750Y-43000D03*
G54D18*
X57750Y-45750D03*
X61750Y-45750D03*
X57750Y-44750D03*
X61750Y-44750D03*
X64000Y-41500D03*
X64000Y-37500D03*
X57750Y-47750D03*
X61750Y-47750D03*
X57750Y-46750D03*
X61750Y-46750D03*
G54D16*
X65500Y-37750D03*
G54D19*
X65500Y-38750D03*
G54D16*
X60750Y-49000D03*
G54D19*
X60750Y-50000D03*
G54D16*
X58750Y-49000D03*
G54D19*
X58750Y-50000D03*
G54D17*
X67250Y-41750D03*
X67250Y-37750D03*
G54D20*
X64250Y-42500D03*
G54D18*
X64250Y-43500D03*
G54D12*
X55750Y-43897D03*
G54D13*
X54750Y-43897D03*
X53750Y-43897D03*
X52750Y-43897D03*
X52750Y-46602D03*
X53750Y-46602D03*
X54750Y-46602D03*
X55750Y-46602D03*
X51750Y-43897D03*
X50750Y-43897D03*
X49750Y-43897D03*
X51750Y-46602D03*
X50750Y-46602D03*
X49750Y-46602D03*
G54D21*
X54750Y-48300D03*
X54750Y-49450D03*
X63250Y-46200D03*
X63250Y-45050D03*
X63250Y-47300D03*
X63250Y-48450D03*
G54D22*
X66300Y-43000D03*
X67450Y-43000D03*
X50100Y-42750D03*
X51250Y-42750D03*
X58200Y-43000D03*
X57050Y-43000D03*
G54D21*
X55750Y-48300D03*
X55750Y-49450D03*
M02*
