G04 #@! TF.FileFunction,Copper,L1,Top,Signal*
%FSLAX46Y46*%
G04 Gerber Fmt 4.6, Leading zero omitted, Abs format (unit mm)*
G04 Created by KiCad (PCBNEW 4.0.5+dfsg1-4~bpo8+1) date Mon May  8 03:03:41 2017*
%MOMM*%
%LPD*%
G01*
G04 APERTURE LIST*
%ADD10C,0.100000*%
%ADD11R,2.895600X1.498600*%
%ADD12R,1.498600X2.895600*%
%ADD13R,1.498600X1.498600*%
%ADD14O,1.498600X1.498600*%
%ADD15R,1.498600X2.247900*%
%ADD16O,1.498600X2.247900*%
%ADD17C,1.397000*%
%ADD18C,1.501140*%
%ADD19C,3.500120*%
%ADD20R,1.200000X0.400000*%
%ADD21R,1.752600X1.752600*%
%ADD22O,1.752600X1.752600*%
%ADD23C,1.752600*%
%ADD24C,0.600000*%
%ADD25C,0.254000*%
%ADD26C,0.508000*%
%ADD27C,1.016000*%
G04 APERTURE END LIST*
D10*
D11*
X97218500Y-80645000D03*
X100901500Y-80645000D03*
D12*
X102235000Y-97091500D03*
X102235000Y-93408500D03*
D13*
X100965000Y-87630000D03*
D14*
X103505000Y-87630000D03*
D11*
X129476500Y-88900000D03*
X125793500Y-88900000D03*
X129476500Y-91440000D03*
X125793500Y-91440000D03*
D12*
X120650000Y-85026500D03*
X120650000Y-81343500D03*
D11*
X109156500Y-83185000D03*
X105473500Y-83185000D03*
D15*
X96520000Y-77095350D03*
D16*
X99060000Y-77095350D03*
X101600000Y-77095350D03*
X104140000Y-77095350D03*
X104140000Y-70224650D03*
X101600000Y-70224650D03*
X99060000Y-70224650D03*
X96520000Y-70224650D03*
X106680000Y-77095350D03*
X109220000Y-77095350D03*
X111760000Y-77095350D03*
X106680000Y-70224650D03*
X109220000Y-70224650D03*
X111760000Y-70224650D03*
X114300000Y-77095350D03*
X116840000Y-77095350D03*
X119380000Y-77095350D03*
X121920000Y-77095350D03*
X124460000Y-77095350D03*
X127000000Y-77095350D03*
X129540000Y-77095350D03*
X114300000Y-70224650D03*
X116840000Y-70224650D03*
X119380000Y-70224650D03*
X121920000Y-70224650D03*
X124460000Y-70224650D03*
X127000000Y-70224650D03*
X129540000Y-70224650D03*
D17*
X119824500Y-63106300D03*
X121983500Y-63106300D03*
X115506500Y-63106300D03*
X117665500Y-63106300D03*
X119824500Y-58813700D03*
X117665500Y-58813700D03*
X115506500Y-58813700D03*
X121983500Y-58813700D03*
X113347500Y-63106300D03*
X111188500Y-63106300D03*
X109029500Y-63106300D03*
X106870500Y-63106300D03*
X113347500Y-58813700D03*
X111188500Y-58813700D03*
X109029500Y-58813700D03*
X106870500Y-58813700D03*
X124142500Y-63106300D03*
X126301500Y-63106300D03*
X128460500Y-63106300D03*
X130619500Y-63106300D03*
X124142500Y-58813700D03*
X126301500Y-58813700D03*
X128460500Y-58813700D03*
X130619500Y-58813700D03*
D18*
X137236200Y-91414600D03*
X137236200Y-88925400D03*
X135229600Y-88925400D03*
X135229600Y-91414600D03*
D19*
X139954000Y-96189800D03*
X139954000Y-84150200D03*
D14*
X109855000Y-90170000D03*
X120015000Y-90170000D03*
X109855000Y-92710000D03*
X120015000Y-92710000D03*
X120015000Y-95250000D03*
X109855000Y-95250000D03*
X120015000Y-97790000D03*
X109855000Y-97790000D03*
D20*
X112335000Y-80962500D03*
X112335000Y-81597500D03*
X112335000Y-82232500D03*
X112335000Y-82867500D03*
X112335000Y-83502500D03*
X112335000Y-84137500D03*
X112335000Y-84772500D03*
X112335000Y-85407500D03*
X117535000Y-85407500D03*
X117535000Y-84772500D03*
X117535000Y-84137500D03*
X117535000Y-83502500D03*
X117535000Y-82867500D03*
X117535000Y-82232500D03*
X117535000Y-81597500D03*
X117535000Y-80962500D03*
D21*
X129540000Y-97790000D03*
D22*
X132080000Y-97790000D03*
D21*
X123825000Y-97790000D03*
D22*
X126365000Y-97790000D03*
D23*
X97155000Y-97790000D03*
X97155000Y-87630000D03*
D24*
X113792000Y-83439000D03*
X115443000Y-82042000D03*
X113665000Y-82042000D03*
X114935000Y-89535000D03*
X114935000Y-90805000D03*
X108585000Y-85725000D03*
X107315000Y-85725000D03*
D25*
X116586000Y-83566000D02*
X116332000Y-83312000D01*
X117471500Y-83566000D02*
X116586000Y-83566000D01*
D26*
X113665000Y-79375000D02*
X111760000Y-77470000D01*
X115189000Y-79375000D02*
X113665000Y-79375000D01*
X116332000Y-80518000D02*
X115189000Y-79375000D01*
X116332000Y-82042000D02*
X116332000Y-80518000D01*
X116332000Y-83312000D02*
X116332000Y-82042000D01*
D25*
X117471500Y-83566000D02*
X117535000Y-83502500D01*
D26*
X111760000Y-74930000D02*
X113030000Y-73660000D01*
X116840000Y-72390000D02*
X116840000Y-69850000D01*
X115570000Y-73660000D02*
X116840000Y-72390000D01*
X114935000Y-73660000D02*
X115570000Y-73660000D01*
X113030000Y-73660000D02*
X114935000Y-73660000D01*
X96520000Y-77470000D02*
X96520000Y-75565000D01*
X111760000Y-74930000D02*
X111760000Y-77470000D01*
X110490000Y-73660000D02*
X111760000Y-74930000D01*
X98425000Y-73660000D02*
X110490000Y-73660000D01*
X96520000Y-75565000D02*
X98425000Y-73660000D01*
D25*
X117535000Y-83502500D02*
X118427500Y-83502500D01*
X118427500Y-83502500D02*
X120650000Y-85725000D01*
D27*
X96520000Y-80645000D02*
X96520000Y-81915000D01*
X100965000Y-86360000D02*
X100965000Y-87630000D01*
X96520000Y-81915000D02*
X100965000Y-86360000D01*
X97155000Y-87630000D02*
X100965000Y-87630000D01*
D26*
X96520000Y-77470000D02*
X96520000Y-80645000D01*
D25*
X112335000Y-83502500D02*
X113728500Y-83502500D01*
X113728500Y-83502500D02*
X113792000Y-83439000D01*
X117535000Y-82867500D02*
X118427500Y-82867500D01*
X118427500Y-82867500D02*
X120650000Y-80645000D01*
D26*
X102235000Y-97790000D02*
X105410000Y-97790000D01*
X136525000Y-86995000D02*
X135229600Y-88290400D01*
X137795000Y-86995000D02*
X136525000Y-86995000D01*
X139065000Y-88265000D02*
X137795000Y-86995000D01*
X139065000Y-92710000D02*
X139065000Y-88265000D01*
X135890000Y-95885000D02*
X139065000Y-92710000D01*
X135890000Y-97155000D02*
X135890000Y-95885000D01*
X133350000Y-99695000D02*
X135890000Y-97155000D01*
X121920000Y-99695000D02*
X133350000Y-99695000D01*
X121285000Y-99060000D02*
X121920000Y-99695000D01*
X106680000Y-99060000D02*
X121285000Y-99060000D01*
X105410000Y-97790000D02*
X106680000Y-99060000D01*
X135229600Y-88290400D02*
X135229600Y-88925400D01*
D27*
X97155000Y-97790000D02*
X102235000Y-97790000D01*
D26*
X135255000Y-88265000D02*
X135255000Y-88900000D01*
X135255000Y-88900000D02*
X135229600Y-88925400D01*
D25*
X130175000Y-88900000D02*
X128270000Y-86995000D01*
X121285000Y-90170000D02*
X120015000Y-90170000D01*
X123190000Y-88265000D02*
X121285000Y-90170000D01*
X123190000Y-87630000D02*
X123190000Y-88265000D01*
X123825000Y-86995000D02*
X123190000Y-87630000D01*
X128270000Y-86995000D02*
X123825000Y-86995000D01*
D26*
X135229600Y-91414600D02*
X135204200Y-91440000D01*
X135204200Y-91440000D02*
X134620000Y-91440000D01*
X134620000Y-91440000D02*
X132080000Y-88900000D01*
X132080000Y-88900000D02*
X130175000Y-88900000D01*
D25*
X130175000Y-91440000D02*
X128905000Y-92710000D01*
X128905000Y-92710000D02*
X120015000Y-92710000D01*
D26*
X137236200Y-91414600D02*
X137160000Y-91490800D01*
X137160000Y-91490800D02*
X137160000Y-92075000D01*
X137160000Y-92075000D02*
X136525000Y-92710000D01*
X136525000Y-92710000D02*
X135890000Y-92710000D01*
X135890000Y-92710000D02*
X134620000Y-92710000D01*
X134620000Y-92710000D02*
X133985000Y-92710000D01*
X133985000Y-92710000D02*
X133350000Y-92075000D01*
X133350000Y-92075000D02*
X132715000Y-91440000D01*
X132715000Y-91440000D02*
X130175000Y-91440000D01*
D25*
X112335000Y-82232500D02*
X113474500Y-82232500D01*
X116205000Y-84201000D02*
X117471500Y-84201000D01*
X115443000Y-83439000D02*
X116205000Y-84201000D01*
X115443000Y-82042000D02*
X115443000Y-83439000D01*
X113474500Y-82232500D02*
X113665000Y-82042000D01*
X117471500Y-84201000D02*
X117535000Y-84137500D01*
X117471500Y-84074000D02*
X117535000Y-84137500D01*
X112398500Y-82296000D02*
X112335000Y-82232500D01*
X117535000Y-84137500D02*
X117535000Y-84772500D01*
X109855000Y-97790000D02*
X109855000Y-95250000D01*
X109855000Y-95250000D02*
X107950000Y-93345000D01*
X107950000Y-85090000D02*
X109855000Y-83185000D01*
X107950000Y-90170000D02*
X107950000Y-85090000D01*
X107950000Y-93345000D02*
X107950000Y-90170000D01*
X112335000Y-82232500D02*
X112271500Y-82296000D01*
X112271500Y-82296000D02*
X110744000Y-82296000D01*
X110744000Y-82296000D02*
X109855000Y-83185000D01*
X120015000Y-95250000D02*
X127000000Y-95250000D01*
X127000000Y-95250000D02*
X129540000Y-97790000D01*
X117535000Y-82232500D02*
X118300500Y-82232500D01*
X128905000Y-93980000D02*
X132080000Y-97155000D01*
X119380000Y-93980000D02*
X128905000Y-93980000D01*
X118745000Y-93345000D02*
X119380000Y-93980000D01*
X118745000Y-88900000D02*
X118745000Y-93345000D01*
X119380000Y-88265000D02*
X118745000Y-88900000D01*
X121285000Y-88265000D02*
X119380000Y-88265000D01*
X122555000Y-86995000D02*
X121285000Y-88265000D01*
X122555000Y-80010000D02*
X122555000Y-86995000D01*
X121920000Y-79375000D02*
X122555000Y-80010000D01*
X119380000Y-79375000D02*
X121920000Y-79375000D01*
X118872000Y-79883000D02*
X119380000Y-79375000D01*
X118872000Y-81661000D02*
X118872000Y-79883000D01*
X118300500Y-82232500D02*
X118872000Y-81661000D01*
X132080000Y-97155000D02*
X132080000Y-97790000D01*
X120015000Y-97790000D02*
X123825000Y-97790000D01*
X118745000Y-96520000D02*
X116205000Y-96520000D01*
X125730000Y-96520000D02*
X118745000Y-96520000D01*
X126365000Y-97155000D02*
X125730000Y-96520000D01*
X114617500Y-84772500D02*
X112335000Y-84772500D01*
X114935000Y-85090000D02*
X114617500Y-84772500D01*
X114935000Y-86360000D02*
X114935000Y-85090000D01*
X114935000Y-89535000D02*
X114935000Y-86360000D01*
X114935000Y-95250000D02*
X114935000Y-90805000D01*
X116205000Y-96520000D02*
X114935000Y-95250000D01*
X126365000Y-97790000D02*
X126365000Y-97155000D01*
X113665000Y-80645000D02*
X114300000Y-81280000D01*
X112335000Y-82867500D02*
X113347500Y-82867500D01*
X113030000Y-80010000D02*
X113665000Y-80645000D01*
X112395000Y-80010000D02*
X113030000Y-80010000D01*
X111760000Y-79375000D02*
X112395000Y-80010000D01*
X110490000Y-78105000D02*
X111760000Y-79375000D01*
X110490000Y-76200000D02*
X110490000Y-78105000D01*
X109220000Y-74930000D02*
X110490000Y-76200000D01*
X100965000Y-74930000D02*
X109220000Y-74930000D01*
X100965000Y-74930000D02*
X99060000Y-76835000D01*
X113411000Y-82804000D02*
X113347500Y-82867500D01*
X114173000Y-82804000D02*
X113411000Y-82804000D01*
X114554000Y-82423000D02*
X114173000Y-82804000D01*
X114554000Y-82169000D02*
X114554000Y-82423000D01*
X114554000Y-81534000D02*
X114554000Y-82169000D01*
X114300000Y-81280000D02*
X114554000Y-81534000D01*
X99060000Y-77470000D02*
X99060000Y-76835000D01*
X101600000Y-77470000D02*
X101600000Y-76835000D01*
X101600000Y-76835000D02*
X102870000Y-75565000D01*
X102870000Y-75565000D02*
X107315000Y-75565000D01*
X107315000Y-75565000D02*
X107950000Y-76200000D01*
X107950000Y-76200000D02*
X107950000Y-78105000D01*
X107950000Y-78105000D02*
X110807500Y-80962500D01*
X110807500Y-80962500D02*
X112335000Y-80962500D01*
X106680000Y-77470000D02*
X106680000Y-78105000D01*
X106680000Y-78105000D02*
X109855000Y-81280000D01*
X109855000Y-81280000D02*
X110236000Y-81661000D01*
X110236000Y-81661000D02*
X112271500Y-81661000D01*
X112271500Y-81661000D02*
X112335000Y-81597500D01*
X115506500Y-63106300D02*
X115506500Y-64071500D01*
X104140000Y-67310000D02*
X104140000Y-69850000D01*
X104775000Y-66675000D02*
X104140000Y-67310000D01*
X113665000Y-66675000D02*
X104775000Y-66675000D01*
X115506500Y-64833500D02*
X113665000Y-66675000D01*
X115506500Y-64071500D02*
X115506500Y-64833500D01*
X113347500Y-63106300D02*
X113347500Y-64452500D01*
X101600000Y-67310000D02*
X101600000Y-69850000D01*
X102870000Y-66040000D02*
X101600000Y-67310000D01*
X105410000Y-66040000D02*
X102870000Y-66040000D01*
X111760000Y-66040000D02*
X105410000Y-66040000D01*
X113347500Y-64452500D02*
X111760000Y-66040000D01*
X111188500Y-63106300D02*
X111188500Y-64071500D01*
X99060000Y-67310000D02*
X99060000Y-69850000D01*
X100965000Y-65405000D02*
X99060000Y-67310000D01*
X109855000Y-65405000D02*
X100965000Y-65405000D01*
X111188500Y-64071500D02*
X109855000Y-65405000D01*
X109029500Y-63106300D02*
X109029500Y-63690500D01*
X109029500Y-63690500D02*
X107950000Y-64770000D01*
X107950000Y-64770000D02*
X105410000Y-64770000D01*
X105410000Y-64770000D02*
X99060000Y-64770000D01*
X99060000Y-64770000D02*
X96520000Y-67310000D01*
X96520000Y-67310000D02*
X96520000Y-69850000D01*
X104140000Y-77470000D02*
X104140000Y-80645000D01*
X111379000Y-84201000D02*
X112271500Y-84201000D01*
X111125000Y-84455000D02*
X111379000Y-84201000D01*
X110490000Y-85090000D02*
X111125000Y-84455000D01*
X109855000Y-85725000D02*
X110490000Y-85090000D01*
X108585000Y-85725000D02*
X109855000Y-85725000D01*
X105410000Y-85725000D02*
X107315000Y-85725000D01*
X104140000Y-85725000D02*
X105410000Y-85725000D01*
X103505000Y-85090000D02*
X104140000Y-85725000D01*
X102870000Y-84455000D02*
X103505000Y-85090000D01*
X102870000Y-83185000D02*
X102870000Y-84455000D01*
X102870000Y-81915000D02*
X102870000Y-83185000D01*
X104140000Y-80645000D02*
X102870000Y-81915000D01*
X112271500Y-84201000D02*
X112335000Y-84137500D01*
X117665500Y-63106300D02*
X117665500Y-63944500D01*
X106680000Y-67945000D02*
X106680000Y-69850000D01*
X107315000Y-67310000D02*
X106680000Y-67945000D01*
X114300000Y-67310000D02*
X107315000Y-67310000D01*
X117665500Y-63944500D02*
X114300000Y-67310000D01*
X119824500Y-63106300D02*
X119824500Y-63690500D01*
X119824500Y-63690500D02*
X115570000Y-67945000D01*
X115570000Y-67945000D02*
X110490000Y-67945000D01*
X110490000Y-67945000D02*
X109855000Y-67945000D01*
X109855000Y-67945000D02*
X109220000Y-68580000D01*
X109220000Y-68580000D02*
X109220000Y-69850000D01*
X121983500Y-63106300D02*
X121920000Y-63169800D01*
X121920000Y-63169800D02*
X121920000Y-67310000D01*
X121920000Y-67310000D02*
X120650000Y-68580000D01*
X120650000Y-68580000D02*
X120650000Y-71755000D01*
X120650000Y-71755000D02*
X120650000Y-74295000D01*
X120650000Y-74295000D02*
X120015000Y-74930000D01*
X120015000Y-74930000D02*
X119380000Y-75565000D01*
X119380000Y-75565000D02*
X119380000Y-77470000D01*
X124142500Y-63106300D02*
X123825000Y-63423800D01*
X123825000Y-63423800D02*
X123825000Y-66040000D01*
X123825000Y-66040000D02*
X123825000Y-67945000D01*
X123825000Y-67945000D02*
X123190000Y-68580000D01*
X123190000Y-68580000D02*
X123190000Y-71755000D01*
X123190000Y-71755000D02*
X123190000Y-74930000D01*
X123190000Y-74930000D02*
X122555000Y-75565000D01*
X122555000Y-75565000D02*
X122555000Y-76835000D01*
X122555000Y-76835000D02*
X121920000Y-77470000D01*
X126301500Y-63106300D02*
X125730000Y-63677800D01*
X125730000Y-76200000D02*
X124460000Y-77470000D01*
X125730000Y-63677800D02*
X125730000Y-76200000D01*
X126365000Y-63169800D02*
X126301500Y-63106300D01*
X128460500Y-63106300D02*
X128270000Y-63296800D01*
X128270000Y-63296800D02*
X128270000Y-68580000D01*
X128270000Y-68580000D02*
X128270000Y-74930000D01*
X128270000Y-74930000D02*
X128270000Y-76200000D01*
X128270000Y-76200000D02*
X127000000Y-77470000D01*
X130619500Y-63106300D02*
X131445000Y-63931800D01*
X131445000Y-75565000D02*
X129540000Y-77470000D01*
X131445000Y-72390000D02*
X131445000Y-75565000D01*
X131445000Y-63931800D02*
X131445000Y-72390000D01*
X130619500Y-63106300D02*
X130619500Y-63309500D01*
X130619500Y-63309500D02*
X130810000Y-63500000D01*
X121983500Y-58813700D02*
X120904000Y-59893200D01*
X119380000Y-68580000D02*
X119380000Y-69850000D01*
X120904000Y-67056000D02*
X119380000Y-68580000D01*
X120904000Y-64262000D02*
X120904000Y-67056000D01*
X120904000Y-59893200D02*
X120904000Y-64262000D01*
X124142500Y-58813700D02*
X123063000Y-59893200D01*
X121920000Y-68580000D02*
X121920000Y-69850000D01*
X123063000Y-67437000D02*
X121920000Y-68580000D01*
X123063000Y-64262000D02*
X123063000Y-67437000D01*
X123063000Y-64135000D02*
X123063000Y-64262000D01*
X123063000Y-59893200D02*
X123063000Y-64135000D01*
X121920000Y-71120000D02*
X121920000Y-69850000D01*
X126301500Y-58813700D02*
X125222000Y-59893200D01*
X124460000Y-64770000D02*
X124460000Y-69850000D01*
X125222000Y-64008000D02*
X124460000Y-64770000D01*
X125222000Y-63881000D02*
X125222000Y-64008000D01*
X125222000Y-59893200D02*
X125222000Y-63881000D01*
X124460000Y-69850000D02*
X124142500Y-69532500D01*
X128460500Y-58813700D02*
X127381000Y-59893200D01*
X127381000Y-59893200D02*
X127381000Y-69469000D01*
X127381000Y-69469000D02*
X127000000Y-69850000D01*
X130619500Y-58813700D02*
X130619500Y-59245500D01*
X130619500Y-59245500D02*
X129540000Y-60325000D01*
X129540000Y-60325000D02*
X129540000Y-69850000D01*
X109855000Y-90170000D02*
X112395000Y-90170000D01*
X117475000Y-88900000D02*
X117475000Y-85467500D01*
X116205000Y-90170000D02*
X117475000Y-88900000D01*
X112395000Y-90170000D02*
X116205000Y-90170000D01*
X117475000Y-85467500D02*
X117535000Y-85407500D01*
X109855000Y-92710000D02*
X108585000Y-91440000D01*
X112395000Y-87630000D02*
X112395000Y-85467500D01*
X111760000Y-88265000D02*
X112395000Y-87630000D01*
X111125000Y-88900000D02*
X111760000Y-88265000D01*
X110490000Y-88900000D02*
X111125000Y-88900000D01*
X109855000Y-88900000D02*
X110490000Y-88900000D01*
X109220000Y-88900000D02*
X109855000Y-88900000D01*
X108585000Y-89535000D02*
X109220000Y-88900000D01*
X108585000Y-91440000D02*
X108585000Y-89535000D01*
X112395000Y-85467500D02*
X112335000Y-85407500D01*
M02*
