G04 #@! TF.FileFunction,Legend,Bot*
%FSLAX46Y46*%
G04 Gerber Fmt 4.6, Leading zero omitted, Abs format (unit mm)*
G04 Created by KiCad (PCBNEW 4.0.5+dfsg1-4~bpo8+1) date Mon May  8 03:03:41 2017*
%MOMM*%
%LPD*%
G01*
G04 APERTURE LIST*
%ADD10C,0.100000*%
%ADD11C,0.152400*%
%ADD12C,0.203200*%
G04 APERTURE END LIST*
D10*
D11*
X132533574Y-53049714D02*
X132533574Y-52541714D01*
X132533574Y-52287714D02*
X132569860Y-52324000D01*
X132533574Y-52360286D01*
X132497289Y-52324000D01*
X132533574Y-52287714D01*
X132533574Y-52360286D01*
X132170717Y-52541714D02*
X132170717Y-53049714D01*
X132170717Y-52614286D02*
X132134432Y-52578000D01*
X132061860Y-52541714D01*
X131953003Y-52541714D01*
X131880432Y-52578000D01*
X131844146Y-52650571D01*
X131844146Y-53049714D01*
X131517574Y-53013429D02*
X131445003Y-53049714D01*
X131299860Y-53049714D01*
X131227288Y-53013429D01*
X131191003Y-52940857D01*
X131191003Y-52904571D01*
X131227288Y-52832000D01*
X131299860Y-52795714D01*
X131408717Y-52795714D01*
X131481288Y-52759429D01*
X131517574Y-52686857D01*
X131517574Y-52650571D01*
X131481288Y-52578000D01*
X131408717Y-52541714D01*
X131299860Y-52541714D01*
X131227288Y-52578000D01*
X130574146Y-53013429D02*
X130646717Y-53049714D01*
X130791860Y-53049714D01*
X130864431Y-53013429D01*
X130900717Y-52940857D01*
X130900717Y-52650571D01*
X130864431Y-52578000D01*
X130791860Y-52541714D01*
X130646717Y-52541714D01*
X130574146Y-52578000D01*
X130537860Y-52650571D01*
X130537860Y-52723143D01*
X130900717Y-52795714D01*
X130211288Y-53049714D02*
X130211288Y-52541714D01*
X130211288Y-52686857D02*
X130175003Y-52614286D01*
X130138717Y-52578000D01*
X130066146Y-52541714D01*
X129993574Y-52541714D01*
X129848432Y-52541714D02*
X129558146Y-52541714D01*
X129739574Y-52287714D02*
X129739574Y-52940857D01*
X129703289Y-53013429D01*
X129630717Y-53049714D01*
X129558146Y-53049714D01*
X128723574Y-53049714D02*
X128723574Y-52287714D01*
X128723574Y-52578000D02*
X128651003Y-52541714D01*
X128505860Y-52541714D01*
X128433289Y-52578000D01*
X128397003Y-52614286D01*
X128360717Y-52686857D01*
X128360717Y-52904571D01*
X128397003Y-52977143D01*
X128433289Y-53013429D01*
X128505860Y-53049714D01*
X128651003Y-53049714D01*
X128723574Y-53013429D01*
X128106717Y-52541714D02*
X127925288Y-53049714D01*
X127743860Y-52541714D02*
X127925288Y-53049714D01*
X127997860Y-53231143D01*
X128034145Y-53267429D01*
X128106717Y-53303714D01*
X126873003Y-52541714D02*
X126873003Y-53303714D01*
X126873003Y-52578000D02*
X126800432Y-52541714D01*
X126655289Y-52541714D01*
X126582718Y-52578000D01*
X126546432Y-52614286D01*
X126510146Y-52686857D01*
X126510146Y-52904571D01*
X126546432Y-52977143D01*
X126582718Y-53013429D01*
X126655289Y-53049714D01*
X126800432Y-53049714D01*
X126873003Y-53013429D01*
X125857003Y-52541714D02*
X125857003Y-53049714D01*
X126183574Y-52541714D02*
X126183574Y-52940857D01*
X126147289Y-53013429D01*
X126074717Y-53049714D01*
X125965860Y-53049714D01*
X125893289Y-53013429D01*
X125857003Y-52977143D01*
X125530431Y-53013429D02*
X125457860Y-53049714D01*
X125312717Y-53049714D01*
X125240145Y-53013429D01*
X125203860Y-52940857D01*
X125203860Y-52904571D01*
X125240145Y-52832000D01*
X125312717Y-52795714D01*
X125421574Y-52795714D01*
X125494145Y-52759429D01*
X125530431Y-52686857D01*
X125530431Y-52650571D01*
X125494145Y-52578000D01*
X125421574Y-52541714D01*
X125312717Y-52541714D01*
X125240145Y-52578000D01*
X124877288Y-53049714D02*
X124877288Y-52287714D01*
X124550717Y-53049714D02*
X124550717Y-52650571D01*
X124587003Y-52578000D01*
X124659574Y-52541714D01*
X124768431Y-52541714D01*
X124841003Y-52578000D01*
X124877288Y-52614286D01*
X124187859Y-53049714D02*
X124187859Y-52541714D01*
X124187859Y-52287714D02*
X124224145Y-52324000D01*
X124187859Y-52360286D01*
X124151574Y-52324000D01*
X124187859Y-52287714D01*
X124187859Y-52360286D01*
X123825002Y-52541714D02*
X123825002Y-53049714D01*
X123825002Y-52614286D02*
X123788717Y-52578000D01*
X123716145Y-52541714D01*
X123607288Y-52541714D01*
X123534717Y-52578000D01*
X123498431Y-52650571D01*
X123498431Y-53049714D01*
X122809002Y-52541714D02*
X122809002Y-53158571D01*
X122845288Y-53231143D01*
X122881573Y-53267429D01*
X122954145Y-53303714D01*
X123063002Y-53303714D01*
X123135573Y-53267429D01*
X122809002Y-53013429D02*
X122881573Y-53049714D01*
X123026716Y-53049714D01*
X123099288Y-53013429D01*
X123135573Y-52977143D01*
X123171859Y-52904571D01*
X123171859Y-52686857D01*
X123135573Y-52614286D01*
X123099288Y-52578000D01*
X123026716Y-52541714D01*
X122881573Y-52541714D01*
X122809002Y-52578000D01*
X121974431Y-52541714D02*
X121684145Y-52541714D01*
X121865573Y-52287714D02*
X121865573Y-52940857D01*
X121829288Y-53013429D01*
X121756716Y-53049714D01*
X121684145Y-53049714D01*
X121430144Y-53049714D02*
X121430144Y-52287714D01*
X121103573Y-53049714D02*
X121103573Y-52650571D01*
X121139859Y-52578000D01*
X121212430Y-52541714D01*
X121321287Y-52541714D01*
X121393859Y-52578000D01*
X121430144Y-52614286D01*
X120450430Y-53013429D02*
X120523001Y-53049714D01*
X120668144Y-53049714D01*
X120740715Y-53013429D01*
X120777001Y-52940857D01*
X120777001Y-52650571D01*
X120740715Y-52578000D01*
X120668144Y-52541714D01*
X120523001Y-52541714D01*
X120450430Y-52578000D01*
X120414144Y-52650571D01*
X120414144Y-52723143D01*
X120777001Y-52795714D01*
X119180430Y-53013429D02*
X119253001Y-53049714D01*
X119398144Y-53049714D01*
X119470716Y-53013429D01*
X119507001Y-52977143D01*
X119543287Y-52904571D01*
X119543287Y-52686857D01*
X119507001Y-52614286D01*
X119470716Y-52578000D01*
X119398144Y-52541714D01*
X119253001Y-52541714D01*
X119180430Y-52578000D01*
X118745001Y-53049714D02*
X118817573Y-53013429D01*
X118853858Y-52977143D01*
X118890144Y-52904571D01*
X118890144Y-52686857D01*
X118853858Y-52614286D01*
X118817573Y-52578000D01*
X118745001Y-52541714D01*
X118636144Y-52541714D01*
X118563573Y-52578000D01*
X118527287Y-52614286D01*
X118491001Y-52686857D01*
X118491001Y-52904571D01*
X118527287Y-52977143D01*
X118563573Y-53013429D01*
X118636144Y-53049714D01*
X118745001Y-53049714D01*
X118164429Y-52541714D02*
X118164429Y-53049714D01*
X118164429Y-52614286D02*
X118128144Y-52578000D01*
X118055572Y-52541714D01*
X117946715Y-52541714D01*
X117874144Y-52578000D01*
X117837858Y-52650571D01*
X117837858Y-53049714D01*
X117475000Y-52541714D02*
X117475000Y-53049714D01*
X117475000Y-52614286D02*
X117438715Y-52578000D01*
X117366143Y-52541714D01*
X117257286Y-52541714D01*
X117184715Y-52578000D01*
X117148429Y-52650571D01*
X117148429Y-53049714D01*
X116495286Y-53013429D02*
X116567857Y-53049714D01*
X116713000Y-53049714D01*
X116785571Y-53013429D01*
X116821857Y-52940857D01*
X116821857Y-52650571D01*
X116785571Y-52578000D01*
X116713000Y-52541714D01*
X116567857Y-52541714D01*
X116495286Y-52578000D01*
X116459000Y-52650571D01*
X116459000Y-52723143D01*
X116821857Y-52795714D01*
X115805857Y-53013429D02*
X115878428Y-53049714D01*
X116023571Y-53049714D01*
X116096143Y-53013429D01*
X116132428Y-52977143D01*
X116168714Y-52904571D01*
X116168714Y-52686857D01*
X116132428Y-52614286D01*
X116096143Y-52578000D01*
X116023571Y-52541714D01*
X115878428Y-52541714D01*
X115805857Y-52578000D01*
X115588143Y-52541714D02*
X115297857Y-52541714D01*
X115479285Y-52287714D02*
X115479285Y-52940857D01*
X115443000Y-53013429D01*
X115370428Y-53049714D01*
X115297857Y-53049714D01*
X114934999Y-53049714D02*
X115007571Y-53013429D01*
X115043856Y-52977143D01*
X115080142Y-52904571D01*
X115080142Y-52686857D01*
X115043856Y-52614286D01*
X115007571Y-52578000D01*
X114934999Y-52541714D01*
X114826142Y-52541714D01*
X114753571Y-52578000D01*
X114717285Y-52614286D01*
X114680999Y-52686857D01*
X114680999Y-52904571D01*
X114717285Y-52977143D01*
X114753571Y-53013429D01*
X114826142Y-53049714D01*
X114934999Y-53049714D01*
X114354427Y-53049714D02*
X114354427Y-52541714D01*
X114354427Y-52686857D02*
X114318142Y-52614286D01*
X114281856Y-52578000D01*
X114209285Y-52541714D01*
X114136713Y-52541714D01*
X113846428Y-53013429D02*
X113846428Y-53049714D01*
X113882713Y-53122286D01*
X113918999Y-53158571D01*
X112939285Y-52541714D02*
X112939285Y-53049714D01*
X112939285Y-52614286D02*
X112903000Y-52578000D01*
X112830428Y-52541714D01*
X112721571Y-52541714D01*
X112649000Y-52578000D01*
X112612714Y-52650571D01*
X112612714Y-53049714D01*
X112140999Y-53049714D02*
X112213571Y-53013429D01*
X112249856Y-52977143D01*
X112286142Y-52904571D01*
X112286142Y-52686857D01*
X112249856Y-52614286D01*
X112213571Y-52578000D01*
X112140999Y-52541714D01*
X112032142Y-52541714D01*
X111959571Y-52578000D01*
X111923285Y-52614286D01*
X111886999Y-52686857D01*
X111886999Y-52904571D01*
X111923285Y-52977143D01*
X111959571Y-53013429D01*
X112032142Y-53049714D01*
X112140999Y-53049714D01*
X111669285Y-52541714D02*
X111378999Y-52541714D01*
X111560427Y-52287714D02*
X111560427Y-52940857D01*
X111524142Y-53013429D01*
X111451570Y-53049714D01*
X111378999Y-53049714D01*
X110653285Y-52541714D02*
X110362999Y-52541714D01*
X110544427Y-52287714D02*
X110544427Y-52940857D01*
X110508142Y-53013429D01*
X110435570Y-53049714D01*
X110362999Y-53049714D01*
X110108998Y-53049714D02*
X110108998Y-52287714D01*
X109782427Y-53049714D02*
X109782427Y-52650571D01*
X109818713Y-52578000D01*
X109891284Y-52541714D01*
X110000141Y-52541714D01*
X110072713Y-52578000D01*
X110108998Y-52614286D01*
X109129284Y-53013429D02*
X109201855Y-53049714D01*
X109346998Y-53049714D01*
X109419569Y-53013429D01*
X109455855Y-52940857D01*
X109455855Y-52650571D01*
X109419569Y-52578000D01*
X109346998Y-52541714D01*
X109201855Y-52541714D01*
X109129284Y-52578000D01*
X109092998Y-52650571D01*
X109092998Y-52723143D01*
X109455855Y-52795714D01*
X108185855Y-53049714D02*
X108185855Y-52287714D01*
X108185855Y-52578000D02*
X108113284Y-52541714D01*
X107968141Y-52541714D01*
X107895570Y-52578000D01*
X107859284Y-52614286D01*
X107822998Y-52686857D01*
X107822998Y-52904571D01*
X107859284Y-52977143D01*
X107895570Y-53013429D01*
X107968141Y-53049714D01*
X108113284Y-53049714D01*
X108185855Y-53013429D01*
X107387569Y-53049714D02*
X107460141Y-53013429D01*
X107496426Y-52977143D01*
X107532712Y-52904571D01*
X107532712Y-52686857D01*
X107496426Y-52614286D01*
X107460141Y-52578000D01*
X107387569Y-52541714D01*
X107278712Y-52541714D01*
X107206141Y-52578000D01*
X107169855Y-52614286D01*
X107133569Y-52686857D01*
X107133569Y-52904571D01*
X107169855Y-52977143D01*
X107206141Y-53013429D01*
X107278712Y-53049714D01*
X107387569Y-53049714D01*
X106480426Y-53049714D02*
X106480426Y-52650571D01*
X106516712Y-52578000D01*
X106589283Y-52541714D01*
X106734426Y-52541714D01*
X106806997Y-52578000D01*
X106480426Y-53013429D02*
X106552997Y-53049714D01*
X106734426Y-53049714D01*
X106806997Y-53013429D01*
X106843283Y-52940857D01*
X106843283Y-52868286D01*
X106806997Y-52795714D01*
X106734426Y-52759429D01*
X106552997Y-52759429D01*
X106480426Y-52723143D01*
X106117568Y-53049714D02*
X106117568Y-52541714D01*
X106117568Y-52686857D02*
X106081283Y-52614286D01*
X106044997Y-52578000D01*
X105972426Y-52541714D01*
X105899854Y-52541714D01*
X105319283Y-53049714D02*
X105319283Y-52287714D01*
X105319283Y-53013429D02*
X105391854Y-53049714D01*
X105536997Y-53049714D01*
X105609569Y-53013429D01*
X105645854Y-52977143D01*
X105682140Y-52904571D01*
X105682140Y-52686857D01*
X105645854Y-52614286D01*
X105609569Y-52578000D01*
X105536997Y-52541714D01*
X105391854Y-52541714D01*
X105319283Y-52578000D01*
X104956425Y-52977143D02*
X104920140Y-53013429D01*
X104956425Y-53049714D01*
X104992711Y-53013429D01*
X104956425Y-52977143D01*
X104956425Y-53049714D01*
X104956425Y-52759429D02*
X104992711Y-52324000D01*
X104956425Y-52287714D01*
X104920140Y-52324000D01*
X104956425Y-52759429D01*
X104956425Y-52287714D01*
D12*
X132170714Y-55662286D02*
X132170714Y-56484762D01*
X132219095Y-56581524D01*
X132267476Y-56629905D01*
X132364237Y-56678286D01*
X132509380Y-56678286D01*
X132606142Y-56629905D01*
X132170714Y-56291238D02*
X132267476Y-56339619D01*
X132460999Y-56339619D01*
X132557761Y-56291238D01*
X132606142Y-56242857D01*
X132654523Y-56146095D01*
X132654523Y-55855810D01*
X132606142Y-55759048D01*
X132557761Y-55710667D01*
X132460999Y-55662286D01*
X132267476Y-55662286D01*
X132170714Y-55710667D01*
X131686904Y-56339619D02*
X131686904Y-55662286D01*
X131686904Y-55323619D02*
X131735285Y-55372000D01*
X131686904Y-55420381D01*
X131638523Y-55372000D01*
X131686904Y-55323619D01*
X131686904Y-55420381D01*
X131348237Y-55662286D02*
X130961189Y-55662286D01*
X131203094Y-55323619D02*
X131203094Y-56194476D01*
X131154713Y-56291238D01*
X131057951Y-56339619D01*
X130961189Y-56339619D01*
X130622523Y-56339619D02*
X130622523Y-55323619D01*
X130187095Y-56339619D02*
X130187095Y-55807429D01*
X130235476Y-55710667D01*
X130332238Y-55662286D01*
X130477380Y-55662286D01*
X130574142Y-55710667D01*
X130622523Y-55759048D01*
X129267857Y-55662286D02*
X129267857Y-56339619D01*
X129703285Y-55662286D02*
X129703285Y-56194476D01*
X129654904Y-56291238D01*
X129558142Y-56339619D01*
X129413000Y-56339619D01*
X129316238Y-56291238D01*
X129267857Y-56242857D01*
X128784047Y-56339619D02*
X128784047Y-55323619D01*
X128784047Y-55710667D02*
X128687285Y-55662286D01*
X128493762Y-55662286D01*
X128397000Y-55710667D01*
X128348619Y-55759048D01*
X128300238Y-55855810D01*
X128300238Y-56146095D01*
X128348619Y-56242857D01*
X128397000Y-56291238D01*
X128493762Y-56339619D01*
X128687285Y-56339619D01*
X128784047Y-56291238D01*
X127864809Y-56242857D02*
X127816428Y-56291238D01*
X127864809Y-56339619D01*
X127913190Y-56291238D01*
X127864809Y-56242857D01*
X127864809Y-56339619D01*
X126945571Y-56291238D02*
X127042333Y-56339619D01*
X127235856Y-56339619D01*
X127332618Y-56291238D01*
X127380999Y-56242857D01*
X127429380Y-56146095D01*
X127429380Y-55855810D01*
X127380999Y-55759048D01*
X127332618Y-55710667D01*
X127235856Y-55662286D01*
X127042333Y-55662286D01*
X126945571Y-55710667D01*
X126364999Y-56339619D02*
X126461761Y-56291238D01*
X126510142Y-56242857D01*
X126558523Y-56146095D01*
X126558523Y-55855810D01*
X126510142Y-55759048D01*
X126461761Y-55710667D01*
X126364999Y-55662286D01*
X126219857Y-55662286D01*
X126123095Y-55710667D01*
X126074714Y-55759048D01*
X126026333Y-55855810D01*
X126026333Y-56146095D01*
X126074714Y-56242857D01*
X126123095Y-56291238D01*
X126219857Y-56339619D01*
X126364999Y-56339619D01*
X125590904Y-56339619D02*
X125590904Y-55662286D01*
X125590904Y-55759048D02*
X125542523Y-55710667D01*
X125445761Y-55662286D01*
X125300619Y-55662286D01*
X125203857Y-55710667D01*
X125155476Y-55807429D01*
X125155476Y-56339619D01*
X125155476Y-55807429D02*
X125107095Y-55710667D01*
X125010333Y-55662286D01*
X124865190Y-55662286D01*
X124768428Y-55710667D01*
X124720047Y-55807429D01*
X124720047Y-56339619D01*
X123510523Y-55275238D02*
X124381380Y-56581524D01*
X123171856Y-55662286D02*
X123171856Y-56678286D01*
X123171856Y-55710667D02*
X123075094Y-55662286D01*
X122881571Y-55662286D01*
X122784809Y-55710667D01*
X122736428Y-55759048D01*
X122688047Y-55855810D01*
X122688047Y-56146095D01*
X122736428Y-56242857D01*
X122784809Y-56291238D01*
X122881571Y-56339619D01*
X123075094Y-56339619D01*
X123171856Y-56291238D01*
X121865571Y-56291238D02*
X121962333Y-56339619D01*
X122155856Y-56339619D01*
X122252618Y-56291238D01*
X122300999Y-56194476D01*
X122300999Y-55807429D01*
X122252618Y-55710667D01*
X122155856Y-55662286D01*
X121962333Y-55662286D01*
X121865571Y-55710667D01*
X121817190Y-55807429D01*
X121817190Y-55904190D01*
X122300999Y-56000952D01*
X121381761Y-55662286D02*
X121381761Y-56678286D01*
X121381761Y-55710667D02*
X121284999Y-55662286D01*
X121091476Y-55662286D01*
X120994714Y-55710667D01*
X120946333Y-55759048D01*
X120897952Y-55855810D01*
X120897952Y-56146095D01*
X120946333Y-56242857D01*
X120994714Y-56291238D01*
X121091476Y-56339619D01*
X121284999Y-56339619D01*
X121381761Y-56291238D01*
X120027095Y-56339619D02*
X120027095Y-55807429D01*
X120075476Y-55710667D01*
X120172238Y-55662286D01*
X120365761Y-55662286D01*
X120462523Y-55710667D01*
X120027095Y-56291238D02*
X120123857Y-56339619D01*
X120365761Y-56339619D01*
X120462523Y-56291238D01*
X120510904Y-56194476D01*
X120510904Y-56097714D01*
X120462523Y-56000952D01*
X120365761Y-55952571D01*
X120123857Y-55952571D01*
X120027095Y-55904190D01*
X119591666Y-56291238D02*
X119494904Y-56339619D01*
X119301380Y-56339619D01*
X119204619Y-56291238D01*
X119156238Y-56194476D01*
X119156238Y-56146095D01*
X119204619Y-56049333D01*
X119301380Y-56000952D01*
X119446523Y-56000952D01*
X119543285Y-55952571D01*
X119591666Y-55855810D01*
X119591666Y-55807429D01*
X119543285Y-55710667D01*
X119446523Y-55662286D01*
X119301380Y-55662286D01*
X119204619Y-55710667D01*
X118575666Y-56339619D02*
X118672428Y-56291238D01*
X118720809Y-56194476D01*
X118720809Y-55323619D01*
X117753191Y-56339619D02*
X117753191Y-55807429D01*
X117801572Y-55710667D01*
X117898334Y-55662286D01*
X118091857Y-55662286D01*
X118188619Y-55710667D01*
X117753191Y-56291238D02*
X117849953Y-56339619D01*
X118091857Y-56339619D01*
X118188619Y-56291238D01*
X118237000Y-56194476D01*
X118237000Y-56097714D01*
X118188619Y-56000952D01*
X118091857Y-55952571D01*
X117849953Y-55952571D01*
X117753191Y-55904190D01*
X117269381Y-56339619D02*
X117269381Y-55323619D01*
X117269381Y-55710667D02*
X117172619Y-55662286D01*
X116979096Y-55662286D01*
X116882334Y-55710667D01*
X116833953Y-55759048D01*
X116785572Y-55855810D01*
X116785572Y-56146095D01*
X116833953Y-56242857D01*
X116882334Y-56291238D01*
X116979096Y-56339619D01*
X117172619Y-56339619D01*
X117269381Y-56291238D01*
X116398524Y-56291238D02*
X116301762Y-56339619D01*
X116108238Y-56339619D01*
X116011477Y-56291238D01*
X115963096Y-56194476D01*
X115963096Y-56146095D01*
X116011477Y-56049333D01*
X116108238Y-56000952D01*
X116253381Y-56000952D01*
X116350143Y-55952571D01*
X116398524Y-55855810D01*
X116398524Y-55807429D01*
X116350143Y-55710667D01*
X116253381Y-55662286D01*
X116108238Y-55662286D01*
X116011477Y-55710667D01*
X114801953Y-55275238D02*
X115672810Y-56581524D01*
X114027858Y-56339619D02*
X114027858Y-55807429D01*
X114076239Y-55710667D01*
X114173001Y-55662286D01*
X114366524Y-55662286D01*
X114463286Y-55710667D01*
X114027858Y-56291238D02*
X114124620Y-56339619D01*
X114366524Y-56339619D01*
X114463286Y-56291238D01*
X114511667Y-56194476D01*
X114511667Y-56097714D01*
X114463286Y-56000952D01*
X114366524Y-55952571D01*
X114124620Y-55952571D01*
X114027858Y-55904190D01*
X113689191Y-55662286D02*
X113302143Y-55662286D01*
X113544048Y-55323619D02*
X113544048Y-56194476D01*
X113495667Y-56291238D01*
X113398905Y-56339619D01*
X113302143Y-56339619D01*
X112963477Y-56339619D02*
X112963477Y-55662286D01*
X112963477Y-55759048D02*
X112915096Y-55710667D01*
X112818334Y-55662286D01*
X112673192Y-55662286D01*
X112576430Y-55710667D01*
X112528049Y-55807429D01*
X112528049Y-56339619D01*
X112528049Y-55807429D02*
X112479668Y-55710667D01*
X112382906Y-55662286D01*
X112237763Y-55662286D01*
X112141001Y-55710667D01*
X112092620Y-55807429D01*
X112092620Y-56339619D01*
X111221763Y-56291238D02*
X111318525Y-56339619D01*
X111512048Y-56339619D01*
X111608810Y-56291238D01*
X111657191Y-56194476D01*
X111657191Y-55807429D01*
X111608810Y-55710667D01*
X111512048Y-55662286D01*
X111318525Y-55662286D01*
X111221763Y-55710667D01*
X111173382Y-55807429D01*
X111173382Y-55904190D01*
X111657191Y-56000952D01*
X110302525Y-55662286D02*
X110302525Y-56484762D01*
X110350906Y-56581524D01*
X110399287Y-56629905D01*
X110496048Y-56678286D01*
X110641191Y-56678286D01*
X110737953Y-56629905D01*
X110302525Y-56291238D02*
X110399287Y-56339619D01*
X110592810Y-56339619D01*
X110689572Y-56291238D01*
X110737953Y-56242857D01*
X110786334Y-56146095D01*
X110786334Y-55855810D01*
X110737953Y-55759048D01*
X110689572Y-55710667D01*
X110592810Y-55662286D01*
X110399287Y-55662286D01*
X110302525Y-55710667D01*
X109383287Y-56339619D02*
X109383287Y-55807429D01*
X109431668Y-55710667D01*
X109528430Y-55662286D01*
X109721953Y-55662286D01*
X109818715Y-55710667D01*
X109383287Y-56291238D02*
X109480049Y-56339619D01*
X109721953Y-56339619D01*
X109818715Y-56291238D01*
X109867096Y-56194476D01*
X109867096Y-56097714D01*
X109818715Y-56000952D01*
X109721953Y-55952571D01*
X109480049Y-55952571D01*
X109383287Y-55904190D01*
X108899477Y-55952571D02*
X108125382Y-55952571D01*
X107206144Y-55662286D02*
X107206144Y-56484762D01*
X107254525Y-56581524D01*
X107302906Y-56629905D01*
X107399667Y-56678286D01*
X107544810Y-56678286D01*
X107641572Y-56629905D01*
X107206144Y-56291238D02*
X107302906Y-56339619D01*
X107496429Y-56339619D01*
X107593191Y-56291238D01*
X107641572Y-56242857D01*
X107689953Y-56146095D01*
X107689953Y-55855810D01*
X107641572Y-55759048D01*
X107593191Y-55710667D01*
X107496429Y-55662286D01*
X107302906Y-55662286D01*
X107206144Y-55710667D01*
X106722334Y-55662286D02*
X106722334Y-56678286D01*
X106722334Y-55710667D02*
X106625572Y-55662286D01*
X106432049Y-55662286D01*
X106335287Y-55710667D01*
X106286906Y-55759048D01*
X106238525Y-55855810D01*
X106238525Y-56146095D01*
X106286906Y-56242857D01*
X106335287Y-56291238D01*
X106432049Y-56339619D01*
X106625572Y-56339619D01*
X106722334Y-56291238D01*
X105803096Y-56339619D02*
X105803096Y-55662286D01*
X105803096Y-55323619D02*
X105851477Y-55372000D01*
X105803096Y-55420381D01*
X105754715Y-55372000D01*
X105803096Y-55323619D01*
X105803096Y-55420381D01*
X105319286Y-56339619D02*
X105319286Y-55323619D01*
X105319286Y-55710667D02*
X105222524Y-55662286D01*
X105029001Y-55662286D01*
X104932239Y-55710667D01*
X104883858Y-55759048D01*
X104835477Y-55855810D01*
X104835477Y-56146095D01*
X104883858Y-56242857D01*
X104932239Y-56291238D01*
X105029001Y-56339619D01*
X105222524Y-56339619D01*
X105319286Y-56291238D01*
M02*
