M48
;DRILL file {Pcbnew (22-Jun-2014 BZR 4027)-stable} date Sat 02 Sep 2017 11:44:01 PM CDT
;FORMAT={-:-/ absolute / inch / decimal}
FMAT,2
INCH,TZ
T1C0.016
T2C0.032
T3C0.040
T4C0.091
%
G90
G05
M72
T1
X5.375Y-3.975
X5.375Y-4.075
X5.525Y-4.075
X5.525Y-4.25
X5.625Y-4.075
X5.625Y-4.25
X5.975Y-4.025
X6.4Y-4.025
T2
X4.975Y-3.875
X4.975Y-4.175
X4.975Y-4.375
X4.975Y-4.675
X5.005Y-4.275
X5.075Y-3.875
X5.075Y-4.175
X5.075Y-4.375
X5.075Y-4.675
X5.13Y-4.275
X5.175Y-3.875
X5.175Y-4.175
X5.175Y-4.375
X5.175Y-4.675
X5.275Y-3.875
X5.275Y-4.175
X5.275Y-4.375
X5.275Y-4.675
X5.375Y-3.875
X5.375Y-4.175
X5.375Y-4.375
X5.375Y-4.675
X5.3825Y-3.4405
X5.3825Y-3.6095
X5.4675Y-3.4405
X5.4675Y-3.6095
X5.475Y-3.875
X5.475Y-4.175
X5.475Y-4.375
X5.475Y-4.675
X5.475Y-4.825
X5.475Y-4.95
X5.5525Y-3.4405
X5.5525Y-3.6095
X5.575Y-3.875
X5.575Y-4.175
X5.575Y-4.375
X5.575Y-4.675
X5.575Y-4.825
X5.575Y-4.95
X5.6375Y-3.4405
X5.6375Y-3.6095
X5.675Y-3.875
X5.675Y-4.175
X5.7Y-4.3
X5.7225Y-3.4405
X5.7225Y-3.6095
X5.775Y-3.875
X5.775Y-4.175
X5.775Y-4.475
X5.775Y-4.575
X5.775Y-4.675
X5.775Y-4.775
X5.8075Y-3.4405
X5.8075Y-3.6095
X5.825Y-4.3
X5.875Y-3.875
X5.875Y-4.175
X5.8925Y-3.4405
X5.8925Y-3.6095
X5.975Y-3.875
X5.975Y-4.175
X5.9775Y-3.4405
X5.9775Y-3.6095
X6.0625Y-3.4405
X6.0625Y-3.6095
X6.075Y-3.875
X6.075Y-4.175
X6.1475Y-3.4405
X6.1475Y-3.6095
X6.175Y-3.875
X6.175Y-4.175
X6.175Y-4.475
X6.175Y-4.575
X6.175Y-4.675
X6.175Y-4.775
X6.2325Y-3.4405
X6.2325Y-3.6095
X6.275Y-3.875
X6.275Y-4.175
X6.3175Y-3.4405
X6.3175Y-3.6095
X6.325Y-4.5
X6.325Y-4.625
X6.325Y-4.725
X6.325Y-4.85
X6.4Y-3.75
X6.4Y-4.15
X6.425Y-4.25
X6.425Y-4.35
X6.49Y-4.625
X6.49Y-4.725
X6.5687Y-4.625
X6.5687Y-4.725
X6.625Y-4.3
X6.75Y-4.3
T3
X5.025Y-4.975
X5.125Y-4.975
X5.225Y-4.975
X5.325Y-4.975
X5.875Y-4.9
X5.875Y-5.
X5.975Y-4.3
X6.075Y-4.3
X6.075Y-4.9
X6.075Y-5.
X6.55Y-3.775
X6.55Y-3.875
X6.725Y-3.775
X6.725Y-4.175
T4
X6.675Y-4.4388
X6.675Y-4.9112
T0
M30
