M48
INCH,TZ
T1C0.016
T2C0.020
T3C0.032
T4C0.040
T5C0.080
%
G90
G05
T1
X4.225Y-3.375
X4.275Y-3.375
X4.475Y-3.23
X4.48Y-3.285
X4.525Y-3.525
X4.525Y-3.575
X4.545Y-3.23
T2
X5.324Y-3.501
X5.324Y-3.599
X5.403Y-3.501
X5.403Y-3.599
T3
X3.8Y-2.75
X3.8Y-3.05
X3.8Y-3.175
X3.9Y-2.75
X3.9Y-3.05
X3.975Y-3.45
X4.Y-2.75
X4.Y-3.05
X4.Y-3.175
X4.025Y-3.65
X4.025Y-3.85
X4.075Y-3.45
X4.1Y-2.75
X4.1Y-3.05
X4.125Y-3.275
X4.2Y-2.75
X4.2Y-3.05
X4.3Y-2.75
X4.3Y-3.05
X4.325Y-3.275
X4.325Y-3.55
X4.325Y-3.65
X4.325Y-3.75
X4.325Y-3.85
X4.4Y-2.75
X4.4Y-3.05
X4.5Y-2.75
X4.5Y-3.05
X4.6Y-2.75
X4.6Y-3.05
X4.7Y-2.75
X4.7Y-3.05
X4.725Y-3.55
X4.725Y-3.65
X4.725Y-3.75
X4.725Y-3.85
X4.75Y-3.175
X4.75Y-3.375
X4.8Y-2.75
X4.8Y-3.05
X4.9Y-2.75
X4.9Y-3.05
X4.925Y-3.5
X4.925Y-3.6
X5.Y-2.75
X5.Y-3.05
X5.1Y-2.75
X5.1Y-3.05
X5.125Y-3.5
X5.125Y-3.6
T4
X3.825Y-3.45
X3.825Y-3.85
X4.2075Y-2.3155
X4.2075Y-2.4845
X4.2925Y-2.3155
X4.2925Y-2.4845
X4.3775Y-2.3155
X4.3775Y-2.4845
X4.4625Y-2.3155
X4.4625Y-2.4845
X4.5475Y-2.3155
X4.5475Y-2.4845
X4.6325Y-2.3155
X4.6325Y-2.4845
X4.7175Y-2.3155
X4.7175Y-2.4845
X4.8025Y-2.3155
X4.8025Y-2.4845
X4.875Y-3.85
X4.8875Y-2.3155
X4.8875Y-2.4845
X4.9725Y-2.3155
X4.9725Y-2.4845
X4.975Y-3.85
X5.0575Y-2.3155
X5.0575Y-2.4845
X5.1Y-3.85
X5.1425Y-2.3155
X5.1425Y-2.4845
X5.2Y-3.85
T5
X5.51Y-3.313
X5.51Y-3.787
T0
M30
