G04 (created by PCBNEW (22-Jun-2014 BZR 4027)-stable) date Sat 02 Sep 2017 10:31:11 PM CDT*
%MOIN*%
G04 Gerber Fmt 3.4, Leading zero omitted, Abs format*
%FSLAX34Y34*%
G01*
G70*
G90*
G04 APERTURE LIST*
%ADD10C,0.00393701*%
%ADD11C,0.006*%
%ADD12C,0.008*%
%ADD13C,0.005*%
%ADD14C,0.012*%
%ADD15C,0.0001*%
G04 APERTURE END LIST*
G54D10*
G54D11*
X27678Y-142871D02*
X27678Y-142671D01*
X27678Y-142571D02*
X27692Y-142585D01*
X27678Y-142600D01*
X27664Y-142585D01*
X27678Y-142571D01*
X27678Y-142600D01*
X27535Y-142671D02*
X27535Y-142871D01*
X27535Y-142700D02*
X27521Y-142685D01*
X27492Y-142671D01*
X27450Y-142671D01*
X27421Y-142685D01*
X27407Y-142714D01*
X27407Y-142871D01*
X27278Y-142857D02*
X27250Y-142871D01*
X27192Y-142871D01*
X27164Y-142857D01*
X27150Y-142828D01*
X27150Y-142814D01*
X27164Y-142785D01*
X27192Y-142771D01*
X27235Y-142771D01*
X27264Y-142757D01*
X27278Y-142728D01*
X27278Y-142714D01*
X27264Y-142685D01*
X27235Y-142671D01*
X27192Y-142671D01*
X27164Y-142685D01*
X26907Y-142857D02*
X26935Y-142871D01*
X26992Y-142871D01*
X27021Y-142857D01*
X27035Y-142828D01*
X27035Y-142714D01*
X27021Y-142685D01*
X26992Y-142671D01*
X26935Y-142671D01*
X26907Y-142685D01*
X26892Y-142714D01*
X26892Y-142742D01*
X27035Y-142771D01*
X26764Y-142871D02*
X26764Y-142671D01*
X26764Y-142728D02*
X26750Y-142700D01*
X26735Y-142685D01*
X26707Y-142671D01*
X26678Y-142671D01*
X26621Y-142671D02*
X26507Y-142671D01*
X26578Y-142571D02*
X26578Y-142828D01*
X26564Y-142857D01*
X26535Y-142871D01*
X26507Y-142871D01*
X26178Y-142871D02*
X26178Y-142571D01*
X26178Y-142685D02*
X26150Y-142671D01*
X26092Y-142671D01*
X26064Y-142685D01*
X26050Y-142700D01*
X26035Y-142728D01*
X26035Y-142814D01*
X26050Y-142842D01*
X26064Y-142857D01*
X26092Y-142871D01*
X26150Y-142871D01*
X26178Y-142857D01*
X25935Y-142671D02*
X25864Y-142871D01*
X25792Y-142671D02*
X25864Y-142871D01*
X25892Y-142942D01*
X25907Y-142957D01*
X25935Y-142971D01*
X25450Y-142671D02*
X25450Y-142971D01*
X25450Y-142685D02*
X25421Y-142671D01*
X25364Y-142671D01*
X25335Y-142685D01*
X25321Y-142700D01*
X25307Y-142728D01*
X25307Y-142814D01*
X25321Y-142842D01*
X25335Y-142857D01*
X25364Y-142871D01*
X25421Y-142871D01*
X25450Y-142857D01*
X25050Y-142671D02*
X25050Y-142871D01*
X25178Y-142671D02*
X25178Y-142828D01*
X25164Y-142857D01*
X25135Y-142871D01*
X25092Y-142871D01*
X25064Y-142857D01*
X25050Y-142842D01*
X24921Y-142857D02*
X24892Y-142871D01*
X24835Y-142871D01*
X24807Y-142857D01*
X24792Y-142828D01*
X24792Y-142814D01*
X24807Y-142785D01*
X24835Y-142771D01*
X24878Y-142771D01*
X24907Y-142757D01*
X24921Y-142728D01*
X24921Y-142714D01*
X24907Y-142685D01*
X24878Y-142671D01*
X24835Y-142671D01*
X24807Y-142685D01*
X24664Y-142871D02*
X24664Y-142571D01*
X24535Y-142871D02*
X24535Y-142714D01*
X24550Y-142685D01*
X24578Y-142671D01*
X24621Y-142671D01*
X24650Y-142685D01*
X24664Y-142700D01*
X24392Y-142871D02*
X24392Y-142671D01*
X24392Y-142571D02*
X24407Y-142585D01*
X24392Y-142600D01*
X24378Y-142585D01*
X24392Y-142571D01*
X24392Y-142600D01*
X24250Y-142671D02*
X24250Y-142871D01*
X24250Y-142700D02*
X24235Y-142685D01*
X24207Y-142671D01*
X24164Y-142671D01*
X24135Y-142685D01*
X24121Y-142714D01*
X24121Y-142871D01*
X23850Y-142671D02*
X23850Y-142914D01*
X23864Y-142942D01*
X23878Y-142957D01*
X23907Y-142971D01*
X23950Y-142971D01*
X23978Y-142957D01*
X23850Y-142857D02*
X23878Y-142871D01*
X23935Y-142871D01*
X23964Y-142857D01*
X23978Y-142842D01*
X23992Y-142814D01*
X23992Y-142728D01*
X23978Y-142700D01*
X23964Y-142685D01*
X23935Y-142671D01*
X23878Y-142671D01*
X23850Y-142685D01*
X23521Y-142671D02*
X23407Y-142671D01*
X23478Y-142571D02*
X23478Y-142828D01*
X23464Y-142857D01*
X23435Y-142871D01*
X23407Y-142871D01*
X23307Y-142871D02*
X23307Y-142571D01*
X23178Y-142871D02*
X23178Y-142714D01*
X23192Y-142685D01*
X23221Y-142671D01*
X23264Y-142671D01*
X23292Y-142685D01*
X23307Y-142700D01*
X22921Y-142857D02*
X22950Y-142871D01*
X23007Y-142871D01*
X23035Y-142857D01*
X23050Y-142828D01*
X23050Y-142714D01*
X23035Y-142685D01*
X23007Y-142671D01*
X22950Y-142671D01*
X22921Y-142685D01*
X22907Y-142714D01*
X22907Y-142742D01*
X23050Y-142771D01*
X22421Y-142857D02*
X22450Y-142871D01*
X22507Y-142871D01*
X22535Y-142857D01*
X22550Y-142842D01*
X22564Y-142814D01*
X22564Y-142728D01*
X22550Y-142700D01*
X22535Y-142685D01*
X22507Y-142671D01*
X22450Y-142671D01*
X22421Y-142685D01*
X22250Y-142871D02*
X22278Y-142857D01*
X22292Y-142842D01*
X22307Y-142814D01*
X22307Y-142728D01*
X22292Y-142700D01*
X22278Y-142685D01*
X22250Y-142671D01*
X22207Y-142671D01*
X22178Y-142685D01*
X22164Y-142700D01*
X22150Y-142728D01*
X22150Y-142814D01*
X22164Y-142842D01*
X22178Y-142857D01*
X22207Y-142871D01*
X22250Y-142871D01*
X22021Y-142671D02*
X22021Y-142871D01*
X22021Y-142700D02*
X22007Y-142685D01*
X21978Y-142671D01*
X21935Y-142671D01*
X21907Y-142685D01*
X21892Y-142714D01*
X21892Y-142871D01*
X21750Y-142671D02*
X21750Y-142871D01*
X21750Y-142700D02*
X21735Y-142685D01*
X21707Y-142671D01*
X21664Y-142671D01*
X21635Y-142685D01*
X21621Y-142714D01*
X21621Y-142871D01*
X21364Y-142857D02*
X21392Y-142871D01*
X21450Y-142871D01*
X21478Y-142857D01*
X21492Y-142828D01*
X21492Y-142714D01*
X21478Y-142685D01*
X21450Y-142671D01*
X21392Y-142671D01*
X21364Y-142685D01*
X21350Y-142714D01*
X21350Y-142742D01*
X21492Y-142771D01*
X21092Y-142857D02*
X21121Y-142871D01*
X21178Y-142871D01*
X21207Y-142857D01*
X21221Y-142842D01*
X21235Y-142814D01*
X21235Y-142728D01*
X21221Y-142700D01*
X21207Y-142685D01*
X21178Y-142671D01*
X21121Y-142671D01*
X21092Y-142685D01*
X21007Y-142671D02*
X20892Y-142671D01*
X20964Y-142571D02*
X20964Y-142828D01*
X20950Y-142857D01*
X20921Y-142871D01*
X20892Y-142871D01*
X20749Y-142871D02*
X20778Y-142857D01*
X20792Y-142842D01*
X20807Y-142814D01*
X20807Y-142728D01*
X20792Y-142700D01*
X20778Y-142685D01*
X20749Y-142671D01*
X20707Y-142671D01*
X20678Y-142685D01*
X20664Y-142700D01*
X20649Y-142728D01*
X20649Y-142814D01*
X20664Y-142842D01*
X20678Y-142857D01*
X20707Y-142871D01*
X20749Y-142871D01*
X20521Y-142871D02*
X20521Y-142671D01*
X20521Y-142728D02*
X20507Y-142700D01*
X20492Y-142685D01*
X20464Y-142671D01*
X20435Y-142671D01*
X20321Y-142857D02*
X20321Y-142871D01*
X20335Y-142900D01*
X20349Y-142914D01*
X19964Y-142671D02*
X19964Y-142871D01*
X19964Y-142700D02*
X19950Y-142685D01*
X19921Y-142671D01*
X19878Y-142671D01*
X19850Y-142685D01*
X19835Y-142714D01*
X19835Y-142871D01*
X19649Y-142871D02*
X19678Y-142857D01*
X19692Y-142842D01*
X19707Y-142814D01*
X19707Y-142728D01*
X19692Y-142700D01*
X19678Y-142685D01*
X19649Y-142671D01*
X19607Y-142671D01*
X19578Y-142685D01*
X19564Y-142700D01*
X19549Y-142728D01*
X19549Y-142814D01*
X19564Y-142842D01*
X19578Y-142857D01*
X19607Y-142871D01*
X19649Y-142871D01*
X19464Y-142671D02*
X19349Y-142671D01*
X19421Y-142571D02*
X19421Y-142828D01*
X19407Y-142857D01*
X19378Y-142871D01*
X19349Y-142871D01*
X19064Y-142671D02*
X18949Y-142671D01*
X19021Y-142571D02*
X19021Y-142828D01*
X19007Y-142857D01*
X18978Y-142871D01*
X18949Y-142871D01*
X18849Y-142871D02*
X18849Y-142571D01*
X18721Y-142871D02*
X18721Y-142714D01*
X18735Y-142685D01*
X18764Y-142671D01*
X18807Y-142671D01*
X18835Y-142685D01*
X18849Y-142700D01*
X18464Y-142857D02*
X18492Y-142871D01*
X18549Y-142871D01*
X18578Y-142857D01*
X18592Y-142828D01*
X18592Y-142714D01*
X18578Y-142685D01*
X18549Y-142671D01*
X18492Y-142671D01*
X18464Y-142685D01*
X18449Y-142714D01*
X18449Y-142742D01*
X18592Y-142771D01*
X18092Y-142871D02*
X18092Y-142571D01*
X18092Y-142685D02*
X18064Y-142671D01*
X18007Y-142671D01*
X17978Y-142685D01*
X17964Y-142700D01*
X17949Y-142728D01*
X17949Y-142814D01*
X17964Y-142842D01*
X17978Y-142857D01*
X18007Y-142871D01*
X18064Y-142871D01*
X18092Y-142857D01*
X17778Y-142871D02*
X17807Y-142857D01*
X17821Y-142842D01*
X17835Y-142814D01*
X17835Y-142728D01*
X17821Y-142700D01*
X17807Y-142685D01*
X17778Y-142671D01*
X17735Y-142671D01*
X17707Y-142685D01*
X17692Y-142700D01*
X17678Y-142728D01*
X17678Y-142814D01*
X17692Y-142842D01*
X17707Y-142857D01*
X17735Y-142871D01*
X17778Y-142871D01*
X17421Y-142871D02*
X17421Y-142714D01*
X17435Y-142685D01*
X17464Y-142671D01*
X17521Y-142671D01*
X17549Y-142685D01*
X17421Y-142857D02*
X17449Y-142871D01*
X17521Y-142871D01*
X17549Y-142857D01*
X17564Y-142828D01*
X17564Y-142800D01*
X17549Y-142771D01*
X17521Y-142757D01*
X17449Y-142757D01*
X17421Y-142742D01*
X17278Y-142871D02*
X17278Y-142671D01*
X17278Y-142728D02*
X17264Y-142700D01*
X17249Y-142685D01*
X17221Y-142671D01*
X17192Y-142671D01*
X16964Y-142871D02*
X16964Y-142571D01*
X16964Y-142857D02*
X16992Y-142871D01*
X17049Y-142871D01*
X17078Y-142857D01*
X17092Y-142842D01*
X17107Y-142814D01*
X17107Y-142728D01*
X17092Y-142700D01*
X17078Y-142685D01*
X17049Y-142671D01*
X16992Y-142671D01*
X16964Y-142685D01*
X16821Y-142842D02*
X16807Y-142857D01*
X16821Y-142871D01*
X16835Y-142857D01*
X16821Y-142842D01*
X16821Y-142871D01*
X16821Y-142757D02*
X16835Y-142585D01*
X16821Y-142571D01*
X16807Y-142585D01*
X16821Y-142757D01*
X16821Y-142571D01*
G54D12*
X27535Y-143895D02*
X27535Y-144219D01*
X27554Y-144257D01*
X27573Y-144276D01*
X27611Y-144295D01*
X27669Y-144295D01*
X27707Y-144276D01*
X27535Y-144142D02*
X27573Y-144161D01*
X27649Y-144161D01*
X27688Y-144142D01*
X27707Y-144123D01*
X27726Y-144085D01*
X27726Y-143971D01*
X27707Y-143933D01*
X27688Y-143914D01*
X27649Y-143895D01*
X27573Y-143895D01*
X27535Y-143914D01*
X27345Y-144161D02*
X27345Y-143895D01*
X27345Y-143761D02*
X27364Y-143780D01*
X27345Y-143800D01*
X27326Y-143780D01*
X27345Y-143761D01*
X27345Y-143800D01*
X27211Y-143895D02*
X27059Y-143895D01*
X27154Y-143761D02*
X27154Y-144104D01*
X27135Y-144142D01*
X27097Y-144161D01*
X27059Y-144161D01*
X26926Y-144161D02*
X26926Y-143761D01*
X26754Y-144161D02*
X26754Y-143952D01*
X26773Y-143914D01*
X26811Y-143895D01*
X26869Y-143895D01*
X26907Y-143914D01*
X26926Y-143933D01*
X26392Y-143895D02*
X26392Y-144161D01*
X26564Y-143895D02*
X26564Y-144104D01*
X26545Y-144142D01*
X26507Y-144161D01*
X26450Y-144161D01*
X26411Y-144142D01*
X26392Y-144123D01*
X26202Y-144161D02*
X26202Y-143761D01*
X26202Y-143914D02*
X26164Y-143895D01*
X26088Y-143895D01*
X26050Y-143914D01*
X26030Y-143933D01*
X26011Y-143971D01*
X26011Y-144085D01*
X26030Y-144123D01*
X26050Y-144142D01*
X26088Y-144161D01*
X26164Y-144161D01*
X26202Y-144142D01*
X25840Y-144123D02*
X25821Y-144142D01*
X25840Y-144161D01*
X25859Y-144142D01*
X25840Y-144123D01*
X25840Y-144161D01*
X25478Y-144142D02*
X25516Y-144161D01*
X25592Y-144161D01*
X25630Y-144142D01*
X25649Y-144123D01*
X25669Y-144085D01*
X25669Y-143971D01*
X25649Y-143933D01*
X25630Y-143914D01*
X25592Y-143895D01*
X25516Y-143895D01*
X25478Y-143914D01*
X25249Y-144161D02*
X25288Y-144142D01*
X25307Y-144123D01*
X25326Y-144085D01*
X25326Y-143971D01*
X25307Y-143933D01*
X25288Y-143914D01*
X25249Y-143895D01*
X25192Y-143895D01*
X25154Y-143914D01*
X25135Y-143933D01*
X25116Y-143971D01*
X25116Y-144085D01*
X25135Y-144123D01*
X25154Y-144142D01*
X25192Y-144161D01*
X25249Y-144161D01*
X24945Y-144161D02*
X24945Y-143895D01*
X24945Y-143933D02*
X24926Y-143914D01*
X24888Y-143895D01*
X24830Y-143895D01*
X24792Y-143914D01*
X24773Y-143952D01*
X24773Y-144161D01*
X24773Y-143952D02*
X24754Y-143914D01*
X24716Y-143895D01*
X24659Y-143895D01*
X24621Y-143914D01*
X24602Y-143952D01*
X24602Y-144161D01*
X24126Y-143742D02*
X24469Y-144257D01*
X23992Y-143895D02*
X23992Y-144295D01*
X23992Y-143914D02*
X23954Y-143895D01*
X23878Y-143895D01*
X23840Y-143914D01*
X23821Y-143933D01*
X23802Y-143971D01*
X23802Y-144085D01*
X23821Y-144123D01*
X23840Y-144142D01*
X23878Y-144161D01*
X23954Y-144161D01*
X23992Y-144142D01*
X23478Y-144142D02*
X23516Y-144161D01*
X23592Y-144161D01*
X23630Y-144142D01*
X23649Y-144104D01*
X23649Y-143952D01*
X23630Y-143914D01*
X23592Y-143895D01*
X23516Y-143895D01*
X23478Y-143914D01*
X23459Y-143952D01*
X23459Y-143990D01*
X23649Y-144028D01*
X23288Y-143895D02*
X23288Y-144295D01*
X23288Y-143914D02*
X23249Y-143895D01*
X23173Y-143895D01*
X23135Y-143914D01*
X23116Y-143933D01*
X23097Y-143971D01*
X23097Y-144085D01*
X23116Y-144123D01*
X23135Y-144142D01*
X23173Y-144161D01*
X23249Y-144161D01*
X23288Y-144142D01*
X22754Y-144161D02*
X22754Y-143952D01*
X22773Y-143914D01*
X22811Y-143895D01*
X22888Y-143895D01*
X22926Y-143914D01*
X22754Y-144142D02*
X22792Y-144161D01*
X22888Y-144161D01*
X22926Y-144142D01*
X22945Y-144104D01*
X22945Y-144066D01*
X22926Y-144028D01*
X22888Y-144009D01*
X22792Y-144009D01*
X22754Y-143990D01*
X22583Y-144142D02*
X22545Y-144161D01*
X22469Y-144161D01*
X22430Y-144142D01*
X22411Y-144104D01*
X22411Y-144085D01*
X22430Y-144047D01*
X22469Y-144028D01*
X22526Y-144028D01*
X22564Y-144009D01*
X22583Y-143971D01*
X22583Y-143952D01*
X22564Y-143914D01*
X22526Y-143895D01*
X22469Y-143895D01*
X22430Y-143914D01*
X22183Y-144161D02*
X22221Y-144142D01*
X22240Y-144104D01*
X22240Y-143761D01*
X21859Y-144161D02*
X21859Y-143952D01*
X21878Y-143914D01*
X21916Y-143895D01*
X21992Y-143895D01*
X22030Y-143914D01*
X21859Y-144142D02*
X21897Y-144161D01*
X21992Y-144161D01*
X22030Y-144142D01*
X22050Y-144104D01*
X22050Y-144066D01*
X22030Y-144028D01*
X21992Y-144009D01*
X21897Y-144009D01*
X21859Y-143990D01*
X21669Y-144161D02*
X21669Y-143761D01*
X21669Y-143914D02*
X21630Y-143895D01*
X21554Y-143895D01*
X21516Y-143914D01*
X21497Y-143933D01*
X21478Y-143971D01*
X21478Y-144085D01*
X21497Y-144123D01*
X21516Y-144142D01*
X21554Y-144161D01*
X21630Y-144161D01*
X21669Y-144142D01*
X21326Y-144142D02*
X21288Y-144161D01*
X21211Y-144161D01*
X21173Y-144142D01*
X21154Y-144104D01*
X21154Y-144085D01*
X21173Y-144047D01*
X21211Y-144028D01*
X21269Y-144028D01*
X21307Y-144009D01*
X21326Y-143971D01*
X21326Y-143952D01*
X21307Y-143914D01*
X21269Y-143895D01*
X21211Y-143895D01*
X21173Y-143914D01*
X20697Y-143742D02*
X21040Y-144257D01*
X20392Y-144161D02*
X20392Y-143952D01*
X20411Y-143914D01*
X20450Y-143895D01*
X20526Y-143895D01*
X20564Y-143914D01*
X20392Y-144142D02*
X20430Y-144161D01*
X20526Y-144161D01*
X20564Y-144142D01*
X20583Y-144104D01*
X20583Y-144066D01*
X20564Y-144028D01*
X20526Y-144009D01*
X20430Y-144009D01*
X20392Y-143990D01*
X20259Y-143895D02*
X20107Y-143895D01*
X20202Y-143761D02*
X20202Y-144104D01*
X20183Y-144142D01*
X20145Y-144161D01*
X20107Y-144161D01*
X19973Y-144161D02*
X19973Y-143895D01*
X19973Y-143933D02*
X19954Y-143914D01*
X19916Y-143895D01*
X19859Y-143895D01*
X19821Y-143914D01*
X19802Y-143952D01*
X19802Y-144161D01*
X19802Y-143952D02*
X19783Y-143914D01*
X19745Y-143895D01*
X19688Y-143895D01*
X19650Y-143914D01*
X19630Y-143952D01*
X19630Y-144161D01*
X19288Y-144142D02*
X19326Y-144161D01*
X19402Y-144161D01*
X19440Y-144142D01*
X19459Y-144104D01*
X19459Y-143952D01*
X19440Y-143914D01*
X19402Y-143895D01*
X19326Y-143895D01*
X19288Y-143914D01*
X19269Y-143952D01*
X19269Y-143990D01*
X19459Y-144028D01*
X18926Y-143895D02*
X18926Y-144219D01*
X18945Y-144257D01*
X18964Y-144276D01*
X19002Y-144295D01*
X19059Y-144295D01*
X19097Y-144276D01*
X18926Y-144142D02*
X18964Y-144161D01*
X19040Y-144161D01*
X19078Y-144142D01*
X19097Y-144123D01*
X19116Y-144085D01*
X19116Y-143971D01*
X19097Y-143933D01*
X19078Y-143914D01*
X19040Y-143895D01*
X18964Y-143895D01*
X18926Y-143914D01*
X18564Y-144161D02*
X18564Y-143952D01*
X18583Y-143914D01*
X18621Y-143895D01*
X18697Y-143895D01*
X18735Y-143914D01*
X18564Y-144142D02*
X18602Y-144161D01*
X18697Y-144161D01*
X18735Y-144142D01*
X18754Y-144104D01*
X18754Y-144066D01*
X18735Y-144028D01*
X18697Y-144009D01*
X18602Y-144009D01*
X18564Y-143990D01*
X18373Y-144009D02*
X18069Y-144009D01*
X17707Y-143895D02*
X17707Y-144219D01*
X17726Y-144257D01*
X17745Y-144276D01*
X17783Y-144295D01*
X17840Y-144295D01*
X17878Y-144276D01*
X17707Y-144142D02*
X17745Y-144161D01*
X17821Y-144161D01*
X17859Y-144142D01*
X17878Y-144123D01*
X17897Y-144085D01*
X17897Y-143971D01*
X17878Y-143933D01*
X17859Y-143914D01*
X17821Y-143895D01*
X17745Y-143895D01*
X17707Y-143914D01*
X17516Y-143895D02*
X17516Y-144295D01*
X17516Y-143914D02*
X17478Y-143895D01*
X17402Y-143895D01*
X17364Y-143914D01*
X17345Y-143933D01*
X17326Y-143971D01*
X17326Y-144085D01*
X17345Y-144123D01*
X17364Y-144142D01*
X17402Y-144161D01*
X17478Y-144161D01*
X17516Y-144142D01*
X17154Y-144161D02*
X17154Y-143895D01*
X17154Y-143761D02*
X17173Y-143780D01*
X17154Y-143800D01*
X17135Y-143780D01*
X17154Y-143761D01*
X17154Y-143800D01*
X16964Y-144161D02*
X16964Y-143761D01*
X16964Y-143914D02*
X16926Y-143895D01*
X16850Y-143895D01*
X16811Y-143914D01*
X16792Y-143933D01*
X16773Y-143971D01*
X16773Y-144085D01*
X16792Y-144123D01*
X16811Y-144142D01*
X16850Y-144161D01*
X16926Y-144161D01*
X16964Y-144142D01*
G54D13*
X31250Y-144446D02*
X31261Y-144434D01*
X31285Y-144398D01*
X31297Y-144375D01*
X31309Y-144339D01*
X31321Y-144279D01*
X31321Y-144232D01*
X31309Y-144172D01*
X31297Y-144136D01*
X31285Y-144113D01*
X31261Y-144077D01*
X31250Y-144065D01*
X31178Y-144184D02*
X31119Y-144351D01*
X31059Y-144184D01*
X30976Y-144125D02*
X30964Y-144113D01*
X30940Y-144101D01*
X30880Y-144101D01*
X30857Y-144113D01*
X30845Y-144125D01*
X30833Y-144148D01*
X30833Y-144172D01*
X30845Y-144208D01*
X30988Y-144351D01*
X30833Y-144351D01*
X30750Y-144446D02*
X30738Y-144434D01*
X30714Y-144398D01*
X30702Y-144375D01*
X30690Y-144339D01*
X30678Y-144279D01*
X30678Y-144232D01*
X30690Y-144172D01*
X30702Y-144136D01*
X30714Y-144113D01*
X30738Y-144077D01*
X30750Y-144065D01*
G54D14*
X34071Y-143071D02*
X33785Y-143071D01*
X34128Y-143242D02*
X33928Y-142642D01*
X33728Y-143242D01*
X33614Y-142642D02*
X33271Y-142642D01*
X33442Y-143242D02*
X33442Y-142642D01*
X33071Y-143242D02*
X33071Y-142842D01*
X33071Y-142900D02*
X33042Y-142871D01*
X32985Y-142842D01*
X32899Y-142842D01*
X32842Y-142871D01*
X32814Y-142928D01*
X32814Y-143242D01*
X32814Y-142928D02*
X32785Y-142871D01*
X32728Y-142842D01*
X32642Y-142842D01*
X32585Y-142871D01*
X32557Y-142928D01*
X32557Y-143242D01*
X32042Y-143214D02*
X32099Y-143242D01*
X32214Y-143242D01*
X32271Y-143214D01*
X32299Y-143157D01*
X32299Y-142928D01*
X32271Y-142871D01*
X32214Y-142842D01*
X32099Y-142842D01*
X32042Y-142871D01*
X32014Y-142928D01*
X32014Y-142985D01*
X32299Y-143042D01*
X31499Y-142842D02*
X31499Y-143328D01*
X31528Y-143385D01*
X31557Y-143414D01*
X31614Y-143442D01*
X31699Y-143442D01*
X31757Y-143414D01*
X31499Y-143214D02*
X31557Y-143242D01*
X31671Y-143242D01*
X31728Y-143214D01*
X31757Y-143185D01*
X31785Y-143128D01*
X31785Y-142957D01*
X31757Y-142900D01*
X31728Y-142871D01*
X31671Y-142842D01*
X31557Y-142842D01*
X31499Y-142871D01*
X30957Y-143242D02*
X30957Y-142928D01*
X30985Y-142871D01*
X31042Y-142842D01*
X31157Y-142842D01*
X31214Y-142871D01*
X30957Y-143214D02*
X31014Y-143242D01*
X31157Y-143242D01*
X31214Y-143214D01*
X31242Y-143157D01*
X31242Y-143100D01*
X31214Y-143042D01*
X31157Y-143014D01*
X31014Y-143014D01*
X30957Y-142985D01*
X33085Y-143631D02*
X33142Y-143602D01*
X33228Y-143602D01*
X33314Y-143631D01*
X33371Y-143688D01*
X33400Y-143745D01*
X33428Y-143860D01*
X33428Y-143945D01*
X33400Y-144060D01*
X33371Y-144117D01*
X33314Y-144174D01*
X33228Y-144202D01*
X33171Y-144202D01*
X33085Y-144174D01*
X33057Y-144145D01*
X33057Y-143945D01*
X33171Y-143945D01*
X32800Y-144202D02*
X32800Y-143602D01*
X32571Y-143602D01*
X32514Y-143631D01*
X32485Y-143660D01*
X32457Y-143717D01*
X32457Y-143802D01*
X32485Y-143860D01*
X32514Y-143888D01*
X32571Y-143917D01*
X32800Y-143917D01*
X32200Y-144202D02*
X32200Y-143602D01*
X31714Y-143888D02*
X31628Y-143917D01*
X31600Y-143945D01*
X31571Y-144002D01*
X31571Y-144088D01*
X31600Y-144145D01*
X31628Y-144174D01*
X31685Y-144202D01*
X31914Y-144202D01*
X31914Y-143602D01*
X31714Y-143602D01*
X31657Y-143631D01*
X31628Y-143660D01*
X31600Y-143717D01*
X31600Y-143774D01*
X31628Y-143831D01*
X31657Y-143860D01*
X31714Y-143888D01*
X31914Y-143888D01*
G54D15*
G36*
X32977Y-146707D02*
X32969Y-146703D01*
X32950Y-146691D01*
X32924Y-146674D01*
X32893Y-146653D01*
X32862Y-146632D01*
X32836Y-146615D01*
X32818Y-146603D01*
X32811Y-146599D01*
X32807Y-146600D01*
X32792Y-146608D01*
X32770Y-146619D01*
X32758Y-146625D01*
X32738Y-146634D01*
X32728Y-146636D01*
X32727Y-146633D01*
X32719Y-146618D01*
X32708Y-146592D01*
X32693Y-146558D01*
X32676Y-146518D01*
X32658Y-146475D01*
X32640Y-146431D01*
X32622Y-146389D01*
X32607Y-146351D01*
X32594Y-146321D01*
X32586Y-146299D01*
X32583Y-146290D01*
X32584Y-146288D01*
X32594Y-146279D01*
X32611Y-146266D01*
X32649Y-146235D01*
X32685Y-146189D01*
X32708Y-146137D01*
X32715Y-146079D01*
X32709Y-146026D01*
X32688Y-145975D01*
X32652Y-145928D01*
X32608Y-145894D01*
X32557Y-145872D01*
X32500Y-145865D01*
X32445Y-145871D01*
X32393Y-145892D01*
X32346Y-145927D01*
X32327Y-145950D01*
X32300Y-145997D01*
X32284Y-146047D01*
X32283Y-146059D01*
X32285Y-146115D01*
X32301Y-146168D01*
X32330Y-146215D01*
X32371Y-146254D01*
X32376Y-146258D01*
X32395Y-146272D01*
X32407Y-146281D01*
X32417Y-146289D01*
X32347Y-146459D01*
X32336Y-146486D01*
X32316Y-146532D01*
X32299Y-146572D01*
X32286Y-146604D01*
X32276Y-146625D01*
X32272Y-146634D01*
X32272Y-146634D01*
X32266Y-146635D01*
X32253Y-146630D01*
X32229Y-146619D01*
X32213Y-146611D01*
X32195Y-146602D01*
X32187Y-146599D01*
X32180Y-146603D01*
X32163Y-146614D01*
X32138Y-146631D01*
X32108Y-146651D01*
X32079Y-146671D01*
X32052Y-146689D01*
X32033Y-146701D01*
X32023Y-146706D01*
X32022Y-146706D01*
X32014Y-146701D01*
X31998Y-146689D01*
X31975Y-146667D01*
X31943Y-146635D01*
X31938Y-146630D01*
X31911Y-146602D01*
X31889Y-146579D01*
X31874Y-146563D01*
X31869Y-146556D01*
X31869Y-146556D01*
X31874Y-146546D01*
X31886Y-146527D01*
X31904Y-146500D01*
X31925Y-146469D01*
X31981Y-146387D01*
X31950Y-146310D01*
X31941Y-146287D01*
X31929Y-146258D01*
X31920Y-146238D01*
X31915Y-146229D01*
X31907Y-146226D01*
X31886Y-146221D01*
X31855Y-146214D01*
X31819Y-146208D01*
X31784Y-146201D01*
X31753Y-146195D01*
X31730Y-146191D01*
X31720Y-146189D01*
X31718Y-146187D01*
X31716Y-146182D01*
X31714Y-146172D01*
X31714Y-146153D01*
X31713Y-146123D01*
X31713Y-146079D01*
X31713Y-146075D01*
X31714Y-146033D01*
X31714Y-146000D01*
X31715Y-145979D01*
X31717Y-145971D01*
X31717Y-145971D01*
X31727Y-145968D01*
X31749Y-145964D01*
X31780Y-145957D01*
X31818Y-145950D01*
X31820Y-145950D01*
X31857Y-145943D01*
X31888Y-145936D01*
X31910Y-145931D01*
X31919Y-145928D01*
X31921Y-145926D01*
X31929Y-145911D01*
X31940Y-145888D01*
X31952Y-145860D01*
X31964Y-145831D01*
X31975Y-145804D01*
X31982Y-145785D01*
X31984Y-145776D01*
X31984Y-145776D01*
X31978Y-145767D01*
X31965Y-145747D01*
X31947Y-145721D01*
X31925Y-145689D01*
X31924Y-145686D01*
X31902Y-145655D01*
X31885Y-145628D01*
X31873Y-145609D01*
X31869Y-145601D01*
X31869Y-145600D01*
X31876Y-145591D01*
X31892Y-145573D01*
X31915Y-145549D01*
X31943Y-145521D01*
X31952Y-145513D01*
X31982Y-145483D01*
X32003Y-145463D01*
X32017Y-145453D01*
X32023Y-145450D01*
X32023Y-145451D01*
X32033Y-145456D01*
X32053Y-145469D01*
X32080Y-145488D01*
X32112Y-145509D01*
X32114Y-145511D01*
X32145Y-145532D01*
X32171Y-145550D01*
X32190Y-145562D01*
X32198Y-145567D01*
X32200Y-145567D01*
X32212Y-145563D01*
X32235Y-145556D01*
X32262Y-145545D01*
X32291Y-145533D01*
X32318Y-145522D01*
X32338Y-145513D01*
X32347Y-145508D01*
X32347Y-145507D01*
X32351Y-145496D01*
X32356Y-145472D01*
X32363Y-145440D01*
X32370Y-145401D01*
X32371Y-145395D01*
X32378Y-145358D01*
X32384Y-145327D01*
X32389Y-145305D01*
X32391Y-145296D01*
X32396Y-145295D01*
X32415Y-145294D01*
X32443Y-145293D01*
X32477Y-145293D01*
X32512Y-145293D01*
X32546Y-145294D01*
X32576Y-145295D01*
X32597Y-145296D01*
X32606Y-145298D01*
X32607Y-145299D01*
X32610Y-145310D01*
X32615Y-145334D01*
X32622Y-145366D01*
X32629Y-145405D01*
X32630Y-145412D01*
X32637Y-145449D01*
X32644Y-145480D01*
X32648Y-145501D01*
X32651Y-145509D01*
X32654Y-145511D01*
X32669Y-145518D01*
X32694Y-145528D01*
X32726Y-145541D01*
X32798Y-145570D01*
X32886Y-145509D01*
X32894Y-145504D01*
X32926Y-145482D01*
X32952Y-145465D01*
X32970Y-145453D01*
X32978Y-145449D01*
X32978Y-145449D01*
X32987Y-145457D01*
X33005Y-145473D01*
X33029Y-145497D01*
X33056Y-145524D01*
X33077Y-145545D01*
X33101Y-145570D01*
X33117Y-145586D01*
X33125Y-145597D01*
X33128Y-145604D01*
X33127Y-145608D01*
X33122Y-145617D01*
X33109Y-145636D01*
X33091Y-145663D01*
X33069Y-145694D01*
X33051Y-145721D01*
X33032Y-145750D01*
X33020Y-145771D01*
X33015Y-145782D01*
X33016Y-145786D01*
X33023Y-145803D01*
X33033Y-145830D01*
X33046Y-145861D01*
X33077Y-145931D01*
X33123Y-145939D01*
X33151Y-145945D01*
X33190Y-145952D01*
X33227Y-145959D01*
X33285Y-145971D01*
X33287Y-146183D01*
X33278Y-146187D01*
X33269Y-146190D01*
X33248Y-146194D01*
X33217Y-146200D01*
X33181Y-146207D01*
X33150Y-146213D01*
X33119Y-146219D01*
X33097Y-146223D01*
X33087Y-146225D01*
X33084Y-146229D01*
X33076Y-146244D01*
X33065Y-146268D01*
X33053Y-146297D01*
X33041Y-146326D01*
X33030Y-146354D01*
X33022Y-146375D01*
X33019Y-146386D01*
X33023Y-146394D01*
X33035Y-146412D01*
X33052Y-146438D01*
X33073Y-146469D01*
X33095Y-146500D01*
X33112Y-146527D01*
X33125Y-146546D01*
X33130Y-146554D01*
X33127Y-146560D01*
X33115Y-146575D01*
X33092Y-146599D01*
X33057Y-146634D01*
X33051Y-146639D01*
X33024Y-146666D01*
X33000Y-146687D01*
X32984Y-146702D01*
X32977Y-146707D01*
X32977Y-146707D01*
G37*
M02*
