M48
;DRILL file {Pcbnew (22-Jun-2014 BZR 4027)-stable} date Sat 02 Sep 2017 10:45:36 PM CDT
;FORMAT={-:-/ absolute / inch / decimal}
FMAT,2
INCH,TZ
T1C0.016
T2C0.032
T3C0.040
T4C0.091
T5C0.140
%
G90
G05
M72
T1
X5.125Y-3.775
X5.125Y-3.875
X5.275Y-3.875
X5.275Y-4.05
X5.375Y-3.875
X5.375Y-4.05
X5.725Y-3.825
X6.15Y-3.825
T2
X4.725Y-3.675
X4.725Y-3.975
X4.725Y-4.175
X4.725Y-4.475
X4.755Y-4.075
X4.825Y-3.675
X4.825Y-3.975
X4.825Y-4.175
X4.825Y-4.475
X4.88Y-4.075
X4.925Y-3.675
X4.925Y-3.975
X4.925Y-4.175
X4.925Y-4.475
X5.025Y-3.675
X5.025Y-3.975
X5.025Y-4.175
X5.025Y-4.475
X5.125Y-3.675
X5.125Y-3.975
X5.125Y-4.175
X5.125Y-4.475
X5.1325Y-3.2405
X5.1325Y-3.4095
X5.2175Y-3.2405
X5.2175Y-3.4095
X5.225Y-3.675
X5.225Y-3.975
X5.225Y-4.175
X5.225Y-4.475
X5.225Y-4.625
X5.225Y-4.75
X5.3025Y-3.2405
X5.3025Y-3.4095
X5.325Y-3.675
X5.325Y-3.975
X5.325Y-4.175
X5.325Y-4.475
X5.325Y-4.625
X5.325Y-4.75
X5.3875Y-3.2405
X5.3875Y-3.4095
X5.425Y-3.675
X5.425Y-3.975
X5.45Y-4.1
X5.4725Y-3.2405
X5.4725Y-3.4095
X5.525Y-3.675
X5.525Y-3.975
X5.525Y-4.275
X5.525Y-4.375
X5.525Y-4.475
X5.525Y-4.575
X5.5575Y-3.2405
X5.5575Y-3.4095
X5.575Y-4.1
X5.625Y-3.675
X5.625Y-3.975
X5.6425Y-3.2405
X5.6425Y-3.4095
X5.725Y-3.675
X5.725Y-3.975
X5.7275Y-3.2405
X5.7275Y-3.4095
X5.8125Y-3.2405
X5.8125Y-3.4095
X5.825Y-3.675
X5.825Y-3.975
X5.8975Y-3.2405
X5.8975Y-3.4095
X5.925Y-3.675
X5.925Y-3.975
X5.925Y-4.275
X5.925Y-4.375
X5.925Y-4.475
X5.925Y-4.575
X5.9825Y-3.2405
X5.9825Y-3.4095
X6.025Y-3.675
X6.025Y-3.975
X6.0675Y-3.2405
X6.0675Y-3.4095
X6.075Y-4.3
X6.075Y-4.425
X6.075Y-4.525
X6.075Y-4.65
X6.15Y-3.55
X6.15Y-3.95
X6.175Y-4.05
X6.175Y-4.15
X6.24Y-4.425
X6.24Y-4.525
X6.3187Y-4.425
X6.3187Y-4.525
X6.375Y-4.1
X6.5Y-4.1
T3
X4.775Y-4.775
X4.875Y-4.775
X4.975Y-4.775
X5.075Y-4.775
X5.625Y-4.7
X5.625Y-4.8
X5.725Y-4.1
X5.825Y-4.1
X5.825Y-4.7
X5.825Y-4.8
X6.3Y-3.575
X6.3Y-3.675
X6.475Y-3.575
X6.475Y-3.975
T4
X6.425Y-4.2388
X6.425Y-4.7112
T5
X4.675Y-3.325
X6.525Y-3.325
T0
M30
