G04 (created by PCBNEW (22-Jun-2014 BZR 4027)-stable) date Sat 02 Sep 2017 10:45:24 PM CDT*
%MOIN*%
G04 Gerber Fmt 3.4, Leading zero omitted, Abs format*
%FSLAX34Y34*%
G01*
G70*
G90*
G04 APERTURE LIST*
%ADD10C,0.00393701*%
%ADD11C,0.008*%
%ADD12C,0.01*%
%ADD13C,0.00590551*%
%ADD14C,0.006*%
%ADD15C,0.005*%
G04 APERTURE END LIST*
G54D10*
G54D11*
X50988Y-46311D02*
X50988Y-46121D01*
X50797Y-46102D01*
X50816Y-46121D01*
X50835Y-46159D01*
X50835Y-46254D01*
X50816Y-46292D01*
X50797Y-46311D01*
X50759Y-46330D01*
X50664Y-46330D01*
X50626Y-46311D01*
X50607Y-46292D01*
X50588Y-46254D01*
X50588Y-46159D01*
X50607Y-46121D01*
X50626Y-46102D01*
X50988Y-46445D02*
X50588Y-46578D01*
X50988Y-46711D01*
X49988Y-46102D02*
X49988Y-46330D01*
X49588Y-46216D02*
X49988Y-46216D01*
X49988Y-46426D02*
X49588Y-46692D01*
X49988Y-46692D02*
X49588Y-46426D01*
X48588Y-46292D02*
X48778Y-46159D01*
X48588Y-46064D02*
X48988Y-46064D01*
X48988Y-46216D01*
X48969Y-46254D01*
X48950Y-46273D01*
X48911Y-46292D01*
X48854Y-46292D01*
X48816Y-46273D01*
X48797Y-46254D01*
X48778Y-46216D01*
X48778Y-46064D01*
X48988Y-46426D02*
X48588Y-46692D01*
X48988Y-46692D02*
X48588Y-46426D01*
X47969Y-45835D02*
X47988Y-45797D01*
X47988Y-45740D01*
X47969Y-45683D01*
X47930Y-45645D01*
X47892Y-45626D01*
X47816Y-45607D01*
X47759Y-45607D01*
X47683Y-45626D01*
X47645Y-45645D01*
X47607Y-45683D01*
X47588Y-45740D01*
X47588Y-45778D01*
X47607Y-45835D01*
X47626Y-45854D01*
X47759Y-45854D01*
X47759Y-45778D01*
X47588Y-46026D02*
X47988Y-46026D01*
X47588Y-46254D01*
X47988Y-46254D01*
X47588Y-46445D02*
X47988Y-46445D01*
X47988Y-46540D01*
X47969Y-46597D01*
X47930Y-46635D01*
X47892Y-46654D01*
X47816Y-46673D01*
X47759Y-46673D01*
X47683Y-46654D01*
X47645Y-46635D01*
X47607Y-46597D01*
X47588Y-46540D01*
X47588Y-46445D01*
G54D12*
X60750Y-39250D02*
X53750Y-39250D01*
X53750Y-37250D02*
X60750Y-37250D01*
X50750Y-39250D02*
X53750Y-39250D01*
X50750Y-37250D02*
X53750Y-37250D01*
X47050Y-38250D02*
G75*
G03X46750Y-37950I-300J0D01*
G74*
G01*
X46750Y-38550D02*
G75*
G03X47050Y-38250I0J300D01*
G74*
G01*
X46750Y-37250D02*
X50750Y-37250D01*
X60750Y-37250D02*
X60750Y-39250D01*
X50750Y-39250D02*
X46750Y-39250D01*
X46750Y-39250D02*
X46750Y-37250D01*
X66750Y-29000D02*
X66750Y-35000D01*
X66750Y-35000D02*
X45250Y-35000D01*
X45250Y-35000D02*
X45250Y-29000D01*
X66750Y-29000D02*
X45250Y-29000D01*
X68300Y-47150D02*
X68300Y-42350D01*
X68300Y-42350D02*
X61600Y-42350D01*
X61600Y-42350D02*
X61600Y-47150D01*
X61600Y-47150D02*
X68300Y-47150D01*
X50250Y-48250D02*
X50250Y-47250D01*
X51250Y-48250D02*
X47250Y-48250D01*
X47250Y-48250D02*
X47250Y-47250D01*
X47250Y-47250D02*
X51250Y-47250D01*
X51250Y-47250D02*
X51250Y-48250D01*
X56750Y-40500D02*
X58750Y-40500D01*
X58750Y-40500D02*
X58750Y-41500D01*
X58750Y-41500D02*
X56750Y-41500D01*
X56750Y-41500D02*
X56750Y-40500D01*
X55250Y-43750D02*
X55650Y-43750D01*
X55650Y-43750D02*
X55650Y-43350D01*
X55650Y-43350D02*
X58850Y-43350D01*
X58850Y-43350D02*
X58850Y-44150D01*
X58850Y-44150D02*
X55650Y-44150D01*
X55650Y-44150D02*
X55650Y-43750D01*
X59250Y-43750D02*
X58850Y-43750D01*
X55250Y-42750D02*
X55650Y-42750D01*
X55650Y-42750D02*
X55650Y-42350D01*
X55650Y-42350D02*
X58850Y-42350D01*
X58850Y-42350D02*
X58850Y-43150D01*
X58850Y-43150D02*
X55650Y-43150D01*
X55650Y-43150D02*
X55650Y-42750D01*
X59250Y-42750D02*
X58850Y-42750D01*
X61500Y-39500D02*
X61500Y-39100D01*
X61500Y-39100D02*
X61100Y-39100D01*
X61100Y-39100D02*
X61100Y-35900D01*
X61100Y-35900D02*
X61900Y-35900D01*
X61900Y-35900D02*
X61900Y-39100D01*
X61900Y-39100D02*
X61500Y-39100D01*
X61500Y-35500D02*
X61500Y-35900D01*
X55250Y-45750D02*
X55650Y-45750D01*
X55650Y-45750D02*
X55650Y-45350D01*
X55650Y-45350D02*
X58850Y-45350D01*
X58850Y-45350D02*
X58850Y-46150D01*
X58850Y-46150D02*
X55650Y-46150D01*
X55650Y-46150D02*
X55650Y-45750D01*
X59250Y-45750D02*
X58850Y-45750D01*
X55250Y-44750D02*
X55650Y-44750D01*
X55650Y-44750D02*
X55650Y-44350D01*
X55650Y-44350D02*
X58850Y-44350D01*
X58850Y-44350D02*
X58850Y-45150D01*
X58850Y-45150D02*
X55650Y-45150D01*
X55650Y-45150D02*
X55650Y-44750D01*
X59250Y-44750D02*
X58850Y-44750D01*
X63551Y-36801D02*
X62448Y-36801D01*
X62448Y-35698D02*
G75*
G03X62448Y-36801I551J-551D01*
G74*
G01*
X63551Y-35698D02*
G75*
G03X62448Y-35698I-551J-551D01*
G74*
G01*
X63551Y-36801D02*
G75*
G03X63551Y-35698I-551J551D01*
G74*
G01*
X58801Y-48051D02*
X57698Y-48051D01*
X57698Y-46948D02*
G75*
G03X57698Y-48051I551J-551D01*
G74*
G01*
X58801Y-46948D02*
G75*
G03X57698Y-46948I-551J-551D01*
G74*
G01*
X58801Y-48051D02*
G75*
G03X58801Y-46948I-551J551D01*
G74*
G01*
X56801Y-48051D02*
X55698Y-48051D01*
X55698Y-46948D02*
G75*
G03X55698Y-48051I551J-551D01*
G74*
G01*
X56801Y-46948D02*
G75*
G03X55698Y-46948I-551J-551D01*
G74*
G01*
X56801Y-48051D02*
G75*
G03X56801Y-46948I-551J551D01*
G74*
G01*
X65500Y-39000D02*
X65500Y-36500D01*
X64000Y-39000D02*
X64000Y-36500D01*
X64750Y-39000D02*
X64000Y-39000D01*
X64000Y-36500D02*
X65500Y-36500D01*
X65500Y-39000D02*
X64750Y-39000D01*
X64750Y-35750D02*
X64750Y-36500D01*
X64750Y-39750D02*
X64750Y-39000D01*
X62750Y-41000D02*
G75*
G03X62750Y-41000I-1000J0D01*
G74*
G01*
X49750Y-42250D02*
X46750Y-42250D01*
X49750Y-44250D02*
X46750Y-44250D01*
X53450Y-43250D02*
G75*
G03X53750Y-43550I300J0D01*
G74*
G01*
X53750Y-42950D02*
G75*
G03X53450Y-43250I0J-300D01*
G74*
G01*
X53750Y-44250D02*
X49750Y-44250D01*
X46750Y-44250D02*
X46750Y-42250D01*
X49750Y-42250D02*
X53750Y-42250D01*
X53750Y-42250D02*
X53750Y-44250D01*
X51850Y-45850D02*
X51850Y-47900D01*
X52650Y-45850D02*
X52650Y-47900D01*
X52650Y-47900D02*
X51850Y-47900D01*
X51850Y-45850D02*
X52650Y-45850D01*
X61150Y-44650D02*
X61150Y-42600D01*
X60350Y-44650D02*
X60350Y-42600D01*
X60350Y-42600D02*
X61150Y-42600D01*
X61150Y-44650D02*
X60350Y-44650D01*
X60350Y-44850D02*
X60350Y-46900D01*
X61150Y-44850D02*
X61150Y-46900D01*
X61150Y-46900D02*
X60350Y-46900D01*
X60350Y-44850D02*
X61150Y-44850D01*
X63350Y-41400D02*
X65400Y-41400D01*
X63350Y-40600D02*
X65400Y-40600D01*
X65400Y-40600D02*
X65400Y-41400D01*
X63350Y-41400D02*
X63350Y-40600D01*
X47150Y-41150D02*
X49200Y-41150D01*
X47150Y-40350D02*
X49200Y-40350D01*
X49200Y-40350D02*
X49200Y-41150D01*
X47150Y-41150D02*
X47150Y-40350D01*
X56150Y-40600D02*
X54100Y-40600D01*
X56150Y-41400D02*
X54100Y-41400D01*
X54100Y-41400D02*
X54100Y-40600D01*
X56150Y-40600D02*
X56150Y-41400D01*
X52850Y-45850D02*
X52850Y-47900D01*
X53650Y-45850D02*
X53650Y-47900D01*
X53650Y-47900D02*
X52850Y-47900D01*
X52850Y-45850D02*
X53650Y-45850D01*
G54D11*
X47661Y-38640D02*
X47261Y-38640D01*
X47623Y-38221D02*
X47642Y-38240D01*
X47661Y-38297D01*
X47661Y-38335D01*
X47642Y-38392D01*
X47604Y-38430D01*
X47566Y-38449D01*
X47490Y-38469D01*
X47433Y-38469D01*
X47357Y-38449D01*
X47319Y-38430D01*
X47280Y-38392D01*
X47261Y-38335D01*
X47261Y-38297D01*
X47280Y-38240D01*
X47300Y-38221D01*
X47661Y-37840D02*
X47661Y-38069D01*
X47661Y-37954D02*
X47261Y-37954D01*
X47319Y-37992D01*
X47357Y-38030D01*
X47376Y-38069D01*
X51330Y-38297D02*
X51521Y-38297D01*
X51292Y-38411D02*
X51426Y-38011D01*
X51559Y-38411D01*
X51635Y-38011D02*
X51864Y-38011D01*
X51750Y-38411D02*
X51750Y-38011D01*
X51997Y-38411D02*
X51997Y-38011D01*
X52130Y-38297D01*
X52264Y-38011D01*
X52264Y-38411D01*
X52454Y-38202D02*
X52588Y-38202D01*
X52645Y-38411D02*
X52454Y-38411D01*
X52454Y-38011D01*
X52645Y-38011D01*
X53026Y-38030D02*
X52988Y-38011D01*
X52930Y-38011D01*
X52873Y-38030D01*
X52835Y-38069D01*
X52816Y-38107D01*
X52797Y-38183D01*
X52797Y-38240D01*
X52816Y-38316D01*
X52835Y-38354D01*
X52873Y-38392D01*
X52930Y-38411D01*
X52969Y-38411D01*
X53026Y-38392D01*
X53045Y-38373D01*
X53045Y-38240D01*
X52969Y-38240D01*
X53197Y-38297D02*
X53388Y-38297D01*
X53159Y-38411D02*
X53292Y-38011D01*
X53426Y-38411D01*
X53769Y-38411D02*
X53540Y-38411D01*
X53654Y-38411D02*
X53654Y-38011D01*
X53616Y-38069D01*
X53578Y-38107D01*
X53540Y-38126D01*
X54111Y-38011D02*
X54035Y-38011D01*
X53997Y-38030D01*
X53978Y-38050D01*
X53940Y-38107D01*
X53921Y-38183D01*
X53921Y-38335D01*
X53940Y-38373D01*
X53959Y-38392D01*
X53997Y-38411D01*
X54073Y-38411D01*
X54111Y-38392D01*
X54130Y-38373D01*
X54150Y-38335D01*
X54150Y-38240D01*
X54130Y-38202D01*
X54111Y-38183D01*
X54073Y-38164D01*
X53997Y-38164D01*
X53959Y-38183D01*
X53940Y-38202D01*
X53921Y-38240D01*
X54378Y-38183D02*
X54340Y-38164D01*
X54321Y-38145D01*
X54302Y-38107D01*
X54302Y-38088D01*
X54321Y-38050D01*
X54340Y-38030D01*
X54378Y-38011D01*
X54454Y-38011D01*
X54492Y-38030D01*
X54511Y-38050D01*
X54530Y-38088D01*
X54530Y-38107D01*
X54511Y-38145D01*
X54492Y-38164D01*
X54454Y-38183D01*
X54378Y-38183D01*
X54340Y-38202D01*
X54321Y-38221D01*
X54302Y-38259D01*
X54302Y-38335D01*
X54321Y-38373D01*
X54340Y-38392D01*
X54378Y-38411D01*
X54454Y-38411D01*
X54492Y-38392D01*
X54511Y-38373D01*
X54530Y-38335D01*
X54530Y-38259D01*
X54511Y-38221D01*
X54492Y-38202D01*
X54454Y-38183D01*
X54702Y-38411D02*
X54702Y-38011D01*
X54854Y-38011D01*
X54892Y-38030D01*
X54911Y-38050D01*
X54930Y-38088D01*
X54930Y-38145D01*
X54911Y-38183D01*
X54892Y-38202D01*
X54854Y-38221D01*
X54702Y-38221D01*
X55083Y-38297D02*
X55273Y-38297D01*
X55045Y-38411D02*
X55178Y-38011D01*
X55311Y-38411D01*
X55445Y-38259D02*
X55750Y-38259D01*
X55940Y-38411D02*
X55940Y-38011D01*
X56092Y-38011D01*
X56130Y-38030D01*
X56150Y-38050D01*
X56169Y-38088D01*
X56169Y-38145D01*
X56150Y-38183D01*
X56130Y-38202D01*
X56092Y-38221D01*
X55940Y-38221D01*
X64704Y-29911D02*
X64704Y-29511D01*
X64857Y-29511D01*
X64895Y-29530D01*
X64914Y-29550D01*
X64933Y-29588D01*
X64933Y-29645D01*
X64914Y-29683D01*
X64895Y-29702D01*
X64857Y-29721D01*
X64704Y-29721D01*
X65085Y-29550D02*
X65104Y-29530D01*
X65142Y-29511D01*
X65238Y-29511D01*
X65276Y-29530D01*
X65295Y-29550D01*
X65314Y-29588D01*
X65314Y-29626D01*
X65295Y-29683D01*
X65066Y-29911D01*
X65314Y-29911D01*
G54D13*
X54734Y-30284D02*
X54697Y-30265D01*
X54640Y-30265D01*
X54584Y-30284D01*
X54547Y-30321D01*
X54528Y-30359D01*
X54509Y-30434D01*
X54509Y-30490D01*
X54528Y-30565D01*
X54547Y-30603D01*
X54584Y-30640D01*
X54640Y-30659D01*
X54678Y-30659D01*
X54734Y-30640D01*
X54753Y-30621D01*
X54753Y-30490D01*
X54678Y-30490D01*
X54922Y-30659D02*
X54922Y-30265D01*
X55071Y-30265D01*
X55109Y-30284D01*
X55128Y-30303D01*
X55146Y-30340D01*
X55146Y-30396D01*
X55128Y-30434D01*
X55109Y-30453D01*
X55071Y-30471D01*
X54922Y-30471D01*
X55315Y-30659D02*
X55315Y-30265D01*
X55634Y-30453D02*
X55690Y-30471D01*
X55709Y-30490D01*
X55728Y-30528D01*
X55728Y-30584D01*
X55709Y-30621D01*
X55690Y-30640D01*
X55653Y-30659D01*
X55503Y-30659D01*
X55503Y-30265D01*
X55634Y-30265D01*
X55671Y-30284D01*
X55690Y-30303D01*
X55709Y-30340D01*
X55709Y-30378D01*
X55690Y-30415D01*
X55671Y-30434D01*
X55634Y-30453D01*
X55503Y-30453D01*
X56196Y-30659D02*
X56196Y-30265D01*
X56328Y-30546D01*
X56459Y-30265D01*
X56459Y-30659D01*
X56628Y-30546D02*
X56815Y-30546D01*
X56590Y-30659D02*
X56721Y-30265D01*
X56853Y-30659D01*
X57171Y-30659D02*
X56984Y-30659D01*
X56984Y-30265D01*
X57302Y-30453D02*
X57434Y-30453D01*
X57490Y-30659D02*
X57302Y-30659D01*
X57302Y-30265D01*
X57490Y-30265D01*
G54D11*
X50923Y-31411D02*
X50923Y-31011D01*
X51152Y-31411D01*
X51152Y-31011D01*
X51400Y-31411D02*
X51361Y-31392D01*
X51342Y-31373D01*
X51323Y-31335D01*
X51323Y-31221D01*
X51342Y-31183D01*
X51361Y-31164D01*
X51400Y-31145D01*
X51457Y-31145D01*
X51495Y-31164D01*
X51514Y-31183D01*
X51533Y-31221D01*
X51533Y-31335D01*
X51514Y-31373D01*
X51495Y-31392D01*
X51457Y-31411D01*
X51400Y-31411D01*
X51704Y-31411D02*
X51704Y-31145D01*
X51704Y-31221D02*
X51723Y-31183D01*
X51742Y-31164D01*
X51780Y-31145D01*
X51819Y-31145D01*
X52180Y-31373D02*
X52161Y-31392D01*
X52104Y-31411D01*
X52066Y-31411D01*
X52009Y-31392D01*
X51971Y-31354D01*
X51952Y-31316D01*
X51933Y-31240D01*
X51933Y-31183D01*
X51952Y-31107D01*
X51971Y-31069D01*
X52009Y-31030D01*
X52066Y-31011D01*
X52104Y-31011D01*
X52161Y-31030D01*
X52180Y-31050D01*
X52409Y-31411D02*
X52371Y-31392D01*
X52352Y-31373D01*
X52333Y-31335D01*
X52333Y-31221D01*
X52352Y-31183D01*
X52371Y-31164D01*
X52409Y-31145D01*
X52466Y-31145D01*
X52504Y-31164D01*
X52523Y-31183D01*
X52542Y-31221D01*
X52542Y-31335D01*
X52523Y-31373D01*
X52504Y-31392D01*
X52466Y-31411D01*
X52409Y-31411D01*
X52714Y-31411D02*
X52714Y-31145D01*
X52714Y-31183D02*
X52733Y-31164D01*
X52771Y-31145D01*
X52828Y-31145D01*
X52866Y-31164D01*
X52885Y-31202D01*
X52885Y-31411D01*
X52885Y-31202D02*
X52904Y-31164D01*
X52942Y-31145D01*
X53000Y-31145D01*
X53038Y-31164D01*
X53057Y-31202D01*
X53057Y-31411D01*
X53247Y-31145D02*
X53247Y-31545D01*
X53247Y-31164D02*
X53285Y-31145D01*
X53361Y-31145D01*
X53400Y-31164D01*
X53419Y-31183D01*
X53438Y-31221D01*
X53438Y-31335D01*
X53419Y-31373D01*
X53400Y-31392D01*
X53361Y-31411D01*
X53285Y-31411D01*
X53247Y-31392D01*
X53914Y-31411D02*
X53914Y-31011D01*
X54104Y-31145D02*
X54104Y-31411D01*
X54104Y-31183D02*
X54123Y-31164D01*
X54161Y-31145D01*
X54219Y-31145D01*
X54257Y-31164D01*
X54276Y-31202D01*
X54276Y-31411D01*
X54638Y-31392D02*
X54600Y-31411D01*
X54523Y-31411D01*
X54485Y-31392D01*
X54466Y-31373D01*
X54447Y-31335D01*
X54447Y-31221D01*
X54466Y-31183D01*
X54485Y-31164D01*
X54523Y-31145D01*
X54600Y-31145D01*
X54638Y-31164D01*
X54809Y-31373D02*
X54828Y-31392D01*
X54809Y-31411D01*
X54790Y-31392D01*
X54809Y-31373D01*
X54809Y-31411D01*
X55514Y-31411D02*
X55285Y-31411D01*
X55400Y-31411D02*
X55400Y-31011D01*
X55361Y-31069D01*
X55323Y-31107D01*
X55285Y-31126D01*
X55895Y-31411D02*
X55666Y-31411D01*
X55780Y-31411D02*
X55780Y-31011D01*
X55742Y-31069D01*
X55704Y-31107D01*
X55666Y-31126D01*
X56047Y-31050D02*
X56066Y-31030D01*
X56104Y-31011D01*
X56200Y-31011D01*
X56238Y-31030D01*
X56257Y-31050D01*
X56276Y-31088D01*
X56276Y-31126D01*
X56257Y-31183D01*
X56028Y-31411D01*
X56276Y-31411D01*
X56447Y-31259D02*
X56752Y-31259D01*
X57019Y-31011D02*
X57057Y-31011D01*
X57095Y-31030D01*
X57114Y-31050D01*
X57133Y-31088D01*
X57152Y-31164D01*
X57152Y-31259D01*
X57133Y-31335D01*
X57114Y-31373D01*
X57095Y-31392D01*
X57057Y-31411D01*
X57019Y-31411D01*
X56980Y-31392D01*
X56961Y-31373D01*
X56942Y-31335D01*
X56923Y-31259D01*
X56923Y-31164D01*
X56942Y-31088D01*
X56961Y-31050D01*
X56980Y-31030D01*
X57019Y-31011D01*
X57304Y-31050D02*
X57323Y-31030D01*
X57361Y-31011D01*
X57457Y-31011D01*
X57495Y-31030D01*
X57514Y-31050D01*
X57533Y-31088D01*
X57533Y-31126D01*
X57514Y-31183D01*
X57285Y-31411D01*
X57533Y-31411D01*
X57876Y-31145D02*
X57876Y-31411D01*
X57780Y-30992D02*
X57685Y-31278D01*
X57933Y-31278D01*
X58085Y-31259D02*
X58390Y-31259D01*
X58790Y-31411D02*
X58561Y-31411D01*
X58676Y-31411D02*
X58676Y-31011D01*
X58638Y-31069D01*
X58600Y-31107D01*
X58561Y-31126D01*
X59171Y-31411D02*
X58942Y-31411D01*
X59057Y-31411D02*
X59057Y-31011D01*
X59019Y-31069D01*
X58980Y-31107D01*
X58942Y-31126D01*
X59304Y-31011D02*
X59552Y-31011D01*
X59419Y-31164D01*
X59476Y-31164D01*
X59514Y-31183D01*
X59533Y-31202D01*
X59552Y-31240D01*
X59552Y-31335D01*
X59533Y-31373D01*
X59514Y-31392D01*
X59476Y-31411D01*
X59361Y-31411D01*
X59323Y-31392D01*
X59304Y-31373D01*
X59952Y-31411D02*
X59819Y-31221D01*
X59723Y-31411D02*
X59723Y-31011D01*
X59876Y-31011D01*
X59914Y-31030D01*
X59933Y-31050D01*
X59952Y-31088D01*
X59952Y-31145D01*
X59933Y-31183D01*
X59914Y-31202D01*
X59876Y-31221D01*
X59723Y-31221D01*
X60200Y-31011D02*
X60238Y-31011D01*
X60276Y-31030D01*
X60295Y-31050D01*
X60314Y-31088D01*
X60333Y-31164D01*
X60333Y-31259D01*
X60314Y-31335D01*
X60295Y-31373D01*
X60276Y-31392D01*
X60238Y-31411D01*
X60200Y-31411D01*
X60161Y-31392D01*
X60142Y-31373D01*
X60123Y-31335D01*
X60104Y-31259D01*
X60104Y-31164D01*
X60123Y-31088D01*
X60142Y-31050D01*
X60161Y-31030D01*
X60200Y-31011D01*
X60580Y-31011D02*
X60619Y-31011D01*
X60657Y-31030D01*
X60676Y-31050D01*
X60695Y-31088D01*
X60714Y-31164D01*
X60714Y-31259D01*
X60695Y-31335D01*
X60676Y-31373D01*
X60657Y-31392D01*
X60619Y-31411D01*
X60580Y-31411D01*
X60542Y-31392D01*
X60523Y-31373D01*
X60504Y-31335D01*
X60485Y-31259D01*
X60485Y-31164D01*
X60504Y-31088D01*
X60523Y-31050D01*
X60542Y-31030D01*
X60580Y-31011D01*
X61095Y-31411D02*
X60866Y-31411D01*
X60980Y-31411D02*
X60980Y-31011D01*
X60942Y-31069D01*
X60904Y-31107D01*
X60866Y-31126D01*
X62066Y-46511D02*
X62066Y-46797D01*
X62047Y-46854D01*
X62009Y-46892D01*
X61952Y-46911D01*
X61914Y-46911D01*
X62466Y-46911D02*
X62238Y-46911D01*
X62352Y-46911D02*
X62352Y-46511D01*
X62314Y-46569D01*
X62276Y-46607D01*
X62238Y-46626D01*
X64011Y-45607D02*
X64335Y-45607D01*
X64373Y-45588D01*
X64392Y-45569D01*
X64411Y-45530D01*
X64411Y-45454D01*
X64392Y-45416D01*
X64373Y-45397D01*
X64335Y-45378D01*
X64011Y-45378D01*
X64392Y-45207D02*
X64411Y-45149D01*
X64411Y-45054D01*
X64392Y-45016D01*
X64373Y-44997D01*
X64335Y-44978D01*
X64297Y-44978D01*
X64259Y-44997D01*
X64240Y-45016D01*
X64221Y-45054D01*
X64202Y-45130D01*
X64183Y-45169D01*
X64164Y-45188D01*
X64126Y-45207D01*
X64088Y-45207D01*
X64050Y-45188D01*
X64030Y-45169D01*
X64011Y-45130D01*
X64011Y-45035D01*
X64030Y-44978D01*
X64202Y-44673D02*
X64221Y-44616D01*
X64240Y-44597D01*
X64278Y-44578D01*
X64335Y-44578D01*
X64373Y-44597D01*
X64392Y-44616D01*
X64411Y-44654D01*
X64411Y-44807D01*
X64011Y-44807D01*
X64011Y-44673D01*
X64030Y-44635D01*
X64050Y-44616D01*
X64088Y-44597D01*
X64126Y-44597D01*
X64164Y-44616D01*
X64183Y-44635D01*
X64202Y-44673D01*
X64202Y-44807D01*
X64450Y-44502D02*
X64450Y-44197D01*
X64202Y-43969D02*
X64221Y-43911D01*
X64240Y-43892D01*
X64278Y-43873D01*
X64335Y-43873D01*
X64373Y-43892D01*
X64392Y-43911D01*
X64411Y-43950D01*
X64411Y-44102D01*
X64011Y-44102D01*
X64011Y-43969D01*
X64030Y-43930D01*
X64050Y-43911D01*
X64088Y-43892D01*
X64126Y-43892D01*
X64164Y-43911D01*
X64183Y-43930D01*
X64202Y-43969D01*
X64202Y-44102D01*
G54D14*
X59078Y-40821D02*
X59078Y-41035D01*
X59064Y-41078D01*
X59035Y-41107D01*
X58992Y-41121D01*
X58964Y-41121D01*
X59221Y-41121D02*
X59221Y-40821D01*
X59321Y-41035D01*
X59421Y-40821D01*
X59421Y-41121D01*
X59564Y-41121D02*
X59564Y-40821D01*
X59678Y-40821D01*
X59707Y-40835D01*
X59721Y-40850D01*
X59735Y-40878D01*
X59735Y-40921D01*
X59721Y-40950D01*
X59707Y-40964D01*
X59678Y-40978D01*
X59564Y-40978D01*
X60021Y-41121D02*
X59850Y-41121D01*
X59935Y-41121D02*
X59935Y-40821D01*
X59907Y-40864D01*
X59878Y-40892D01*
X59850Y-40907D01*
X56400Y-43871D02*
X56300Y-43728D01*
X56228Y-43871D02*
X56228Y-43571D01*
X56342Y-43571D01*
X56371Y-43585D01*
X56385Y-43600D01*
X56400Y-43628D01*
X56400Y-43671D01*
X56385Y-43700D01*
X56371Y-43714D01*
X56342Y-43728D01*
X56228Y-43728D01*
X56685Y-43871D02*
X56514Y-43871D01*
X56600Y-43871D02*
X56600Y-43571D01*
X56571Y-43614D01*
X56542Y-43642D01*
X56514Y-43657D01*
X57807Y-43571D02*
X57992Y-43571D01*
X57892Y-43685D01*
X57935Y-43685D01*
X57964Y-43700D01*
X57978Y-43714D01*
X57992Y-43742D01*
X57992Y-43814D01*
X57978Y-43842D01*
X57964Y-43857D01*
X57935Y-43871D01*
X57850Y-43871D01*
X57821Y-43857D01*
X57807Y-43842D01*
X58092Y-43571D02*
X58278Y-43571D01*
X58178Y-43685D01*
X58221Y-43685D01*
X58250Y-43700D01*
X58264Y-43714D01*
X58278Y-43742D01*
X58278Y-43814D01*
X58264Y-43842D01*
X58250Y-43857D01*
X58221Y-43871D01*
X58135Y-43871D01*
X58107Y-43857D01*
X58092Y-43842D01*
X56400Y-42871D02*
X56300Y-42728D01*
X56228Y-42871D02*
X56228Y-42571D01*
X56342Y-42571D01*
X56371Y-42585D01*
X56385Y-42600D01*
X56400Y-42628D01*
X56400Y-42671D01*
X56385Y-42700D01*
X56371Y-42714D01*
X56342Y-42728D01*
X56228Y-42728D01*
X56514Y-42600D02*
X56528Y-42585D01*
X56557Y-42571D01*
X56628Y-42571D01*
X56657Y-42585D01*
X56671Y-42600D01*
X56685Y-42628D01*
X56685Y-42657D01*
X56671Y-42700D01*
X56500Y-42871D01*
X56685Y-42871D01*
X57807Y-42571D02*
X57992Y-42571D01*
X57892Y-42685D01*
X57935Y-42685D01*
X57964Y-42700D01*
X57978Y-42714D01*
X57992Y-42742D01*
X57992Y-42814D01*
X57978Y-42842D01*
X57964Y-42857D01*
X57935Y-42871D01*
X57850Y-42871D01*
X57821Y-42857D01*
X57807Y-42842D01*
X58092Y-42571D02*
X58278Y-42571D01*
X58178Y-42685D01*
X58221Y-42685D01*
X58250Y-42700D01*
X58264Y-42714D01*
X58278Y-42742D01*
X58278Y-42814D01*
X58264Y-42842D01*
X58250Y-42857D01*
X58221Y-42871D01*
X58135Y-42871D01*
X58107Y-42857D01*
X58092Y-42842D01*
X61621Y-38350D02*
X61478Y-38450D01*
X61621Y-38521D02*
X61321Y-38521D01*
X61321Y-38407D01*
X61335Y-38378D01*
X61350Y-38364D01*
X61378Y-38350D01*
X61421Y-38350D01*
X61450Y-38364D01*
X61464Y-38378D01*
X61478Y-38407D01*
X61478Y-38521D01*
X61321Y-38078D02*
X61321Y-38221D01*
X61464Y-38235D01*
X61450Y-38221D01*
X61435Y-38192D01*
X61435Y-38121D01*
X61450Y-38092D01*
X61464Y-38078D01*
X61492Y-38064D01*
X61564Y-38064D01*
X61592Y-38078D01*
X61607Y-38092D01*
X61621Y-38121D01*
X61621Y-38192D01*
X61607Y-38221D01*
X61592Y-38235D01*
X61321Y-37085D02*
X61321Y-36900D01*
X61435Y-37000D01*
X61435Y-36957D01*
X61450Y-36928D01*
X61464Y-36914D01*
X61492Y-36900D01*
X61564Y-36900D01*
X61592Y-36914D01*
X61607Y-36928D01*
X61621Y-36957D01*
X61621Y-37042D01*
X61607Y-37071D01*
X61592Y-37085D01*
X61321Y-36800D02*
X61321Y-36614D01*
X61435Y-36714D01*
X61435Y-36671D01*
X61450Y-36642D01*
X61464Y-36628D01*
X61492Y-36614D01*
X61564Y-36614D01*
X61592Y-36628D01*
X61607Y-36642D01*
X61621Y-36671D01*
X61621Y-36757D01*
X61607Y-36785D01*
X61592Y-36800D01*
X61321Y-36428D02*
X61321Y-36400D01*
X61335Y-36371D01*
X61350Y-36357D01*
X61378Y-36342D01*
X61435Y-36328D01*
X61507Y-36328D01*
X61564Y-36342D01*
X61592Y-36357D01*
X61607Y-36371D01*
X61621Y-36400D01*
X61621Y-36428D01*
X61607Y-36457D01*
X61592Y-36471D01*
X61564Y-36485D01*
X61507Y-36500D01*
X61435Y-36500D01*
X61378Y-36485D01*
X61350Y-36471D01*
X61335Y-36457D01*
X61321Y-36428D01*
X56400Y-45871D02*
X56300Y-45728D01*
X56228Y-45871D02*
X56228Y-45571D01*
X56342Y-45571D01*
X56371Y-45585D01*
X56385Y-45600D01*
X56400Y-45628D01*
X56400Y-45671D01*
X56385Y-45700D01*
X56371Y-45714D01*
X56342Y-45728D01*
X56228Y-45728D01*
X56500Y-45571D02*
X56685Y-45571D01*
X56585Y-45685D01*
X56628Y-45685D01*
X56657Y-45700D01*
X56671Y-45714D01*
X56685Y-45742D01*
X56685Y-45814D01*
X56671Y-45842D01*
X56657Y-45857D01*
X56628Y-45871D01*
X56542Y-45871D01*
X56514Y-45857D01*
X56500Y-45842D01*
X57664Y-45571D02*
X57850Y-45571D01*
X57750Y-45685D01*
X57792Y-45685D01*
X57821Y-45700D01*
X57835Y-45714D01*
X57850Y-45742D01*
X57850Y-45814D01*
X57835Y-45842D01*
X57821Y-45857D01*
X57792Y-45871D01*
X57707Y-45871D01*
X57678Y-45857D01*
X57664Y-45842D01*
X57950Y-45571D02*
X58135Y-45571D01*
X58035Y-45685D01*
X58078Y-45685D01*
X58107Y-45700D01*
X58121Y-45714D01*
X58135Y-45742D01*
X58135Y-45814D01*
X58121Y-45842D01*
X58107Y-45857D01*
X58078Y-45871D01*
X57992Y-45871D01*
X57964Y-45857D01*
X57950Y-45842D01*
X58321Y-45571D02*
X58350Y-45571D01*
X58378Y-45585D01*
X58392Y-45600D01*
X58407Y-45628D01*
X58421Y-45685D01*
X58421Y-45757D01*
X58407Y-45814D01*
X58392Y-45842D01*
X58378Y-45857D01*
X58350Y-45871D01*
X58321Y-45871D01*
X58292Y-45857D01*
X58278Y-45842D01*
X58264Y-45814D01*
X58250Y-45757D01*
X58250Y-45685D01*
X58264Y-45628D01*
X58278Y-45600D01*
X58292Y-45585D01*
X58321Y-45571D01*
X56400Y-44871D02*
X56300Y-44728D01*
X56228Y-44871D02*
X56228Y-44571D01*
X56342Y-44571D01*
X56371Y-44585D01*
X56385Y-44600D01*
X56400Y-44628D01*
X56400Y-44671D01*
X56385Y-44700D01*
X56371Y-44714D01*
X56342Y-44728D01*
X56228Y-44728D01*
X56657Y-44671D02*
X56657Y-44871D01*
X56585Y-44557D02*
X56514Y-44771D01*
X56700Y-44771D01*
X57664Y-44571D02*
X57850Y-44571D01*
X57750Y-44685D01*
X57792Y-44685D01*
X57821Y-44700D01*
X57835Y-44714D01*
X57850Y-44742D01*
X57850Y-44814D01*
X57835Y-44842D01*
X57821Y-44857D01*
X57792Y-44871D01*
X57707Y-44871D01*
X57678Y-44857D01*
X57664Y-44842D01*
X57950Y-44571D02*
X58135Y-44571D01*
X58035Y-44685D01*
X58078Y-44685D01*
X58107Y-44700D01*
X58121Y-44714D01*
X58135Y-44742D01*
X58135Y-44814D01*
X58121Y-44842D01*
X58107Y-44857D01*
X58078Y-44871D01*
X57992Y-44871D01*
X57964Y-44857D01*
X57950Y-44842D01*
X58321Y-44571D02*
X58350Y-44571D01*
X58378Y-44585D01*
X58392Y-44600D01*
X58407Y-44628D01*
X58421Y-44685D01*
X58421Y-44757D01*
X58407Y-44814D01*
X58392Y-44842D01*
X58378Y-44857D01*
X58350Y-44871D01*
X58321Y-44871D01*
X58292Y-44857D01*
X58278Y-44842D01*
X58264Y-44814D01*
X58250Y-44757D01*
X58250Y-44685D01*
X58264Y-44628D01*
X58278Y-44600D01*
X58292Y-44585D01*
X58321Y-44571D01*
G54D12*
X62990Y-38857D02*
X62990Y-38690D01*
X63252Y-38619D02*
X63252Y-38857D01*
X62752Y-38857D01*
X62752Y-38619D01*
X63252Y-38119D02*
X63014Y-38285D01*
X63252Y-38404D02*
X62752Y-38404D01*
X62752Y-38214D01*
X62776Y-38166D01*
X62800Y-38142D01*
X62847Y-38119D01*
X62919Y-38119D01*
X62966Y-38142D01*
X62990Y-38166D01*
X63014Y-38214D01*
X63014Y-38404D01*
X63252Y-37619D02*
X63014Y-37785D01*
X63252Y-37904D02*
X62752Y-37904D01*
X62752Y-37714D01*
X62776Y-37666D01*
X62800Y-37642D01*
X62847Y-37619D01*
X62919Y-37619D01*
X62966Y-37642D01*
X62990Y-37666D01*
X63014Y-37714D01*
X63014Y-37904D01*
X59369Y-47452D02*
X59654Y-47452D01*
X59511Y-47952D02*
X59511Y-47452D01*
X59773Y-47452D02*
X60107Y-47952D01*
X60107Y-47452D02*
X59773Y-47952D01*
X54666Y-47952D02*
X54500Y-47714D01*
X54380Y-47952D02*
X54380Y-47452D01*
X54571Y-47452D01*
X54619Y-47476D01*
X54642Y-47500D01*
X54666Y-47547D01*
X54666Y-47619D01*
X54642Y-47666D01*
X54619Y-47690D01*
X54571Y-47714D01*
X54380Y-47714D01*
X54833Y-47452D02*
X55166Y-47952D01*
X55166Y-47452D02*
X54833Y-47952D01*
G54D14*
X64414Y-37999D02*
X64414Y-38099D01*
X64571Y-38099D02*
X64271Y-38099D01*
X64271Y-37957D01*
X64414Y-37742D02*
X64428Y-37699D01*
X64442Y-37685D01*
X64471Y-37671D01*
X64514Y-37671D01*
X64542Y-37685D01*
X64557Y-37699D01*
X64571Y-37728D01*
X64571Y-37842D01*
X64271Y-37842D01*
X64271Y-37742D01*
X64285Y-37714D01*
X64300Y-37699D01*
X64328Y-37685D01*
X64357Y-37685D01*
X64385Y-37699D01*
X64400Y-37714D01*
X64414Y-37742D01*
X64414Y-37842D01*
X64571Y-37385D02*
X64571Y-37557D01*
X64571Y-37471D02*
X64271Y-37471D01*
X64314Y-37499D01*
X64342Y-37528D01*
X64357Y-37557D01*
X65114Y-38464D02*
X65114Y-38564D01*
X65271Y-38564D02*
X64971Y-38564D01*
X64971Y-38421D01*
X65114Y-38307D02*
X65114Y-38207D01*
X65271Y-38164D02*
X65271Y-38307D01*
X64971Y-38307D01*
X64971Y-38164D01*
X65271Y-37864D02*
X65128Y-37964D01*
X65271Y-38035D02*
X64971Y-38035D01*
X64971Y-37921D01*
X64985Y-37892D01*
X65000Y-37878D01*
X65028Y-37864D01*
X65071Y-37864D01*
X65100Y-37878D01*
X65114Y-37892D01*
X65128Y-37921D01*
X65128Y-38035D01*
X65271Y-37564D02*
X65128Y-37664D01*
X65271Y-37735D02*
X64971Y-37735D01*
X64971Y-37621D01*
X64985Y-37592D01*
X65000Y-37578D01*
X65028Y-37564D01*
X65071Y-37564D01*
X65100Y-37578D01*
X65114Y-37592D01*
X65128Y-37621D01*
X65128Y-37735D01*
X65271Y-37435D02*
X64971Y-37435D01*
X64971Y-37335D02*
X64971Y-37164D01*
X65271Y-37249D02*
X64971Y-37249D01*
X65114Y-37064D02*
X65114Y-36964D01*
X65271Y-36921D02*
X65271Y-37064D01*
X64971Y-37064D01*
X64971Y-36921D01*
G54D15*
X62527Y-41041D02*
X62539Y-41053D01*
X62551Y-41089D01*
X62551Y-41113D01*
X62539Y-41148D01*
X62515Y-41172D01*
X62491Y-41184D01*
X62444Y-41196D01*
X62408Y-41196D01*
X62360Y-41184D01*
X62336Y-41172D01*
X62313Y-41148D01*
X62301Y-41113D01*
X62301Y-41089D01*
X62313Y-41053D01*
X62325Y-41041D01*
X62301Y-40958D02*
X62301Y-40803D01*
X62396Y-40886D01*
X62396Y-40851D01*
X62408Y-40827D01*
X62420Y-40815D01*
X62444Y-40803D01*
X62503Y-40803D01*
X62527Y-40815D01*
X62539Y-40827D01*
X62551Y-40851D01*
X62551Y-40922D01*
X62539Y-40946D01*
X62527Y-40958D01*
X61251Y-41267D02*
X61251Y-41410D01*
X61251Y-41339D02*
X61001Y-41339D01*
X61036Y-41363D01*
X61060Y-41386D01*
X61072Y-41410D01*
X61001Y-41113D02*
X61001Y-41089D01*
X61013Y-41065D01*
X61025Y-41053D01*
X61048Y-41041D01*
X61096Y-41029D01*
X61155Y-41029D01*
X61203Y-41041D01*
X61227Y-41053D01*
X61239Y-41065D01*
X61251Y-41089D01*
X61251Y-41113D01*
X61239Y-41136D01*
X61227Y-41148D01*
X61203Y-41160D01*
X61155Y-41172D01*
X61096Y-41172D01*
X61048Y-41160D01*
X61025Y-41148D01*
X61013Y-41136D01*
X61001Y-41113D01*
X61084Y-40815D02*
X61251Y-40815D01*
X61084Y-40922D02*
X61215Y-40922D01*
X61239Y-40910D01*
X61251Y-40886D01*
X61251Y-40851D01*
X61239Y-40827D01*
X61227Y-40815D01*
X61120Y-40613D02*
X61120Y-40696D01*
X61251Y-40696D02*
X61001Y-40696D01*
X61001Y-40577D01*
G54D14*
X62507Y-40114D02*
X62507Y-39885D01*
X62621Y-40000D02*
X62392Y-40000D01*
G54D11*
X52761Y-43554D02*
X53085Y-43554D01*
X53123Y-43535D01*
X53142Y-43516D01*
X53161Y-43478D01*
X53161Y-43402D01*
X53142Y-43364D01*
X53123Y-43345D01*
X53085Y-43326D01*
X52761Y-43326D01*
X53161Y-42926D02*
X53161Y-43154D01*
X53161Y-43040D02*
X52761Y-43040D01*
X52819Y-43078D01*
X52857Y-43116D01*
X52876Y-43154D01*
X48783Y-43411D02*
X48783Y-43011D01*
X48916Y-43297D01*
X49050Y-43011D01*
X49050Y-43411D01*
X49469Y-43373D02*
X49450Y-43392D01*
X49392Y-43411D01*
X49354Y-43411D01*
X49297Y-43392D01*
X49259Y-43354D01*
X49240Y-43316D01*
X49221Y-43240D01*
X49221Y-43183D01*
X49240Y-43107D01*
X49259Y-43069D01*
X49297Y-43030D01*
X49354Y-43011D01*
X49392Y-43011D01*
X49450Y-43030D01*
X49469Y-43050D01*
X49640Y-43411D02*
X49640Y-43011D01*
X49792Y-43011D01*
X49830Y-43030D01*
X49850Y-43050D01*
X49869Y-43088D01*
X49869Y-43145D01*
X49850Y-43183D01*
X49830Y-43202D01*
X49792Y-43221D01*
X49640Y-43221D01*
X50021Y-43050D02*
X50040Y-43030D01*
X50078Y-43011D01*
X50173Y-43011D01*
X50211Y-43030D01*
X50230Y-43050D01*
X50250Y-43088D01*
X50250Y-43126D01*
X50230Y-43183D01*
X50002Y-43411D01*
X50250Y-43411D01*
X50402Y-43050D02*
X50421Y-43030D01*
X50459Y-43011D01*
X50554Y-43011D01*
X50592Y-43030D01*
X50611Y-43050D01*
X50630Y-43088D01*
X50630Y-43126D01*
X50611Y-43183D01*
X50383Y-43411D01*
X50630Y-43411D01*
X50783Y-43050D02*
X50802Y-43030D01*
X50840Y-43011D01*
X50935Y-43011D01*
X50973Y-43030D01*
X50992Y-43050D01*
X51011Y-43088D01*
X51011Y-43126D01*
X50992Y-43183D01*
X50764Y-43411D01*
X51011Y-43411D01*
X51392Y-43411D02*
X51164Y-43411D01*
X51278Y-43411D02*
X51278Y-43011D01*
X51240Y-43069D01*
X51202Y-43107D01*
X51164Y-43126D01*
X51545Y-43297D02*
X51735Y-43297D01*
X51507Y-43411D02*
X51640Y-43011D01*
X51773Y-43411D01*
G54D15*
X52208Y-45627D02*
X52196Y-45639D01*
X52160Y-45651D01*
X52136Y-45651D01*
X52101Y-45639D01*
X52077Y-45615D01*
X52065Y-45591D01*
X52053Y-45544D01*
X52053Y-45508D01*
X52065Y-45460D01*
X52077Y-45436D01*
X52101Y-45413D01*
X52136Y-45401D01*
X52160Y-45401D01*
X52196Y-45413D01*
X52208Y-45425D01*
X52327Y-45651D02*
X52375Y-45651D01*
X52398Y-45639D01*
X52410Y-45627D01*
X52434Y-45591D01*
X52446Y-45544D01*
X52446Y-45448D01*
X52434Y-45425D01*
X52422Y-45413D01*
X52398Y-45401D01*
X52351Y-45401D01*
X52327Y-45413D01*
X52315Y-45425D01*
X52303Y-45448D01*
X52303Y-45508D01*
X52315Y-45532D01*
X52327Y-45544D01*
X52351Y-45555D01*
X52398Y-45555D01*
X52422Y-45544D01*
X52434Y-45532D01*
X52446Y-45508D01*
X51739Y-48101D02*
X51763Y-48101D01*
X51786Y-48113D01*
X51798Y-48125D01*
X51810Y-48148D01*
X51822Y-48196D01*
X51822Y-48255D01*
X51810Y-48303D01*
X51798Y-48327D01*
X51786Y-48339D01*
X51763Y-48351D01*
X51739Y-48351D01*
X51715Y-48339D01*
X51703Y-48327D01*
X51691Y-48303D01*
X51679Y-48255D01*
X51679Y-48196D01*
X51691Y-48148D01*
X51703Y-48125D01*
X51715Y-48113D01*
X51739Y-48101D01*
X51929Y-48327D02*
X51941Y-48339D01*
X51929Y-48351D01*
X51917Y-48339D01*
X51929Y-48327D01*
X51929Y-48351D01*
X52179Y-48351D02*
X52036Y-48351D01*
X52108Y-48351D02*
X52108Y-48101D01*
X52084Y-48136D01*
X52060Y-48160D01*
X52036Y-48172D01*
X52394Y-48184D02*
X52394Y-48351D01*
X52286Y-48184D02*
X52286Y-48315D01*
X52298Y-48339D01*
X52322Y-48351D01*
X52358Y-48351D01*
X52382Y-48339D01*
X52394Y-48327D01*
X52596Y-48220D02*
X52513Y-48220D01*
X52513Y-48351D02*
X52513Y-48101D01*
X52632Y-48101D01*
X60708Y-42377D02*
X60696Y-42389D01*
X60660Y-42401D01*
X60636Y-42401D01*
X60601Y-42389D01*
X60577Y-42365D01*
X60565Y-42341D01*
X60553Y-42294D01*
X60553Y-42258D01*
X60565Y-42210D01*
X60577Y-42186D01*
X60601Y-42163D01*
X60636Y-42151D01*
X60660Y-42151D01*
X60696Y-42163D01*
X60708Y-42175D01*
X60922Y-42151D02*
X60875Y-42151D01*
X60851Y-42163D01*
X60839Y-42175D01*
X60815Y-42210D01*
X60803Y-42258D01*
X60803Y-42353D01*
X60815Y-42377D01*
X60827Y-42389D01*
X60851Y-42401D01*
X60898Y-42401D01*
X60922Y-42389D01*
X60934Y-42377D01*
X60946Y-42353D01*
X60946Y-42294D01*
X60934Y-42270D01*
X60922Y-42258D01*
X60898Y-42246D01*
X60851Y-42246D01*
X60827Y-42258D01*
X60815Y-42270D01*
X60803Y-42294D01*
X59934Y-43891D02*
X60101Y-43891D01*
X59839Y-43951D02*
X60017Y-44010D01*
X60017Y-43855D01*
X59851Y-43784D02*
X59851Y-43617D01*
X60101Y-43725D01*
X59934Y-43522D02*
X60184Y-43522D01*
X59946Y-43522D02*
X59934Y-43498D01*
X59934Y-43451D01*
X59946Y-43427D01*
X59958Y-43415D01*
X59982Y-43403D01*
X60053Y-43403D01*
X60077Y-43415D01*
X60089Y-43427D01*
X60101Y-43451D01*
X60101Y-43498D01*
X60089Y-43522D01*
X59970Y-43213D02*
X59970Y-43296D01*
X60101Y-43296D02*
X59851Y-43296D01*
X59851Y-43177D01*
X60708Y-47327D02*
X60696Y-47339D01*
X60660Y-47351D01*
X60636Y-47351D01*
X60601Y-47339D01*
X60577Y-47315D01*
X60565Y-47291D01*
X60553Y-47244D01*
X60553Y-47208D01*
X60565Y-47160D01*
X60577Y-47136D01*
X60601Y-47113D01*
X60636Y-47101D01*
X60660Y-47101D01*
X60696Y-47113D01*
X60708Y-47125D01*
X60934Y-47101D02*
X60815Y-47101D01*
X60803Y-47220D01*
X60815Y-47208D01*
X60839Y-47196D01*
X60898Y-47196D01*
X60922Y-47208D01*
X60934Y-47220D01*
X60946Y-47244D01*
X60946Y-47303D01*
X60934Y-47327D01*
X60922Y-47339D01*
X60898Y-47351D01*
X60839Y-47351D01*
X60815Y-47339D01*
X60803Y-47327D01*
X59934Y-46141D02*
X60101Y-46141D01*
X59839Y-46201D02*
X60017Y-46260D01*
X60017Y-46105D01*
X59851Y-46034D02*
X59851Y-45867D01*
X60101Y-45975D01*
X59934Y-45772D02*
X60184Y-45772D01*
X59946Y-45772D02*
X59934Y-45748D01*
X59934Y-45701D01*
X59946Y-45677D01*
X59958Y-45665D01*
X59982Y-45653D01*
X60053Y-45653D01*
X60077Y-45665D01*
X60089Y-45677D01*
X60101Y-45701D01*
X60101Y-45748D01*
X60089Y-45772D01*
X59970Y-45463D02*
X59970Y-45546D01*
X60101Y-45546D02*
X59851Y-45546D01*
X59851Y-45427D01*
X63708Y-40377D02*
X63696Y-40389D01*
X63660Y-40401D01*
X63636Y-40401D01*
X63601Y-40389D01*
X63577Y-40365D01*
X63565Y-40341D01*
X63553Y-40294D01*
X63553Y-40258D01*
X63565Y-40210D01*
X63577Y-40186D01*
X63601Y-40163D01*
X63636Y-40151D01*
X63660Y-40151D01*
X63696Y-40163D01*
X63708Y-40175D01*
X63803Y-40175D02*
X63815Y-40163D01*
X63839Y-40151D01*
X63898Y-40151D01*
X63922Y-40163D01*
X63934Y-40175D01*
X63946Y-40198D01*
X63946Y-40222D01*
X63934Y-40258D01*
X63791Y-40401D01*
X63946Y-40401D01*
X64682Y-41801D02*
X64539Y-41801D01*
X64610Y-41801D02*
X64610Y-41551D01*
X64586Y-41586D01*
X64563Y-41610D01*
X64539Y-41622D01*
X64836Y-41551D02*
X64860Y-41551D01*
X64884Y-41563D01*
X64896Y-41575D01*
X64908Y-41598D01*
X64920Y-41646D01*
X64920Y-41705D01*
X64908Y-41753D01*
X64896Y-41777D01*
X64884Y-41789D01*
X64860Y-41801D01*
X64836Y-41801D01*
X64813Y-41789D01*
X64801Y-41777D01*
X64789Y-41753D01*
X64777Y-41705D01*
X64777Y-41646D01*
X64789Y-41598D01*
X64801Y-41575D01*
X64813Y-41563D01*
X64836Y-41551D01*
X65027Y-41634D02*
X65027Y-41801D01*
X65027Y-41658D02*
X65039Y-41646D01*
X65063Y-41634D01*
X65098Y-41634D01*
X65122Y-41646D01*
X65134Y-41670D01*
X65134Y-41801D01*
X65336Y-41670D02*
X65253Y-41670D01*
X65253Y-41801D02*
X65253Y-41551D01*
X65372Y-41551D01*
X46877Y-40791D02*
X46889Y-40803D01*
X46901Y-40839D01*
X46901Y-40863D01*
X46889Y-40898D01*
X46865Y-40922D01*
X46841Y-40934D01*
X46794Y-40946D01*
X46758Y-40946D01*
X46710Y-40934D01*
X46686Y-40922D01*
X46663Y-40898D01*
X46651Y-40863D01*
X46651Y-40839D01*
X46663Y-40803D01*
X46675Y-40791D01*
X46901Y-40553D02*
X46901Y-40696D01*
X46901Y-40625D02*
X46651Y-40625D01*
X46686Y-40648D01*
X46710Y-40672D01*
X46722Y-40696D01*
X49489Y-40601D02*
X49513Y-40601D01*
X49536Y-40613D01*
X49548Y-40625D01*
X49560Y-40648D01*
X49572Y-40696D01*
X49572Y-40755D01*
X49560Y-40803D01*
X49548Y-40827D01*
X49536Y-40839D01*
X49513Y-40851D01*
X49489Y-40851D01*
X49465Y-40839D01*
X49453Y-40827D01*
X49441Y-40803D01*
X49429Y-40755D01*
X49429Y-40696D01*
X49441Y-40648D01*
X49453Y-40625D01*
X49465Y-40613D01*
X49489Y-40601D01*
X49679Y-40827D02*
X49691Y-40839D01*
X49679Y-40851D01*
X49667Y-40839D01*
X49679Y-40827D01*
X49679Y-40851D01*
X49929Y-40851D02*
X49786Y-40851D01*
X49858Y-40851D02*
X49858Y-40601D01*
X49834Y-40636D01*
X49810Y-40660D01*
X49786Y-40672D01*
X50144Y-40684D02*
X50144Y-40851D01*
X50036Y-40684D02*
X50036Y-40815D01*
X50048Y-40839D01*
X50072Y-40851D01*
X50108Y-40851D01*
X50132Y-40839D01*
X50144Y-40827D01*
X50346Y-40720D02*
X50263Y-40720D01*
X50263Y-40851D02*
X50263Y-40601D01*
X50382Y-40601D01*
X55758Y-41727D02*
X55746Y-41739D01*
X55710Y-41751D01*
X55686Y-41751D01*
X55651Y-41739D01*
X55627Y-41715D01*
X55615Y-41691D01*
X55603Y-41644D01*
X55603Y-41608D01*
X55615Y-41560D01*
X55627Y-41536D01*
X55651Y-41513D01*
X55686Y-41501D01*
X55710Y-41501D01*
X55746Y-41513D01*
X55758Y-41525D01*
X55841Y-41501D02*
X56008Y-41501D01*
X55901Y-41751D01*
X55239Y-40101D02*
X55263Y-40101D01*
X55286Y-40113D01*
X55298Y-40125D01*
X55310Y-40148D01*
X55322Y-40196D01*
X55322Y-40255D01*
X55310Y-40303D01*
X55298Y-40327D01*
X55286Y-40339D01*
X55263Y-40351D01*
X55239Y-40351D01*
X55215Y-40339D01*
X55203Y-40327D01*
X55191Y-40303D01*
X55179Y-40255D01*
X55179Y-40196D01*
X55191Y-40148D01*
X55203Y-40125D01*
X55215Y-40113D01*
X55239Y-40101D01*
X55429Y-40327D02*
X55441Y-40339D01*
X55429Y-40351D01*
X55417Y-40339D01*
X55429Y-40327D01*
X55429Y-40351D01*
X55679Y-40351D02*
X55536Y-40351D01*
X55608Y-40351D02*
X55608Y-40101D01*
X55584Y-40136D01*
X55560Y-40160D01*
X55536Y-40172D01*
X55894Y-40184D02*
X55894Y-40351D01*
X55786Y-40184D02*
X55786Y-40315D01*
X55798Y-40339D01*
X55822Y-40351D01*
X55858Y-40351D01*
X55882Y-40339D01*
X55894Y-40327D01*
X56096Y-40220D02*
X56013Y-40220D01*
X56013Y-40351D02*
X56013Y-40101D01*
X56132Y-40101D01*
X53208Y-45627D02*
X53196Y-45639D01*
X53160Y-45651D01*
X53136Y-45651D01*
X53101Y-45639D01*
X53077Y-45615D01*
X53065Y-45591D01*
X53053Y-45544D01*
X53053Y-45508D01*
X53065Y-45460D01*
X53077Y-45436D01*
X53101Y-45413D01*
X53136Y-45401D01*
X53160Y-45401D01*
X53196Y-45413D01*
X53208Y-45425D01*
X53351Y-45508D02*
X53327Y-45496D01*
X53315Y-45484D01*
X53303Y-45460D01*
X53303Y-45448D01*
X53315Y-45425D01*
X53327Y-45413D01*
X53351Y-45401D01*
X53398Y-45401D01*
X53422Y-45413D01*
X53434Y-45425D01*
X53446Y-45448D01*
X53446Y-45460D01*
X53434Y-45484D01*
X53422Y-45496D01*
X53398Y-45508D01*
X53351Y-45508D01*
X53327Y-45520D01*
X53315Y-45532D01*
X53303Y-45555D01*
X53303Y-45603D01*
X53315Y-45627D01*
X53327Y-45639D01*
X53351Y-45651D01*
X53398Y-45651D01*
X53422Y-45639D01*
X53434Y-45627D01*
X53446Y-45603D01*
X53446Y-45555D01*
X53434Y-45532D01*
X53422Y-45520D01*
X53398Y-45508D01*
X52939Y-48101D02*
X52963Y-48101D01*
X52986Y-48113D01*
X52998Y-48125D01*
X53010Y-48148D01*
X53022Y-48196D01*
X53022Y-48255D01*
X53010Y-48303D01*
X52998Y-48327D01*
X52986Y-48339D01*
X52963Y-48351D01*
X52939Y-48351D01*
X52915Y-48339D01*
X52903Y-48327D01*
X52891Y-48303D01*
X52879Y-48255D01*
X52879Y-48196D01*
X52891Y-48148D01*
X52903Y-48125D01*
X52915Y-48113D01*
X52939Y-48101D01*
X53129Y-48327D02*
X53141Y-48339D01*
X53129Y-48351D01*
X53117Y-48339D01*
X53129Y-48327D01*
X53129Y-48351D01*
X53379Y-48351D02*
X53236Y-48351D01*
X53308Y-48351D02*
X53308Y-48101D01*
X53284Y-48136D01*
X53260Y-48160D01*
X53236Y-48172D01*
X53594Y-48184D02*
X53594Y-48351D01*
X53486Y-48184D02*
X53486Y-48315D01*
X53498Y-48339D01*
X53522Y-48351D01*
X53558Y-48351D01*
X53582Y-48339D01*
X53594Y-48327D01*
X53796Y-48220D02*
X53713Y-48220D01*
X53713Y-48351D02*
X53713Y-48101D01*
X53832Y-48101D01*
M02*
