G04 (created by PCBNEW (22-Jun-2014 BZR 4027)-stable) date Sat 02 Sep 2017 11:43:59 PM CDT*
%MOIN*%
G04 Gerber Fmt 3.4, Leading zero omitted, Abs format*
%FSLAX34Y34*%
G01*
G70*
G90*
G04 APERTURE LIST*
%ADD10C,0.00393701*%
%ADD11C,0.054*%
%ADD12R,0.059X0.0885*%
%ADD13O,0.059X0.0885*%
%ADD14C,0.059*%
%ADD15C,0.1063*%
%ADD16R,0.069X0.069*%
%ADD17C,0.069*%
%ADD18O,0.059X0.059*%
%ADD19O,0.069X0.069*%
%ADD20R,0.059X0.059*%
%ADD21R,0.059X0.064*%
%ADD22R,0.064X0.059*%
%ADD23C,0.023622*%
%ADD24C,0.01*%
G04 APERTURE END LIST*
G54D10*
G54D11*
X58925Y-36095D03*
X59775Y-36095D03*
X57225Y-36095D03*
X58075Y-36095D03*
X58925Y-34405D03*
X58075Y-34405D03*
X57225Y-34405D03*
X59775Y-34405D03*
X56375Y-36095D03*
X55525Y-36095D03*
X54675Y-36095D03*
X53825Y-36095D03*
X56375Y-34405D03*
X55525Y-34405D03*
X54675Y-34405D03*
X53825Y-34405D03*
X60625Y-36095D03*
X61475Y-36095D03*
X62325Y-36095D03*
X63175Y-36095D03*
X60625Y-34405D03*
X61475Y-34405D03*
X62325Y-34405D03*
X63175Y-34405D03*
G54D12*
X49750Y-41602D03*
G54D13*
X50750Y-41602D03*
X51750Y-41602D03*
X52750Y-41602D03*
X52750Y-38897D03*
X51750Y-38897D03*
X50750Y-38897D03*
X49750Y-38897D03*
X53750Y-41602D03*
X54750Y-41602D03*
X55750Y-41602D03*
X53750Y-38897D03*
X54750Y-38897D03*
X55750Y-38897D03*
X56750Y-41602D03*
X57750Y-41602D03*
X58750Y-41602D03*
X59750Y-41602D03*
X60750Y-41602D03*
X61750Y-41602D03*
X62750Y-41602D03*
X56750Y-38897D03*
X57750Y-38897D03*
X58750Y-38897D03*
X59750Y-38897D03*
X60750Y-38897D03*
X61750Y-38897D03*
X62750Y-38897D03*
G54D14*
X64900Y-46250D03*
X64900Y-47250D03*
X65687Y-47250D03*
X65687Y-46250D03*
G54D15*
X66750Y-44388D03*
X66750Y-49112D03*
G54D16*
X53250Y-49750D03*
G54D17*
X52250Y-49750D03*
X51250Y-49750D03*
X50250Y-49750D03*
G54D16*
X59750Y-43000D03*
G54D17*
X60750Y-43000D03*
G54D18*
X57750Y-45750D03*
X61750Y-45750D03*
X57750Y-44750D03*
X61750Y-44750D03*
X64000Y-41500D03*
X64000Y-37500D03*
X57750Y-47750D03*
X61750Y-47750D03*
X57750Y-46750D03*
X61750Y-46750D03*
G54D16*
X65500Y-37750D03*
G54D19*
X65500Y-38750D03*
G54D16*
X60750Y-49000D03*
G54D19*
X60750Y-50000D03*
G54D16*
X58750Y-49000D03*
G54D19*
X58750Y-50000D03*
G54D17*
X67250Y-41750D03*
X67250Y-37750D03*
G54D20*
X64250Y-42500D03*
G54D18*
X64250Y-43500D03*
G54D12*
X55750Y-43897D03*
G54D13*
X54750Y-43897D03*
X53750Y-43897D03*
X52750Y-43897D03*
X52750Y-46602D03*
X53750Y-46602D03*
X54750Y-46602D03*
X55750Y-46602D03*
X51750Y-43897D03*
X50750Y-43897D03*
X49750Y-43897D03*
X51750Y-46602D03*
X50750Y-46602D03*
X49750Y-46602D03*
G54D21*
X54750Y-48300D03*
X54750Y-49450D03*
X63250Y-46200D03*
X63250Y-45050D03*
X63250Y-47300D03*
X63250Y-48450D03*
G54D22*
X66300Y-43000D03*
X67450Y-43000D03*
X50100Y-42750D03*
X51250Y-42750D03*
X58200Y-43000D03*
X57050Y-43000D03*
G54D21*
X55750Y-48300D03*
X55750Y-49450D03*
G54D23*
X64000Y-40250D03*
X59750Y-40250D03*
X56250Y-42500D03*
X55250Y-42500D03*
X53750Y-40750D03*
X53750Y-39750D03*
X55250Y-40750D03*
X56250Y-40750D03*
G54D24*
X59750Y-40250D02*
X64000Y-40250D01*
X55250Y-42500D02*
X56250Y-42500D01*
X53750Y-39750D02*
X53750Y-40750D01*
X56250Y-40750D02*
X55250Y-40750D01*
G54D10*
G36*
X67950Y-48993D02*
X67708Y-49960D01*
X67703Y-49967D01*
X67534Y-50051D01*
X67534Y-49249D01*
X67534Y-44525D01*
X67527Y-44214D01*
X67422Y-43961D01*
X67400Y-43950D01*
X67400Y-43482D01*
X67400Y-43050D01*
X67400Y-42950D01*
X67400Y-42517D01*
X67337Y-42455D01*
X67080Y-42454D01*
X66988Y-42492D01*
X66918Y-42563D01*
X66880Y-42655D01*
X66879Y-42754D01*
X66880Y-42887D01*
X66942Y-42950D01*
X67400Y-42950D01*
X67400Y-43050D01*
X66942Y-43050D01*
X66880Y-43112D01*
X66879Y-43245D01*
X66880Y-43344D01*
X66918Y-43436D01*
X66988Y-43507D01*
X67080Y-43545D01*
X67337Y-43545D01*
X67400Y-43482D01*
X67400Y-43950D01*
X67303Y-43905D01*
X67232Y-43976D01*
X67232Y-43834D01*
X67176Y-43715D01*
X66887Y-43603D01*
X66870Y-43603D01*
X66870Y-43245D01*
X66870Y-42655D01*
X66832Y-42563D01*
X66761Y-42493D01*
X66669Y-42455D01*
X66570Y-42454D01*
X66095Y-42454D01*
X66095Y-38045D01*
X66095Y-37355D01*
X66057Y-37263D01*
X65986Y-37193D01*
X65894Y-37155D01*
X65795Y-37154D01*
X65105Y-37154D01*
X65013Y-37192D01*
X64943Y-37263D01*
X64905Y-37355D01*
X64904Y-37454D01*
X64904Y-38144D01*
X64942Y-38236D01*
X65013Y-38306D01*
X65086Y-38337D01*
X65020Y-38397D01*
X64922Y-38607D01*
X64969Y-38700D01*
X65450Y-38700D01*
X65450Y-38692D01*
X65550Y-38692D01*
X65550Y-38700D01*
X66030Y-38700D01*
X66077Y-38607D01*
X65979Y-38397D01*
X65913Y-38337D01*
X65986Y-38307D01*
X66056Y-38236D01*
X66094Y-38144D01*
X66095Y-38045D01*
X66095Y-42454D01*
X66077Y-42454D01*
X66077Y-38892D01*
X66030Y-38800D01*
X65550Y-38800D01*
X65550Y-39280D01*
X65642Y-39327D01*
X65808Y-39259D01*
X65979Y-39102D01*
X66077Y-38892D01*
X66077Y-42454D01*
X65930Y-42454D01*
X65838Y-42492D01*
X65768Y-42563D01*
X65730Y-42655D01*
X65729Y-42754D01*
X65729Y-43344D01*
X65767Y-43436D01*
X65838Y-43506D01*
X65930Y-43544D01*
X66029Y-43545D01*
X66669Y-43545D01*
X66761Y-43507D01*
X66831Y-43436D01*
X66869Y-43344D01*
X66870Y-43245D01*
X66870Y-43603D01*
X66576Y-43610D01*
X66323Y-43715D01*
X66267Y-43834D01*
X66750Y-44317D01*
X67232Y-43834D01*
X67232Y-43976D01*
X66820Y-44388D01*
X67303Y-44870D01*
X67422Y-44814D01*
X67534Y-44525D01*
X67534Y-49249D01*
X67527Y-48938D01*
X67422Y-48685D01*
X67303Y-48629D01*
X67232Y-48700D01*
X67232Y-48558D01*
X67232Y-44941D01*
X66750Y-44458D01*
X66679Y-44529D01*
X66679Y-44388D01*
X66196Y-43905D01*
X66077Y-43961D01*
X65965Y-44250D01*
X65972Y-44561D01*
X66077Y-44814D01*
X66196Y-44870D01*
X66679Y-44388D01*
X66679Y-44529D01*
X66267Y-44941D01*
X66323Y-45060D01*
X66612Y-45172D01*
X66923Y-45165D01*
X67176Y-45060D01*
X67232Y-44941D01*
X67232Y-48558D01*
X67176Y-48439D01*
X66887Y-48327D01*
X66576Y-48334D01*
X66323Y-48439D01*
X66267Y-48558D01*
X66750Y-49041D01*
X67232Y-48558D01*
X67232Y-48700D01*
X66820Y-49112D01*
X67303Y-49594D01*
X67422Y-49538D01*
X67534Y-49249D01*
X67534Y-50051D01*
X67232Y-50202D01*
X67232Y-49665D01*
X66750Y-49182D01*
X66679Y-49253D01*
X66679Y-49112D01*
X66236Y-48669D01*
X66236Y-46330D01*
X66225Y-46114D01*
X66164Y-45965D01*
X66069Y-45938D01*
X65998Y-46009D01*
X65998Y-45867D01*
X65971Y-45772D01*
X65767Y-45700D01*
X65551Y-45711D01*
X65450Y-45753D01*
X65450Y-39280D01*
X65450Y-38800D01*
X64969Y-38800D01*
X64922Y-38892D01*
X65020Y-39102D01*
X65191Y-39259D01*
X65357Y-39327D01*
X65450Y-39280D01*
X65450Y-45753D01*
X65402Y-45772D01*
X65375Y-45867D01*
X65687Y-46179D01*
X65998Y-45867D01*
X65998Y-46009D01*
X65757Y-46250D01*
X66069Y-46561D01*
X66164Y-46534D01*
X66236Y-46330D01*
X66236Y-48669D01*
X66232Y-48664D01*
X66232Y-47142D01*
X66149Y-46941D01*
X65996Y-46788D01*
X65910Y-46752D01*
X65971Y-46727D01*
X65998Y-46632D01*
X65687Y-46320D01*
X65375Y-46632D01*
X65402Y-46727D01*
X65468Y-46750D01*
X65378Y-46787D01*
X65293Y-46872D01*
X65209Y-46788D01*
X65117Y-46750D01*
X65208Y-46712D01*
X65361Y-46559D01*
X65400Y-46465D01*
X65616Y-46250D01*
X65400Y-46034D01*
X65362Y-45941D01*
X65209Y-45788D01*
X65008Y-45705D01*
X64795Y-45704D01*
X64795Y-42745D01*
X64795Y-42155D01*
X64757Y-42063D01*
X64686Y-41993D01*
X64594Y-41955D01*
X64495Y-41954D01*
X64297Y-41954D01*
X64385Y-41896D01*
X64503Y-41719D01*
X64545Y-41510D01*
X64545Y-41489D01*
X64545Y-37510D01*
X64545Y-37489D01*
X64503Y-37280D01*
X64385Y-37103D01*
X64208Y-36985D01*
X64000Y-36944D01*
X63791Y-36985D01*
X63695Y-37050D01*
X63695Y-35992D01*
X63695Y-34302D01*
X63616Y-34110D01*
X63469Y-33964D01*
X63278Y-33885D01*
X63072Y-33884D01*
X62880Y-33963D01*
X62749Y-34094D01*
X62619Y-33964D01*
X62428Y-33885D01*
X62222Y-33884D01*
X62030Y-33963D01*
X61899Y-34094D01*
X61769Y-33964D01*
X61578Y-33885D01*
X61372Y-33884D01*
X61180Y-33963D01*
X61049Y-34094D01*
X60919Y-33964D01*
X60728Y-33885D01*
X60522Y-33884D01*
X60330Y-33963D01*
X60199Y-34094D01*
X60069Y-33964D01*
X59878Y-33885D01*
X59672Y-33884D01*
X59480Y-33963D01*
X59334Y-34110D01*
X59329Y-34121D01*
X59289Y-34111D01*
X59218Y-34182D01*
X59218Y-34040D01*
X59194Y-33948D01*
X58999Y-33880D01*
X58793Y-33891D01*
X58655Y-33948D01*
X58631Y-34040D01*
X58925Y-34334D01*
X59218Y-34040D01*
X59218Y-34182D01*
X58995Y-34405D01*
X59289Y-34698D01*
X59329Y-34688D01*
X59333Y-34699D01*
X59480Y-34845D01*
X59671Y-34924D01*
X59877Y-34925D01*
X60069Y-34846D01*
X60200Y-34715D01*
X60330Y-34845D01*
X60521Y-34924D01*
X60727Y-34925D01*
X60919Y-34846D01*
X61050Y-34715D01*
X61180Y-34845D01*
X61371Y-34924D01*
X61577Y-34925D01*
X61769Y-34846D01*
X61900Y-34715D01*
X62030Y-34845D01*
X62221Y-34924D01*
X62427Y-34925D01*
X62619Y-34846D01*
X62750Y-34715D01*
X62880Y-34845D01*
X63071Y-34924D01*
X63277Y-34925D01*
X63469Y-34846D01*
X63615Y-34699D01*
X63694Y-34508D01*
X63695Y-34302D01*
X63695Y-35992D01*
X63616Y-35800D01*
X63469Y-35654D01*
X63278Y-35575D01*
X63072Y-35574D01*
X62880Y-35653D01*
X62749Y-35784D01*
X62619Y-35654D01*
X62428Y-35575D01*
X62222Y-35574D01*
X62030Y-35653D01*
X61899Y-35784D01*
X61769Y-35654D01*
X61578Y-35575D01*
X61372Y-35574D01*
X61180Y-35653D01*
X61049Y-35784D01*
X60919Y-35654D01*
X60728Y-35575D01*
X60522Y-35574D01*
X60330Y-35653D01*
X60199Y-35784D01*
X60069Y-35654D01*
X59878Y-35575D01*
X59672Y-35574D01*
X59480Y-35653D01*
X59349Y-35784D01*
X59219Y-35654D01*
X59218Y-35653D01*
X59218Y-34769D01*
X58925Y-34475D01*
X58854Y-34546D01*
X58854Y-34405D01*
X58560Y-34111D01*
X58499Y-34127D01*
X58439Y-34111D01*
X58368Y-34182D01*
X58368Y-34040D01*
X58344Y-33948D01*
X58149Y-33880D01*
X57943Y-33891D01*
X57805Y-33948D01*
X57781Y-34040D01*
X58075Y-34334D01*
X58368Y-34040D01*
X58368Y-34182D01*
X58145Y-34405D01*
X58439Y-34698D01*
X58499Y-34682D01*
X58560Y-34698D01*
X58854Y-34405D01*
X58854Y-34546D01*
X58631Y-34769D01*
X58655Y-34861D01*
X58850Y-34929D01*
X59056Y-34918D01*
X59194Y-34861D01*
X59218Y-34769D01*
X59218Y-35653D01*
X59028Y-35575D01*
X58822Y-35574D01*
X58630Y-35653D01*
X58499Y-35784D01*
X58369Y-35654D01*
X58368Y-35653D01*
X58368Y-34769D01*
X58075Y-34475D01*
X58004Y-34546D01*
X58004Y-34405D01*
X57710Y-34111D01*
X57649Y-34127D01*
X57589Y-34111D01*
X57518Y-34182D01*
X57518Y-34040D01*
X57494Y-33948D01*
X57299Y-33880D01*
X57093Y-33891D01*
X56955Y-33948D01*
X56931Y-34040D01*
X57225Y-34334D01*
X57518Y-34040D01*
X57518Y-34182D01*
X57295Y-34405D01*
X57589Y-34698D01*
X57649Y-34682D01*
X57710Y-34698D01*
X58004Y-34405D01*
X58004Y-34546D01*
X57781Y-34769D01*
X57805Y-34861D01*
X58000Y-34929D01*
X58206Y-34918D01*
X58344Y-34861D01*
X58368Y-34769D01*
X58368Y-35653D01*
X58178Y-35575D01*
X57972Y-35574D01*
X57780Y-35653D01*
X57649Y-35784D01*
X57519Y-35654D01*
X57518Y-35653D01*
X57518Y-34769D01*
X57225Y-34475D01*
X57154Y-34546D01*
X57154Y-34405D01*
X56860Y-34111D01*
X56799Y-34127D01*
X56739Y-34111D01*
X56668Y-34182D01*
X56668Y-34040D01*
X56644Y-33948D01*
X56449Y-33880D01*
X56243Y-33891D01*
X56105Y-33948D01*
X56081Y-34040D01*
X56375Y-34334D01*
X56668Y-34040D01*
X56668Y-34182D01*
X56445Y-34405D01*
X56739Y-34698D01*
X56799Y-34682D01*
X56860Y-34698D01*
X57154Y-34405D01*
X57154Y-34546D01*
X56931Y-34769D01*
X56955Y-34861D01*
X57150Y-34929D01*
X57356Y-34918D01*
X57494Y-34861D01*
X57518Y-34769D01*
X57518Y-35653D01*
X57328Y-35575D01*
X57122Y-35574D01*
X56930Y-35653D01*
X56799Y-35784D01*
X56669Y-35654D01*
X56668Y-35653D01*
X56668Y-34769D01*
X56375Y-34475D01*
X56304Y-34546D01*
X56304Y-34405D01*
X56010Y-34111D01*
X55949Y-34127D01*
X55889Y-34111D01*
X55818Y-34182D01*
X55818Y-34040D01*
X55794Y-33948D01*
X55599Y-33880D01*
X55393Y-33891D01*
X55255Y-33948D01*
X55231Y-34040D01*
X55525Y-34334D01*
X55818Y-34040D01*
X55818Y-34182D01*
X55595Y-34405D01*
X55889Y-34698D01*
X55949Y-34682D01*
X56010Y-34698D01*
X56304Y-34405D01*
X56304Y-34546D01*
X56081Y-34769D01*
X56105Y-34861D01*
X56300Y-34929D01*
X56506Y-34918D01*
X56644Y-34861D01*
X56668Y-34769D01*
X56668Y-35653D01*
X56478Y-35575D01*
X56272Y-35574D01*
X56080Y-35653D01*
X55949Y-35784D01*
X55819Y-35654D01*
X55818Y-35653D01*
X55818Y-34769D01*
X55525Y-34475D01*
X55454Y-34546D01*
X55454Y-34405D01*
X55160Y-34111D01*
X55099Y-34127D01*
X55039Y-34111D01*
X54968Y-34182D01*
X54968Y-34040D01*
X54944Y-33948D01*
X54749Y-33880D01*
X54543Y-33891D01*
X54405Y-33948D01*
X54381Y-34040D01*
X54675Y-34334D01*
X54968Y-34040D01*
X54968Y-34182D01*
X54745Y-34405D01*
X55039Y-34698D01*
X55099Y-34682D01*
X55160Y-34698D01*
X55454Y-34405D01*
X55454Y-34546D01*
X55231Y-34769D01*
X55255Y-34861D01*
X55450Y-34929D01*
X55656Y-34918D01*
X55794Y-34861D01*
X55818Y-34769D01*
X55818Y-35653D01*
X55628Y-35575D01*
X55422Y-35574D01*
X55230Y-35653D01*
X55099Y-35784D01*
X54969Y-35654D01*
X54968Y-35653D01*
X54968Y-34769D01*
X54675Y-34475D01*
X54604Y-34546D01*
X54604Y-34405D01*
X54310Y-34111D01*
X54249Y-34127D01*
X54189Y-34111D01*
X54118Y-34182D01*
X54118Y-34040D01*
X54094Y-33948D01*
X53899Y-33880D01*
X53693Y-33891D01*
X53555Y-33948D01*
X53531Y-34040D01*
X53825Y-34334D01*
X54118Y-34040D01*
X54118Y-34182D01*
X53895Y-34405D01*
X54189Y-34698D01*
X54249Y-34682D01*
X54310Y-34698D01*
X54604Y-34405D01*
X54604Y-34546D01*
X54381Y-34769D01*
X54405Y-34861D01*
X54600Y-34929D01*
X54806Y-34918D01*
X54944Y-34861D01*
X54968Y-34769D01*
X54968Y-35653D01*
X54778Y-35575D01*
X54572Y-35574D01*
X54380Y-35653D01*
X54234Y-35800D01*
X54229Y-35811D01*
X54189Y-35801D01*
X54118Y-35872D01*
X54118Y-35730D01*
X54118Y-34769D01*
X53825Y-34475D01*
X53754Y-34546D01*
X53754Y-34405D01*
X53460Y-34111D01*
X53368Y-34135D01*
X53300Y-34330D01*
X53311Y-34536D01*
X53368Y-34674D01*
X53460Y-34698D01*
X53754Y-34405D01*
X53754Y-34546D01*
X53531Y-34769D01*
X53555Y-34861D01*
X53750Y-34929D01*
X53956Y-34918D01*
X54094Y-34861D01*
X54118Y-34769D01*
X54118Y-35730D01*
X54094Y-35638D01*
X53899Y-35570D01*
X53693Y-35581D01*
X53555Y-35638D01*
X53531Y-35730D01*
X53825Y-36024D01*
X54118Y-35730D01*
X54118Y-35872D01*
X53895Y-36095D01*
X54189Y-36388D01*
X54229Y-36378D01*
X54233Y-36389D01*
X54380Y-36535D01*
X54571Y-36614D01*
X54777Y-36615D01*
X54969Y-36536D01*
X55100Y-36405D01*
X55230Y-36535D01*
X55421Y-36614D01*
X55627Y-36615D01*
X55819Y-36536D01*
X55950Y-36405D01*
X56080Y-36535D01*
X56271Y-36614D01*
X56477Y-36615D01*
X56669Y-36536D01*
X56800Y-36405D01*
X56930Y-36535D01*
X57121Y-36614D01*
X57327Y-36615D01*
X57519Y-36536D01*
X57650Y-36405D01*
X57780Y-36535D01*
X57971Y-36614D01*
X58177Y-36615D01*
X58369Y-36536D01*
X58500Y-36405D01*
X58630Y-36535D01*
X58821Y-36614D01*
X59027Y-36615D01*
X59219Y-36536D01*
X59350Y-36405D01*
X59480Y-36535D01*
X59671Y-36614D01*
X59877Y-36615D01*
X60069Y-36536D01*
X60200Y-36405D01*
X60330Y-36535D01*
X60521Y-36614D01*
X60727Y-36615D01*
X60919Y-36536D01*
X61050Y-36405D01*
X61180Y-36535D01*
X61371Y-36614D01*
X61577Y-36615D01*
X61769Y-36536D01*
X61900Y-36405D01*
X62030Y-36535D01*
X62221Y-36614D01*
X62427Y-36615D01*
X62619Y-36536D01*
X62750Y-36405D01*
X62880Y-36535D01*
X63071Y-36614D01*
X63277Y-36615D01*
X63469Y-36536D01*
X63615Y-36389D01*
X63694Y-36198D01*
X63695Y-35992D01*
X63695Y-37050D01*
X63614Y-37103D01*
X63496Y-37280D01*
X63455Y-37489D01*
X63455Y-37510D01*
X63496Y-37719D01*
X63614Y-37896D01*
X63791Y-38014D01*
X64000Y-38055D01*
X64208Y-38014D01*
X64385Y-37896D01*
X64503Y-37719D01*
X64545Y-37510D01*
X64545Y-41489D01*
X64503Y-41280D01*
X64385Y-41103D01*
X64368Y-41092D01*
X64368Y-40177D01*
X64312Y-40041D01*
X64208Y-39938D01*
X64073Y-39881D01*
X63927Y-39881D01*
X63791Y-39937D01*
X63779Y-39950D01*
X63295Y-39950D01*
X63295Y-39058D01*
X63295Y-38736D01*
X63253Y-38527D01*
X63135Y-38351D01*
X62958Y-38232D01*
X62750Y-38191D01*
X62541Y-38232D01*
X62364Y-38351D01*
X62250Y-38522D01*
X62135Y-38351D01*
X61958Y-38232D01*
X61750Y-38191D01*
X61541Y-38232D01*
X61364Y-38351D01*
X61250Y-38522D01*
X61135Y-38351D01*
X60958Y-38232D01*
X60750Y-38191D01*
X60541Y-38232D01*
X60364Y-38351D01*
X60250Y-38522D01*
X60135Y-38351D01*
X59958Y-38232D01*
X59750Y-38191D01*
X59541Y-38232D01*
X59364Y-38351D01*
X59250Y-38522D01*
X59135Y-38351D01*
X58958Y-38232D01*
X58750Y-38191D01*
X58541Y-38232D01*
X58364Y-38351D01*
X58250Y-38522D01*
X58135Y-38351D01*
X57958Y-38232D01*
X57750Y-38191D01*
X57541Y-38232D01*
X57364Y-38351D01*
X57250Y-38522D01*
X57135Y-38351D01*
X56958Y-38232D01*
X56750Y-38191D01*
X56541Y-38232D01*
X56364Y-38351D01*
X56246Y-38527D01*
X56245Y-38532D01*
X56234Y-38495D01*
X56100Y-38329D01*
X55912Y-38227D01*
X55884Y-38221D01*
X55800Y-38270D01*
X55800Y-38847D01*
X55807Y-38847D01*
X55807Y-38947D01*
X55800Y-38947D01*
X55800Y-39524D01*
X55884Y-39573D01*
X55912Y-39567D01*
X56100Y-39465D01*
X56234Y-39299D01*
X56245Y-39262D01*
X56246Y-39267D01*
X56364Y-39443D01*
X56541Y-39562D01*
X56750Y-39603D01*
X56958Y-39562D01*
X57135Y-39443D01*
X57250Y-39272D01*
X57364Y-39443D01*
X57541Y-39562D01*
X57750Y-39603D01*
X57958Y-39562D01*
X58135Y-39443D01*
X58250Y-39272D01*
X58364Y-39443D01*
X58541Y-39562D01*
X58750Y-39603D01*
X58958Y-39562D01*
X59135Y-39443D01*
X59250Y-39272D01*
X59364Y-39443D01*
X59541Y-39562D01*
X59750Y-39603D01*
X59958Y-39562D01*
X60135Y-39443D01*
X60250Y-39272D01*
X60364Y-39443D01*
X60541Y-39562D01*
X60750Y-39603D01*
X60958Y-39562D01*
X61135Y-39443D01*
X61250Y-39272D01*
X61364Y-39443D01*
X61541Y-39562D01*
X61750Y-39603D01*
X61958Y-39562D01*
X62135Y-39443D01*
X62250Y-39272D01*
X62364Y-39443D01*
X62541Y-39562D01*
X62750Y-39603D01*
X62958Y-39562D01*
X63135Y-39443D01*
X63253Y-39267D01*
X63295Y-39058D01*
X63295Y-39950D01*
X59970Y-39950D01*
X59958Y-39938D01*
X59823Y-39881D01*
X59677Y-39881D01*
X59541Y-39937D01*
X59438Y-40041D01*
X59381Y-40176D01*
X59381Y-40322D01*
X59437Y-40458D01*
X59541Y-40561D01*
X59676Y-40618D01*
X59822Y-40618D01*
X59958Y-40562D01*
X59970Y-40550D01*
X63779Y-40550D01*
X63791Y-40561D01*
X63926Y-40618D01*
X64072Y-40618D01*
X64208Y-40562D01*
X64311Y-40458D01*
X64368Y-40323D01*
X64368Y-40177D01*
X64368Y-41092D01*
X64208Y-40985D01*
X64000Y-40944D01*
X63791Y-40985D01*
X63614Y-41103D01*
X63496Y-41280D01*
X63455Y-41489D01*
X63455Y-41510D01*
X63496Y-41719D01*
X63614Y-41896D01*
X63791Y-42014D01*
X63792Y-42014D01*
X63743Y-42063D01*
X63705Y-42155D01*
X63704Y-42254D01*
X63704Y-42844D01*
X63742Y-42936D01*
X63813Y-43006D01*
X63905Y-43044D01*
X63956Y-43045D01*
X63813Y-43173D01*
X63721Y-43365D01*
X63769Y-43450D01*
X64200Y-43450D01*
X64200Y-43442D01*
X64300Y-43442D01*
X64300Y-43450D01*
X64730Y-43450D01*
X64778Y-43365D01*
X64686Y-43173D01*
X64543Y-43045D01*
X64594Y-43045D01*
X64686Y-43007D01*
X64756Y-42936D01*
X64794Y-42844D01*
X64795Y-42745D01*
X64795Y-45704D01*
X64792Y-45704D01*
X64778Y-45710D01*
X64778Y-43634D01*
X64730Y-43550D01*
X64300Y-43550D01*
X64300Y-43979D01*
X64384Y-44028D01*
X64528Y-43968D01*
X64686Y-43826D01*
X64778Y-43634D01*
X64778Y-45710D01*
X64591Y-45787D01*
X64438Y-45940D01*
X64355Y-46141D01*
X64354Y-46357D01*
X64437Y-46558D01*
X64590Y-46711D01*
X64682Y-46749D01*
X64591Y-46787D01*
X64438Y-46940D01*
X64355Y-47141D01*
X64354Y-47357D01*
X64437Y-47558D01*
X64590Y-47711D01*
X64791Y-47794D01*
X65007Y-47795D01*
X65208Y-47712D01*
X65293Y-47627D01*
X65377Y-47711D01*
X65578Y-47794D01*
X65794Y-47795D01*
X65995Y-47712D01*
X66148Y-47559D01*
X66231Y-47358D01*
X66232Y-47142D01*
X66232Y-48664D01*
X66196Y-48629D01*
X66077Y-48685D01*
X65965Y-48974D01*
X65972Y-49285D01*
X66077Y-49538D01*
X66196Y-49594D01*
X66679Y-49112D01*
X66679Y-49253D01*
X66267Y-49665D01*
X66323Y-49784D01*
X66612Y-49896D01*
X66923Y-49889D01*
X67176Y-49784D01*
X67232Y-49665D01*
X67232Y-50202D01*
X66738Y-50450D01*
X64200Y-50450D01*
X64200Y-43979D01*
X64200Y-43550D01*
X63769Y-43550D01*
X63721Y-43634D01*
X63813Y-43826D01*
X63971Y-43968D01*
X64115Y-44028D01*
X64200Y-43979D01*
X64200Y-50450D01*
X63795Y-50450D01*
X63795Y-48819D01*
X63795Y-48080D01*
X63795Y-47570D01*
X63795Y-46930D01*
X63757Y-46838D01*
X63686Y-46768D01*
X63643Y-46750D01*
X63686Y-46732D01*
X63756Y-46661D01*
X63794Y-46569D01*
X63795Y-46470D01*
X63795Y-45830D01*
X63795Y-45419D01*
X63795Y-44680D01*
X63757Y-44588D01*
X63686Y-44518D01*
X63594Y-44480D01*
X63495Y-44479D01*
X63362Y-44480D01*
X63300Y-44542D01*
X63300Y-45000D01*
X63732Y-45000D01*
X63795Y-44937D01*
X63795Y-44680D01*
X63795Y-45419D01*
X63795Y-45162D01*
X63732Y-45100D01*
X63300Y-45100D01*
X63300Y-45557D01*
X63362Y-45620D01*
X63495Y-45620D01*
X63594Y-45619D01*
X63686Y-45581D01*
X63757Y-45511D01*
X63795Y-45419D01*
X63795Y-45830D01*
X63757Y-45738D01*
X63686Y-45668D01*
X63594Y-45630D01*
X63495Y-45629D01*
X63295Y-45629D01*
X63295Y-41763D01*
X63295Y-41441D01*
X63253Y-41232D01*
X63135Y-41056D01*
X62958Y-40937D01*
X62750Y-40896D01*
X62541Y-40937D01*
X62364Y-41056D01*
X62250Y-41227D01*
X62135Y-41056D01*
X61958Y-40937D01*
X61750Y-40896D01*
X61541Y-40937D01*
X61364Y-41056D01*
X61250Y-41227D01*
X61135Y-41056D01*
X60958Y-40937D01*
X60750Y-40896D01*
X60541Y-40937D01*
X60364Y-41056D01*
X60250Y-41227D01*
X60135Y-41056D01*
X59958Y-40937D01*
X59750Y-40896D01*
X59541Y-40937D01*
X59364Y-41056D01*
X59250Y-41227D01*
X59135Y-41056D01*
X58958Y-40937D01*
X58750Y-40896D01*
X58541Y-40937D01*
X58364Y-41056D01*
X58250Y-41227D01*
X58135Y-41056D01*
X57958Y-40937D01*
X57750Y-40896D01*
X57541Y-40937D01*
X57364Y-41056D01*
X57246Y-41232D01*
X57245Y-41237D01*
X57234Y-41200D01*
X57100Y-41034D01*
X56912Y-40932D01*
X56884Y-40926D01*
X56800Y-40975D01*
X56800Y-41552D01*
X56807Y-41552D01*
X56807Y-41652D01*
X56800Y-41652D01*
X56800Y-42229D01*
X56884Y-42278D01*
X56912Y-42272D01*
X57100Y-42170D01*
X57234Y-42004D01*
X57245Y-41967D01*
X57246Y-41972D01*
X57364Y-42148D01*
X57541Y-42267D01*
X57750Y-42308D01*
X57958Y-42267D01*
X58135Y-42148D01*
X58250Y-41977D01*
X58364Y-42148D01*
X58541Y-42267D01*
X58750Y-42308D01*
X58958Y-42267D01*
X59135Y-42148D01*
X59250Y-41977D01*
X59364Y-42148D01*
X59541Y-42267D01*
X59750Y-42308D01*
X59958Y-42267D01*
X60135Y-42148D01*
X60250Y-41977D01*
X60364Y-42148D01*
X60541Y-42267D01*
X60750Y-42308D01*
X60958Y-42267D01*
X61135Y-42148D01*
X61250Y-41977D01*
X61364Y-42148D01*
X61541Y-42267D01*
X61750Y-42308D01*
X61958Y-42267D01*
X62135Y-42148D01*
X62250Y-41977D01*
X62364Y-42148D01*
X62541Y-42267D01*
X62750Y-42308D01*
X62958Y-42267D01*
X63135Y-42148D01*
X63253Y-41972D01*
X63295Y-41763D01*
X63295Y-45629D01*
X63200Y-45629D01*
X63200Y-45557D01*
X63200Y-45100D01*
X63200Y-45000D01*
X63200Y-44542D01*
X63137Y-44480D01*
X63004Y-44479D01*
X62905Y-44480D01*
X62813Y-44518D01*
X62742Y-44588D01*
X62704Y-44680D01*
X62705Y-44937D01*
X62767Y-45000D01*
X63200Y-45000D01*
X63200Y-45100D01*
X62767Y-45100D01*
X62705Y-45162D01*
X62704Y-45419D01*
X62742Y-45511D01*
X62813Y-45581D01*
X62905Y-45619D01*
X63004Y-45620D01*
X63137Y-45620D01*
X63200Y-45557D01*
X63200Y-45629D01*
X62905Y-45629D01*
X62813Y-45667D01*
X62743Y-45738D01*
X62705Y-45830D01*
X62704Y-45929D01*
X62704Y-46569D01*
X62742Y-46661D01*
X62813Y-46731D01*
X62856Y-46749D01*
X62813Y-46767D01*
X62743Y-46838D01*
X62705Y-46930D01*
X62704Y-47029D01*
X62704Y-47669D01*
X62742Y-47761D01*
X62813Y-47831D01*
X62905Y-47869D01*
X63004Y-47870D01*
X63594Y-47870D01*
X63686Y-47832D01*
X63756Y-47761D01*
X63794Y-47669D01*
X63795Y-47570D01*
X63795Y-48080D01*
X63757Y-47988D01*
X63686Y-47918D01*
X63594Y-47880D01*
X63495Y-47879D01*
X63362Y-47880D01*
X63300Y-47942D01*
X63300Y-48400D01*
X63732Y-48400D01*
X63795Y-48337D01*
X63795Y-48080D01*
X63795Y-48819D01*
X63795Y-48562D01*
X63732Y-48500D01*
X63300Y-48500D01*
X63300Y-48957D01*
X63362Y-49020D01*
X63495Y-49020D01*
X63594Y-49019D01*
X63686Y-48981D01*
X63757Y-48911D01*
X63795Y-48819D01*
X63795Y-50450D01*
X63200Y-50450D01*
X63200Y-48957D01*
X63200Y-48500D01*
X63200Y-48400D01*
X63200Y-47942D01*
X63137Y-47880D01*
X63004Y-47879D01*
X62905Y-47880D01*
X62813Y-47918D01*
X62742Y-47988D01*
X62704Y-48080D01*
X62705Y-48337D01*
X62767Y-48400D01*
X63200Y-48400D01*
X63200Y-48500D01*
X62767Y-48500D01*
X62705Y-48562D01*
X62704Y-48819D01*
X62742Y-48911D01*
X62813Y-48981D01*
X62905Y-49019D01*
X63004Y-49020D01*
X63137Y-49020D01*
X63200Y-48957D01*
X63200Y-50450D01*
X62305Y-50450D01*
X62305Y-47750D01*
X62264Y-47541D01*
X62146Y-47364D01*
X61974Y-47250D01*
X62146Y-47135D01*
X62264Y-46958D01*
X62305Y-46750D01*
X62264Y-46541D01*
X62146Y-46364D01*
X61974Y-46250D01*
X62146Y-46135D01*
X62264Y-45958D01*
X62305Y-45750D01*
X62264Y-45541D01*
X62146Y-45364D01*
X61974Y-45250D01*
X62146Y-45135D01*
X62264Y-44958D01*
X62305Y-44750D01*
X62264Y-44541D01*
X62146Y-44364D01*
X61969Y-44246D01*
X61760Y-44205D01*
X61739Y-44205D01*
X61530Y-44246D01*
X61353Y-44364D01*
X61349Y-44371D01*
X61349Y-43092D01*
X61339Y-42856D01*
X61268Y-42685D01*
X61168Y-42652D01*
X61097Y-42722D01*
X60820Y-43000D01*
X61168Y-43347D01*
X61268Y-43314D01*
X61349Y-43092D01*
X61349Y-44371D01*
X61235Y-44541D01*
X61194Y-44750D01*
X61235Y-44958D01*
X61353Y-45135D01*
X61525Y-45250D01*
X61353Y-45364D01*
X61235Y-45541D01*
X61194Y-45750D01*
X61235Y-45958D01*
X61353Y-46135D01*
X61525Y-46250D01*
X61353Y-46364D01*
X61235Y-46541D01*
X61194Y-46750D01*
X61235Y-46958D01*
X61353Y-47135D01*
X61525Y-47250D01*
X61353Y-47364D01*
X61235Y-47541D01*
X61194Y-47750D01*
X61235Y-47958D01*
X61353Y-48135D01*
X61530Y-48253D01*
X61739Y-48295D01*
X61760Y-48295D01*
X61969Y-48253D01*
X62146Y-48135D01*
X62264Y-47958D01*
X62305Y-47750D01*
X62305Y-50450D01*
X61144Y-50450D01*
X61170Y-50432D01*
X61299Y-50239D01*
X61345Y-50011D01*
X61345Y-49988D01*
X61299Y-49760D01*
X61179Y-49580D01*
X61236Y-49557D01*
X61306Y-49486D01*
X61344Y-49394D01*
X61345Y-49295D01*
X61345Y-48605D01*
X61307Y-48513D01*
X61236Y-48443D01*
X61144Y-48405D01*
X61097Y-48405D01*
X61097Y-43418D01*
X60750Y-43070D01*
X60744Y-43076D01*
X60679Y-43011D01*
X60673Y-43005D01*
X60679Y-43000D01*
X60673Y-42994D01*
X60744Y-42923D01*
X60750Y-42929D01*
X61097Y-42581D01*
X61064Y-42481D01*
X60842Y-42400D01*
X60606Y-42410D01*
X60435Y-42481D01*
X60402Y-42581D01*
X60357Y-42536D01*
X60328Y-42565D01*
X60307Y-42513D01*
X60236Y-42443D01*
X60144Y-42405D01*
X60045Y-42404D01*
X59355Y-42404D01*
X59263Y-42442D01*
X59193Y-42513D01*
X59155Y-42605D01*
X59154Y-42704D01*
X59154Y-43394D01*
X59192Y-43486D01*
X59263Y-43556D01*
X59355Y-43594D01*
X59454Y-43595D01*
X60144Y-43595D01*
X60236Y-43557D01*
X60306Y-43486D01*
X60328Y-43434D01*
X60357Y-43463D01*
X60402Y-43418D01*
X60435Y-43518D01*
X60657Y-43599D01*
X60893Y-43589D01*
X61064Y-43518D01*
X61097Y-43418D01*
X61097Y-48405D01*
X61045Y-48404D01*
X60355Y-48404D01*
X60263Y-48442D01*
X60193Y-48513D01*
X60155Y-48605D01*
X60154Y-48704D01*
X60154Y-49394D01*
X60192Y-49486D01*
X60263Y-49556D01*
X60320Y-49580D01*
X60200Y-49760D01*
X60155Y-49988D01*
X60155Y-50011D01*
X60200Y-50239D01*
X60329Y-50432D01*
X60355Y-50450D01*
X59144Y-50450D01*
X59170Y-50432D01*
X59299Y-50239D01*
X59345Y-50011D01*
X59345Y-49988D01*
X59299Y-49760D01*
X59179Y-49580D01*
X59236Y-49557D01*
X59306Y-49486D01*
X59344Y-49394D01*
X59345Y-49295D01*
X59345Y-48605D01*
X59307Y-48513D01*
X59236Y-48443D01*
X59144Y-48405D01*
X59045Y-48404D01*
X58770Y-48404D01*
X58770Y-43245D01*
X58770Y-42655D01*
X58732Y-42563D01*
X58661Y-42493D01*
X58569Y-42455D01*
X58470Y-42454D01*
X57830Y-42454D01*
X57738Y-42492D01*
X57668Y-42563D01*
X57630Y-42655D01*
X57629Y-42754D01*
X57629Y-43344D01*
X57667Y-43436D01*
X57738Y-43506D01*
X57830Y-43544D01*
X57929Y-43545D01*
X58569Y-43545D01*
X58661Y-43507D01*
X58731Y-43436D01*
X58769Y-43344D01*
X58770Y-43245D01*
X58770Y-48404D01*
X58355Y-48404D01*
X58305Y-48425D01*
X58305Y-47750D01*
X58264Y-47541D01*
X58146Y-47364D01*
X57974Y-47250D01*
X58146Y-47135D01*
X58264Y-46958D01*
X58305Y-46750D01*
X58264Y-46541D01*
X58146Y-46364D01*
X57974Y-46250D01*
X58146Y-46135D01*
X58264Y-45958D01*
X58305Y-45750D01*
X58264Y-45541D01*
X58146Y-45364D01*
X57974Y-45250D01*
X58146Y-45135D01*
X58264Y-44958D01*
X58305Y-44750D01*
X58264Y-44541D01*
X58146Y-44364D01*
X57969Y-44246D01*
X57760Y-44205D01*
X57739Y-44205D01*
X57620Y-44228D01*
X57620Y-43245D01*
X57620Y-42754D01*
X57619Y-42655D01*
X57581Y-42563D01*
X57511Y-42492D01*
X57419Y-42454D01*
X57162Y-42455D01*
X57100Y-42517D01*
X57100Y-42950D01*
X57557Y-42950D01*
X57620Y-42887D01*
X57620Y-42754D01*
X57620Y-43245D01*
X57620Y-43112D01*
X57557Y-43050D01*
X57100Y-43050D01*
X57100Y-43482D01*
X57162Y-43545D01*
X57419Y-43545D01*
X57511Y-43507D01*
X57581Y-43436D01*
X57619Y-43344D01*
X57620Y-43245D01*
X57620Y-44228D01*
X57530Y-44246D01*
X57353Y-44364D01*
X57235Y-44541D01*
X57194Y-44750D01*
X57235Y-44958D01*
X57353Y-45135D01*
X57525Y-45250D01*
X57353Y-45364D01*
X57235Y-45541D01*
X57194Y-45750D01*
X57235Y-45958D01*
X57353Y-46135D01*
X57525Y-46250D01*
X57353Y-46364D01*
X57235Y-46541D01*
X57194Y-46750D01*
X57235Y-46958D01*
X57353Y-47135D01*
X57525Y-47250D01*
X57353Y-47364D01*
X57235Y-47541D01*
X57194Y-47750D01*
X57235Y-47958D01*
X57353Y-48135D01*
X57530Y-48253D01*
X57739Y-48295D01*
X57760Y-48295D01*
X57969Y-48253D01*
X58146Y-48135D01*
X58264Y-47958D01*
X58305Y-47750D01*
X58305Y-48425D01*
X58263Y-48442D01*
X58193Y-48513D01*
X58155Y-48605D01*
X58154Y-48704D01*
X58154Y-49394D01*
X58192Y-49486D01*
X58263Y-49556D01*
X58320Y-49580D01*
X58200Y-49760D01*
X58155Y-49988D01*
X58155Y-50011D01*
X58200Y-50239D01*
X58329Y-50432D01*
X58355Y-50450D01*
X57000Y-50450D01*
X57000Y-43482D01*
X57000Y-43050D01*
X57000Y-42950D01*
X57000Y-42517D01*
X56937Y-42455D01*
X56680Y-42454D01*
X56618Y-42480D01*
X56618Y-42427D01*
X56562Y-42291D01*
X56490Y-42219D01*
X56587Y-42272D01*
X56615Y-42278D01*
X56700Y-42229D01*
X56700Y-41652D01*
X56692Y-41652D01*
X56692Y-41552D01*
X56700Y-41552D01*
X56700Y-40975D01*
X56615Y-40926D01*
X56587Y-40932D01*
X56568Y-40942D01*
X56618Y-40823D01*
X56618Y-40677D01*
X56562Y-40541D01*
X56458Y-40438D01*
X56323Y-40381D01*
X56177Y-40381D01*
X56041Y-40437D01*
X56029Y-40450D01*
X55470Y-40450D01*
X55458Y-40438D01*
X55323Y-40381D01*
X55177Y-40381D01*
X55041Y-40437D01*
X54938Y-40541D01*
X54881Y-40676D01*
X54881Y-40822D01*
X54926Y-40931D01*
X54750Y-40896D01*
X54541Y-40937D01*
X54364Y-41056D01*
X54250Y-41227D01*
X54135Y-41056D01*
X54032Y-40987D01*
X54061Y-40958D01*
X54118Y-40823D01*
X54118Y-40677D01*
X54062Y-40541D01*
X54050Y-40529D01*
X54050Y-39970D01*
X54061Y-39958D01*
X54118Y-39823D01*
X54118Y-39677D01*
X54062Y-39541D01*
X54032Y-39512D01*
X54135Y-39443D01*
X54250Y-39272D01*
X54364Y-39443D01*
X54541Y-39562D01*
X54750Y-39603D01*
X54958Y-39562D01*
X55135Y-39443D01*
X55253Y-39267D01*
X55254Y-39262D01*
X55265Y-39299D01*
X55399Y-39465D01*
X55587Y-39567D01*
X55615Y-39573D01*
X55700Y-39524D01*
X55700Y-38947D01*
X55692Y-38947D01*
X55692Y-38847D01*
X55700Y-38847D01*
X55700Y-38270D01*
X55615Y-38221D01*
X55587Y-38227D01*
X55399Y-38329D01*
X55265Y-38495D01*
X55254Y-38532D01*
X55253Y-38527D01*
X55135Y-38351D01*
X54958Y-38232D01*
X54750Y-38191D01*
X54541Y-38232D01*
X54364Y-38351D01*
X54250Y-38522D01*
X54135Y-38351D01*
X54118Y-38339D01*
X54118Y-36459D01*
X53825Y-36165D01*
X53754Y-36236D01*
X53754Y-36095D01*
X53460Y-35801D01*
X53368Y-35825D01*
X53300Y-36020D01*
X53311Y-36226D01*
X53368Y-36364D01*
X53460Y-36388D01*
X53754Y-36095D01*
X53754Y-36236D01*
X53531Y-36459D01*
X53555Y-36551D01*
X53750Y-36619D01*
X53956Y-36608D01*
X54094Y-36551D01*
X54118Y-36459D01*
X54118Y-38339D01*
X53958Y-38232D01*
X53750Y-38191D01*
X53541Y-38232D01*
X53364Y-38351D01*
X53250Y-38522D01*
X53135Y-38351D01*
X52958Y-38232D01*
X52750Y-38191D01*
X52541Y-38232D01*
X52364Y-38351D01*
X52250Y-38522D01*
X52135Y-38351D01*
X51958Y-38232D01*
X51750Y-38191D01*
X51541Y-38232D01*
X51364Y-38351D01*
X51250Y-38522D01*
X51135Y-38351D01*
X50958Y-38232D01*
X50750Y-38191D01*
X50541Y-38232D01*
X50364Y-38351D01*
X50250Y-38522D01*
X50135Y-38351D01*
X49958Y-38232D01*
X49750Y-38191D01*
X49541Y-38232D01*
X49364Y-38351D01*
X49246Y-38527D01*
X49205Y-38736D01*
X49205Y-39058D01*
X49246Y-39267D01*
X49364Y-39443D01*
X49541Y-39562D01*
X49750Y-39603D01*
X49958Y-39562D01*
X50135Y-39443D01*
X50250Y-39272D01*
X50364Y-39443D01*
X50541Y-39562D01*
X50750Y-39603D01*
X50958Y-39562D01*
X51135Y-39443D01*
X51250Y-39272D01*
X51364Y-39443D01*
X51541Y-39562D01*
X51750Y-39603D01*
X51958Y-39562D01*
X52135Y-39443D01*
X52250Y-39272D01*
X52364Y-39443D01*
X52541Y-39562D01*
X52750Y-39603D01*
X52958Y-39562D01*
X53135Y-39443D01*
X53250Y-39272D01*
X53364Y-39443D01*
X53467Y-39512D01*
X53438Y-39541D01*
X53381Y-39676D01*
X53381Y-39822D01*
X53437Y-39958D01*
X53450Y-39970D01*
X53450Y-40529D01*
X53438Y-40541D01*
X53381Y-40676D01*
X53381Y-40822D01*
X53437Y-40958D01*
X53467Y-40987D01*
X53364Y-41056D01*
X53250Y-41227D01*
X53135Y-41056D01*
X52958Y-40937D01*
X52750Y-40896D01*
X52541Y-40937D01*
X52364Y-41056D01*
X52250Y-41227D01*
X52135Y-41056D01*
X51958Y-40937D01*
X51750Y-40896D01*
X51541Y-40937D01*
X51364Y-41056D01*
X51250Y-41227D01*
X51135Y-41056D01*
X50958Y-40937D01*
X50750Y-40896D01*
X50541Y-40937D01*
X50364Y-41056D01*
X50295Y-41160D01*
X50295Y-41110D01*
X50257Y-41018D01*
X50186Y-40948D01*
X50094Y-40910D01*
X49995Y-40909D01*
X49405Y-40909D01*
X49313Y-40947D01*
X49243Y-41018D01*
X49205Y-41110D01*
X49204Y-41209D01*
X49204Y-42094D01*
X49242Y-42186D01*
X49313Y-42256D01*
X49405Y-42294D01*
X49504Y-42295D01*
X49586Y-42295D01*
X49568Y-42313D01*
X49530Y-42405D01*
X49529Y-42504D01*
X49529Y-43094D01*
X49567Y-43186D01*
X49602Y-43220D01*
X49541Y-43232D01*
X49364Y-43351D01*
X49246Y-43527D01*
X49205Y-43736D01*
X49205Y-44058D01*
X49246Y-44267D01*
X49364Y-44443D01*
X49541Y-44562D01*
X49750Y-44603D01*
X49958Y-44562D01*
X50135Y-44443D01*
X50250Y-44272D01*
X50364Y-44443D01*
X50541Y-44562D01*
X50750Y-44603D01*
X50958Y-44562D01*
X51135Y-44443D01*
X51250Y-44272D01*
X51364Y-44443D01*
X51541Y-44562D01*
X51750Y-44603D01*
X51958Y-44562D01*
X52135Y-44443D01*
X52250Y-44272D01*
X52364Y-44443D01*
X52541Y-44562D01*
X52750Y-44603D01*
X52958Y-44562D01*
X53135Y-44443D01*
X53250Y-44272D01*
X53364Y-44443D01*
X53541Y-44562D01*
X53750Y-44603D01*
X53958Y-44562D01*
X54135Y-44443D01*
X54250Y-44272D01*
X54364Y-44443D01*
X54541Y-44562D01*
X54750Y-44603D01*
X54958Y-44562D01*
X55135Y-44443D01*
X55204Y-44339D01*
X55204Y-44389D01*
X55242Y-44481D01*
X55313Y-44551D01*
X55405Y-44589D01*
X55504Y-44590D01*
X56094Y-44590D01*
X56186Y-44552D01*
X56256Y-44481D01*
X56294Y-44389D01*
X56295Y-44290D01*
X56295Y-43405D01*
X56257Y-43313D01*
X56186Y-43243D01*
X56094Y-43205D01*
X55995Y-43204D01*
X55405Y-43204D01*
X55313Y-43242D01*
X55243Y-43313D01*
X55205Y-43405D01*
X55204Y-43455D01*
X55135Y-43351D01*
X54958Y-43232D01*
X54750Y-43191D01*
X54541Y-43232D01*
X54364Y-43351D01*
X54250Y-43522D01*
X54135Y-43351D01*
X53958Y-43232D01*
X53750Y-43191D01*
X53541Y-43232D01*
X53364Y-43351D01*
X53250Y-43522D01*
X53135Y-43351D01*
X52958Y-43232D01*
X52750Y-43191D01*
X52541Y-43232D01*
X52364Y-43351D01*
X52250Y-43522D01*
X52135Y-43351D01*
X51958Y-43232D01*
X51772Y-43195D01*
X51781Y-43186D01*
X51819Y-43094D01*
X51820Y-42995D01*
X51820Y-42862D01*
X51757Y-42800D01*
X51300Y-42800D01*
X51300Y-43232D01*
X51362Y-43295D01*
X51448Y-43295D01*
X51364Y-43351D01*
X51250Y-43522D01*
X51135Y-43351D01*
X51051Y-43295D01*
X51137Y-43295D01*
X51200Y-43232D01*
X51200Y-42800D01*
X50742Y-42800D01*
X50680Y-42862D01*
X50679Y-42995D01*
X50680Y-43094D01*
X50718Y-43186D01*
X50727Y-43195D01*
X50596Y-43221D01*
X50631Y-43186D01*
X50669Y-43094D01*
X50670Y-42995D01*
X50670Y-42405D01*
X50632Y-42313D01*
X50596Y-42278D01*
X50727Y-42304D01*
X50718Y-42313D01*
X50680Y-42405D01*
X50679Y-42504D01*
X50680Y-42637D01*
X50742Y-42700D01*
X51200Y-42700D01*
X51200Y-42267D01*
X51137Y-42205D01*
X51051Y-42204D01*
X51135Y-42148D01*
X51250Y-41977D01*
X51364Y-42148D01*
X51448Y-42204D01*
X51362Y-42205D01*
X51300Y-42267D01*
X51300Y-42700D01*
X51757Y-42700D01*
X51820Y-42637D01*
X51820Y-42504D01*
X51819Y-42405D01*
X51781Y-42313D01*
X51772Y-42304D01*
X51958Y-42267D01*
X52135Y-42148D01*
X52250Y-41977D01*
X52364Y-42148D01*
X52541Y-42267D01*
X52750Y-42308D01*
X52958Y-42267D01*
X53135Y-42148D01*
X53250Y-41977D01*
X53364Y-42148D01*
X53541Y-42267D01*
X53750Y-42308D01*
X53958Y-42267D01*
X54135Y-42148D01*
X54250Y-41977D01*
X54364Y-42148D01*
X54541Y-42267D01*
X54750Y-42308D01*
X54958Y-42267D01*
X54969Y-42259D01*
X54938Y-42291D01*
X54881Y-42426D01*
X54881Y-42572D01*
X54937Y-42708D01*
X55041Y-42811D01*
X55176Y-42868D01*
X55322Y-42868D01*
X55458Y-42812D01*
X55470Y-42800D01*
X56029Y-42800D01*
X56041Y-42811D01*
X56176Y-42868D01*
X56322Y-42868D01*
X56458Y-42812D01*
X56479Y-42790D01*
X56480Y-42887D01*
X56542Y-42950D01*
X57000Y-42950D01*
X57000Y-43050D01*
X56542Y-43050D01*
X56480Y-43112D01*
X56479Y-43245D01*
X56480Y-43344D01*
X56518Y-43436D01*
X56588Y-43507D01*
X56680Y-43545D01*
X56937Y-43545D01*
X57000Y-43482D01*
X57000Y-50450D01*
X56295Y-50450D01*
X56295Y-49819D01*
X56295Y-49080D01*
X56295Y-48570D01*
X56295Y-47930D01*
X56295Y-47930D01*
X56295Y-46800D01*
X56295Y-46652D01*
X56295Y-46552D01*
X56295Y-46405D01*
X56234Y-46200D01*
X56100Y-46034D01*
X55912Y-45932D01*
X55884Y-45926D01*
X55800Y-45975D01*
X55800Y-46552D01*
X56295Y-46552D01*
X56295Y-46652D01*
X55800Y-46652D01*
X55800Y-47229D01*
X55884Y-47278D01*
X55912Y-47272D01*
X56100Y-47170D01*
X56234Y-47004D01*
X56295Y-46800D01*
X56295Y-47930D01*
X56257Y-47838D01*
X56186Y-47768D01*
X56094Y-47730D01*
X55995Y-47729D01*
X55700Y-47729D01*
X55700Y-47229D01*
X55700Y-46652D01*
X55692Y-46652D01*
X55692Y-46552D01*
X55700Y-46552D01*
X55700Y-45975D01*
X55615Y-45926D01*
X55587Y-45932D01*
X55399Y-46034D01*
X55265Y-46200D01*
X55254Y-46237D01*
X55253Y-46232D01*
X55135Y-46056D01*
X54958Y-45937D01*
X54750Y-45896D01*
X54541Y-45937D01*
X54364Y-46056D01*
X54250Y-46227D01*
X54135Y-46056D01*
X53958Y-45937D01*
X53750Y-45896D01*
X53541Y-45937D01*
X53364Y-46056D01*
X53250Y-46227D01*
X53135Y-46056D01*
X52958Y-45937D01*
X52750Y-45896D01*
X52541Y-45937D01*
X52364Y-46056D01*
X52250Y-46227D01*
X52135Y-46056D01*
X51958Y-45937D01*
X51750Y-45896D01*
X51541Y-45937D01*
X51364Y-46056D01*
X51250Y-46227D01*
X51135Y-46056D01*
X50958Y-45937D01*
X50750Y-45896D01*
X50541Y-45937D01*
X50364Y-46056D01*
X50250Y-46227D01*
X50135Y-46056D01*
X49958Y-45937D01*
X49750Y-45896D01*
X49541Y-45937D01*
X49364Y-46056D01*
X49246Y-46232D01*
X49205Y-46441D01*
X49205Y-46763D01*
X49246Y-46972D01*
X49364Y-47148D01*
X49541Y-47267D01*
X49750Y-47308D01*
X49958Y-47267D01*
X50135Y-47148D01*
X50250Y-46977D01*
X50364Y-47148D01*
X50541Y-47267D01*
X50750Y-47308D01*
X50958Y-47267D01*
X51135Y-47148D01*
X51250Y-46977D01*
X51364Y-47148D01*
X51541Y-47267D01*
X51750Y-47308D01*
X51958Y-47267D01*
X52135Y-47148D01*
X52250Y-46977D01*
X52364Y-47148D01*
X52541Y-47267D01*
X52750Y-47308D01*
X52958Y-47267D01*
X53135Y-47148D01*
X53250Y-46977D01*
X53364Y-47148D01*
X53541Y-47267D01*
X53750Y-47308D01*
X53958Y-47267D01*
X54135Y-47148D01*
X54250Y-46977D01*
X54364Y-47148D01*
X54541Y-47267D01*
X54750Y-47308D01*
X54958Y-47267D01*
X55135Y-47148D01*
X55253Y-46972D01*
X55254Y-46967D01*
X55265Y-47004D01*
X55399Y-47170D01*
X55587Y-47272D01*
X55615Y-47278D01*
X55700Y-47229D01*
X55700Y-47729D01*
X55405Y-47729D01*
X55313Y-47767D01*
X55249Y-47831D01*
X55186Y-47768D01*
X55094Y-47730D01*
X54995Y-47729D01*
X54405Y-47729D01*
X54313Y-47767D01*
X54243Y-47838D01*
X54205Y-47930D01*
X54204Y-48029D01*
X54204Y-48669D01*
X54242Y-48761D01*
X54313Y-48831D01*
X54405Y-48869D01*
X54504Y-48870D01*
X55094Y-48870D01*
X55186Y-48832D01*
X55250Y-48768D01*
X55313Y-48831D01*
X55405Y-48869D01*
X55504Y-48870D01*
X56094Y-48870D01*
X56186Y-48832D01*
X56256Y-48761D01*
X56294Y-48669D01*
X56295Y-48570D01*
X56295Y-49080D01*
X56257Y-48988D01*
X56186Y-48918D01*
X56094Y-48880D01*
X55995Y-48879D01*
X55862Y-48880D01*
X55800Y-48942D01*
X55800Y-49400D01*
X56232Y-49400D01*
X56295Y-49337D01*
X56295Y-49080D01*
X56295Y-49819D01*
X56295Y-49562D01*
X56232Y-49500D01*
X55800Y-49500D01*
X55800Y-49957D01*
X55862Y-50020D01*
X55995Y-50020D01*
X56094Y-50019D01*
X56186Y-49981D01*
X56257Y-49911D01*
X56295Y-49819D01*
X56295Y-50450D01*
X55700Y-50450D01*
X55700Y-49957D01*
X55700Y-49500D01*
X55700Y-49400D01*
X55700Y-48942D01*
X55637Y-48880D01*
X55504Y-48879D01*
X55405Y-48880D01*
X55313Y-48918D01*
X55250Y-48981D01*
X55186Y-48918D01*
X55094Y-48880D01*
X54995Y-48879D01*
X54862Y-48880D01*
X54800Y-48942D01*
X54800Y-49400D01*
X55232Y-49400D01*
X55250Y-49382D01*
X55267Y-49400D01*
X55700Y-49400D01*
X55700Y-49500D01*
X55267Y-49500D01*
X55250Y-49517D01*
X55232Y-49500D01*
X54800Y-49500D01*
X54800Y-49957D01*
X54862Y-50020D01*
X54995Y-50020D01*
X55094Y-50019D01*
X55186Y-49981D01*
X55250Y-49918D01*
X55313Y-49981D01*
X55405Y-50019D01*
X55504Y-50020D01*
X55637Y-50020D01*
X55700Y-49957D01*
X55700Y-50450D01*
X54700Y-50450D01*
X54700Y-49957D01*
X54700Y-49500D01*
X54700Y-49400D01*
X54700Y-48942D01*
X54637Y-48880D01*
X54504Y-48879D01*
X54405Y-48880D01*
X54313Y-48918D01*
X54242Y-48988D01*
X54204Y-49080D01*
X54205Y-49337D01*
X54267Y-49400D01*
X54700Y-49400D01*
X54700Y-49500D01*
X54267Y-49500D01*
X54205Y-49562D01*
X54204Y-49819D01*
X54242Y-49911D01*
X54313Y-49981D01*
X54405Y-50019D01*
X54504Y-50020D01*
X54637Y-50020D01*
X54700Y-49957D01*
X54700Y-50450D01*
X53845Y-50450D01*
X53845Y-50045D01*
X53845Y-49355D01*
X53807Y-49263D01*
X53736Y-49193D01*
X53644Y-49155D01*
X53545Y-49154D01*
X52855Y-49154D01*
X52763Y-49192D01*
X52693Y-49263D01*
X52667Y-49325D01*
X52587Y-49245D01*
X52368Y-49155D01*
X52132Y-49154D01*
X51913Y-49245D01*
X51749Y-49408D01*
X51587Y-49245D01*
X51368Y-49155D01*
X51132Y-49154D01*
X50913Y-49245D01*
X50745Y-49412D01*
X50740Y-49425D01*
X50668Y-49402D01*
X50597Y-49472D01*
X50597Y-49331D01*
X50564Y-49231D01*
X50342Y-49150D01*
X50106Y-49160D01*
X49935Y-49231D01*
X49902Y-49331D01*
X50250Y-49679D01*
X50597Y-49331D01*
X50597Y-49472D01*
X50320Y-49750D01*
X50668Y-50097D01*
X50740Y-50074D01*
X50745Y-50086D01*
X50912Y-50254D01*
X51131Y-50344D01*
X51367Y-50345D01*
X51586Y-50254D01*
X51750Y-50091D01*
X51912Y-50254D01*
X52131Y-50344D01*
X52367Y-50345D01*
X52586Y-50254D01*
X52667Y-50174D01*
X52692Y-50236D01*
X52763Y-50306D01*
X52855Y-50344D01*
X52954Y-50345D01*
X53644Y-50345D01*
X53736Y-50307D01*
X53806Y-50236D01*
X53844Y-50144D01*
X53845Y-50045D01*
X53845Y-50450D01*
X50597Y-50450D01*
X50597Y-50168D01*
X50250Y-49820D01*
X50179Y-49891D01*
X50179Y-49750D01*
X49831Y-49402D01*
X49731Y-49435D01*
X49650Y-49657D01*
X49660Y-49893D01*
X49731Y-50064D01*
X49831Y-50097D01*
X50179Y-49750D01*
X50179Y-49891D01*
X49902Y-50168D01*
X49935Y-50268D01*
X50157Y-50349D01*
X50393Y-50339D01*
X50564Y-50268D01*
X50597Y-50168D01*
X50597Y-50450D01*
X50176Y-50450D01*
X49946Y-50404D01*
X49299Y-49972D01*
X49287Y-49955D01*
X49050Y-49241D01*
X49050Y-36300D01*
X50300Y-36300D01*
X50300Y-34200D01*
X49050Y-34200D01*
X49050Y-31550D01*
X67950Y-31550D01*
X67950Y-34200D01*
X66700Y-34200D01*
X66700Y-36300D01*
X67950Y-36300D01*
X67950Y-42531D01*
X67911Y-42492D01*
X67845Y-42465D01*
X67845Y-41632D01*
X67845Y-37632D01*
X67754Y-37413D01*
X67587Y-37245D01*
X67368Y-37155D01*
X67132Y-37154D01*
X66913Y-37245D01*
X66745Y-37412D01*
X66655Y-37631D01*
X66654Y-37867D01*
X66745Y-38086D01*
X66912Y-38254D01*
X67131Y-38344D01*
X67367Y-38345D01*
X67586Y-38254D01*
X67754Y-38087D01*
X67844Y-37868D01*
X67845Y-37632D01*
X67845Y-41632D01*
X67754Y-41413D01*
X67587Y-41245D01*
X67368Y-41155D01*
X67132Y-41154D01*
X66913Y-41245D01*
X66745Y-41412D01*
X66655Y-41631D01*
X66654Y-41867D01*
X66745Y-42086D01*
X66912Y-42254D01*
X67131Y-42344D01*
X67367Y-42345D01*
X67586Y-42254D01*
X67754Y-42087D01*
X67844Y-41868D01*
X67845Y-41632D01*
X67845Y-42465D01*
X67819Y-42454D01*
X67562Y-42455D01*
X67500Y-42517D01*
X67500Y-42950D01*
X67507Y-42950D01*
X67507Y-43050D01*
X67500Y-43050D01*
X67500Y-43482D01*
X67562Y-43545D01*
X67819Y-43545D01*
X67911Y-43507D01*
X67950Y-43468D01*
X67950Y-48993D01*
X67950Y-48993D01*
G37*
G54D24*
X67950Y-48993D02*
X67708Y-49960D01*
X67703Y-49967D01*
X67534Y-50051D01*
X67534Y-49249D01*
X67534Y-44525D01*
X67527Y-44214D01*
X67422Y-43961D01*
X67400Y-43950D01*
X67400Y-43482D01*
X67400Y-43050D01*
X67400Y-42950D01*
X67400Y-42517D01*
X67337Y-42455D01*
X67080Y-42454D01*
X66988Y-42492D01*
X66918Y-42563D01*
X66880Y-42655D01*
X66879Y-42754D01*
X66880Y-42887D01*
X66942Y-42950D01*
X67400Y-42950D01*
X67400Y-43050D01*
X66942Y-43050D01*
X66880Y-43112D01*
X66879Y-43245D01*
X66880Y-43344D01*
X66918Y-43436D01*
X66988Y-43507D01*
X67080Y-43545D01*
X67337Y-43545D01*
X67400Y-43482D01*
X67400Y-43950D01*
X67303Y-43905D01*
X67232Y-43976D01*
X67232Y-43834D01*
X67176Y-43715D01*
X66887Y-43603D01*
X66870Y-43603D01*
X66870Y-43245D01*
X66870Y-42655D01*
X66832Y-42563D01*
X66761Y-42493D01*
X66669Y-42455D01*
X66570Y-42454D01*
X66095Y-42454D01*
X66095Y-38045D01*
X66095Y-37355D01*
X66057Y-37263D01*
X65986Y-37193D01*
X65894Y-37155D01*
X65795Y-37154D01*
X65105Y-37154D01*
X65013Y-37192D01*
X64943Y-37263D01*
X64905Y-37355D01*
X64904Y-37454D01*
X64904Y-38144D01*
X64942Y-38236D01*
X65013Y-38306D01*
X65086Y-38337D01*
X65020Y-38397D01*
X64922Y-38607D01*
X64969Y-38700D01*
X65450Y-38700D01*
X65450Y-38692D01*
X65550Y-38692D01*
X65550Y-38700D01*
X66030Y-38700D01*
X66077Y-38607D01*
X65979Y-38397D01*
X65913Y-38337D01*
X65986Y-38307D01*
X66056Y-38236D01*
X66094Y-38144D01*
X66095Y-38045D01*
X66095Y-42454D01*
X66077Y-42454D01*
X66077Y-38892D01*
X66030Y-38800D01*
X65550Y-38800D01*
X65550Y-39280D01*
X65642Y-39327D01*
X65808Y-39259D01*
X65979Y-39102D01*
X66077Y-38892D01*
X66077Y-42454D01*
X65930Y-42454D01*
X65838Y-42492D01*
X65768Y-42563D01*
X65730Y-42655D01*
X65729Y-42754D01*
X65729Y-43344D01*
X65767Y-43436D01*
X65838Y-43506D01*
X65930Y-43544D01*
X66029Y-43545D01*
X66669Y-43545D01*
X66761Y-43507D01*
X66831Y-43436D01*
X66869Y-43344D01*
X66870Y-43245D01*
X66870Y-43603D01*
X66576Y-43610D01*
X66323Y-43715D01*
X66267Y-43834D01*
X66750Y-44317D01*
X67232Y-43834D01*
X67232Y-43976D01*
X66820Y-44388D01*
X67303Y-44870D01*
X67422Y-44814D01*
X67534Y-44525D01*
X67534Y-49249D01*
X67527Y-48938D01*
X67422Y-48685D01*
X67303Y-48629D01*
X67232Y-48700D01*
X67232Y-48558D01*
X67232Y-44941D01*
X66750Y-44458D01*
X66679Y-44529D01*
X66679Y-44388D01*
X66196Y-43905D01*
X66077Y-43961D01*
X65965Y-44250D01*
X65972Y-44561D01*
X66077Y-44814D01*
X66196Y-44870D01*
X66679Y-44388D01*
X66679Y-44529D01*
X66267Y-44941D01*
X66323Y-45060D01*
X66612Y-45172D01*
X66923Y-45165D01*
X67176Y-45060D01*
X67232Y-44941D01*
X67232Y-48558D01*
X67176Y-48439D01*
X66887Y-48327D01*
X66576Y-48334D01*
X66323Y-48439D01*
X66267Y-48558D01*
X66750Y-49041D01*
X67232Y-48558D01*
X67232Y-48700D01*
X66820Y-49112D01*
X67303Y-49594D01*
X67422Y-49538D01*
X67534Y-49249D01*
X67534Y-50051D01*
X67232Y-50202D01*
X67232Y-49665D01*
X66750Y-49182D01*
X66679Y-49253D01*
X66679Y-49112D01*
X66236Y-48669D01*
X66236Y-46330D01*
X66225Y-46114D01*
X66164Y-45965D01*
X66069Y-45938D01*
X65998Y-46009D01*
X65998Y-45867D01*
X65971Y-45772D01*
X65767Y-45700D01*
X65551Y-45711D01*
X65450Y-45753D01*
X65450Y-39280D01*
X65450Y-38800D01*
X64969Y-38800D01*
X64922Y-38892D01*
X65020Y-39102D01*
X65191Y-39259D01*
X65357Y-39327D01*
X65450Y-39280D01*
X65450Y-45753D01*
X65402Y-45772D01*
X65375Y-45867D01*
X65687Y-46179D01*
X65998Y-45867D01*
X65998Y-46009D01*
X65757Y-46250D01*
X66069Y-46561D01*
X66164Y-46534D01*
X66236Y-46330D01*
X66236Y-48669D01*
X66232Y-48664D01*
X66232Y-47142D01*
X66149Y-46941D01*
X65996Y-46788D01*
X65910Y-46752D01*
X65971Y-46727D01*
X65998Y-46632D01*
X65687Y-46320D01*
X65375Y-46632D01*
X65402Y-46727D01*
X65468Y-46750D01*
X65378Y-46787D01*
X65293Y-46872D01*
X65209Y-46788D01*
X65117Y-46750D01*
X65208Y-46712D01*
X65361Y-46559D01*
X65400Y-46465D01*
X65616Y-46250D01*
X65400Y-46034D01*
X65362Y-45941D01*
X65209Y-45788D01*
X65008Y-45705D01*
X64795Y-45704D01*
X64795Y-42745D01*
X64795Y-42155D01*
X64757Y-42063D01*
X64686Y-41993D01*
X64594Y-41955D01*
X64495Y-41954D01*
X64297Y-41954D01*
X64385Y-41896D01*
X64503Y-41719D01*
X64545Y-41510D01*
X64545Y-41489D01*
X64545Y-37510D01*
X64545Y-37489D01*
X64503Y-37280D01*
X64385Y-37103D01*
X64208Y-36985D01*
X64000Y-36944D01*
X63791Y-36985D01*
X63695Y-37050D01*
X63695Y-35992D01*
X63695Y-34302D01*
X63616Y-34110D01*
X63469Y-33964D01*
X63278Y-33885D01*
X63072Y-33884D01*
X62880Y-33963D01*
X62749Y-34094D01*
X62619Y-33964D01*
X62428Y-33885D01*
X62222Y-33884D01*
X62030Y-33963D01*
X61899Y-34094D01*
X61769Y-33964D01*
X61578Y-33885D01*
X61372Y-33884D01*
X61180Y-33963D01*
X61049Y-34094D01*
X60919Y-33964D01*
X60728Y-33885D01*
X60522Y-33884D01*
X60330Y-33963D01*
X60199Y-34094D01*
X60069Y-33964D01*
X59878Y-33885D01*
X59672Y-33884D01*
X59480Y-33963D01*
X59334Y-34110D01*
X59329Y-34121D01*
X59289Y-34111D01*
X59218Y-34182D01*
X59218Y-34040D01*
X59194Y-33948D01*
X58999Y-33880D01*
X58793Y-33891D01*
X58655Y-33948D01*
X58631Y-34040D01*
X58925Y-34334D01*
X59218Y-34040D01*
X59218Y-34182D01*
X58995Y-34405D01*
X59289Y-34698D01*
X59329Y-34688D01*
X59333Y-34699D01*
X59480Y-34845D01*
X59671Y-34924D01*
X59877Y-34925D01*
X60069Y-34846D01*
X60200Y-34715D01*
X60330Y-34845D01*
X60521Y-34924D01*
X60727Y-34925D01*
X60919Y-34846D01*
X61050Y-34715D01*
X61180Y-34845D01*
X61371Y-34924D01*
X61577Y-34925D01*
X61769Y-34846D01*
X61900Y-34715D01*
X62030Y-34845D01*
X62221Y-34924D01*
X62427Y-34925D01*
X62619Y-34846D01*
X62750Y-34715D01*
X62880Y-34845D01*
X63071Y-34924D01*
X63277Y-34925D01*
X63469Y-34846D01*
X63615Y-34699D01*
X63694Y-34508D01*
X63695Y-34302D01*
X63695Y-35992D01*
X63616Y-35800D01*
X63469Y-35654D01*
X63278Y-35575D01*
X63072Y-35574D01*
X62880Y-35653D01*
X62749Y-35784D01*
X62619Y-35654D01*
X62428Y-35575D01*
X62222Y-35574D01*
X62030Y-35653D01*
X61899Y-35784D01*
X61769Y-35654D01*
X61578Y-35575D01*
X61372Y-35574D01*
X61180Y-35653D01*
X61049Y-35784D01*
X60919Y-35654D01*
X60728Y-35575D01*
X60522Y-35574D01*
X60330Y-35653D01*
X60199Y-35784D01*
X60069Y-35654D01*
X59878Y-35575D01*
X59672Y-35574D01*
X59480Y-35653D01*
X59349Y-35784D01*
X59219Y-35654D01*
X59218Y-35653D01*
X59218Y-34769D01*
X58925Y-34475D01*
X58854Y-34546D01*
X58854Y-34405D01*
X58560Y-34111D01*
X58499Y-34127D01*
X58439Y-34111D01*
X58368Y-34182D01*
X58368Y-34040D01*
X58344Y-33948D01*
X58149Y-33880D01*
X57943Y-33891D01*
X57805Y-33948D01*
X57781Y-34040D01*
X58075Y-34334D01*
X58368Y-34040D01*
X58368Y-34182D01*
X58145Y-34405D01*
X58439Y-34698D01*
X58499Y-34682D01*
X58560Y-34698D01*
X58854Y-34405D01*
X58854Y-34546D01*
X58631Y-34769D01*
X58655Y-34861D01*
X58850Y-34929D01*
X59056Y-34918D01*
X59194Y-34861D01*
X59218Y-34769D01*
X59218Y-35653D01*
X59028Y-35575D01*
X58822Y-35574D01*
X58630Y-35653D01*
X58499Y-35784D01*
X58369Y-35654D01*
X58368Y-35653D01*
X58368Y-34769D01*
X58075Y-34475D01*
X58004Y-34546D01*
X58004Y-34405D01*
X57710Y-34111D01*
X57649Y-34127D01*
X57589Y-34111D01*
X57518Y-34182D01*
X57518Y-34040D01*
X57494Y-33948D01*
X57299Y-33880D01*
X57093Y-33891D01*
X56955Y-33948D01*
X56931Y-34040D01*
X57225Y-34334D01*
X57518Y-34040D01*
X57518Y-34182D01*
X57295Y-34405D01*
X57589Y-34698D01*
X57649Y-34682D01*
X57710Y-34698D01*
X58004Y-34405D01*
X58004Y-34546D01*
X57781Y-34769D01*
X57805Y-34861D01*
X58000Y-34929D01*
X58206Y-34918D01*
X58344Y-34861D01*
X58368Y-34769D01*
X58368Y-35653D01*
X58178Y-35575D01*
X57972Y-35574D01*
X57780Y-35653D01*
X57649Y-35784D01*
X57519Y-35654D01*
X57518Y-35653D01*
X57518Y-34769D01*
X57225Y-34475D01*
X57154Y-34546D01*
X57154Y-34405D01*
X56860Y-34111D01*
X56799Y-34127D01*
X56739Y-34111D01*
X56668Y-34182D01*
X56668Y-34040D01*
X56644Y-33948D01*
X56449Y-33880D01*
X56243Y-33891D01*
X56105Y-33948D01*
X56081Y-34040D01*
X56375Y-34334D01*
X56668Y-34040D01*
X56668Y-34182D01*
X56445Y-34405D01*
X56739Y-34698D01*
X56799Y-34682D01*
X56860Y-34698D01*
X57154Y-34405D01*
X57154Y-34546D01*
X56931Y-34769D01*
X56955Y-34861D01*
X57150Y-34929D01*
X57356Y-34918D01*
X57494Y-34861D01*
X57518Y-34769D01*
X57518Y-35653D01*
X57328Y-35575D01*
X57122Y-35574D01*
X56930Y-35653D01*
X56799Y-35784D01*
X56669Y-35654D01*
X56668Y-35653D01*
X56668Y-34769D01*
X56375Y-34475D01*
X56304Y-34546D01*
X56304Y-34405D01*
X56010Y-34111D01*
X55949Y-34127D01*
X55889Y-34111D01*
X55818Y-34182D01*
X55818Y-34040D01*
X55794Y-33948D01*
X55599Y-33880D01*
X55393Y-33891D01*
X55255Y-33948D01*
X55231Y-34040D01*
X55525Y-34334D01*
X55818Y-34040D01*
X55818Y-34182D01*
X55595Y-34405D01*
X55889Y-34698D01*
X55949Y-34682D01*
X56010Y-34698D01*
X56304Y-34405D01*
X56304Y-34546D01*
X56081Y-34769D01*
X56105Y-34861D01*
X56300Y-34929D01*
X56506Y-34918D01*
X56644Y-34861D01*
X56668Y-34769D01*
X56668Y-35653D01*
X56478Y-35575D01*
X56272Y-35574D01*
X56080Y-35653D01*
X55949Y-35784D01*
X55819Y-35654D01*
X55818Y-35653D01*
X55818Y-34769D01*
X55525Y-34475D01*
X55454Y-34546D01*
X55454Y-34405D01*
X55160Y-34111D01*
X55099Y-34127D01*
X55039Y-34111D01*
X54968Y-34182D01*
X54968Y-34040D01*
X54944Y-33948D01*
X54749Y-33880D01*
X54543Y-33891D01*
X54405Y-33948D01*
X54381Y-34040D01*
X54675Y-34334D01*
X54968Y-34040D01*
X54968Y-34182D01*
X54745Y-34405D01*
X55039Y-34698D01*
X55099Y-34682D01*
X55160Y-34698D01*
X55454Y-34405D01*
X55454Y-34546D01*
X55231Y-34769D01*
X55255Y-34861D01*
X55450Y-34929D01*
X55656Y-34918D01*
X55794Y-34861D01*
X55818Y-34769D01*
X55818Y-35653D01*
X55628Y-35575D01*
X55422Y-35574D01*
X55230Y-35653D01*
X55099Y-35784D01*
X54969Y-35654D01*
X54968Y-35653D01*
X54968Y-34769D01*
X54675Y-34475D01*
X54604Y-34546D01*
X54604Y-34405D01*
X54310Y-34111D01*
X54249Y-34127D01*
X54189Y-34111D01*
X54118Y-34182D01*
X54118Y-34040D01*
X54094Y-33948D01*
X53899Y-33880D01*
X53693Y-33891D01*
X53555Y-33948D01*
X53531Y-34040D01*
X53825Y-34334D01*
X54118Y-34040D01*
X54118Y-34182D01*
X53895Y-34405D01*
X54189Y-34698D01*
X54249Y-34682D01*
X54310Y-34698D01*
X54604Y-34405D01*
X54604Y-34546D01*
X54381Y-34769D01*
X54405Y-34861D01*
X54600Y-34929D01*
X54806Y-34918D01*
X54944Y-34861D01*
X54968Y-34769D01*
X54968Y-35653D01*
X54778Y-35575D01*
X54572Y-35574D01*
X54380Y-35653D01*
X54234Y-35800D01*
X54229Y-35811D01*
X54189Y-35801D01*
X54118Y-35872D01*
X54118Y-35730D01*
X54118Y-34769D01*
X53825Y-34475D01*
X53754Y-34546D01*
X53754Y-34405D01*
X53460Y-34111D01*
X53368Y-34135D01*
X53300Y-34330D01*
X53311Y-34536D01*
X53368Y-34674D01*
X53460Y-34698D01*
X53754Y-34405D01*
X53754Y-34546D01*
X53531Y-34769D01*
X53555Y-34861D01*
X53750Y-34929D01*
X53956Y-34918D01*
X54094Y-34861D01*
X54118Y-34769D01*
X54118Y-35730D01*
X54094Y-35638D01*
X53899Y-35570D01*
X53693Y-35581D01*
X53555Y-35638D01*
X53531Y-35730D01*
X53825Y-36024D01*
X54118Y-35730D01*
X54118Y-35872D01*
X53895Y-36095D01*
X54189Y-36388D01*
X54229Y-36378D01*
X54233Y-36389D01*
X54380Y-36535D01*
X54571Y-36614D01*
X54777Y-36615D01*
X54969Y-36536D01*
X55100Y-36405D01*
X55230Y-36535D01*
X55421Y-36614D01*
X55627Y-36615D01*
X55819Y-36536D01*
X55950Y-36405D01*
X56080Y-36535D01*
X56271Y-36614D01*
X56477Y-36615D01*
X56669Y-36536D01*
X56800Y-36405D01*
X56930Y-36535D01*
X57121Y-36614D01*
X57327Y-36615D01*
X57519Y-36536D01*
X57650Y-36405D01*
X57780Y-36535D01*
X57971Y-36614D01*
X58177Y-36615D01*
X58369Y-36536D01*
X58500Y-36405D01*
X58630Y-36535D01*
X58821Y-36614D01*
X59027Y-36615D01*
X59219Y-36536D01*
X59350Y-36405D01*
X59480Y-36535D01*
X59671Y-36614D01*
X59877Y-36615D01*
X60069Y-36536D01*
X60200Y-36405D01*
X60330Y-36535D01*
X60521Y-36614D01*
X60727Y-36615D01*
X60919Y-36536D01*
X61050Y-36405D01*
X61180Y-36535D01*
X61371Y-36614D01*
X61577Y-36615D01*
X61769Y-36536D01*
X61900Y-36405D01*
X62030Y-36535D01*
X62221Y-36614D01*
X62427Y-36615D01*
X62619Y-36536D01*
X62750Y-36405D01*
X62880Y-36535D01*
X63071Y-36614D01*
X63277Y-36615D01*
X63469Y-36536D01*
X63615Y-36389D01*
X63694Y-36198D01*
X63695Y-35992D01*
X63695Y-37050D01*
X63614Y-37103D01*
X63496Y-37280D01*
X63455Y-37489D01*
X63455Y-37510D01*
X63496Y-37719D01*
X63614Y-37896D01*
X63791Y-38014D01*
X64000Y-38055D01*
X64208Y-38014D01*
X64385Y-37896D01*
X64503Y-37719D01*
X64545Y-37510D01*
X64545Y-41489D01*
X64503Y-41280D01*
X64385Y-41103D01*
X64368Y-41092D01*
X64368Y-40177D01*
X64312Y-40041D01*
X64208Y-39938D01*
X64073Y-39881D01*
X63927Y-39881D01*
X63791Y-39937D01*
X63779Y-39950D01*
X63295Y-39950D01*
X63295Y-39058D01*
X63295Y-38736D01*
X63253Y-38527D01*
X63135Y-38351D01*
X62958Y-38232D01*
X62750Y-38191D01*
X62541Y-38232D01*
X62364Y-38351D01*
X62250Y-38522D01*
X62135Y-38351D01*
X61958Y-38232D01*
X61750Y-38191D01*
X61541Y-38232D01*
X61364Y-38351D01*
X61250Y-38522D01*
X61135Y-38351D01*
X60958Y-38232D01*
X60750Y-38191D01*
X60541Y-38232D01*
X60364Y-38351D01*
X60250Y-38522D01*
X60135Y-38351D01*
X59958Y-38232D01*
X59750Y-38191D01*
X59541Y-38232D01*
X59364Y-38351D01*
X59250Y-38522D01*
X59135Y-38351D01*
X58958Y-38232D01*
X58750Y-38191D01*
X58541Y-38232D01*
X58364Y-38351D01*
X58250Y-38522D01*
X58135Y-38351D01*
X57958Y-38232D01*
X57750Y-38191D01*
X57541Y-38232D01*
X57364Y-38351D01*
X57250Y-38522D01*
X57135Y-38351D01*
X56958Y-38232D01*
X56750Y-38191D01*
X56541Y-38232D01*
X56364Y-38351D01*
X56246Y-38527D01*
X56245Y-38532D01*
X56234Y-38495D01*
X56100Y-38329D01*
X55912Y-38227D01*
X55884Y-38221D01*
X55800Y-38270D01*
X55800Y-38847D01*
X55807Y-38847D01*
X55807Y-38947D01*
X55800Y-38947D01*
X55800Y-39524D01*
X55884Y-39573D01*
X55912Y-39567D01*
X56100Y-39465D01*
X56234Y-39299D01*
X56245Y-39262D01*
X56246Y-39267D01*
X56364Y-39443D01*
X56541Y-39562D01*
X56750Y-39603D01*
X56958Y-39562D01*
X57135Y-39443D01*
X57250Y-39272D01*
X57364Y-39443D01*
X57541Y-39562D01*
X57750Y-39603D01*
X57958Y-39562D01*
X58135Y-39443D01*
X58250Y-39272D01*
X58364Y-39443D01*
X58541Y-39562D01*
X58750Y-39603D01*
X58958Y-39562D01*
X59135Y-39443D01*
X59250Y-39272D01*
X59364Y-39443D01*
X59541Y-39562D01*
X59750Y-39603D01*
X59958Y-39562D01*
X60135Y-39443D01*
X60250Y-39272D01*
X60364Y-39443D01*
X60541Y-39562D01*
X60750Y-39603D01*
X60958Y-39562D01*
X61135Y-39443D01*
X61250Y-39272D01*
X61364Y-39443D01*
X61541Y-39562D01*
X61750Y-39603D01*
X61958Y-39562D01*
X62135Y-39443D01*
X62250Y-39272D01*
X62364Y-39443D01*
X62541Y-39562D01*
X62750Y-39603D01*
X62958Y-39562D01*
X63135Y-39443D01*
X63253Y-39267D01*
X63295Y-39058D01*
X63295Y-39950D01*
X59970Y-39950D01*
X59958Y-39938D01*
X59823Y-39881D01*
X59677Y-39881D01*
X59541Y-39937D01*
X59438Y-40041D01*
X59381Y-40176D01*
X59381Y-40322D01*
X59437Y-40458D01*
X59541Y-40561D01*
X59676Y-40618D01*
X59822Y-40618D01*
X59958Y-40562D01*
X59970Y-40550D01*
X63779Y-40550D01*
X63791Y-40561D01*
X63926Y-40618D01*
X64072Y-40618D01*
X64208Y-40562D01*
X64311Y-40458D01*
X64368Y-40323D01*
X64368Y-40177D01*
X64368Y-41092D01*
X64208Y-40985D01*
X64000Y-40944D01*
X63791Y-40985D01*
X63614Y-41103D01*
X63496Y-41280D01*
X63455Y-41489D01*
X63455Y-41510D01*
X63496Y-41719D01*
X63614Y-41896D01*
X63791Y-42014D01*
X63792Y-42014D01*
X63743Y-42063D01*
X63705Y-42155D01*
X63704Y-42254D01*
X63704Y-42844D01*
X63742Y-42936D01*
X63813Y-43006D01*
X63905Y-43044D01*
X63956Y-43045D01*
X63813Y-43173D01*
X63721Y-43365D01*
X63769Y-43450D01*
X64200Y-43450D01*
X64200Y-43442D01*
X64300Y-43442D01*
X64300Y-43450D01*
X64730Y-43450D01*
X64778Y-43365D01*
X64686Y-43173D01*
X64543Y-43045D01*
X64594Y-43045D01*
X64686Y-43007D01*
X64756Y-42936D01*
X64794Y-42844D01*
X64795Y-42745D01*
X64795Y-45704D01*
X64792Y-45704D01*
X64778Y-45710D01*
X64778Y-43634D01*
X64730Y-43550D01*
X64300Y-43550D01*
X64300Y-43979D01*
X64384Y-44028D01*
X64528Y-43968D01*
X64686Y-43826D01*
X64778Y-43634D01*
X64778Y-45710D01*
X64591Y-45787D01*
X64438Y-45940D01*
X64355Y-46141D01*
X64354Y-46357D01*
X64437Y-46558D01*
X64590Y-46711D01*
X64682Y-46749D01*
X64591Y-46787D01*
X64438Y-46940D01*
X64355Y-47141D01*
X64354Y-47357D01*
X64437Y-47558D01*
X64590Y-47711D01*
X64791Y-47794D01*
X65007Y-47795D01*
X65208Y-47712D01*
X65293Y-47627D01*
X65377Y-47711D01*
X65578Y-47794D01*
X65794Y-47795D01*
X65995Y-47712D01*
X66148Y-47559D01*
X66231Y-47358D01*
X66232Y-47142D01*
X66232Y-48664D01*
X66196Y-48629D01*
X66077Y-48685D01*
X65965Y-48974D01*
X65972Y-49285D01*
X66077Y-49538D01*
X66196Y-49594D01*
X66679Y-49112D01*
X66679Y-49253D01*
X66267Y-49665D01*
X66323Y-49784D01*
X66612Y-49896D01*
X66923Y-49889D01*
X67176Y-49784D01*
X67232Y-49665D01*
X67232Y-50202D01*
X66738Y-50450D01*
X64200Y-50450D01*
X64200Y-43979D01*
X64200Y-43550D01*
X63769Y-43550D01*
X63721Y-43634D01*
X63813Y-43826D01*
X63971Y-43968D01*
X64115Y-44028D01*
X64200Y-43979D01*
X64200Y-50450D01*
X63795Y-50450D01*
X63795Y-48819D01*
X63795Y-48080D01*
X63795Y-47570D01*
X63795Y-46930D01*
X63757Y-46838D01*
X63686Y-46768D01*
X63643Y-46750D01*
X63686Y-46732D01*
X63756Y-46661D01*
X63794Y-46569D01*
X63795Y-46470D01*
X63795Y-45830D01*
X63795Y-45419D01*
X63795Y-44680D01*
X63757Y-44588D01*
X63686Y-44518D01*
X63594Y-44480D01*
X63495Y-44479D01*
X63362Y-44480D01*
X63300Y-44542D01*
X63300Y-45000D01*
X63732Y-45000D01*
X63795Y-44937D01*
X63795Y-44680D01*
X63795Y-45419D01*
X63795Y-45162D01*
X63732Y-45100D01*
X63300Y-45100D01*
X63300Y-45557D01*
X63362Y-45620D01*
X63495Y-45620D01*
X63594Y-45619D01*
X63686Y-45581D01*
X63757Y-45511D01*
X63795Y-45419D01*
X63795Y-45830D01*
X63757Y-45738D01*
X63686Y-45668D01*
X63594Y-45630D01*
X63495Y-45629D01*
X63295Y-45629D01*
X63295Y-41763D01*
X63295Y-41441D01*
X63253Y-41232D01*
X63135Y-41056D01*
X62958Y-40937D01*
X62750Y-40896D01*
X62541Y-40937D01*
X62364Y-41056D01*
X62250Y-41227D01*
X62135Y-41056D01*
X61958Y-40937D01*
X61750Y-40896D01*
X61541Y-40937D01*
X61364Y-41056D01*
X61250Y-41227D01*
X61135Y-41056D01*
X60958Y-40937D01*
X60750Y-40896D01*
X60541Y-40937D01*
X60364Y-41056D01*
X60250Y-41227D01*
X60135Y-41056D01*
X59958Y-40937D01*
X59750Y-40896D01*
X59541Y-40937D01*
X59364Y-41056D01*
X59250Y-41227D01*
X59135Y-41056D01*
X58958Y-40937D01*
X58750Y-40896D01*
X58541Y-40937D01*
X58364Y-41056D01*
X58250Y-41227D01*
X58135Y-41056D01*
X57958Y-40937D01*
X57750Y-40896D01*
X57541Y-40937D01*
X57364Y-41056D01*
X57246Y-41232D01*
X57245Y-41237D01*
X57234Y-41200D01*
X57100Y-41034D01*
X56912Y-40932D01*
X56884Y-40926D01*
X56800Y-40975D01*
X56800Y-41552D01*
X56807Y-41552D01*
X56807Y-41652D01*
X56800Y-41652D01*
X56800Y-42229D01*
X56884Y-42278D01*
X56912Y-42272D01*
X57100Y-42170D01*
X57234Y-42004D01*
X57245Y-41967D01*
X57246Y-41972D01*
X57364Y-42148D01*
X57541Y-42267D01*
X57750Y-42308D01*
X57958Y-42267D01*
X58135Y-42148D01*
X58250Y-41977D01*
X58364Y-42148D01*
X58541Y-42267D01*
X58750Y-42308D01*
X58958Y-42267D01*
X59135Y-42148D01*
X59250Y-41977D01*
X59364Y-42148D01*
X59541Y-42267D01*
X59750Y-42308D01*
X59958Y-42267D01*
X60135Y-42148D01*
X60250Y-41977D01*
X60364Y-42148D01*
X60541Y-42267D01*
X60750Y-42308D01*
X60958Y-42267D01*
X61135Y-42148D01*
X61250Y-41977D01*
X61364Y-42148D01*
X61541Y-42267D01*
X61750Y-42308D01*
X61958Y-42267D01*
X62135Y-42148D01*
X62250Y-41977D01*
X62364Y-42148D01*
X62541Y-42267D01*
X62750Y-42308D01*
X62958Y-42267D01*
X63135Y-42148D01*
X63253Y-41972D01*
X63295Y-41763D01*
X63295Y-45629D01*
X63200Y-45629D01*
X63200Y-45557D01*
X63200Y-45100D01*
X63200Y-45000D01*
X63200Y-44542D01*
X63137Y-44480D01*
X63004Y-44479D01*
X62905Y-44480D01*
X62813Y-44518D01*
X62742Y-44588D01*
X62704Y-44680D01*
X62705Y-44937D01*
X62767Y-45000D01*
X63200Y-45000D01*
X63200Y-45100D01*
X62767Y-45100D01*
X62705Y-45162D01*
X62704Y-45419D01*
X62742Y-45511D01*
X62813Y-45581D01*
X62905Y-45619D01*
X63004Y-45620D01*
X63137Y-45620D01*
X63200Y-45557D01*
X63200Y-45629D01*
X62905Y-45629D01*
X62813Y-45667D01*
X62743Y-45738D01*
X62705Y-45830D01*
X62704Y-45929D01*
X62704Y-46569D01*
X62742Y-46661D01*
X62813Y-46731D01*
X62856Y-46749D01*
X62813Y-46767D01*
X62743Y-46838D01*
X62705Y-46930D01*
X62704Y-47029D01*
X62704Y-47669D01*
X62742Y-47761D01*
X62813Y-47831D01*
X62905Y-47869D01*
X63004Y-47870D01*
X63594Y-47870D01*
X63686Y-47832D01*
X63756Y-47761D01*
X63794Y-47669D01*
X63795Y-47570D01*
X63795Y-48080D01*
X63757Y-47988D01*
X63686Y-47918D01*
X63594Y-47880D01*
X63495Y-47879D01*
X63362Y-47880D01*
X63300Y-47942D01*
X63300Y-48400D01*
X63732Y-48400D01*
X63795Y-48337D01*
X63795Y-48080D01*
X63795Y-48819D01*
X63795Y-48562D01*
X63732Y-48500D01*
X63300Y-48500D01*
X63300Y-48957D01*
X63362Y-49020D01*
X63495Y-49020D01*
X63594Y-49019D01*
X63686Y-48981D01*
X63757Y-48911D01*
X63795Y-48819D01*
X63795Y-50450D01*
X63200Y-50450D01*
X63200Y-48957D01*
X63200Y-48500D01*
X63200Y-48400D01*
X63200Y-47942D01*
X63137Y-47880D01*
X63004Y-47879D01*
X62905Y-47880D01*
X62813Y-47918D01*
X62742Y-47988D01*
X62704Y-48080D01*
X62705Y-48337D01*
X62767Y-48400D01*
X63200Y-48400D01*
X63200Y-48500D01*
X62767Y-48500D01*
X62705Y-48562D01*
X62704Y-48819D01*
X62742Y-48911D01*
X62813Y-48981D01*
X62905Y-49019D01*
X63004Y-49020D01*
X63137Y-49020D01*
X63200Y-48957D01*
X63200Y-50450D01*
X62305Y-50450D01*
X62305Y-47750D01*
X62264Y-47541D01*
X62146Y-47364D01*
X61974Y-47250D01*
X62146Y-47135D01*
X62264Y-46958D01*
X62305Y-46750D01*
X62264Y-46541D01*
X62146Y-46364D01*
X61974Y-46250D01*
X62146Y-46135D01*
X62264Y-45958D01*
X62305Y-45750D01*
X62264Y-45541D01*
X62146Y-45364D01*
X61974Y-45250D01*
X62146Y-45135D01*
X62264Y-44958D01*
X62305Y-44750D01*
X62264Y-44541D01*
X62146Y-44364D01*
X61969Y-44246D01*
X61760Y-44205D01*
X61739Y-44205D01*
X61530Y-44246D01*
X61353Y-44364D01*
X61349Y-44371D01*
X61349Y-43092D01*
X61339Y-42856D01*
X61268Y-42685D01*
X61168Y-42652D01*
X61097Y-42722D01*
X60820Y-43000D01*
X61168Y-43347D01*
X61268Y-43314D01*
X61349Y-43092D01*
X61349Y-44371D01*
X61235Y-44541D01*
X61194Y-44750D01*
X61235Y-44958D01*
X61353Y-45135D01*
X61525Y-45250D01*
X61353Y-45364D01*
X61235Y-45541D01*
X61194Y-45750D01*
X61235Y-45958D01*
X61353Y-46135D01*
X61525Y-46250D01*
X61353Y-46364D01*
X61235Y-46541D01*
X61194Y-46750D01*
X61235Y-46958D01*
X61353Y-47135D01*
X61525Y-47250D01*
X61353Y-47364D01*
X61235Y-47541D01*
X61194Y-47750D01*
X61235Y-47958D01*
X61353Y-48135D01*
X61530Y-48253D01*
X61739Y-48295D01*
X61760Y-48295D01*
X61969Y-48253D01*
X62146Y-48135D01*
X62264Y-47958D01*
X62305Y-47750D01*
X62305Y-50450D01*
X61144Y-50450D01*
X61170Y-50432D01*
X61299Y-50239D01*
X61345Y-50011D01*
X61345Y-49988D01*
X61299Y-49760D01*
X61179Y-49580D01*
X61236Y-49557D01*
X61306Y-49486D01*
X61344Y-49394D01*
X61345Y-49295D01*
X61345Y-48605D01*
X61307Y-48513D01*
X61236Y-48443D01*
X61144Y-48405D01*
X61097Y-48405D01*
X61097Y-43418D01*
X60750Y-43070D01*
X60744Y-43076D01*
X60679Y-43011D01*
X60673Y-43005D01*
X60679Y-43000D01*
X60673Y-42994D01*
X60744Y-42923D01*
X60750Y-42929D01*
X61097Y-42581D01*
X61064Y-42481D01*
X60842Y-42400D01*
X60606Y-42410D01*
X60435Y-42481D01*
X60402Y-42581D01*
X60357Y-42536D01*
X60328Y-42565D01*
X60307Y-42513D01*
X60236Y-42443D01*
X60144Y-42405D01*
X60045Y-42404D01*
X59355Y-42404D01*
X59263Y-42442D01*
X59193Y-42513D01*
X59155Y-42605D01*
X59154Y-42704D01*
X59154Y-43394D01*
X59192Y-43486D01*
X59263Y-43556D01*
X59355Y-43594D01*
X59454Y-43595D01*
X60144Y-43595D01*
X60236Y-43557D01*
X60306Y-43486D01*
X60328Y-43434D01*
X60357Y-43463D01*
X60402Y-43418D01*
X60435Y-43518D01*
X60657Y-43599D01*
X60893Y-43589D01*
X61064Y-43518D01*
X61097Y-43418D01*
X61097Y-48405D01*
X61045Y-48404D01*
X60355Y-48404D01*
X60263Y-48442D01*
X60193Y-48513D01*
X60155Y-48605D01*
X60154Y-48704D01*
X60154Y-49394D01*
X60192Y-49486D01*
X60263Y-49556D01*
X60320Y-49580D01*
X60200Y-49760D01*
X60155Y-49988D01*
X60155Y-50011D01*
X60200Y-50239D01*
X60329Y-50432D01*
X60355Y-50450D01*
X59144Y-50450D01*
X59170Y-50432D01*
X59299Y-50239D01*
X59345Y-50011D01*
X59345Y-49988D01*
X59299Y-49760D01*
X59179Y-49580D01*
X59236Y-49557D01*
X59306Y-49486D01*
X59344Y-49394D01*
X59345Y-49295D01*
X59345Y-48605D01*
X59307Y-48513D01*
X59236Y-48443D01*
X59144Y-48405D01*
X59045Y-48404D01*
X58770Y-48404D01*
X58770Y-43245D01*
X58770Y-42655D01*
X58732Y-42563D01*
X58661Y-42493D01*
X58569Y-42455D01*
X58470Y-42454D01*
X57830Y-42454D01*
X57738Y-42492D01*
X57668Y-42563D01*
X57630Y-42655D01*
X57629Y-42754D01*
X57629Y-43344D01*
X57667Y-43436D01*
X57738Y-43506D01*
X57830Y-43544D01*
X57929Y-43545D01*
X58569Y-43545D01*
X58661Y-43507D01*
X58731Y-43436D01*
X58769Y-43344D01*
X58770Y-43245D01*
X58770Y-48404D01*
X58355Y-48404D01*
X58305Y-48425D01*
X58305Y-47750D01*
X58264Y-47541D01*
X58146Y-47364D01*
X57974Y-47250D01*
X58146Y-47135D01*
X58264Y-46958D01*
X58305Y-46750D01*
X58264Y-46541D01*
X58146Y-46364D01*
X57974Y-46250D01*
X58146Y-46135D01*
X58264Y-45958D01*
X58305Y-45750D01*
X58264Y-45541D01*
X58146Y-45364D01*
X57974Y-45250D01*
X58146Y-45135D01*
X58264Y-44958D01*
X58305Y-44750D01*
X58264Y-44541D01*
X58146Y-44364D01*
X57969Y-44246D01*
X57760Y-44205D01*
X57739Y-44205D01*
X57620Y-44228D01*
X57620Y-43245D01*
X57620Y-42754D01*
X57619Y-42655D01*
X57581Y-42563D01*
X57511Y-42492D01*
X57419Y-42454D01*
X57162Y-42455D01*
X57100Y-42517D01*
X57100Y-42950D01*
X57557Y-42950D01*
X57620Y-42887D01*
X57620Y-42754D01*
X57620Y-43245D01*
X57620Y-43112D01*
X57557Y-43050D01*
X57100Y-43050D01*
X57100Y-43482D01*
X57162Y-43545D01*
X57419Y-43545D01*
X57511Y-43507D01*
X57581Y-43436D01*
X57619Y-43344D01*
X57620Y-43245D01*
X57620Y-44228D01*
X57530Y-44246D01*
X57353Y-44364D01*
X57235Y-44541D01*
X57194Y-44750D01*
X57235Y-44958D01*
X57353Y-45135D01*
X57525Y-45250D01*
X57353Y-45364D01*
X57235Y-45541D01*
X57194Y-45750D01*
X57235Y-45958D01*
X57353Y-46135D01*
X57525Y-46250D01*
X57353Y-46364D01*
X57235Y-46541D01*
X57194Y-46750D01*
X57235Y-46958D01*
X57353Y-47135D01*
X57525Y-47250D01*
X57353Y-47364D01*
X57235Y-47541D01*
X57194Y-47750D01*
X57235Y-47958D01*
X57353Y-48135D01*
X57530Y-48253D01*
X57739Y-48295D01*
X57760Y-48295D01*
X57969Y-48253D01*
X58146Y-48135D01*
X58264Y-47958D01*
X58305Y-47750D01*
X58305Y-48425D01*
X58263Y-48442D01*
X58193Y-48513D01*
X58155Y-48605D01*
X58154Y-48704D01*
X58154Y-49394D01*
X58192Y-49486D01*
X58263Y-49556D01*
X58320Y-49580D01*
X58200Y-49760D01*
X58155Y-49988D01*
X58155Y-50011D01*
X58200Y-50239D01*
X58329Y-50432D01*
X58355Y-50450D01*
X57000Y-50450D01*
X57000Y-43482D01*
X57000Y-43050D01*
X57000Y-42950D01*
X57000Y-42517D01*
X56937Y-42455D01*
X56680Y-42454D01*
X56618Y-42480D01*
X56618Y-42427D01*
X56562Y-42291D01*
X56490Y-42219D01*
X56587Y-42272D01*
X56615Y-42278D01*
X56700Y-42229D01*
X56700Y-41652D01*
X56692Y-41652D01*
X56692Y-41552D01*
X56700Y-41552D01*
X56700Y-40975D01*
X56615Y-40926D01*
X56587Y-40932D01*
X56568Y-40942D01*
X56618Y-40823D01*
X56618Y-40677D01*
X56562Y-40541D01*
X56458Y-40438D01*
X56323Y-40381D01*
X56177Y-40381D01*
X56041Y-40437D01*
X56029Y-40450D01*
X55470Y-40450D01*
X55458Y-40438D01*
X55323Y-40381D01*
X55177Y-40381D01*
X55041Y-40437D01*
X54938Y-40541D01*
X54881Y-40676D01*
X54881Y-40822D01*
X54926Y-40931D01*
X54750Y-40896D01*
X54541Y-40937D01*
X54364Y-41056D01*
X54250Y-41227D01*
X54135Y-41056D01*
X54032Y-40987D01*
X54061Y-40958D01*
X54118Y-40823D01*
X54118Y-40677D01*
X54062Y-40541D01*
X54050Y-40529D01*
X54050Y-39970D01*
X54061Y-39958D01*
X54118Y-39823D01*
X54118Y-39677D01*
X54062Y-39541D01*
X54032Y-39512D01*
X54135Y-39443D01*
X54250Y-39272D01*
X54364Y-39443D01*
X54541Y-39562D01*
X54750Y-39603D01*
X54958Y-39562D01*
X55135Y-39443D01*
X55253Y-39267D01*
X55254Y-39262D01*
X55265Y-39299D01*
X55399Y-39465D01*
X55587Y-39567D01*
X55615Y-39573D01*
X55700Y-39524D01*
X55700Y-38947D01*
X55692Y-38947D01*
X55692Y-38847D01*
X55700Y-38847D01*
X55700Y-38270D01*
X55615Y-38221D01*
X55587Y-38227D01*
X55399Y-38329D01*
X55265Y-38495D01*
X55254Y-38532D01*
X55253Y-38527D01*
X55135Y-38351D01*
X54958Y-38232D01*
X54750Y-38191D01*
X54541Y-38232D01*
X54364Y-38351D01*
X54250Y-38522D01*
X54135Y-38351D01*
X54118Y-38339D01*
X54118Y-36459D01*
X53825Y-36165D01*
X53754Y-36236D01*
X53754Y-36095D01*
X53460Y-35801D01*
X53368Y-35825D01*
X53300Y-36020D01*
X53311Y-36226D01*
X53368Y-36364D01*
X53460Y-36388D01*
X53754Y-36095D01*
X53754Y-36236D01*
X53531Y-36459D01*
X53555Y-36551D01*
X53750Y-36619D01*
X53956Y-36608D01*
X54094Y-36551D01*
X54118Y-36459D01*
X54118Y-38339D01*
X53958Y-38232D01*
X53750Y-38191D01*
X53541Y-38232D01*
X53364Y-38351D01*
X53250Y-38522D01*
X53135Y-38351D01*
X52958Y-38232D01*
X52750Y-38191D01*
X52541Y-38232D01*
X52364Y-38351D01*
X52250Y-38522D01*
X52135Y-38351D01*
X51958Y-38232D01*
X51750Y-38191D01*
X51541Y-38232D01*
X51364Y-38351D01*
X51250Y-38522D01*
X51135Y-38351D01*
X50958Y-38232D01*
X50750Y-38191D01*
X50541Y-38232D01*
X50364Y-38351D01*
X50250Y-38522D01*
X50135Y-38351D01*
X49958Y-38232D01*
X49750Y-38191D01*
X49541Y-38232D01*
X49364Y-38351D01*
X49246Y-38527D01*
X49205Y-38736D01*
X49205Y-39058D01*
X49246Y-39267D01*
X49364Y-39443D01*
X49541Y-39562D01*
X49750Y-39603D01*
X49958Y-39562D01*
X50135Y-39443D01*
X50250Y-39272D01*
X50364Y-39443D01*
X50541Y-39562D01*
X50750Y-39603D01*
X50958Y-39562D01*
X51135Y-39443D01*
X51250Y-39272D01*
X51364Y-39443D01*
X51541Y-39562D01*
X51750Y-39603D01*
X51958Y-39562D01*
X52135Y-39443D01*
X52250Y-39272D01*
X52364Y-39443D01*
X52541Y-39562D01*
X52750Y-39603D01*
X52958Y-39562D01*
X53135Y-39443D01*
X53250Y-39272D01*
X53364Y-39443D01*
X53467Y-39512D01*
X53438Y-39541D01*
X53381Y-39676D01*
X53381Y-39822D01*
X53437Y-39958D01*
X53450Y-39970D01*
X53450Y-40529D01*
X53438Y-40541D01*
X53381Y-40676D01*
X53381Y-40822D01*
X53437Y-40958D01*
X53467Y-40987D01*
X53364Y-41056D01*
X53250Y-41227D01*
X53135Y-41056D01*
X52958Y-40937D01*
X52750Y-40896D01*
X52541Y-40937D01*
X52364Y-41056D01*
X52250Y-41227D01*
X52135Y-41056D01*
X51958Y-40937D01*
X51750Y-40896D01*
X51541Y-40937D01*
X51364Y-41056D01*
X51250Y-41227D01*
X51135Y-41056D01*
X50958Y-40937D01*
X50750Y-40896D01*
X50541Y-40937D01*
X50364Y-41056D01*
X50295Y-41160D01*
X50295Y-41110D01*
X50257Y-41018D01*
X50186Y-40948D01*
X50094Y-40910D01*
X49995Y-40909D01*
X49405Y-40909D01*
X49313Y-40947D01*
X49243Y-41018D01*
X49205Y-41110D01*
X49204Y-41209D01*
X49204Y-42094D01*
X49242Y-42186D01*
X49313Y-42256D01*
X49405Y-42294D01*
X49504Y-42295D01*
X49586Y-42295D01*
X49568Y-42313D01*
X49530Y-42405D01*
X49529Y-42504D01*
X49529Y-43094D01*
X49567Y-43186D01*
X49602Y-43220D01*
X49541Y-43232D01*
X49364Y-43351D01*
X49246Y-43527D01*
X49205Y-43736D01*
X49205Y-44058D01*
X49246Y-44267D01*
X49364Y-44443D01*
X49541Y-44562D01*
X49750Y-44603D01*
X49958Y-44562D01*
X50135Y-44443D01*
X50250Y-44272D01*
X50364Y-44443D01*
X50541Y-44562D01*
X50750Y-44603D01*
X50958Y-44562D01*
X51135Y-44443D01*
X51250Y-44272D01*
X51364Y-44443D01*
X51541Y-44562D01*
X51750Y-44603D01*
X51958Y-44562D01*
X52135Y-44443D01*
X52250Y-44272D01*
X52364Y-44443D01*
X52541Y-44562D01*
X52750Y-44603D01*
X52958Y-44562D01*
X53135Y-44443D01*
X53250Y-44272D01*
X53364Y-44443D01*
X53541Y-44562D01*
X53750Y-44603D01*
X53958Y-44562D01*
X54135Y-44443D01*
X54250Y-44272D01*
X54364Y-44443D01*
X54541Y-44562D01*
X54750Y-44603D01*
X54958Y-44562D01*
X55135Y-44443D01*
X55204Y-44339D01*
X55204Y-44389D01*
X55242Y-44481D01*
X55313Y-44551D01*
X55405Y-44589D01*
X55504Y-44590D01*
X56094Y-44590D01*
X56186Y-44552D01*
X56256Y-44481D01*
X56294Y-44389D01*
X56295Y-44290D01*
X56295Y-43405D01*
X56257Y-43313D01*
X56186Y-43243D01*
X56094Y-43205D01*
X55995Y-43204D01*
X55405Y-43204D01*
X55313Y-43242D01*
X55243Y-43313D01*
X55205Y-43405D01*
X55204Y-43455D01*
X55135Y-43351D01*
X54958Y-43232D01*
X54750Y-43191D01*
X54541Y-43232D01*
X54364Y-43351D01*
X54250Y-43522D01*
X54135Y-43351D01*
X53958Y-43232D01*
X53750Y-43191D01*
X53541Y-43232D01*
X53364Y-43351D01*
X53250Y-43522D01*
X53135Y-43351D01*
X52958Y-43232D01*
X52750Y-43191D01*
X52541Y-43232D01*
X52364Y-43351D01*
X52250Y-43522D01*
X52135Y-43351D01*
X51958Y-43232D01*
X51772Y-43195D01*
X51781Y-43186D01*
X51819Y-43094D01*
X51820Y-42995D01*
X51820Y-42862D01*
X51757Y-42800D01*
X51300Y-42800D01*
X51300Y-43232D01*
X51362Y-43295D01*
X51448Y-43295D01*
X51364Y-43351D01*
X51250Y-43522D01*
X51135Y-43351D01*
X51051Y-43295D01*
X51137Y-43295D01*
X51200Y-43232D01*
X51200Y-42800D01*
X50742Y-42800D01*
X50680Y-42862D01*
X50679Y-42995D01*
X50680Y-43094D01*
X50718Y-43186D01*
X50727Y-43195D01*
X50596Y-43221D01*
X50631Y-43186D01*
X50669Y-43094D01*
X50670Y-42995D01*
X50670Y-42405D01*
X50632Y-42313D01*
X50596Y-42278D01*
X50727Y-42304D01*
X50718Y-42313D01*
X50680Y-42405D01*
X50679Y-42504D01*
X50680Y-42637D01*
X50742Y-42700D01*
X51200Y-42700D01*
X51200Y-42267D01*
X51137Y-42205D01*
X51051Y-42204D01*
X51135Y-42148D01*
X51250Y-41977D01*
X51364Y-42148D01*
X51448Y-42204D01*
X51362Y-42205D01*
X51300Y-42267D01*
X51300Y-42700D01*
X51757Y-42700D01*
X51820Y-42637D01*
X51820Y-42504D01*
X51819Y-42405D01*
X51781Y-42313D01*
X51772Y-42304D01*
X51958Y-42267D01*
X52135Y-42148D01*
X52250Y-41977D01*
X52364Y-42148D01*
X52541Y-42267D01*
X52750Y-42308D01*
X52958Y-42267D01*
X53135Y-42148D01*
X53250Y-41977D01*
X53364Y-42148D01*
X53541Y-42267D01*
X53750Y-42308D01*
X53958Y-42267D01*
X54135Y-42148D01*
X54250Y-41977D01*
X54364Y-42148D01*
X54541Y-42267D01*
X54750Y-42308D01*
X54958Y-42267D01*
X54969Y-42259D01*
X54938Y-42291D01*
X54881Y-42426D01*
X54881Y-42572D01*
X54937Y-42708D01*
X55041Y-42811D01*
X55176Y-42868D01*
X55322Y-42868D01*
X55458Y-42812D01*
X55470Y-42800D01*
X56029Y-42800D01*
X56041Y-42811D01*
X56176Y-42868D01*
X56322Y-42868D01*
X56458Y-42812D01*
X56479Y-42790D01*
X56480Y-42887D01*
X56542Y-42950D01*
X57000Y-42950D01*
X57000Y-43050D01*
X56542Y-43050D01*
X56480Y-43112D01*
X56479Y-43245D01*
X56480Y-43344D01*
X56518Y-43436D01*
X56588Y-43507D01*
X56680Y-43545D01*
X56937Y-43545D01*
X57000Y-43482D01*
X57000Y-50450D01*
X56295Y-50450D01*
X56295Y-49819D01*
X56295Y-49080D01*
X56295Y-48570D01*
X56295Y-47930D01*
X56295Y-47930D01*
X56295Y-46800D01*
X56295Y-46652D01*
X56295Y-46552D01*
X56295Y-46405D01*
X56234Y-46200D01*
X56100Y-46034D01*
X55912Y-45932D01*
X55884Y-45926D01*
X55800Y-45975D01*
X55800Y-46552D01*
X56295Y-46552D01*
X56295Y-46652D01*
X55800Y-46652D01*
X55800Y-47229D01*
X55884Y-47278D01*
X55912Y-47272D01*
X56100Y-47170D01*
X56234Y-47004D01*
X56295Y-46800D01*
X56295Y-47930D01*
X56257Y-47838D01*
X56186Y-47768D01*
X56094Y-47730D01*
X55995Y-47729D01*
X55700Y-47729D01*
X55700Y-47229D01*
X55700Y-46652D01*
X55692Y-46652D01*
X55692Y-46552D01*
X55700Y-46552D01*
X55700Y-45975D01*
X55615Y-45926D01*
X55587Y-45932D01*
X55399Y-46034D01*
X55265Y-46200D01*
X55254Y-46237D01*
X55253Y-46232D01*
X55135Y-46056D01*
X54958Y-45937D01*
X54750Y-45896D01*
X54541Y-45937D01*
X54364Y-46056D01*
X54250Y-46227D01*
X54135Y-46056D01*
X53958Y-45937D01*
X53750Y-45896D01*
X53541Y-45937D01*
X53364Y-46056D01*
X53250Y-46227D01*
X53135Y-46056D01*
X52958Y-45937D01*
X52750Y-45896D01*
X52541Y-45937D01*
X52364Y-46056D01*
X52250Y-46227D01*
X52135Y-46056D01*
X51958Y-45937D01*
X51750Y-45896D01*
X51541Y-45937D01*
X51364Y-46056D01*
X51250Y-46227D01*
X51135Y-46056D01*
X50958Y-45937D01*
X50750Y-45896D01*
X50541Y-45937D01*
X50364Y-46056D01*
X50250Y-46227D01*
X50135Y-46056D01*
X49958Y-45937D01*
X49750Y-45896D01*
X49541Y-45937D01*
X49364Y-46056D01*
X49246Y-46232D01*
X49205Y-46441D01*
X49205Y-46763D01*
X49246Y-46972D01*
X49364Y-47148D01*
X49541Y-47267D01*
X49750Y-47308D01*
X49958Y-47267D01*
X50135Y-47148D01*
X50250Y-46977D01*
X50364Y-47148D01*
X50541Y-47267D01*
X50750Y-47308D01*
X50958Y-47267D01*
X51135Y-47148D01*
X51250Y-46977D01*
X51364Y-47148D01*
X51541Y-47267D01*
X51750Y-47308D01*
X51958Y-47267D01*
X52135Y-47148D01*
X52250Y-46977D01*
X52364Y-47148D01*
X52541Y-47267D01*
X52750Y-47308D01*
X52958Y-47267D01*
X53135Y-47148D01*
X53250Y-46977D01*
X53364Y-47148D01*
X53541Y-47267D01*
X53750Y-47308D01*
X53958Y-47267D01*
X54135Y-47148D01*
X54250Y-46977D01*
X54364Y-47148D01*
X54541Y-47267D01*
X54750Y-47308D01*
X54958Y-47267D01*
X55135Y-47148D01*
X55253Y-46972D01*
X55254Y-46967D01*
X55265Y-47004D01*
X55399Y-47170D01*
X55587Y-47272D01*
X55615Y-47278D01*
X55700Y-47229D01*
X55700Y-47729D01*
X55405Y-47729D01*
X55313Y-47767D01*
X55249Y-47831D01*
X55186Y-47768D01*
X55094Y-47730D01*
X54995Y-47729D01*
X54405Y-47729D01*
X54313Y-47767D01*
X54243Y-47838D01*
X54205Y-47930D01*
X54204Y-48029D01*
X54204Y-48669D01*
X54242Y-48761D01*
X54313Y-48831D01*
X54405Y-48869D01*
X54504Y-48870D01*
X55094Y-48870D01*
X55186Y-48832D01*
X55250Y-48768D01*
X55313Y-48831D01*
X55405Y-48869D01*
X55504Y-48870D01*
X56094Y-48870D01*
X56186Y-48832D01*
X56256Y-48761D01*
X56294Y-48669D01*
X56295Y-48570D01*
X56295Y-49080D01*
X56257Y-48988D01*
X56186Y-48918D01*
X56094Y-48880D01*
X55995Y-48879D01*
X55862Y-48880D01*
X55800Y-48942D01*
X55800Y-49400D01*
X56232Y-49400D01*
X56295Y-49337D01*
X56295Y-49080D01*
X56295Y-49819D01*
X56295Y-49562D01*
X56232Y-49500D01*
X55800Y-49500D01*
X55800Y-49957D01*
X55862Y-50020D01*
X55995Y-50020D01*
X56094Y-50019D01*
X56186Y-49981D01*
X56257Y-49911D01*
X56295Y-49819D01*
X56295Y-50450D01*
X55700Y-50450D01*
X55700Y-49957D01*
X55700Y-49500D01*
X55700Y-49400D01*
X55700Y-48942D01*
X55637Y-48880D01*
X55504Y-48879D01*
X55405Y-48880D01*
X55313Y-48918D01*
X55250Y-48981D01*
X55186Y-48918D01*
X55094Y-48880D01*
X54995Y-48879D01*
X54862Y-48880D01*
X54800Y-48942D01*
X54800Y-49400D01*
X55232Y-49400D01*
X55250Y-49382D01*
X55267Y-49400D01*
X55700Y-49400D01*
X55700Y-49500D01*
X55267Y-49500D01*
X55250Y-49517D01*
X55232Y-49500D01*
X54800Y-49500D01*
X54800Y-49957D01*
X54862Y-50020D01*
X54995Y-50020D01*
X55094Y-50019D01*
X55186Y-49981D01*
X55250Y-49918D01*
X55313Y-49981D01*
X55405Y-50019D01*
X55504Y-50020D01*
X55637Y-50020D01*
X55700Y-49957D01*
X55700Y-50450D01*
X54700Y-50450D01*
X54700Y-49957D01*
X54700Y-49500D01*
X54700Y-49400D01*
X54700Y-48942D01*
X54637Y-48880D01*
X54504Y-48879D01*
X54405Y-48880D01*
X54313Y-48918D01*
X54242Y-48988D01*
X54204Y-49080D01*
X54205Y-49337D01*
X54267Y-49400D01*
X54700Y-49400D01*
X54700Y-49500D01*
X54267Y-49500D01*
X54205Y-49562D01*
X54204Y-49819D01*
X54242Y-49911D01*
X54313Y-49981D01*
X54405Y-50019D01*
X54504Y-50020D01*
X54637Y-50020D01*
X54700Y-49957D01*
X54700Y-50450D01*
X53845Y-50450D01*
X53845Y-50045D01*
X53845Y-49355D01*
X53807Y-49263D01*
X53736Y-49193D01*
X53644Y-49155D01*
X53545Y-49154D01*
X52855Y-49154D01*
X52763Y-49192D01*
X52693Y-49263D01*
X52667Y-49325D01*
X52587Y-49245D01*
X52368Y-49155D01*
X52132Y-49154D01*
X51913Y-49245D01*
X51749Y-49408D01*
X51587Y-49245D01*
X51368Y-49155D01*
X51132Y-49154D01*
X50913Y-49245D01*
X50745Y-49412D01*
X50740Y-49425D01*
X50668Y-49402D01*
X50597Y-49472D01*
X50597Y-49331D01*
X50564Y-49231D01*
X50342Y-49150D01*
X50106Y-49160D01*
X49935Y-49231D01*
X49902Y-49331D01*
X50250Y-49679D01*
X50597Y-49331D01*
X50597Y-49472D01*
X50320Y-49750D01*
X50668Y-50097D01*
X50740Y-50074D01*
X50745Y-50086D01*
X50912Y-50254D01*
X51131Y-50344D01*
X51367Y-50345D01*
X51586Y-50254D01*
X51750Y-50091D01*
X51912Y-50254D01*
X52131Y-50344D01*
X52367Y-50345D01*
X52586Y-50254D01*
X52667Y-50174D01*
X52692Y-50236D01*
X52763Y-50306D01*
X52855Y-50344D01*
X52954Y-50345D01*
X53644Y-50345D01*
X53736Y-50307D01*
X53806Y-50236D01*
X53844Y-50144D01*
X53845Y-50045D01*
X53845Y-50450D01*
X50597Y-50450D01*
X50597Y-50168D01*
X50250Y-49820D01*
X50179Y-49891D01*
X50179Y-49750D01*
X49831Y-49402D01*
X49731Y-49435D01*
X49650Y-49657D01*
X49660Y-49893D01*
X49731Y-50064D01*
X49831Y-50097D01*
X50179Y-49750D01*
X50179Y-49891D01*
X49902Y-50168D01*
X49935Y-50268D01*
X50157Y-50349D01*
X50393Y-50339D01*
X50564Y-50268D01*
X50597Y-50168D01*
X50597Y-50450D01*
X50176Y-50450D01*
X49946Y-50404D01*
X49299Y-49972D01*
X49287Y-49955D01*
X49050Y-49241D01*
X49050Y-36300D01*
X50300Y-36300D01*
X50300Y-34200D01*
X49050Y-34200D01*
X49050Y-31550D01*
X67950Y-31550D01*
X67950Y-34200D01*
X66700Y-34200D01*
X66700Y-36300D01*
X67950Y-36300D01*
X67950Y-42531D01*
X67911Y-42492D01*
X67845Y-42465D01*
X67845Y-41632D01*
X67845Y-37632D01*
X67754Y-37413D01*
X67587Y-37245D01*
X67368Y-37155D01*
X67132Y-37154D01*
X66913Y-37245D01*
X66745Y-37412D01*
X66655Y-37631D01*
X66654Y-37867D01*
X66745Y-38086D01*
X66912Y-38254D01*
X67131Y-38344D01*
X67367Y-38345D01*
X67586Y-38254D01*
X67754Y-38087D01*
X67844Y-37868D01*
X67845Y-37632D01*
X67845Y-41632D01*
X67754Y-41413D01*
X67587Y-41245D01*
X67368Y-41155D01*
X67132Y-41154D01*
X66913Y-41245D01*
X66745Y-41412D01*
X66655Y-41631D01*
X66654Y-41867D01*
X66745Y-42086D01*
X66912Y-42254D01*
X67131Y-42344D01*
X67367Y-42345D01*
X67586Y-42254D01*
X67754Y-42087D01*
X67844Y-41868D01*
X67845Y-41632D01*
X67845Y-42465D01*
X67819Y-42454D01*
X67562Y-42455D01*
X67500Y-42517D01*
X67500Y-42950D01*
X67507Y-42950D01*
X67507Y-43050D01*
X67500Y-43050D01*
X67500Y-43482D01*
X67562Y-43545D01*
X67819Y-43545D01*
X67911Y-43507D01*
X67950Y-43468D01*
X67950Y-48993D01*
M02*
