G04 (created by PCBNEW (22-Jun-2014 BZR 4027)-stable) date Sat 02 Sep 2017 10:31:11 PM CDT*
%MOIN*%
G04 Gerber Fmt 3.4, Leading zero omitted, Abs format*
%FSLAX34Y34*%
G01*
G70*
G90*
G04 APERTURE LIST*
%ADD10C,0.00393701*%
%ADD11R,0.059X0.0885*%
%ADD12O,0.059X0.0885*%
%ADD13C,0.054*%
%ADD14C,0.14*%
%ADD15C,0.059*%
%ADD16C,0.1063*%
%ADD17R,0.069X0.069*%
%ADD18C,0.069*%
%ADD19O,0.059X0.059*%
%ADD20O,0.069X0.069*%
%ADD21R,0.059X0.059*%
%ADD22R,0.059X0.064*%
%ADD23R,0.064X0.059*%
%ADD24C,0.023622*%
%ADD25C,0.03*%
%ADD26C,0.01*%
%ADD27C,0.02*%
G04 APERTURE END LIST*
G54D10*
G54D11*
X17000Y-152352D03*
G54D12*
X18000Y-152352D03*
X19000Y-152352D03*
X20000Y-152352D03*
X20000Y-149647D03*
X19000Y-149647D03*
X18000Y-149647D03*
X17000Y-149647D03*
X21000Y-152352D03*
X22000Y-152352D03*
X23000Y-152352D03*
X21000Y-149647D03*
X22000Y-149647D03*
X23000Y-149647D03*
X24000Y-152352D03*
X25000Y-152352D03*
X26000Y-152352D03*
X27000Y-152352D03*
X28000Y-152352D03*
X29000Y-152352D03*
X30000Y-152352D03*
X24000Y-149647D03*
X25000Y-149647D03*
X26000Y-149647D03*
X27000Y-149647D03*
X28000Y-149647D03*
X29000Y-149647D03*
X30000Y-149647D03*
G54D13*
X26175Y-146845D03*
X27025Y-146845D03*
X24475Y-146845D03*
X25325Y-146845D03*
X26175Y-145155D03*
X25325Y-145155D03*
X24475Y-145155D03*
X27025Y-145155D03*
X23625Y-146845D03*
X22775Y-146845D03*
X21925Y-146845D03*
X21075Y-146845D03*
X23625Y-145155D03*
X22775Y-145155D03*
X21925Y-145155D03*
X21075Y-145155D03*
X27875Y-146845D03*
X28725Y-146845D03*
X29575Y-146845D03*
X30425Y-146845D03*
X27875Y-145155D03*
X28725Y-145155D03*
X29575Y-145155D03*
X30425Y-145155D03*
G54D14*
X35000Y-146000D03*
X16500Y-146000D03*
G54D15*
X32150Y-157000D03*
X32150Y-158000D03*
X32937Y-158000D03*
X32937Y-157000D03*
G54D16*
X34000Y-155138D03*
X34000Y-159862D03*
G54D17*
X20500Y-160500D03*
G54D18*
X19500Y-160500D03*
X18500Y-160500D03*
X17500Y-160500D03*
G54D17*
X27000Y-153750D03*
G54D18*
X28000Y-153750D03*
G54D19*
X25000Y-156500D03*
X29000Y-156500D03*
X25000Y-155500D03*
X29000Y-155500D03*
X31250Y-152250D03*
X31250Y-148250D03*
X25000Y-158500D03*
X29000Y-158500D03*
X25000Y-157500D03*
X29000Y-157500D03*
G54D17*
X32750Y-148500D03*
G54D20*
X32750Y-149500D03*
G54D17*
X28000Y-159750D03*
G54D20*
X28000Y-160750D03*
G54D17*
X26000Y-159750D03*
G54D20*
X26000Y-160750D03*
G54D18*
X34500Y-152500D03*
X34500Y-148500D03*
G54D21*
X31500Y-153250D03*
G54D19*
X31500Y-154250D03*
G54D11*
X23000Y-154647D03*
G54D12*
X22000Y-154647D03*
X21000Y-154647D03*
X20000Y-154647D03*
X20000Y-157352D03*
X21000Y-157352D03*
X22000Y-157352D03*
X23000Y-157352D03*
X19000Y-154647D03*
X18000Y-154647D03*
X17000Y-154647D03*
X19000Y-157352D03*
X18000Y-157352D03*
X17000Y-157352D03*
G54D22*
X22000Y-159050D03*
X22000Y-160200D03*
X30500Y-156950D03*
X30500Y-155800D03*
X30500Y-158050D03*
X30500Y-159200D03*
G54D23*
X33550Y-153750D03*
X34700Y-153750D03*
X17350Y-153500D03*
X18500Y-153500D03*
X25450Y-153750D03*
X24300Y-153750D03*
G54D22*
X23000Y-159050D03*
X23000Y-160200D03*
G54D24*
X31250Y-151000D03*
X27000Y-151000D03*
X23500Y-153250D03*
X22500Y-153250D03*
X21000Y-151500D03*
X21000Y-150500D03*
X22500Y-151500D03*
X23500Y-151500D03*
G54D25*
X20500Y-160500D02*
X20500Y-160000D01*
X20000Y-155500D02*
X19500Y-156000D01*
X19500Y-156000D02*
X19500Y-157000D01*
G54D26*
X19500Y-157000D02*
X19500Y-158000D01*
G54D25*
X19500Y-158000D02*
X20500Y-159000D01*
X20500Y-159000D02*
X20500Y-160000D01*
X20000Y-155500D02*
X20000Y-154500D01*
G54D27*
X25500Y-153750D02*
X24750Y-154500D01*
G54D25*
X31500Y-153250D02*
X32000Y-153250D01*
X34500Y-150750D02*
X34500Y-148500D01*
X32000Y-153250D02*
X34500Y-150750D01*
X17000Y-152500D02*
X17000Y-151750D01*
X17000Y-151750D02*
X17750Y-151000D01*
X17750Y-151000D02*
X20000Y-151000D01*
X27500Y-154500D02*
X29500Y-154500D01*
X30750Y-153250D02*
X31500Y-153250D01*
X29500Y-154500D02*
X30750Y-153250D01*
G54D26*
X26750Y-159750D02*
X27000Y-159500D01*
X27000Y-155000D02*
X27500Y-154500D01*
X27000Y-159500D02*
X27000Y-155000D01*
X26000Y-159750D02*
X26750Y-159750D01*
X26750Y-159750D02*
X28000Y-159750D01*
G54D25*
X23000Y-154500D02*
X23500Y-154500D01*
G54D27*
X23500Y-154500D02*
X24750Y-154500D01*
X24750Y-154500D02*
X26250Y-154500D01*
G54D25*
X26250Y-154500D02*
X27500Y-154500D01*
X23000Y-152500D02*
X23000Y-154500D01*
X20000Y-151000D02*
X19500Y-151500D01*
X20000Y-153500D02*
X20000Y-154500D01*
X19500Y-153000D02*
X20000Y-153500D01*
G54D26*
X19500Y-152000D02*
X19500Y-153000D01*
G54D25*
X19500Y-151500D02*
X19500Y-152000D01*
X17000Y-152500D02*
X17000Y-153200D01*
X17000Y-153200D02*
X17300Y-153500D01*
G54D26*
X23000Y-151500D02*
X23500Y-151000D01*
X25000Y-150500D02*
X25000Y-149500D01*
X24500Y-151000D02*
X25000Y-150500D01*
G54D27*
X24250Y-151000D02*
X24500Y-151000D01*
G54D26*
X23500Y-151000D02*
X24250Y-151000D01*
G54D25*
X23000Y-151500D02*
X23000Y-152500D01*
X22500Y-151000D02*
X23000Y-151500D01*
X20000Y-151000D02*
X22500Y-151000D01*
G54D26*
X26000Y-149500D02*
X26000Y-150250D01*
X31250Y-151000D02*
X31250Y-148250D01*
X26750Y-151000D02*
X27000Y-151000D01*
X26000Y-150250D02*
X26750Y-151000D01*
X20000Y-152500D02*
X20000Y-152750D01*
X26750Y-153750D02*
X27000Y-153750D01*
X26250Y-153250D02*
X26750Y-153750D01*
X23500Y-153250D02*
X26250Y-153250D01*
X20500Y-153250D02*
X22500Y-153250D01*
X20000Y-152750D02*
X20500Y-153250D01*
X21925Y-146845D02*
X21925Y-147075D01*
X21925Y-147075D02*
X21500Y-147500D01*
X21500Y-147500D02*
X20500Y-147500D01*
X20500Y-147500D02*
X18000Y-147500D01*
X18000Y-147500D02*
X17000Y-148500D01*
X17000Y-148500D02*
X17000Y-149500D01*
X26000Y-160750D02*
X27000Y-160750D01*
X28250Y-158250D02*
X29000Y-157500D01*
X28250Y-158750D02*
X28250Y-158250D01*
X28500Y-159000D02*
X28250Y-158750D01*
X28750Y-159250D02*
X28500Y-159000D01*
X28750Y-159500D02*
X28750Y-159250D01*
X28750Y-160000D02*
X28750Y-159500D01*
X28500Y-160250D02*
X28750Y-160000D01*
X27500Y-160250D02*
X28500Y-160250D01*
X27000Y-160750D02*
X27500Y-160250D01*
G54D25*
X20000Y-157500D02*
X20500Y-158000D01*
X21500Y-159000D02*
X22000Y-159000D01*
X20500Y-158000D02*
X21500Y-159000D01*
X22000Y-159000D02*
X23000Y-159000D01*
G54D26*
X25000Y-156500D02*
X22250Y-156500D01*
X22000Y-156750D02*
X22000Y-157500D01*
X22250Y-156500D02*
X22000Y-156750D01*
X25000Y-158500D02*
X25500Y-158500D01*
X22000Y-155000D02*
X22500Y-155500D01*
X22500Y-155500D02*
X23500Y-155500D01*
X23500Y-155500D02*
X24250Y-154750D01*
X24250Y-154750D02*
X25250Y-154750D01*
X25250Y-154750D02*
X25500Y-154750D01*
X25500Y-154750D02*
X25750Y-154750D01*
X25750Y-154750D02*
X26000Y-155000D01*
X26000Y-155000D02*
X26000Y-158000D01*
X26000Y-158000D02*
X25500Y-158500D01*
X22000Y-155000D02*
X22000Y-154500D01*
X27875Y-145155D02*
X27450Y-145580D01*
X27000Y-149000D02*
X27000Y-149500D01*
X27450Y-148550D02*
X27000Y-149000D01*
X27450Y-147300D02*
X27450Y-148550D01*
X27450Y-147250D02*
X27450Y-147300D01*
X27450Y-145580D02*
X27450Y-147250D01*
X27000Y-150000D02*
X27000Y-149500D01*
X27875Y-146845D02*
X27750Y-146970D01*
X27750Y-146970D02*
X27750Y-148000D01*
X27750Y-148000D02*
X27750Y-148750D01*
X27750Y-148750D02*
X27500Y-149000D01*
X27500Y-149000D02*
X27500Y-150250D01*
X27500Y-150250D02*
X27500Y-151500D01*
X27500Y-151500D02*
X27250Y-151750D01*
X27250Y-151750D02*
X27250Y-152250D01*
X27250Y-152250D02*
X27000Y-152500D01*
X30425Y-145155D02*
X30425Y-145325D01*
X30425Y-145325D02*
X30000Y-145750D01*
X30000Y-145750D02*
X30000Y-149500D01*
X29575Y-145155D02*
X29150Y-145580D01*
X29150Y-145580D02*
X29150Y-149350D01*
X29150Y-149350D02*
X29000Y-149500D01*
X28725Y-145155D02*
X28300Y-145580D01*
X28000Y-147500D02*
X28000Y-149500D01*
X28300Y-147200D02*
X28000Y-147500D01*
X28300Y-147150D02*
X28300Y-147200D01*
X28300Y-145580D02*
X28300Y-147150D01*
X28000Y-149500D02*
X27875Y-149375D01*
X24475Y-146845D02*
X24475Y-147225D01*
X20000Y-148500D02*
X20000Y-149500D01*
X20250Y-148250D02*
X20000Y-148500D01*
X23750Y-148250D02*
X20250Y-148250D01*
X24475Y-147525D02*
X23750Y-148250D01*
X24475Y-147225D02*
X24475Y-147525D01*
X27025Y-145155D02*
X27025Y-145725D01*
X21000Y-151500D02*
X21000Y-152500D01*
X24250Y-150500D02*
X21000Y-150500D01*
X24500Y-150250D02*
X24250Y-150500D01*
X24500Y-149000D02*
X24500Y-150250D01*
X24850Y-149000D02*
X24500Y-149000D01*
X26600Y-147250D02*
X24850Y-149000D01*
X26600Y-146850D02*
X26600Y-147250D01*
X26600Y-146150D02*
X26600Y-146850D01*
X27025Y-145725D02*
X26600Y-146150D01*
X31250Y-152250D02*
X32000Y-151500D01*
X32500Y-148500D02*
X32750Y-148500D01*
X32000Y-149000D02*
X32500Y-148500D01*
X32000Y-149500D02*
X32000Y-149000D01*
X32000Y-151500D02*
X32000Y-149500D01*
X29575Y-146845D02*
X29500Y-146920D01*
X29500Y-146920D02*
X29500Y-149000D01*
X29500Y-149000D02*
X29500Y-151500D01*
X29500Y-151500D02*
X29500Y-152000D01*
X29500Y-152000D02*
X29000Y-152500D01*
X28725Y-146845D02*
X28500Y-147070D01*
X28500Y-152000D02*
X28000Y-152500D01*
X28500Y-147070D02*
X28500Y-152000D01*
X28750Y-146870D02*
X28725Y-146845D01*
X29000Y-156500D02*
X29250Y-156500D01*
X30250Y-158000D02*
X30500Y-158000D01*
X29750Y-157500D02*
X30250Y-158000D01*
X29750Y-157000D02*
X29750Y-157500D01*
X29250Y-156500D02*
X29750Y-157000D01*
X32937Y-158000D02*
X32937Y-158313D01*
X31000Y-158000D02*
X30500Y-158000D01*
X31750Y-158750D02*
X31000Y-158000D01*
X32500Y-158750D02*
X31750Y-158750D01*
X32937Y-158313D02*
X32500Y-158750D01*
X28000Y-160750D02*
X28500Y-160750D01*
X29250Y-158750D02*
X29000Y-158500D01*
X29250Y-160000D02*
X29250Y-158750D01*
X28500Y-160750D02*
X29250Y-160000D01*
X30425Y-146845D02*
X30750Y-147170D01*
X30750Y-151750D02*
X30000Y-152500D01*
X30750Y-150500D02*
X30750Y-151750D01*
X30750Y-147170D02*
X30750Y-150500D01*
X30425Y-146845D02*
X30425Y-146925D01*
X30425Y-146925D02*
X30500Y-147000D01*
X25000Y-155500D02*
X24250Y-156250D01*
X21000Y-156750D02*
X21000Y-157500D01*
X21500Y-156250D02*
X21000Y-156750D01*
X24250Y-156250D02*
X21500Y-156250D01*
X27025Y-146845D02*
X27025Y-147475D01*
X22000Y-152000D02*
X22000Y-152500D01*
X22500Y-151500D02*
X22000Y-152000D01*
X24750Y-151500D02*
X23500Y-151500D01*
X25500Y-150750D02*
X24750Y-151500D01*
X25500Y-149000D02*
X25500Y-150750D01*
X27025Y-147475D02*
X25500Y-149000D01*
X29000Y-155500D02*
X29250Y-155500D01*
X29750Y-156250D02*
X30500Y-157000D01*
X29750Y-156000D02*
X29750Y-156250D01*
X29250Y-155500D02*
X29750Y-156000D01*
X32150Y-158000D02*
X32000Y-158000D01*
X31000Y-157000D02*
X30500Y-157000D01*
X32000Y-158000D02*
X31000Y-157000D01*
G54D25*
X33500Y-153750D02*
X33500Y-153500D01*
X33500Y-153500D02*
X34500Y-152500D01*
X32150Y-157000D02*
X32150Y-155100D01*
X32150Y-155100D02*
X33500Y-153750D01*
G54D26*
X26175Y-146845D02*
X26175Y-147075D01*
X26175Y-147075D02*
X24500Y-148750D01*
X24500Y-148750D02*
X22500Y-148750D01*
X22500Y-148750D02*
X22250Y-148750D01*
X22250Y-148750D02*
X22000Y-149000D01*
X22000Y-149000D02*
X22000Y-149500D01*
X25325Y-146845D02*
X25325Y-147175D01*
X21000Y-148750D02*
X21000Y-149500D01*
X21250Y-148500D02*
X21000Y-148750D01*
X24000Y-148500D02*
X21250Y-148500D01*
X25325Y-147175D02*
X24000Y-148500D01*
X23625Y-146845D02*
X23625Y-147375D01*
X19000Y-148500D02*
X19000Y-149500D01*
X19500Y-148000D02*
X19000Y-148500D01*
X20500Y-148000D02*
X19500Y-148000D01*
X23000Y-148000D02*
X20500Y-148000D01*
X23625Y-147375D02*
X23000Y-148000D01*
X22775Y-146845D02*
X22775Y-147225D01*
X18000Y-148500D02*
X18000Y-149500D01*
X18750Y-147750D02*
X18000Y-148500D01*
X22250Y-147750D02*
X18750Y-147750D01*
X22775Y-147225D02*
X22250Y-147750D01*
X25000Y-157500D02*
X25500Y-157500D01*
X21000Y-155000D02*
X21750Y-155750D01*
X21750Y-155750D02*
X23750Y-155750D01*
X23750Y-155750D02*
X24500Y-155000D01*
X24500Y-155000D02*
X25500Y-155000D01*
X25500Y-155000D02*
X25750Y-155250D01*
X25750Y-155250D02*
X25750Y-157000D01*
X21000Y-155000D02*
X21000Y-154500D01*
X25750Y-157250D02*
X25750Y-157000D01*
X25500Y-157500D02*
X25750Y-157250D01*
X18500Y-160500D02*
X18500Y-160000D01*
X18000Y-155500D02*
X17500Y-156000D01*
X17500Y-156000D02*
X17500Y-158500D01*
X17500Y-158500D02*
X18500Y-159500D01*
X18500Y-159500D02*
X18500Y-160000D01*
X18000Y-155500D02*
X18000Y-154500D01*
X18000Y-152500D02*
X18000Y-154500D01*
X19500Y-160500D02*
X19500Y-160000D01*
X19000Y-155500D02*
X18500Y-156000D01*
X18500Y-156000D02*
X18500Y-158500D01*
X18500Y-158500D02*
X19500Y-159500D01*
X19500Y-159500D02*
X19500Y-160000D01*
X19000Y-155500D02*
X19000Y-154500D01*
X19000Y-152500D02*
X19000Y-154500D01*
M02*
