G04 #@! TF.FileFunction,Soldermask,Bot*
%FSLAX46Y46*%
G04 Gerber Fmt 4.6, Leading zero omitted, Abs format (unit mm)*
G04 Created by KiCad (PCBNEW 4.0.5+dfsg1-4~bpo8+1) date Mon May  8 03:03:41 2017*
%MOMM*%
%LPD*%
G01*
G04 APERTURE LIST*
%ADD10C,0.100000*%
%ADD11R,3.295600X1.898600*%
%ADD12R,1.898600X3.295600*%
%ADD13R,1.898600X1.898600*%
%ADD14O,1.898600X1.898600*%
%ADD15R,1.898600X2.647900*%
%ADD16O,1.898600X2.647900*%
%ADD17C,1.797000*%
%ADD18C,1.901140*%
%ADD19C,3.900120*%
%ADD20R,2.152600X2.152600*%
%ADD21O,2.152600X2.152600*%
%ADD22C,2.152600*%
G04 APERTURE END LIST*
D10*
D11*
X97218500Y-80645000D03*
X100901500Y-80645000D03*
D12*
X102235000Y-97091500D03*
X102235000Y-93408500D03*
D13*
X100965000Y-87630000D03*
D14*
X103505000Y-87630000D03*
D11*
X129476500Y-88900000D03*
X125793500Y-88900000D03*
X129476500Y-91440000D03*
X125793500Y-91440000D03*
D12*
X120650000Y-85026500D03*
X120650000Y-81343500D03*
D11*
X109156500Y-83185000D03*
X105473500Y-83185000D03*
D15*
X96520000Y-77095350D03*
D16*
X99060000Y-77095350D03*
X101600000Y-77095350D03*
X104140000Y-77095350D03*
X104140000Y-70224650D03*
X101600000Y-70224650D03*
X99060000Y-70224650D03*
X96520000Y-70224650D03*
X106680000Y-77095350D03*
X109220000Y-77095350D03*
X111760000Y-77095350D03*
X106680000Y-70224650D03*
X109220000Y-70224650D03*
X111760000Y-70224650D03*
X114300000Y-77095350D03*
X116840000Y-77095350D03*
X119380000Y-77095350D03*
X121920000Y-77095350D03*
X124460000Y-77095350D03*
X127000000Y-77095350D03*
X129540000Y-77095350D03*
X114300000Y-70224650D03*
X116840000Y-70224650D03*
X119380000Y-70224650D03*
X121920000Y-70224650D03*
X124460000Y-70224650D03*
X127000000Y-70224650D03*
X129540000Y-70224650D03*
D17*
X119824500Y-63106300D03*
X121983500Y-63106300D03*
X115506500Y-63106300D03*
X117665500Y-63106300D03*
X119824500Y-58813700D03*
X117665500Y-58813700D03*
X115506500Y-58813700D03*
X121983500Y-58813700D03*
X113347500Y-63106300D03*
X111188500Y-63106300D03*
X109029500Y-63106300D03*
X106870500Y-63106300D03*
X113347500Y-58813700D03*
X111188500Y-58813700D03*
X109029500Y-58813700D03*
X106870500Y-58813700D03*
X124142500Y-63106300D03*
X126301500Y-63106300D03*
X128460500Y-63106300D03*
X130619500Y-63106300D03*
X124142500Y-58813700D03*
X126301500Y-58813700D03*
X128460500Y-58813700D03*
X130619500Y-58813700D03*
D18*
X137236200Y-91414600D03*
X137236200Y-88925400D03*
X135229600Y-88925400D03*
X135229600Y-91414600D03*
D19*
X139954000Y-96189800D03*
X139954000Y-84150200D03*
D14*
X109855000Y-90170000D03*
X120015000Y-90170000D03*
X109855000Y-92710000D03*
X120015000Y-92710000D03*
X120015000Y-95250000D03*
X109855000Y-95250000D03*
X120015000Y-97790000D03*
X109855000Y-97790000D03*
D20*
X129540000Y-97790000D03*
D21*
X132080000Y-97790000D03*
D20*
X123825000Y-97790000D03*
D21*
X126365000Y-97790000D03*
D22*
X97155000Y-97790000D03*
X97155000Y-87630000D03*
M02*
