G04 (created by PCBNEW (22-Jun-2014 BZR 4027)-stable) date Sat 02 Sep 2017 10:45:24 PM CDT*
%MOIN*%
G04 Gerber Fmt 3.4, Leading zero omitted, Abs format*
%FSLAX34Y34*%
G01*
G70*
G90*
G04 APERTURE LIST*
%ADD10C,0.00393701*%
%ADD11C,0.006*%
%ADD12C,0.008*%
%ADD13C,0.005*%
%ADD14C,0.012*%
%ADD15C,0.0001*%
G04 APERTURE END LIST*
G54D10*
G54D11*
X57928Y-30121D02*
X57928Y-29921D01*
X57928Y-29821D02*
X57942Y-29835D01*
X57928Y-29850D01*
X57914Y-29835D01*
X57928Y-29821D01*
X57928Y-29850D01*
X57785Y-29921D02*
X57785Y-30121D01*
X57785Y-29950D02*
X57771Y-29935D01*
X57742Y-29921D01*
X57700Y-29921D01*
X57671Y-29935D01*
X57657Y-29964D01*
X57657Y-30121D01*
X57528Y-30107D02*
X57500Y-30121D01*
X57442Y-30121D01*
X57414Y-30107D01*
X57400Y-30078D01*
X57400Y-30064D01*
X57414Y-30035D01*
X57442Y-30021D01*
X57485Y-30021D01*
X57514Y-30007D01*
X57528Y-29978D01*
X57528Y-29964D01*
X57514Y-29935D01*
X57485Y-29921D01*
X57442Y-29921D01*
X57414Y-29935D01*
X57157Y-30107D02*
X57185Y-30121D01*
X57242Y-30121D01*
X57271Y-30107D01*
X57285Y-30078D01*
X57285Y-29964D01*
X57271Y-29935D01*
X57242Y-29921D01*
X57185Y-29921D01*
X57157Y-29935D01*
X57142Y-29964D01*
X57142Y-29992D01*
X57285Y-30021D01*
X57014Y-30121D02*
X57014Y-29921D01*
X57014Y-29978D02*
X57000Y-29950D01*
X56985Y-29935D01*
X56957Y-29921D01*
X56928Y-29921D01*
X56871Y-29921D02*
X56757Y-29921D01*
X56828Y-29821D02*
X56828Y-30078D01*
X56814Y-30107D01*
X56785Y-30121D01*
X56757Y-30121D01*
X56428Y-30121D02*
X56428Y-29821D01*
X56428Y-29935D02*
X56400Y-29921D01*
X56342Y-29921D01*
X56314Y-29935D01*
X56300Y-29950D01*
X56285Y-29978D01*
X56285Y-30064D01*
X56300Y-30092D01*
X56314Y-30107D01*
X56342Y-30121D01*
X56400Y-30121D01*
X56428Y-30107D01*
X56185Y-29921D02*
X56114Y-30121D01*
X56042Y-29921D02*
X56114Y-30121D01*
X56142Y-30192D01*
X56157Y-30207D01*
X56185Y-30221D01*
X55700Y-29921D02*
X55700Y-30221D01*
X55700Y-29935D02*
X55671Y-29921D01*
X55614Y-29921D01*
X55585Y-29935D01*
X55571Y-29950D01*
X55557Y-29978D01*
X55557Y-30064D01*
X55571Y-30092D01*
X55585Y-30107D01*
X55614Y-30121D01*
X55671Y-30121D01*
X55700Y-30107D01*
X55300Y-29921D02*
X55300Y-30121D01*
X55428Y-29921D02*
X55428Y-30078D01*
X55414Y-30107D01*
X55385Y-30121D01*
X55342Y-30121D01*
X55314Y-30107D01*
X55300Y-30092D01*
X55171Y-30107D02*
X55142Y-30121D01*
X55085Y-30121D01*
X55057Y-30107D01*
X55042Y-30078D01*
X55042Y-30064D01*
X55057Y-30035D01*
X55085Y-30021D01*
X55128Y-30021D01*
X55157Y-30007D01*
X55171Y-29978D01*
X55171Y-29964D01*
X55157Y-29935D01*
X55128Y-29921D01*
X55085Y-29921D01*
X55057Y-29935D01*
X54914Y-30121D02*
X54914Y-29821D01*
X54785Y-30121D02*
X54785Y-29964D01*
X54800Y-29935D01*
X54828Y-29921D01*
X54871Y-29921D01*
X54900Y-29935D01*
X54914Y-29950D01*
X54642Y-30121D02*
X54642Y-29921D01*
X54642Y-29821D02*
X54657Y-29835D01*
X54642Y-29850D01*
X54628Y-29835D01*
X54642Y-29821D01*
X54642Y-29850D01*
X54500Y-29921D02*
X54500Y-30121D01*
X54500Y-29950D02*
X54485Y-29935D01*
X54457Y-29921D01*
X54414Y-29921D01*
X54385Y-29935D01*
X54371Y-29964D01*
X54371Y-30121D01*
X54100Y-29921D02*
X54100Y-30164D01*
X54114Y-30192D01*
X54128Y-30207D01*
X54157Y-30221D01*
X54200Y-30221D01*
X54228Y-30207D01*
X54100Y-30107D02*
X54128Y-30121D01*
X54185Y-30121D01*
X54214Y-30107D01*
X54228Y-30092D01*
X54242Y-30064D01*
X54242Y-29978D01*
X54228Y-29950D01*
X54214Y-29935D01*
X54185Y-29921D01*
X54128Y-29921D01*
X54100Y-29935D01*
X53771Y-29921D02*
X53657Y-29921D01*
X53728Y-29821D02*
X53728Y-30078D01*
X53714Y-30107D01*
X53685Y-30121D01*
X53657Y-30121D01*
X53557Y-30121D02*
X53557Y-29821D01*
X53428Y-30121D02*
X53428Y-29964D01*
X53442Y-29935D01*
X53471Y-29921D01*
X53514Y-29921D01*
X53542Y-29935D01*
X53557Y-29950D01*
X53171Y-30107D02*
X53200Y-30121D01*
X53257Y-30121D01*
X53285Y-30107D01*
X53300Y-30078D01*
X53300Y-29964D01*
X53285Y-29935D01*
X53257Y-29921D01*
X53200Y-29921D01*
X53171Y-29935D01*
X53157Y-29964D01*
X53157Y-29992D01*
X53300Y-30021D01*
X52671Y-30107D02*
X52700Y-30121D01*
X52757Y-30121D01*
X52785Y-30107D01*
X52800Y-30092D01*
X52814Y-30064D01*
X52814Y-29978D01*
X52800Y-29950D01*
X52785Y-29935D01*
X52757Y-29921D01*
X52700Y-29921D01*
X52671Y-29935D01*
X52500Y-30121D02*
X52528Y-30107D01*
X52542Y-30092D01*
X52557Y-30064D01*
X52557Y-29978D01*
X52542Y-29950D01*
X52528Y-29935D01*
X52500Y-29921D01*
X52457Y-29921D01*
X52428Y-29935D01*
X52414Y-29950D01*
X52400Y-29978D01*
X52400Y-30064D01*
X52414Y-30092D01*
X52428Y-30107D01*
X52457Y-30121D01*
X52500Y-30121D01*
X52271Y-29921D02*
X52271Y-30121D01*
X52271Y-29950D02*
X52257Y-29935D01*
X52228Y-29921D01*
X52185Y-29921D01*
X52157Y-29935D01*
X52142Y-29964D01*
X52142Y-30121D01*
X52000Y-29921D02*
X52000Y-30121D01*
X52000Y-29950D02*
X51985Y-29935D01*
X51957Y-29921D01*
X51914Y-29921D01*
X51885Y-29935D01*
X51871Y-29964D01*
X51871Y-30121D01*
X51614Y-30107D02*
X51642Y-30121D01*
X51700Y-30121D01*
X51728Y-30107D01*
X51742Y-30078D01*
X51742Y-29964D01*
X51728Y-29935D01*
X51700Y-29921D01*
X51642Y-29921D01*
X51614Y-29935D01*
X51600Y-29964D01*
X51600Y-29992D01*
X51742Y-30021D01*
X51342Y-30107D02*
X51371Y-30121D01*
X51428Y-30121D01*
X51457Y-30107D01*
X51471Y-30092D01*
X51485Y-30064D01*
X51485Y-29978D01*
X51471Y-29950D01*
X51457Y-29935D01*
X51428Y-29921D01*
X51371Y-29921D01*
X51342Y-29935D01*
X51257Y-29921D02*
X51142Y-29921D01*
X51214Y-29821D02*
X51214Y-30078D01*
X51200Y-30107D01*
X51171Y-30121D01*
X51142Y-30121D01*
X50999Y-30121D02*
X51028Y-30107D01*
X51042Y-30092D01*
X51057Y-30064D01*
X51057Y-29978D01*
X51042Y-29950D01*
X51028Y-29935D01*
X50999Y-29921D01*
X50957Y-29921D01*
X50928Y-29935D01*
X50914Y-29950D01*
X50899Y-29978D01*
X50899Y-30064D01*
X50914Y-30092D01*
X50928Y-30107D01*
X50957Y-30121D01*
X50999Y-30121D01*
X50771Y-30121D02*
X50771Y-29921D01*
X50771Y-29978D02*
X50757Y-29950D01*
X50742Y-29935D01*
X50714Y-29921D01*
X50685Y-29921D01*
X50571Y-30107D02*
X50571Y-30121D01*
X50585Y-30150D01*
X50599Y-30164D01*
X50214Y-29921D02*
X50214Y-30121D01*
X50214Y-29950D02*
X50200Y-29935D01*
X50171Y-29921D01*
X50128Y-29921D01*
X50100Y-29935D01*
X50085Y-29964D01*
X50085Y-30121D01*
X49899Y-30121D02*
X49928Y-30107D01*
X49942Y-30092D01*
X49957Y-30064D01*
X49957Y-29978D01*
X49942Y-29950D01*
X49928Y-29935D01*
X49899Y-29921D01*
X49857Y-29921D01*
X49828Y-29935D01*
X49814Y-29950D01*
X49799Y-29978D01*
X49799Y-30064D01*
X49814Y-30092D01*
X49828Y-30107D01*
X49857Y-30121D01*
X49899Y-30121D01*
X49714Y-29921D02*
X49599Y-29921D01*
X49671Y-29821D02*
X49671Y-30078D01*
X49657Y-30107D01*
X49628Y-30121D01*
X49599Y-30121D01*
X49314Y-29921D02*
X49199Y-29921D01*
X49271Y-29821D02*
X49271Y-30078D01*
X49257Y-30107D01*
X49228Y-30121D01*
X49199Y-30121D01*
X49099Y-30121D02*
X49099Y-29821D01*
X48971Y-30121D02*
X48971Y-29964D01*
X48985Y-29935D01*
X49014Y-29921D01*
X49057Y-29921D01*
X49085Y-29935D01*
X49099Y-29950D01*
X48714Y-30107D02*
X48742Y-30121D01*
X48799Y-30121D01*
X48828Y-30107D01*
X48842Y-30078D01*
X48842Y-29964D01*
X48828Y-29935D01*
X48799Y-29921D01*
X48742Y-29921D01*
X48714Y-29935D01*
X48699Y-29964D01*
X48699Y-29992D01*
X48842Y-30021D01*
X48342Y-30121D02*
X48342Y-29821D01*
X48342Y-29935D02*
X48314Y-29921D01*
X48257Y-29921D01*
X48228Y-29935D01*
X48214Y-29950D01*
X48199Y-29978D01*
X48199Y-30064D01*
X48214Y-30092D01*
X48228Y-30107D01*
X48257Y-30121D01*
X48314Y-30121D01*
X48342Y-30107D01*
X48028Y-30121D02*
X48057Y-30107D01*
X48071Y-30092D01*
X48085Y-30064D01*
X48085Y-29978D01*
X48071Y-29950D01*
X48057Y-29935D01*
X48028Y-29921D01*
X47985Y-29921D01*
X47957Y-29935D01*
X47942Y-29950D01*
X47928Y-29978D01*
X47928Y-30064D01*
X47942Y-30092D01*
X47957Y-30107D01*
X47985Y-30121D01*
X48028Y-30121D01*
X47671Y-30121D02*
X47671Y-29964D01*
X47685Y-29935D01*
X47714Y-29921D01*
X47771Y-29921D01*
X47799Y-29935D01*
X47671Y-30107D02*
X47699Y-30121D01*
X47771Y-30121D01*
X47799Y-30107D01*
X47814Y-30078D01*
X47814Y-30050D01*
X47799Y-30021D01*
X47771Y-30007D01*
X47699Y-30007D01*
X47671Y-29992D01*
X47528Y-30121D02*
X47528Y-29921D01*
X47528Y-29978D02*
X47514Y-29950D01*
X47499Y-29935D01*
X47471Y-29921D01*
X47442Y-29921D01*
X47214Y-30121D02*
X47214Y-29821D01*
X47214Y-30107D02*
X47242Y-30121D01*
X47299Y-30121D01*
X47328Y-30107D01*
X47342Y-30092D01*
X47357Y-30064D01*
X47357Y-29978D01*
X47342Y-29950D01*
X47328Y-29935D01*
X47299Y-29921D01*
X47242Y-29921D01*
X47214Y-29935D01*
X47071Y-30092D02*
X47057Y-30107D01*
X47071Y-30121D01*
X47085Y-30107D01*
X47071Y-30092D01*
X47071Y-30121D01*
X47071Y-30007D02*
X47085Y-29835D01*
X47071Y-29821D01*
X47057Y-29835D01*
X47071Y-30007D01*
X47071Y-29821D01*
G54D12*
X57785Y-31145D02*
X57785Y-31469D01*
X57804Y-31507D01*
X57823Y-31526D01*
X57861Y-31545D01*
X57919Y-31545D01*
X57957Y-31526D01*
X57785Y-31392D02*
X57823Y-31411D01*
X57899Y-31411D01*
X57938Y-31392D01*
X57957Y-31373D01*
X57976Y-31335D01*
X57976Y-31221D01*
X57957Y-31183D01*
X57938Y-31164D01*
X57899Y-31145D01*
X57823Y-31145D01*
X57785Y-31164D01*
X57595Y-31411D02*
X57595Y-31145D01*
X57595Y-31011D02*
X57614Y-31030D01*
X57595Y-31050D01*
X57576Y-31030D01*
X57595Y-31011D01*
X57595Y-31050D01*
X57461Y-31145D02*
X57309Y-31145D01*
X57404Y-31011D02*
X57404Y-31354D01*
X57385Y-31392D01*
X57347Y-31411D01*
X57309Y-31411D01*
X57176Y-31411D02*
X57176Y-31011D01*
X57004Y-31411D02*
X57004Y-31202D01*
X57023Y-31164D01*
X57061Y-31145D01*
X57119Y-31145D01*
X57157Y-31164D01*
X57176Y-31183D01*
X56642Y-31145D02*
X56642Y-31411D01*
X56814Y-31145D02*
X56814Y-31354D01*
X56795Y-31392D01*
X56757Y-31411D01*
X56700Y-31411D01*
X56661Y-31392D01*
X56642Y-31373D01*
X56452Y-31411D02*
X56452Y-31011D01*
X56452Y-31164D02*
X56414Y-31145D01*
X56338Y-31145D01*
X56300Y-31164D01*
X56280Y-31183D01*
X56261Y-31221D01*
X56261Y-31335D01*
X56280Y-31373D01*
X56300Y-31392D01*
X56338Y-31411D01*
X56414Y-31411D01*
X56452Y-31392D01*
X56090Y-31373D02*
X56071Y-31392D01*
X56090Y-31411D01*
X56109Y-31392D01*
X56090Y-31373D01*
X56090Y-31411D01*
X55728Y-31392D02*
X55766Y-31411D01*
X55842Y-31411D01*
X55880Y-31392D01*
X55899Y-31373D01*
X55919Y-31335D01*
X55919Y-31221D01*
X55899Y-31183D01*
X55880Y-31164D01*
X55842Y-31145D01*
X55766Y-31145D01*
X55728Y-31164D01*
X55499Y-31411D02*
X55538Y-31392D01*
X55557Y-31373D01*
X55576Y-31335D01*
X55576Y-31221D01*
X55557Y-31183D01*
X55538Y-31164D01*
X55499Y-31145D01*
X55442Y-31145D01*
X55404Y-31164D01*
X55385Y-31183D01*
X55366Y-31221D01*
X55366Y-31335D01*
X55385Y-31373D01*
X55404Y-31392D01*
X55442Y-31411D01*
X55499Y-31411D01*
X55195Y-31411D02*
X55195Y-31145D01*
X55195Y-31183D02*
X55176Y-31164D01*
X55138Y-31145D01*
X55080Y-31145D01*
X55042Y-31164D01*
X55023Y-31202D01*
X55023Y-31411D01*
X55023Y-31202D02*
X55004Y-31164D01*
X54966Y-31145D01*
X54909Y-31145D01*
X54871Y-31164D01*
X54852Y-31202D01*
X54852Y-31411D01*
X54376Y-30992D02*
X54719Y-31507D01*
X54242Y-31145D02*
X54242Y-31545D01*
X54242Y-31164D02*
X54204Y-31145D01*
X54128Y-31145D01*
X54090Y-31164D01*
X54071Y-31183D01*
X54052Y-31221D01*
X54052Y-31335D01*
X54071Y-31373D01*
X54090Y-31392D01*
X54128Y-31411D01*
X54204Y-31411D01*
X54242Y-31392D01*
X53728Y-31392D02*
X53766Y-31411D01*
X53842Y-31411D01*
X53880Y-31392D01*
X53899Y-31354D01*
X53899Y-31202D01*
X53880Y-31164D01*
X53842Y-31145D01*
X53766Y-31145D01*
X53728Y-31164D01*
X53709Y-31202D01*
X53709Y-31240D01*
X53899Y-31278D01*
X53538Y-31145D02*
X53538Y-31545D01*
X53538Y-31164D02*
X53499Y-31145D01*
X53423Y-31145D01*
X53385Y-31164D01*
X53366Y-31183D01*
X53347Y-31221D01*
X53347Y-31335D01*
X53366Y-31373D01*
X53385Y-31392D01*
X53423Y-31411D01*
X53499Y-31411D01*
X53538Y-31392D01*
X53004Y-31411D02*
X53004Y-31202D01*
X53023Y-31164D01*
X53061Y-31145D01*
X53138Y-31145D01*
X53176Y-31164D01*
X53004Y-31392D02*
X53042Y-31411D01*
X53138Y-31411D01*
X53176Y-31392D01*
X53195Y-31354D01*
X53195Y-31316D01*
X53176Y-31278D01*
X53138Y-31259D01*
X53042Y-31259D01*
X53004Y-31240D01*
X52833Y-31392D02*
X52795Y-31411D01*
X52719Y-31411D01*
X52680Y-31392D01*
X52661Y-31354D01*
X52661Y-31335D01*
X52680Y-31297D01*
X52719Y-31278D01*
X52776Y-31278D01*
X52814Y-31259D01*
X52833Y-31221D01*
X52833Y-31202D01*
X52814Y-31164D01*
X52776Y-31145D01*
X52719Y-31145D01*
X52680Y-31164D01*
X52433Y-31411D02*
X52471Y-31392D01*
X52490Y-31354D01*
X52490Y-31011D01*
X52109Y-31411D02*
X52109Y-31202D01*
X52128Y-31164D01*
X52166Y-31145D01*
X52242Y-31145D01*
X52280Y-31164D01*
X52109Y-31392D02*
X52147Y-31411D01*
X52242Y-31411D01*
X52280Y-31392D01*
X52300Y-31354D01*
X52300Y-31316D01*
X52280Y-31278D01*
X52242Y-31259D01*
X52147Y-31259D01*
X52109Y-31240D01*
X51919Y-31411D02*
X51919Y-31011D01*
X51919Y-31164D02*
X51880Y-31145D01*
X51804Y-31145D01*
X51766Y-31164D01*
X51747Y-31183D01*
X51728Y-31221D01*
X51728Y-31335D01*
X51747Y-31373D01*
X51766Y-31392D01*
X51804Y-31411D01*
X51880Y-31411D01*
X51919Y-31392D01*
X51576Y-31392D02*
X51538Y-31411D01*
X51461Y-31411D01*
X51423Y-31392D01*
X51404Y-31354D01*
X51404Y-31335D01*
X51423Y-31297D01*
X51461Y-31278D01*
X51519Y-31278D01*
X51557Y-31259D01*
X51576Y-31221D01*
X51576Y-31202D01*
X51557Y-31164D01*
X51519Y-31145D01*
X51461Y-31145D01*
X51423Y-31164D01*
X50947Y-30992D02*
X51290Y-31507D01*
X50642Y-31411D02*
X50642Y-31202D01*
X50661Y-31164D01*
X50700Y-31145D01*
X50776Y-31145D01*
X50814Y-31164D01*
X50642Y-31392D02*
X50680Y-31411D01*
X50776Y-31411D01*
X50814Y-31392D01*
X50833Y-31354D01*
X50833Y-31316D01*
X50814Y-31278D01*
X50776Y-31259D01*
X50680Y-31259D01*
X50642Y-31240D01*
X50509Y-31145D02*
X50357Y-31145D01*
X50452Y-31011D02*
X50452Y-31354D01*
X50433Y-31392D01*
X50395Y-31411D01*
X50357Y-31411D01*
X50223Y-31411D02*
X50223Y-31145D01*
X50223Y-31183D02*
X50204Y-31164D01*
X50166Y-31145D01*
X50109Y-31145D01*
X50071Y-31164D01*
X50052Y-31202D01*
X50052Y-31411D01*
X50052Y-31202D02*
X50033Y-31164D01*
X49995Y-31145D01*
X49938Y-31145D01*
X49900Y-31164D01*
X49880Y-31202D01*
X49880Y-31411D01*
X49538Y-31392D02*
X49576Y-31411D01*
X49652Y-31411D01*
X49690Y-31392D01*
X49709Y-31354D01*
X49709Y-31202D01*
X49690Y-31164D01*
X49652Y-31145D01*
X49576Y-31145D01*
X49538Y-31164D01*
X49519Y-31202D01*
X49519Y-31240D01*
X49709Y-31278D01*
X49176Y-31145D02*
X49176Y-31469D01*
X49195Y-31507D01*
X49214Y-31526D01*
X49252Y-31545D01*
X49309Y-31545D01*
X49347Y-31526D01*
X49176Y-31392D02*
X49214Y-31411D01*
X49290Y-31411D01*
X49328Y-31392D01*
X49347Y-31373D01*
X49366Y-31335D01*
X49366Y-31221D01*
X49347Y-31183D01*
X49328Y-31164D01*
X49290Y-31145D01*
X49214Y-31145D01*
X49176Y-31164D01*
X48814Y-31411D02*
X48814Y-31202D01*
X48833Y-31164D01*
X48871Y-31145D01*
X48947Y-31145D01*
X48985Y-31164D01*
X48814Y-31392D02*
X48852Y-31411D01*
X48947Y-31411D01*
X48985Y-31392D01*
X49004Y-31354D01*
X49004Y-31316D01*
X48985Y-31278D01*
X48947Y-31259D01*
X48852Y-31259D01*
X48814Y-31240D01*
X48623Y-31259D02*
X48319Y-31259D01*
X47957Y-31145D02*
X47957Y-31469D01*
X47976Y-31507D01*
X47995Y-31526D01*
X48033Y-31545D01*
X48090Y-31545D01*
X48128Y-31526D01*
X47957Y-31392D02*
X47995Y-31411D01*
X48071Y-31411D01*
X48109Y-31392D01*
X48128Y-31373D01*
X48147Y-31335D01*
X48147Y-31221D01*
X48128Y-31183D01*
X48109Y-31164D01*
X48071Y-31145D01*
X47995Y-31145D01*
X47957Y-31164D01*
X47766Y-31145D02*
X47766Y-31545D01*
X47766Y-31164D02*
X47728Y-31145D01*
X47652Y-31145D01*
X47614Y-31164D01*
X47595Y-31183D01*
X47576Y-31221D01*
X47576Y-31335D01*
X47595Y-31373D01*
X47614Y-31392D01*
X47652Y-31411D01*
X47728Y-31411D01*
X47766Y-31392D01*
X47404Y-31411D02*
X47404Y-31145D01*
X47404Y-31011D02*
X47423Y-31030D01*
X47404Y-31050D01*
X47385Y-31030D01*
X47404Y-31011D01*
X47404Y-31050D01*
X47214Y-31411D02*
X47214Y-31011D01*
X47214Y-31164D02*
X47176Y-31145D01*
X47100Y-31145D01*
X47061Y-31164D01*
X47042Y-31183D01*
X47023Y-31221D01*
X47023Y-31335D01*
X47042Y-31373D01*
X47061Y-31392D01*
X47100Y-31411D01*
X47176Y-31411D01*
X47214Y-31392D01*
G54D13*
X61500Y-31696D02*
X61511Y-31684D01*
X61535Y-31648D01*
X61547Y-31625D01*
X61559Y-31589D01*
X61571Y-31529D01*
X61571Y-31482D01*
X61559Y-31422D01*
X61547Y-31386D01*
X61535Y-31363D01*
X61511Y-31327D01*
X61500Y-31315D01*
X61428Y-31434D02*
X61369Y-31601D01*
X61309Y-31434D01*
X61226Y-31375D02*
X61214Y-31363D01*
X61190Y-31351D01*
X61130Y-31351D01*
X61107Y-31363D01*
X61095Y-31375D01*
X61083Y-31398D01*
X61083Y-31422D01*
X61095Y-31458D01*
X61238Y-31601D01*
X61083Y-31601D01*
X61000Y-31696D02*
X60988Y-31684D01*
X60964Y-31648D01*
X60952Y-31625D01*
X60940Y-31589D01*
X60928Y-31529D01*
X60928Y-31482D01*
X60940Y-31422D01*
X60952Y-31386D01*
X60964Y-31363D01*
X60988Y-31327D01*
X61000Y-31315D01*
G54D14*
X64321Y-30321D02*
X64035Y-30321D01*
X64378Y-30492D02*
X64178Y-29892D01*
X63978Y-30492D01*
X63864Y-29892D02*
X63521Y-29892D01*
X63692Y-30492D02*
X63692Y-29892D01*
X63321Y-30492D02*
X63321Y-30092D01*
X63321Y-30150D02*
X63292Y-30121D01*
X63235Y-30092D01*
X63149Y-30092D01*
X63092Y-30121D01*
X63064Y-30178D01*
X63064Y-30492D01*
X63064Y-30178D02*
X63035Y-30121D01*
X62978Y-30092D01*
X62892Y-30092D01*
X62835Y-30121D01*
X62807Y-30178D01*
X62807Y-30492D01*
X62292Y-30464D02*
X62349Y-30492D01*
X62464Y-30492D01*
X62521Y-30464D01*
X62549Y-30407D01*
X62549Y-30178D01*
X62521Y-30121D01*
X62464Y-30092D01*
X62349Y-30092D01*
X62292Y-30121D01*
X62264Y-30178D01*
X62264Y-30235D01*
X62549Y-30292D01*
X61749Y-30092D02*
X61749Y-30578D01*
X61778Y-30635D01*
X61807Y-30664D01*
X61864Y-30692D01*
X61949Y-30692D01*
X62007Y-30664D01*
X61749Y-30464D02*
X61807Y-30492D01*
X61921Y-30492D01*
X61978Y-30464D01*
X62007Y-30435D01*
X62035Y-30378D01*
X62035Y-30207D01*
X62007Y-30150D01*
X61978Y-30121D01*
X61921Y-30092D01*
X61807Y-30092D01*
X61749Y-30121D01*
X61207Y-30492D02*
X61207Y-30178D01*
X61235Y-30121D01*
X61292Y-30092D01*
X61407Y-30092D01*
X61464Y-30121D01*
X61207Y-30464D02*
X61264Y-30492D01*
X61407Y-30492D01*
X61464Y-30464D01*
X61492Y-30407D01*
X61492Y-30350D01*
X61464Y-30292D01*
X61407Y-30264D01*
X61264Y-30264D01*
X61207Y-30235D01*
X63335Y-30881D02*
X63392Y-30852D01*
X63478Y-30852D01*
X63564Y-30881D01*
X63621Y-30938D01*
X63650Y-30995D01*
X63678Y-31110D01*
X63678Y-31195D01*
X63650Y-31310D01*
X63621Y-31367D01*
X63564Y-31424D01*
X63478Y-31452D01*
X63421Y-31452D01*
X63335Y-31424D01*
X63307Y-31395D01*
X63307Y-31195D01*
X63421Y-31195D01*
X63050Y-31452D02*
X63050Y-30852D01*
X62821Y-30852D01*
X62764Y-30881D01*
X62735Y-30910D01*
X62707Y-30967D01*
X62707Y-31052D01*
X62735Y-31110D01*
X62764Y-31138D01*
X62821Y-31167D01*
X63050Y-31167D01*
X62450Y-31452D02*
X62450Y-30852D01*
X61964Y-31138D02*
X61878Y-31167D01*
X61850Y-31195D01*
X61821Y-31252D01*
X61821Y-31338D01*
X61850Y-31395D01*
X61878Y-31424D01*
X61935Y-31452D01*
X62164Y-31452D01*
X62164Y-30852D01*
X61964Y-30852D01*
X61907Y-30881D01*
X61878Y-30910D01*
X61850Y-30967D01*
X61850Y-31024D01*
X61878Y-31081D01*
X61907Y-31110D01*
X61964Y-31138D01*
X62164Y-31138D01*
G54D15*
G36*
X63227Y-33957D02*
X63219Y-33953D01*
X63200Y-33941D01*
X63174Y-33924D01*
X63143Y-33903D01*
X63112Y-33882D01*
X63086Y-33865D01*
X63068Y-33853D01*
X63061Y-33849D01*
X63057Y-33850D01*
X63042Y-33858D01*
X63020Y-33869D01*
X63008Y-33875D01*
X62988Y-33884D01*
X62978Y-33886D01*
X62977Y-33883D01*
X62969Y-33868D01*
X62958Y-33842D01*
X62943Y-33808D01*
X62926Y-33768D01*
X62908Y-33725D01*
X62890Y-33681D01*
X62872Y-33639D01*
X62857Y-33601D01*
X62844Y-33571D01*
X62836Y-33549D01*
X62833Y-33540D01*
X62834Y-33538D01*
X62844Y-33529D01*
X62861Y-33516D01*
X62899Y-33485D01*
X62935Y-33439D01*
X62958Y-33387D01*
X62965Y-33329D01*
X62959Y-33276D01*
X62938Y-33225D01*
X62902Y-33178D01*
X62858Y-33144D01*
X62807Y-33122D01*
X62750Y-33115D01*
X62695Y-33121D01*
X62643Y-33142D01*
X62596Y-33177D01*
X62577Y-33200D01*
X62550Y-33247D01*
X62534Y-33297D01*
X62533Y-33309D01*
X62535Y-33365D01*
X62551Y-33418D01*
X62580Y-33465D01*
X62621Y-33504D01*
X62626Y-33508D01*
X62645Y-33522D01*
X62657Y-33531D01*
X62667Y-33539D01*
X62597Y-33709D01*
X62586Y-33736D01*
X62566Y-33782D01*
X62549Y-33822D01*
X62536Y-33854D01*
X62526Y-33875D01*
X62522Y-33884D01*
X62522Y-33884D01*
X62516Y-33885D01*
X62503Y-33880D01*
X62479Y-33869D01*
X62463Y-33861D01*
X62445Y-33852D01*
X62437Y-33849D01*
X62430Y-33853D01*
X62413Y-33864D01*
X62388Y-33881D01*
X62358Y-33901D01*
X62329Y-33921D01*
X62302Y-33939D01*
X62283Y-33951D01*
X62273Y-33956D01*
X62272Y-33956D01*
X62264Y-33951D01*
X62248Y-33939D01*
X62225Y-33917D01*
X62193Y-33885D01*
X62188Y-33880D01*
X62161Y-33852D01*
X62139Y-33829D01*
X62124Y-33813D01*
X62119Y-33806D01*
X62119Y-33806D01*
X62124Y-33796D01*
X62136Y-33777D01*
X62154Y-33750D01*
X62175Y-33719D01*
X62231Y-33637D01*
X62200Y-33560D01*
X62191Y-33537D01*
X62179Y-33508D01*
X62170Y-33488D01*
X62165Y-33479D01*
X62157Y-33476D01*
X62136Y-33471D01*
X62105Y-33464D01*
X62069Y-33458D01*
X62034Y-33451D01*
X62003Y-33445D01*
X61980Y-33441D01*
X61970Y-33439D01*
X61968Y-33437D01*
X61966Y-33432D01*
X61964Y-33422D01*
X61964Y-33403D01*
X61963Y-33373D01*
X61963Y-33329D01*
X61963Y-33325D01*
X61964Y-33283D01*
X61964Y-33250D01*
X61965Y-33229D01*
X61967Y-33221D01*
X61967Y-33221D01*
X61977Y-33218D01*
X61999Y-33214D01*
X62030Y-33207D01*
X62068Y-33200D01*
X62070Y-33200D01*
X62107Y-33193D01*
X62138Y-33186D01*
X62160Y-33181D01*
X62169Y-33178D01*
X62171Y-33176D01*
X62179Y-33161D01*
X62190Y-33138D01*
X62202Y-33110D01*
X62214Y-33081D01*
X62225Y-33054D01*
X62232Y-33035D01*
X62234Y-33026D01*
X62234Y-33026D01*
X62228Y-33017D01*
X62215Y-32997D01*
X62197Y-32971D01*
X62175Y-32939D01*
X62174Y-32936D01*
X62152Y-32905D01*
X62135Y-32878D01*
X62123Y-32859D01*
X62119Y-32851D01*
X62119Y-32850D01*
X62126Y-32841D01*
X62142Y-32823D01*
X62165Y-32799D01*
X62193Y-32771D01*
X62202Y-32763D01*
X62232Y-32733D01*
X62253Y-32713D01*
X62267Y-32703D01*
X62273Y-32700D01*
X62273Y-32701D01*
X62283Y-32706D01*
X62303Y-32719D01*
X62330Y-32738D01*
X62362Y-32759D01*
X62364Y-32761D01*
X62395Y-32782D01*
X62421Y-32800D01*
X62440Y-32812D01*
X62448Y-32817D01*
X62450Y-32817D01*
X62462Y-32813D01*
X62485Y-32806D01*
X62512Y-32795D01*
X62541Y-32783D01*
X62568Y-32772D01*
X62588Y-32763D01*
X62597Y-32758D01*
X62597Y-32757D01*
X62601Y-32746D01*
X62606Y-32722D01*
X62613Y-32690D01*
X62620Y-32651D01*
X62621Y-32645D01*
X62628Y-32608D01*
X62634Y-32577D01*
X62639Y-32555D01*
X62641Y-32546D01*
X62646Y-32545D01*
X62665Y-32544D01*
X62693Y-32543D01*
X62727Y-32543D01*
X62762Y-32543D01*
X62796Y-32544D01*
X62826Y-32545D01*
X62847Y-32546D01*
X62856Y-32548D01*
X62857Y-32549D01*
X62860Y-32560D01*
X62865Y-32584D01*
X62872Y-32616D01*
X62879Y-32655D01*
X62880Y-32662D01*
X62887Y-32699D01*
X62894Y-32730D01*
X62898Y-32751D01*
X62901Y-32759D01*
X62904Y-32761D01*
X62919Y-32768D01*
X62944Y-32778D01*
X62976Y-32791D01*
X63048Y-32820D01*
X63136Y-32759D01*
X63144Y-32754D01*
X63176Y-32732D01*
X63202Y-32715D01*
X63220Y-32703D01*
X63228Y-32699D01*
X63228Y-32699D01*
X63237Y-32707D01*
X63255Y-32723D01*
X63279Y-32747D01*
X63306Y-32774D01*
X63327Y-32795D01*
X63351Y-32820D01*
X63367Y-32836D01*
X63375Y-32847D01*
X63378Y-32854D01*
X63377Y-32858D01*
X63372Y-32867D01*
X63359Y-32886D01*
X63341Y-32913D01*
X63319Y-32944D01*
X63301Y-32971D01*
X63282Y-33000D01*
X63270Y-33021D01*
X63265Y-33032D01*
X63266Y-33036D01*
X63273Y-33053D01*
X63283Y-33080D01*
X63296Y-33111D01*
X63327Y-33181D01*
X63373Y-33189D01*
X63401Y-33195D01*
X63440Y-33202D01*
X63477Y-33209D01*
X63535Y-33221D01*
X63537Y-33433D01*
X63528Y-33437D01*
X63519Y-33440D01*
X63498Y-33444D01*
X63467Y-33450D01*
X63431Y-33457D01*
X63400Y-33463D01*
X63369Y-33469D01*
X63347Y-33473D01*
X63337Y-33475D01*
X63334Y-33479D01*
X63326Y-33494D01*
X63315Y-33518D01*
X63303Y-33547D01*
X63291Y-33576D01*
X63280Y-33604D01*
X63272Y-33625D01*
X63269Y-33636D01*
X63273Y-33644D01*
X63285Y-33662D01*
X63302Y-33688D01*
X63323Y-33719D01*
X63345Y-33750D01*
X63362Y-33777D01*
X63375Y-33796D01*
X63380Y-33804D01*
X63377Y-33810D01*
X63365Y-33825D01*
X63342Y-33849D01*
X63307Y-33884D01*
X63301Y-33889D01*
X63274Y-33916D01*
X63250Y-33937D01*
X63234Y-33952D01*
X63227Y-33957D01*
X63227Y-33957D01*
G37*
M02*
