G04 (created by PCBNEW (22-Jun-2014 BZR 4027)-stable) date Sat 02 Sep 2017 10:45:24 PM CDT*
%MOIN*%
G04 Gerber Fmt 3.4, Leading zero omitted, Abs format*
%FSLAX34Y34*%
G01*
G70*
G90*
G04 APERTURE LIST*
%ADD10C,0.00393701*%
%ADD11R,0.059X0.0885*%
%ADD12O,0.059X0.0885*%
%ADD13C,0.054*%
%ADD14C,0.14*%
%ADD15C,0.059*%
%ADD16C,0.1063*%
%ADD17R,0.069X0.069*%
%ADD18C,0.069*%
%ADD19O,0.059X0.059*%
%ADD20O,0.069X0.069*%
%ADD21R,0.059X0.059*%
%ADD22R,0.059X0.064*%
%ADD23R,0.064X0.059*%
%ADD24C,0.023622*%
%ADD25C,0.03*%
%ADD26C,0.01*%
%ADD27C,0.02*%
G04 APERTURE END LIST*
G54D10*
G54D11*
X47250Y-39602D03*
G54D12*
X48250Y-39602D03*
X49250Y-39602D03*
X50250Y-39602D03*
X50250Y-36897D03*
X49250Y-36897D03*
X48250Y-36897D03*
X47250Y-36897D03*
X51250Y-39602D03*
X52250Y-39602D03*
X53250Y-39602D03*
X51250Y-36897D03*
X52250Y-36897D03*
X53250Y-36897D03*
X54250Y-39602D03*
X55250Y-39602D03*
X56250Y-39602D03*
X57250Y-39602D03*
X58250Y-39602D03*
X59250Y-39602D03*
X60250Y-39602D03*
X54250Y-36897D03*
X55250Y-36897D03*
X56250Y-36897D03*
X57250Y-36897D03*
X58250Y-36897D03*
X59250Y-36897D03*
X60250Y-36897D03*
G54D13*
X56425Y-34095D03*
X57275Y-34095D03*
X54725Y-34095D03*
X55575Y-34095D03*
X56425Y-32405D03*
X55575Y-32405D03*
X54725Y-32405D03*
X57275Y-32405D03*
X53875Y-34095D03*
X53025Y-34095D03*
X52175Y-34095D03*
X51325Y-34095D03*
X53875Y-32405D03*
X53025Y-32405D03*
X52175Y-32405D03*
X51325Y-32405D03*
X58125Y-34095D03*
X58975Y-34095D03*
X59825Y-34095D03*
X60675Y-34095D03*
X58125Y-32405D03*
X58975Y-32405D03*
X59825Y-32405D03*
X60675Y-32405D03*
G54D14*
X65250Y-33250D03*
X46750Y-33250D03*
G54D15*
X62400Y-44250D03*
X62400Y-45250D03*
X63187Y-45250D03*
X63187Y-44250D03*
G54D16*
X64250Y-42388D03*
X64250Y-47112D03*
G54D17*
X50750Y-47750D03*
G54D18*
X49750Y-47750D03*
X48750Y-47750D03*
X47750Y-47750D03*
G54D17*
X57250Y-41000D03*
G54D18*
X58250Y-41000D03*
G54D19*
X55250Y-43750D03*
X59250Y-43750D03*
X55250Y-42750D03*
X59250Y-42750D03*
X61500Y-39500D03*
X61500Y-35500D03*
X55250Y-45750D03*
X59250Y-45750D03*
X55250Y-44750D03*
X59250Y-44750D03*
G54D17*
X63000Y-35750D03*
G54D20*
X63000Y-36750D03*
G54D17*
X58250Y-47000D03*
G54D20*
X58250Y-48000D03*
G54D17*
X56250Y-47000D03*
G54D20*
X56250Y-48000D03*
G54D18*
X64750Y-39750D03*
X64750Y-35750D03*
G54D21*
X61750Y-40500D03*
G54D19*
X61750Y-41500D03*
G54D11*
X53250Y-41897D03*
G54D12*
X52250Y-41897D03*
X51250Y-41897D03*
X50250Y-41897D03*
X50250Y-44602D03*
X51250Y-44602D03*
X52250Y-44602D03*
X53250Y-44602D03*
X49250Y-41897D03*
X48250Y-41897D03*
X47250Y-41897D03*
X49250Y-44602D03*
X48250Y-44602D03*
X47250Y-44602D03*
G54D22*
X52250Y-46300D03*
X52250Y-47450D03*
X60750Y-44200D03*
X60750Y-43050D03*
X60750Y-45300D03*
X60750Y-46450D03*
G54D23*
X63800Y-41000D03*
X64950Y-41000D03*
X47600Y-40750D03*
X48750Y-40750D03*
X55700Y-41000D03*
X54550Y-41000D03*
G54D22*
X53250Y-46300D03*
X53250Y-47450D03*
G54D24*
X61500Y-38250D03*
X57250Y-38250D03*
X53750Y-40500D03*
X52750Y-40500D03*
X51250Y-38750D03*
X51250Y-37750D03*
X52750Y-38750D03*
X53750Y-38750D03*
G54D25*
X50750Y-47750D02*
X50750Y-47250D01*
X50250Y-42750D02*
X49750Y-43250D01*
X49750Y-43250D02*
X49750Y-44250D01*
G54D26*
X49750Y-44250D02*
X49750Y-45250D01*
G54D25*
X49750Y-45250D02*
X50750Y-46250D01*
X50750Y-46250D02*
X50750Y-47250D01*
X50250Y-42750D02*
X50250Y-41750D01*
G54D27*
X55750Y-41000D02*
X55000Y-41750D01*
G54D25*
X61750Y-40500D02*
X62250Y-40500D01*
X64750Y-38000D02*
X64750Y-35750D01*
X62250Y-40500D02*
X64750Y-38000D01*
X47250Y-39750D02*
X47250Y-39000D01*
X47250Y-39000D02*
X48000Y-38250D01*
X48000Y-38250D02*
X50250Y-38250D01*
X57750Y-41750D02*
X59750Y-41750D01*
X61000Y-40500D02*
X61750Y-40500D01*
X59750Y-41750D02*
X61000Y-40500D01*
G54D26*
X57000Y-47000D02*
X57250Y-46750D01*
X57250Y-42250D02*
X57750Y-41750D01*
X57250Y-46750D02*
X57250Y-42250D01*
X56250Y-47000D02*
X57000Y-47000D01*
X57000Y-47000D02*
X58250Y-47000D01*
G54D25*
X53250Y-41750D02*
X53750Y-41750D01*
G54D27*
X53750Y-41750D02*
X55000Y-41750D01*
X55000Y-41750D02*
X56500Y-41750D01*
G54D25*
X56500Y-41750D02*
X57750Y-41750D01*
X53250Y-39750D02*
X53250Y-41750D01*
X50250Y-38250D02*
X49750Y-38750D01*
X50250Y-40750D02*
X50250Y-41750D01*
X49750Y-40250D02*
X50250Y-40750D01*
G54D26*
X49750Y-39250D02*
X49750Y-40250D01*
G54D25*
X49750Y-38750D02*
X49750Y-39250D01*
X47250Y-39750D02*
X47250Y-40450D01*
X47250Y-40450D02*
X47550Y-40750D01*
G54D26*
X53250Y-38750D02*
X53750Y-38250D01*
X55250Y-37750D02*
X55250Y-36750D01*
X54750Y-38250D02*
X55250Y-37750D01*
G54D27*
X54500Y-38250D02*
X54750Y-38250D01*
G54D26*
X53750Y-38250D02*
X54500Y-38250D01*
G54D25*
X53250Y-38750D02*
X53250Y-39750D01*
X52750Y-38250D02*
X53250Y-38750D01*
X50250Y-38250D02*
X52750Y-38250D01*
G54D26*
X56250Y-36750D02*
X56250Y-37500D01*
X61500Y-38250D02*
X61500Y-35500D01*
X57000Y-38250D02*
X57250Y-38250D01*
X56250Y-37500D02*
X57000Y-38250D01*
X50250Y-39750D02*
X50250Y-40000D01*
X57000Y-41000D02*
X57250Y-41000D01*
X56500Y-40500D02*
X57000Y-41000D01*
X53750Y-40500D02*
X56500Y-40500D01*
X50750Y-40500D02*
X52750Y-40500D01*
X50250Y-40000D02*
X50750Y-40500D01*
X52175Y-34095D02*
X52175Y-34325D01*
X52175Y-34325D02*
X51750Y-34750D01*
X51750Y-34750D02*
X50750Y-34750D01*
X50750Y-34750D02*
X48250Y-34750D01*
X48250Y-34750D02*
X47250Y-35750D01*
X47250Y-35750D02*
X47250Y-36750D01*
X56250Y-48000D02*
X57250Y-48000D01*
X58500Y-45500D02*
X59250Y-44750D01*
X58500Y-46000D02*
X58500Y-45500D01*
X58750Y-46250D02*
X58500Y-46000D01*
X59000Y-46500D02*
X58750Y-46250D01*
X59000Y-46750D02*
X59000Y-46500D01*
X59000Y-47250D02*
X59000Y-46750D01*
X58750Y-47500D02*
X59000Y-47250D01*
X57750Y-47500D02*
X58750Y-47500D01*
X57250Y-48000D02*
X57750Y-47500D01*
G54D25*
X50250Y-44750D02*
X50750Y-45250D01*
X51750Y-46250D02*
X52250Y-46250D01*
X50750Y-45250D02*
X51750Y-46250D01*
X52250Y-46250D02*
X53250Y-46250D01*
G54D26*
X55250Y-43750D02*
X52500Y-43750D01*
X52250Y-44000D02*
X52250Y-44750D01*
X52500Y-43750D02*
X52250Y-44000D01*
X55250Y-45750D02*
X55750Y-45750D01*
X52250Y-42250D02*
X52750Y-42750D01*
X52750Y-42750D02*
X53750Y-42750D01*
X53750Y-42750D02*
X54500Y-42000D01*
X54500Y-42000D02*
X55500Y-42000D01*
X55500Y-42000D02*
X55750Y-42000D01*
X55750Y-42000D02*
X56000Y-42000D01*
X56000Y-42000D02*
X56250Y-42250D01*
X56250Y-42250D02*
X56250Y-45250D01*
X56250Y-45250D02*
X55750Y-45750D01*
X52250Y-42250D02*
X52250Y-41750D01*
X58125Y-32405D02*
X57700Y-32830D01*
X57250Y-36250D02*
X57250Y-36750D01*
X57700Y-35800D02*
X57250Y-36250D01*
X57700Y-34550D02*
X57700Y-35800D01*
X57700Y-34500D02*
X57700Y-34550D01*
X57700Y-32830D02*
X57700Y-34500D01*
X57250Y-37250D02*
X57250Y-36750D01*
X58125Y-34095D02*
X58000Y-34220D01*
X58000Y-34220D02*
X58000Y-35250D01*
X58000Y-35250D02*
X58000Y-36000D01*
X58000Y-36000D02*
X57750Y-36250D01*
X57750Y-36250D02*
X57750Y-37500D01*
X57750Y-37500D02*
X57750Y-38750D01*
X57750Y-38750D02*
X57500Y-39000D01*
X57500Y-39000D02*
X57500Y-39500D01*
X57500Y-39500D02*
X57250Y-39750D01*
X60675Y-32405D02*
X60675Y-32575D01*
X60675Y-32575D02*
X60250Y-33000D01*
X60250Y-33000D02*
X60250Y-36750D01*
X59825Y-32405D02*
X59400Y-32830D01*
X59400Y-32830D02*
X59400Y-36600D01*
X59400Y-36600D02*
X59250Y-36750D01*
X58975Y-32405D02*
X58550Y-32830D01*
X58250Y-34750D02*
X58250Y-36750D01*
X58550Y-34450D02*
X58250Y-34750D01*
X58550Y-34400D02*
X58550Y-34450D01*
X58550Y-32830D02*
X58550Y-34400D01*
X58250Y-36750D02*
X58125Y-36625D01*
X54725Y-34095D02*
X54725Y-34475D01*
X50250Y-35750D02*
X50250Y-36750D01*
X50500Y-35500D02*
X50250Y-35750D01*
X54000Y-35500D02*
X50500Y-35500D01*
X54725Y-34775D02*
X54000Y-35500D01*
X54725Y-34475D02*
X54725Y-34775D01*
X57275Y-32405D02*
X57275Y-32975D01*
X51250Y-38750D02*
X51250Y-39750D01*
X54500Y-37750D02*
X51250Y-37750D01*
X54750Y-37500D02*
X54500Y-37750D01*
X54750Y-36250D02*
X54750Y-37500D01*
X55100Y-36250D02*
X54750Y-36250D01*
X56850Y-34500D02*
X55100Y-36250D01*
X56850Y-34100D02*
X56850Y-34500D01*
X56850Y-33400D02*
X56850Y-34100D01*
X57275Y-32975D02*
X56850Y-33400D01*
X61500Y-39500D02*
X62250Y-38750D01*
X62750Y-35750D02*
X63000Y-35750D01*
X62250Y-36250D02*
X62750Y-35750D01*
X62250Y-36750D02*
X62250Y-36250D01*
X62250Y-38750D02*
X62250Y-36750D01*
X59825Y-34095D02*
X59750Y-34170D01*
X59750Y-34170D02*
X59750Y-36250D01*
X59750Y-36250D02*
X59750Y-38750D01*
X59750Y-38750D02*
X59750Y-39250D01*
X59750Y-39250D02*
X59250Y-39750D01*
X58975Y-34095D02*
X58750Y-34320D01*
X58750Y-39250D02*
X58250Y-39750D01*
X58750Y-34320D02*
X58750Y-39250D01*
X59000Y-34120D02*
X58975Y-34095D01*
X59250Y-43750D02*
X59500Y-43750D01*
X60500Y-45250D02*
X60750Y-45250D01*
X60000Y-44750D02*
X60500Y-45250D01*
X60000Y-44250D02*
X60000Y-44750D01*
X59500Y-43750D02*
X60000Y-44250D01*
X63187Y-45250D02*
X63187Y-45563D01*
X61250Y-45250D02*
X60750Y-45250D01*
X62000Y-46000D02*
X61250Y-45250D01*
X62750Y-46000D02*
X62000Y-46000D01*
X63187Y-45563D02*
X62750Y-46000D01*
X58250Y-48000D02*
X58750Y-48000D01*
X59500Y-46000D02*
X59250Y-45750D01*
X59500Y-47250D02*
X59500Y-46000D01*
X58750Y-48000D02*
X59500Y-47250D01*
X60675Y-34095D02*
X61000Y-34420D01*
X61000Y-39000D02*
X60250Y-39750D01*
X61000Y-37750D02*
X61000Y-39000D01*
X61000Y-34420D02*
X61000Y-37750D01*
X60675Y-34095D02*
X60675Y-34175D01*
X60675Y-34175D02*
X60750Y-34250D01*
X55250Y-42750D02*
X54500Y-43500D01*
X51250Y-44000D02*
X51250Y-44750D01*
X51750Y-43500D02*
X51250Y-44000D01*
X54500Y-43500D02*
X51750Y-43500D01*
X57275Y-34095D02*
X57275Y-34725D01*
X52250Y-39250D02*
X52250Y-39750D01*
X52750Y-38750D02*
X52250Y-39250D01*
X55000Y-38750D02*
X53750Y-38750D01*
X55750Y-38000D02*
X55000Y-38750D01*
X55750Y-36250D02*
X55750Y-38000D01*
X57275Y-34725D02*
X55750Y-36250D01*
X59250Y-42750D02*
X59500Y-42750D01*
X60000Y-43500D02*
X60750Y-44250D01*
X60000Y-43250D02*
X60000Y-43500D01*
X59500Y-42750D02*
X60000Y-43250D01*
X62400Y-45250D02*
X62250Y-45250D01*
X61250Y-44250D02*
X60750Y-44250D01*
X62250Y-45250D02*
X61250Y-44250D01*
G54D25*
X63750Y-41000D02*
X63750Y-40750D01*
X63750Y-40750D02*
X64750Y-39750D01*
X62400Y-44250D02*
X62400Y-42350D01*
X62400Y-42350D02*
X63750Y-41000D01*
G54D26*
X56425Y-34095D02*
X56425Y-34325D01*
X56425Y-34325D02*
X54750Y-36000D01*
X54750Y-36000D02*
X52750Y-36000D01*
X52750Y-36000D02*
X52500Y-36000D01*
X52500Y-36000D02*
X52250Y-36250D01*
X52250Y-36250D02*
X52250Y-36750D01*
X55575Y-34095D02*
X55575Y-34425D01*
X51250Y-36000D02*
X51250Y-36750D01*
X51500Y-35750D02*
X51250Y-36000D01*
X54250Y-35750D02*
X51500Y-35750D01*
X55575Y-34425D02*
X54250Y-35750D01*
X53875Y-34095D02*
X53875Y-34625D01*
X49250Y-35750D02*
X49250Y-36750D01*
X49750Y-35250D02*
X49250Y-35750D01*
X50750Y-35250D02*
X49750Y-35250D01*
X53250Y-35250D02*
X50750Y-35250D01*
X53875Y-34625D02*
X53250Y-35250D01*
X53025Y-34095D02*
X53025Y-34475D01*
X48250Y-35750D02*
X48250Y-36750D01*
X49000Y-35000D02*
X48250Y-35750D01*
X52500Y-35000D02*
X49000Y-35000D01*
X53025Y-34475D02*
X52500Y-35000D01*
X55250Y-44750D02*
X55750Y-44750D01*
X51250Y-42250D02*
X52000Y-43000D01*
X52000Y-43000D02*
X54000Y-43000D01*
X54000Y-43000D02*
X54750Y-42250D01*
X54750Y-42250D02*
X55750Y-42250D01*
X55750Y-42250D02*
X56000Y-42500D01*
X56000Y-42500D02*
X56000Y-44250D01*
X51250Y-42250D02*
X51250Y-41750D01*
X56000Y-44500D02*
X56000Y-44250D01*
X55750Y-44750D02*
X56000Y-44500D01*
X48750Y-47750D02*
X48750Y-47250D01*
X48250Y-42750D02*
X47750Y-43250D01*
X47750Y-43250D02*
X47750Y-45750D01*
X47750Y-45750D02*
X48750Y-46750D01*
X48750Y-46750D02*
X48750Y-47250D01*
X48250Y-42750D02*
X48250Y-41750D01*
X48250Y-39750D02*
X48250Y-41750D01*
X49750Y-47750D02*
X49750Y-47250D01*
X49250Y-42750D02*
X48750Y-43250D01*
X48750Y-43250D02*
X48750Y-45750D01*
X48750Y-45750D02*
X49750Y-46750D01*
X49750Y-46750D02*
X49750Y-47250D01*
X49250Y-42750D02*
X49250Y-41750D01*
X49250Y-39750D02*
X49250Y-41750D01*
M02*
